<svg width="86" height="98" viewBox="0 0 86 98" fill="none" xmlns="http://www.w3.org/2000/svg">
<path d="M85.3561 19.8644C85.5391 19.6181 85.6064 19.3029 85.5329 19.0051L83.131 9.2682C82.9761 8.64037 82.2558 8.33257 81.6746 8.6161C59.3393 19.5122 47.5144 6.02674 44.1805 1.20489C43.7241 0.544801 42.6392 0.543461 42.1812 1.20248C38.8318 6.0225 26.9527 19.5155 4.60958 8.61432C4.02954 8.33132 3.31049 8.63729 3.15401 9.26343L0.719622 19.0045C0.645098 19.3027 0.711745 19.6185 0.894607 19.8656C1.8859 21.2049 5.05207 25.6925 5.05207 28.3738C5.05207 31.5855 4.61317 34.8096 4.56805 38.0295C4.47781 44.2848 4.91671 50.573 6.13496 56.7134C7.5665 63.9368 10.1302 70.8935 14.2566 77.0217C18.6456 83.5436 25.3111 87.4937 31.911 91.4643C33.1046 92.1821 34.3105 92.8958 35.5575 93.5193C38.9272 95.2026 41.5655 96.8882 42.6483 97.6077C42.9764 97.8257 43.3996 97.8408 43.7383 97.6396C44.8436 96.9834 47.4935 95.4137 50.7343 93.5193C53.9666 91.6325 56.8174 90.0779 59.7215 88.1377C63.3352 85.7217 67.0023 83.2975 69.8202 79.9422C72.5521 76.6935 74.6809 72.965 76.3381 69.0682C77.1954 67.0501 77.9337 64.9828 78.5613 62.8867C80.4194 56.6847 81.3136 50.212 81.5802 43.7516C81.7648 39.3544 81.6295 34.9531 81.3136 30.5642C81.2603 29.8381 81.1742 29.1039 81.1742 28.3738C81.1811 25.695 84.3622 21.2029 85.3561 19.8644Z" fill="#28C76F"/>
</svg>
