<svg width="19" height="19" viewBox="0 0 19 19" fill="none" xmlns="http://www.w3.org/2000/svg">
<path d="M1 15V9.4C1 7.17218 1.89553 5.03561 3.48959 3.4603C5.08365 1.885 7.24566 1 9.5 1C11.7543 1 13.9163 1.885 15.5104 3.4603C17.1045 5.03561 18 7.17218 18 9.4V15" stroke="#707584" stroke-linecap="round" stroke-linejoin="round"/>
<path d="M18 16C18 16.5304 17.801 17.0391 17.4468 17.4142C17.0925 17.7893 16.6121 18 16.1111 18H15.1667C14.6657 18 14.1853 17.7893 13.831 17.4142C13.4768 17.0391 13.2778 16.5304 13.2778 16V13C13.2778 12.4696 13.4768 11.9609 13.831 11.5858C14.1853 11.2107 14.6657 11 15.1667 11H18V16ZM1 16C1 16.5304 1.19901 17.0391 1.55324 17.4142C1.90748 17.7893 2.38792 18 2.88889 18H3.83333C4.3343 18 4.81474 17.7893 5.16898 17.4142C5.52321 17.0391 5.72222 16.5304 5.72222 16V13C5.72222 12.4696 5.52321 11.9609 5.16898 11.5858C4.81474 11.2107 4.3343 11 3.83333 11H1V16Z" stroke="#707584" stroke-linecap="round" stroke-linejoin="round"/>
</svg>
