<svg width="90" height="85" viewBox="0 0 90 85" fill="none" xmlns="http://www.w3.org/2000/svg">
<path d="M10.3742 11.4492H4.3412C2.67524 11.4492 1.32471 12.8585 1.32471 14.5969V80.6974C1.32471 82.4358 2.67524 83.8451 4.3412 83.8451H10.3742C12.0401 83.8451 13.3907 82.4358 13.3907 80.6974V14.5969C13.3907 12.8585 12.0401 11.4492 10.3742 11.4492Z" stroke="#EA5455" stroke-width="2" stroke-linejoin="round"/>
<path d="M15.8032 71.7839H42.3484M15.8032 35.5859H42.3484H15.8032Z" stroke="#EA5455" stroke-width="2" stroke-linecap="round" stroke-linejoin="round"/>
<path d="M39.0302 23.5176H19.1214C17.2888 23.5176 15.8032 24.9392 15.8032 26.6928V80.6722C15.8032 82.4258 17.2888 83.8474 19.1214 83.8474H39.0302C40.8628 83.8474 42.3484 82.4258 42.3484 80.6722V26.6928C42.3484 24.9392 40.8628 23.5176 39.0302 23.5176Z" stroke="#EA5455" stroke-width="2" stroke-linejoin="round"/>
<path d="M60.8502 1.79883H47.9798C46.2028 1.79883 44.7622 3.21169 44.7622 4.95454V80.6917C44.7622 82.4346 46.2028 83.8474 47.9798 83.8474H60.8502C62.6272 83.8474 64.0678 82.4346 64.0678 80.6917V4.95454C64.0678 3.21169 62.6272 1.79883 60.8502 1.79883Z" stroke="#EA5455" stroke-width="2" stroke-linejoin="round"/>
<path d="M77.4265 11.4704L69.8621 12.3066C67.78 12.5367 66.2708 14.5827 66.5049 16.851L73.0432 80.1177C73.2791 82.386 75.1721 84.0524 77.2542 83.8241L84.8186 82.988C86.9007 82.7579 88.4098 80.7119 88.1758 78.4436L81.6468 15.1867C81.4015 12.9085 79.5085 11.2403 77.4265 11.4704Z" stroke="#EA5455" stroke-width="2" stroke-linejoin="round"/>
</svg>
