<svg width="14" height="14" viewBox="0 0 14 14" fill="none" xmlns="http://www.w3.org/2000/svg">
<path d="M13.4154 11.0833C13.4154 11.3928 13.2924 11.6895 13.0737 11.9083C12.8549 12.1271 12.5581 12.25 12.2487 12.25H1.7487C1.43928 12.25 1.14253 12.1271 0.92374 11.9083C0.704948 11.6895 0.582031 11.3928 0.582031 11.0833V4.66667C0.582031 4.35725 0.704948 4.0605 0.92374 3.84171C1.14253 3.62292 1.43928 3.5 1.7487 3.5H4.08203L5.2487 1.75H8.7487L9.91536 3.5H12.2487C12.5581 3.5 12.8549 3.62292 13.0737 3.84171C13.2924 4.0605 13.4154 4.35725 13.4154 4.66667V11.0833Z" stroke="#586ED1" stroke-linecap="round" stroke-linejoin="round"/>
<path d="M7.0013 9.91667C8.28997 9.91667 9.33464 8.872 9.33464 7.58333C9.33464 6.29467 8.28997 5.25 7.0013 5.25C5.71264 5.25 4.66797 6.29467 4.66797 7.58333C4.66797 8.872 5.71264 9.91667 7.0013 9.91667Z" stroke="#586ED1" stroke-linecap="round" stroke-linejoin="round"/>
</svg>
