<svg width="18" height="18" viewBox="0 0 18 18" fill="none" xmlns="http://www.w3.org/2000/svg">
<rect x="1" y="1" width="16" height="7" rx="1" stroke="#586ED1"/>
<path d="M1 13C1 12.0572 1 11.5858 1.29289 11.2929C1.58579 11 2.05719 11 3 11H7V15C7 15.9428 7 16.4142 6.70711 16.7071C6.41421 17 5.94281 17 5 17H3C2.05719 17 1.58579 17 1.29289 16.7071C1 16.4142 1 15.9428 1 15V13Z" stroke="#586ED1"/>
<path d="M11 11H15C15.9428 11 16.4142 11 16.7071 11.2929C17 11.5858 17 12.0572 17 13V15C17 15.9428 17 16.4142 16.7071 16.7071C16.4142 17 15.9428 17 15 17H13C12.0572 17 11.5858 17 11.2929 16.7071C11 16.4142 11 15.9428 11 15V11Z" stroke="#586ED1"/>
</svg>
