<!--?xml version="1.0" standalone="no"?-->
              <svg id="sw-js-blob-svg" viewBox="0 0 100 100" xmlns="http://www.w3.org/2000/svg" version="1.1">
                    <defs> 
                        <linearGradient id="sw-gradient" x1="0" x2="1" y1="1" y2="0">
                            <stop id="stop1" stop-color="rgba(0, 213.672, 233.442, 0.44)" offset="0%"></stop>
                            <stop id="stop2" stop-color="rgba(60.734, 210.674, 142.106, 1)" offset="100%"></stop>
                        </linearGradient>
                    </defs>
                <path fill="url(#sw-gradient)" d="M19.5,-23.7C22.6,-20.6,20.5,-11.9,22.4,-3.6C24.2,4.6,29.8,12.6,28.5,17.9C27.1,23.2,18.8,25.9,11.2,27.2C3.6,28.4,-3.3,28.2,-11.4,27.1C-19.5,26,-28.9,24,-31.4,18.6C-33.9,13.3,-29.6,4.4,-25.5,-2C-21.4,-8.5,-17.7,-12.5,-13.5,-15.4C-9.3,-18.3,-4.6,-20.1,1.8,-22.2C8.2,-24.3,16.4,-26.8,19.5,-23.7Z" width="100%" height="100%" transform="translate(50 50)" stroke-width="0" style="transition: all 0.3s ease 0s;" stroke="url(#sw-gradient)"></path>
              </svg>