<svg id="visual" viewBox="0 0 900 600" width="900" height="600" xmlns="http://www.w3.org/2000/svg" xmlns:xlink="http://www.w3.org/1999/xlink" version="1.1"><path d="M0 483L21.5 465.2C43 447.3 86 411.7 128.8 413.8C171.7 416 214.3 456 257.2 474.3C300 492.7 343 489.3 385.8 471.8C428.7 454.3 471.3 422.7 514.2 420.8C557 419 600 447 642.8 447.8C685.7 448.7 728.3 422.3 771.2 405.7C814 389 857 382 878.5 378.5L900 375L900 601L878.5 601C857 601 814 601 771.2 601C728.3 601 685.7 601 642.8 601C600 601 557 601 514.2 601C471.3 601 428.7 601 385.8 601C343 601 300 601 257.2 601C214.3 601 171.7 601 128.8 601C86 601 43 601 21.5 601L0 601Z" fill="#7C7AF2" stroke-linecap="round" stroke-linejoin="miter"></path></svg>