<svg xmlns="http://www.w3.org/2000/svg" version="1.1" xmlns:xlink="http://www.w3.org/1999/xlink" xmlns:svgjs="http://svgjs.com/svgjs" width="1440" height="560" preserveAspectRatio="none" viewBox="0 0 1440 560"><g mask="url(&quot;#SvgjsMask1003&quot;)" fill="none"><path d="M39.41 638.45C187.18 618.51 265.34 279.52 513.25 276.23 761.15 272.94 750.16 346.23 987.08 346.23 1224 346.23 1341.18 276.42 1460.92 276.23" stroke="rgba(255, 255, 255, 0.58)" stroke-width="2"></path><path d="M394.12 609.89C521.67 585.44 574.77 265.93 779.66 261.72 984.55 257.51 972.43 331.72 1165.2 331.72 1357.97 331.72 1452.78 262 1550.74 261.72" stroke="rgba(255, 255, 255, 0.58)" stroke-width="2"></path><path d="M340.08 620.55C491.25 575 524.34 155.22 755.09 144.54 985.85 133.86 962.6 214.54 1170.11 214.54 1377.61 214.54 1479.9 144.78 1585.12 144.54" stroke="rgba(255, 255, 255, 0.58)" stroke-width="2"></path><path d="M899.97 610.87C1020.44 516.34 935.08 69.3 1155.28 54.09 1375.49 38.88 1534.91 170.93 1665.91 171.69" stroke="rgba(255, 255, 255, 0.58)" stroke-width="2"></path><path d="M474.72 563.78C621.89 555.67 733.37 290.61 997.01 290.27 1260.66 289.93 1384.83 418.12 1519.31 419.07" stroke="rgba(255, 255, 255, 0.58)" stroke-width="2"></path></g><defs><mask id="SvgjsMask1003"><rect width="1440" height="560" fill="#ffffff"></rect></mask></defs></svg>