<svg width="16" height="18" viewBox="0 0 16 18" fill="none" xmlns="http://www.w3.org/2000/svg">
<path d="M8 1L1 4L8 7L15 4L8 1Z" stroke="#00CFE8" stroke-width="2" stroke-linejoin="round"/>
<path fill-rule="evenodd" clip-rule="evenodd" d="M3.02545 7.04395L0.606081 8.08082C0.238397 8.2384 0 8.59993 0 8.99996C0 9.39999 0.238397 9.76153 0.606081 9.91911L7.60608 12.9191C7.85763 13.0269 8.14237 13.0269 8.39392 12.9191L15.3939 9.91911C15.7616 9.76153 16 9.39999 16 8.99996C16 8.59993 15.7616 8.2384 15.3939 8.08082L12.9746 7.04395L10.436 8.13191L12.4614 8.99996L8 10.912L3.53859 8.99996L5.56404 8.13191L3.02545 7.04395Z" fill="#00CFE8"/>
<path fill-rule="evenodd" clip-rule="evenodd" d="M3.02545 12.0439L0.606081 13.0808C0.238397 13.2384 0 13.5999 0 14C0 14.4 0.238397 14.7615 0.606081 14.9191L7.60608 17.9191C7.85763 18.0269 8.14237 18.0269 8.39392 17.9191L15.3939 14.9191C15.7616 14.7615 16 14.4 16 14C16 13.5999 15.7616 13.2384 15.3939 13.0808L12.9746 12.0439L10.436 13.1319L12.4614 14L8 15.912L3.53859 14L5.56404 13.1319L3.02545 12.0439Z" fill="#00CFE8"/>
</svg>
