<svg width="12" height="20" viewBox="0 0 12 20" fill="none" xmlns="http://www.w3.org/2000/svg">
<path d="M11.5778 1.19147C11.5778 1.054 11.5224 0.922152 11.4237 0.824943C11.325 0.727734 11.1912 0.673122 11.0516 0.673122H8.42025C7.09524 0.608112 5.79797 1.06229 4.81188 1.93642C3.82579 2.81055 3.23104 4.03357 3.15759 5.33826V8.13734H0.526266C0.386691 8.13734 0.252834 8.19195 0.15414 8.28916C0.0554458 8.38637 0 8.51821 0 8.65568V11.3511C0 11.4886 0.0554458 11.6204 0.15414 11.7176C0.252834 11.8148 0.386691 11.8694 0.526266 11.8694H3.15759V18.8153C3.15759 18.9528 3.21304 19.0846 3.31173 19.1818C3.41043 19.279 3.54429 19.3337 3.68386 19.3337H6.84145C6.98103 19.3337 7.11489 19.279 7.21358 19.1818C7.31227 19.0846 7.36772 18.9528 7.36772 18.8153V11.8694H10.1254C10.2424 11.8711 10.3566 11.8343 10.45 11.7648C10.5434 11.6953 10.6107 11.5972 10.6411 11.4859L11.3989 8.79045C11.4199 8.71387 11.4227 8.63357 11.4071 8.55574C11.3916 8.47791 11.3582 8.40463 11.3094 8.34154C11.2606 8.27844 11.1977 8.22723 11.1256 8.19182C11.0536 8.15642 10.9742 8.13778 10.8937 8.13734H7.36772V5.33826C7.3939 5.08165 7.51625 4.84387 7.71087 4.67134C7.90549 4.49882 8.15842 4.40394 8.42025 4.40523H11.0516C11.1912 4.40523 11.325 4.35062 11.4237 4.25341C11.5224 4.1562 11.5778 4.02436 11.5778 3.88688V1.19147Z" fill="#3B5998"/>
</svg>
