<svg xmlns="http://www.w3.org/2000/svg" version="1.1" xmlns:xlink="http://www.w3.org/1999/xlink" xmlns:svgjs="http://svgjs.com/svgjs" width="1440" height="260" preserveAspectRatio="none" viewBox="0 0 1440 260"><g mask="url(&quot;#SvgjsMask1003&quot;)" fill="none"><path d="M -860.6078116752748,103 C -764.61,111.2 -572.61,158.4 -380.6078116752748,144 C -188.61,129.6 -92.61,22.4 99.39218832472523,31 C 291.39,39.6 387.39,175.2 579.3921883247252,187 C 771.39,198.8 887.27,88.8 1059.3921883247253,90 C 1231.51,91.2 1363.88,172.4 1440,193" stroke="rgba(51, 121, 194, 0.58)" stroke-width="2"></path><path d="M -243.29474293454376,78 C -147.29,93.2 44.71,160.4 236.70525706545624,154 C 428.71,147.6 524.71,49.2 716.7052570654562,46 C 908.71,42.8 1004.71,132.8 1196.7052570654562,138 C 1388.71,143.2 1628.05,62.6 1676.7052570654562,72 C 1725.36,81.4 1487.34,162.4 1440,185" stroke="rgba(51, 121, 194, 0.58)" stroke-width="2"></path><path d="M -224.78317845161087,190 C -128.78,174.6 63.22,115 255.21682154838913,113 C 447.22,111 543.22,184.4 735.2168215483891,180 C 927.22,175.6 1023.22,87.6 1215.2168215483891,91 C 1407.22,94.4 1650.26,207.6 1695.2168215483891,197 C 1740.17,186.4 1491.04,69.8 1440,38" stroke="rgba(51, 121, 194, 0.58)" stroke-width="2"></path><path d="M -229.98825986790348,220 C -133.99,187.8 58.01,60.4 250.01174013209652,59 C 442.01,57.6 538.01,212.8 730.0117401320965,213 C 922.01,213.2 1018.01,72.8 1210.0117401320965,60 C 1402.01,47.2 1644.01,135.6 1690.0117401320965,149 C 1736.01,162.4 1490,131.4 1440,127" stroke="rgba(51, 121, 194, 0.58)" stroke-width="2"></path></g><defs><mask id="SvgjsMask1003"><rect width="1440" height="260" fill="#ffffff"></rect></mask></defs></svg>