<svg width="16" height="16" viewBox="0 0 16 16" fill="none" xmlns="http://www.w3.org/2000/svg">
<path d="M9.33464 1.3335H4.0013C3.64768 1.3335 3.30854 1.47397 3.05849 1.72402C2.80844 1.97407 2.66797 2.31321 2.66797 2.66683V13.3335C2.66797 13.6871 2.80844 14.0263 3.05849 14.2763C3.30854 14.5264 3.64768 14.6668 4.0013 14.6668H12.0013C12.3549 14.6668 12.6941 14.5264 12.9441 14.2763C13.1942 14.0263 13.3346 13.6871 13.3346 13.3335V5.3335L9.33464 1.3335Z" stroke="#586ED1" stroke-linecap="round" stroke-linejoin="round"/>
<path d="M9.33203 1.3335V5.3335H13.332" stroke="#586ED1" stroke-linecap="round" stroke-linejoin="round"/>
<path d="M10.6654 8.6665H5.33203" stroke="#586ED1" stroke-linecap="round" stroke-linejoin="round"/>
<path d="M10.6654 11.3335H5.33203" stroke="#586ED1" stroke-linecap="round" stroke-linejoin="round"/>
<path d="M6.66536 6H5.9987H5.33203" stroke="#586ED1" stroke-linecap="round" stroke-linejoin="round"/>
</svg>
