<svg width="38" height="55" viewBox="0 0 38 55" fill="none" xmlns="http://www.w3.org/2000/svg">
<path d="M15.6908 1.25337L1.63587 13.7871C0.593004 14.7102 0 16.031 0 17.4124V45.5997V46.934V52.3989C0 53.8342 1.17919 55 2.63103 55H35.3758C36.8276 55 38.0068 53.8342 38.0068 52.3989V46.934V45.5997V17.4124C38.0068 16.031 37.4138 14.7102 36.3709 13.7871L22.3092 1.25337C20.428 -0.41779 17.572 -0.41779 15.6908 1.25337Z" fill="#F99247"/>
<path d="M10.6399 28.7887L6.27077 28.7954L6.06629 32.569L10.1764 32.5622L10.0742 34.5703L5.96405 34.5771L5.6505 40.5744H4.00781L4.70306 26.8075L10.7422 26.8008L10.6399 28.7887Z" fill="white"/>
<path d="M17.6946 35.1362C17.8582 35.4259 17.9946 35.837 18.1104 36.3626L18.9965 40.5607H17.2311L16.2905 35.9785C16.2019 35.554 16.0519 35.2575 15.8338 35.089C15.6157 34.9205 15.3294 34.8397 14.9682 34.8397H13.3596L13.0665 40.5607H11.4102L12.1054 26.7938L16.2019 26.7871C17.1493 26.7871 17.8923 27.1173 18.4103 27.7912C18.9352 28.4583 19.1942 29.3747 19.201 30.5337C19.201 31.5917 19.0238 32.461 18.6762 33.1483C18.3217 33.8289 17.7901 34.2871 17.0812 34.523C17.3266 34.6443 17.5311 34.8464 17.6946 35.1362ZM15.8134 32.9057C17.0198 32.9057 17.6265 32.1645 17.6265 30.682C17.6265 29.3814 17.0948 28.7278 16.0315 28.7278H13.6731L13.455 32.9057H15.8134Z" fill="white"/>
<path d="M27.2918 28.747L22.7591 28.7537L22.5546 32.561L26.8283 32.5542L26.7125 34.5286L22.4455 34.5354L22.2411 38.5785L26.767 38.5717L26.6647 40.5461L20.5098 40.5529L21.205 26.786L27.3736 26.7793L27.2918 28.747Z" fill="white"/>
<path d="M35.0008 28.7411L30.4681 28.7478L30.2636 32.5551L34.5373 32.5484L34.4214 34.5228L30.1545 34.5295L29.95 38.5726L34.476 38.5659L34.3737 40.5403L28.2188 40.547L28.914 26.7802L35.0826 26.7734L35.0008 28.7411Z" fill="white"/>
<path d="M19.0029 11.3422C20.3167 11.3422 21.3817 10.2893 21.3817 8.99042C21.3817 7.69159 20.3167 6.63867 19.0029 6.63867C17.6891 6.63867 16.624 7.69159 16.624 8.99042C16.624 10.2893 17.6891 11.3422 19.0029 11.3422Z" fill="white"/>
</svg>
