<svg width="462" height="412" viewBox="0 0 462 412" fill="none" xmlns="http://www.w3.org/2000/svg">
<path d="M146.969 78.4229L142.552 79.7796L139.555 72.9015L132.866 74.1004L129.805 69.3047L127.376 70.8507L131.478 77.2555L137.819 76.1197L140.911 83.2817L147.569 81.2309L146.969 78.4229Z" fill="#50BFA5"/>
<path d="M430.579 325.687L426.162 327.043L423.197 320.165L416.476 321.364L413.416 316.568L410.986 318.114L415.088 324.519L421.43 323.383L424.522 330.545L431.179 328.495L430.579 325.687Z" fill="#50BFA5"/>
<path d="M119.709 407.087C119.709 407.087 96.1092 327.106 94.2162 309.469C92.3231 291.832 105.511 297.291 105.511 297.291C105.511 297.291 94.4055 263.657 102.451 255.675C110.465 247.693 117.722 262.585 117.722 262.585C117.722 262.585 120.151 221.758 128.701 221.758C144.634 221.726 144.319 266.276 144.319 266.276C144.319 266.276 148.389 248.828 156.939 253.624C169.812 260.818 151.355 295.776 151.355 295.776C151.355 295.776 167.761 295.776 173.535 304.074C183.852 318.871 119.709 407.087 119.709 407.087Z" fill="#50BFA5"/>
<path d="M127.439 396.484C127.439 396.484 59.4152 385.095 44.6179 373.042C29.8205 360.99 44.4601 355.563 44.4601 355.563C44.4601 355.563 10.2905 338.052 10.6691 326.126C11.0793 314.2 28.0537 320.258 28.0537 320.258C28.0537 320.258 -0.752258 287.445 6.06272 281.198C18.7462 269.587 52.0638 303.725 52.0638 303.725C52.0638 303.725 42.1884 287.476 52.6002 284.921C68.3125 281.04 79.8917 321.078 79.8917 321.078C79.8917 321.078 76.9575 305.271 87.7794 307.385C107.152 311.139 127.439 396.484 127.439 396.484Z" fill="#50BFA5"/>
<path d="M87.7479 307.385C76.8944 305.429 79.8602 321.078 79.8602 321.078C79.8602 321.078 68.2811 281.04 52.5687 284.921C42.157 287.476 52.0324 303.725 52.0324 303.725C52.0324 303.725 18.7462 269.587 6.03125 281.198L127.186 396.516C125.041 385.505 105.921 310.666 87.7479 307.385Z" fill="#3C8F7C"/>
<path d="M146.78 405.887C146.78 405.887 110.938 369.446 92.9223 365.659C74.8752 361.873 78.125 374.714 78.125 374.714C78.125 374.714 42.3148 343.416 34.0169 350.988C25.719 358.56 34.6795 365.912 34.6795 365.912C34.6795 365.912 4.86392 360.643 0.604557 370.424C-5.95802 385.473 43.072 393.645 43.072 393.645C43.072 393.645 22.5324 395.065 27.2966 404.498C34.4902 418.665 146.78 405.887 146.78 405.887Z" fill="#355389"/>
<path d="M0.604492 370.361C4.86386 360.58 34.6794 365.849 34.6794 365.849C34.6794 365.849 25.719 358.53 34.0168 350.926C42.3147 343.354 76.9891 370.393 76.9891 370.393C76.9891 370.393 68.8174 354.775 86.8645 358.561C104.912 362.347 146.78 405.856 146.78 405.856L0.604492 370.361Z" fill="#466EB6"/>
<path d="M203.823 30.0849C191.77 32.0726 188.173 47.9111 198.207 54.9785C200.005 56.2405 201.267 58.1651 201.772 60.3106L203.602 67.6619C204.107 69.6812 206.094 71.0063 208.145 70.6592L212.72 69.902C214.771 69.555 216.254 67.6935 216.064 65.6111C215.433 58.0074 214.645 55.2624 217.106 51.8549C224.331 41.948 215.875 28.0972 203.823 30.0849Z" fill="#F7CC7F"/>
<path d="M205.054 62.2679C204.265 55.7684 203.161 48.8903 202.782 46.9342C195.872 47.3128 198.491 40.0245 201.678 42.9903C202.593 43.8422 203.003 44.978 203.287 46.24C205.59 46.0192 207.83 45.3882 209.881 44.3154C209.786 42.7063 209.597 41.5074 210.07 40.4662C210.733 38.9202 212.72 38.4785 213.509 39.993C213.825 40.5609 213.856 41.2866 213.635 41.886C213.162 43.1796 211.774 44.0315 210.575 44.6941C210.954 49.8684 211.427 55.0743 212.089 60.2171L211.427 60.3117C210.796 55.2636 210.291 50.1208 209.944 45.0411C207.925 46.0507 205.716 46.6818 203.445 46.9026C203.918 49.3951 204.959 56.0839 205.685 62.2048L205.054 62.2679ZM199.501 45.3882C200.1 46.0507 201.141 46.3347 202.656 46.2716C202.403 45.1673 202.025 44.1577 201.236 43.4636C199.532 41.886 198.491 44.2839 199.501 45.3882ZM210.67 40.7186C210.291 41.5705 210.449 42.6748 210.512 43.9684C211.49 43.4005 212.657 42.7063 213.004 41.6652C213.257 40.9395 212.973 39.9299 212.247 39.7406C212.184 39.7406 210.954 40.1192 210.67 40.7186Z" fill="#FAE0B2"/>
<path d="M201.74 60.1213C201.772 60.1844 201.772 60.2475 201.803 60.3106L203.633 67.6619C204.138 69.6812 206.126 71.0063 208.177 70.6592L212.751 69.902C214.802 69.555 216.285 67.6935 216.096 65.6111C215.812 62.2352 215.496 59.8058 215.465 57.8496L201.74 60.1213Z" fill="#96D9C9"/>
<path d="M194.894 24.5945L191.265 18.0003C190.918 17.3693 191.139 16.549 191.802 16.2019C192.433 15.8549 193.253 16.0757 193.6 16.7383L197.197 23.3324C197.544 23.9634 197.323 24.7838 196.661 25.1308C196.03 25.4779 195.241 25.2255 194.894 24.5945Z" fill="#FAE0B2"/>
<path d="M187.006 40.5288L179.15 39.8347C178.425 39.7716 177.888 39.1406 177.951 38.4149C178.014 37.6892 178.645 37.1529 179.371 37.216L187.227 37.9101C187.953 37.9732 188.489 38.6042 188.426 39.3299C188.363 40.0556 187.732 40.5919 187.006 40.5288Z" fill="#FAE0B2"/>
<path d="M179.214 64.6335C178.709 64.1287 178.709 63.2768 179.214 62.772C181.138 60.8474 183.284 59.1436 185.524 57.6292C186.123 57.219 186.944 57.3768 187.354 58.0078C187.764 58.6073 187.606 59.4276 186.975 59.8377C184.861 61.2575 182.873 62.8666 181.044 64.665C180.539 65.1383 179.718 65.1383 179.214 64.6335Z" fill="#FAE0B2"/>
<path d="M214.298 24.2485C213.603 24.0592 213.193 23.3335 213.351 22.6394C214.234 19.295 214.802 15.856 214.96 12.4169C214.992 11.6912 215.623 11.1233 216.348 11.1864C217.074 11.218 217.642 11.849 217.579 12.5747C217.39 16.203 216.822 19.8314 215.875 23.3335C215.717 24.0276 214.992 24.4378 214.298 24.2485Z" fill="#FAE0B2"/>
<path d="M222.407 34.3452C222.186 33.6511 222.596 32.9254 223.29 32.7045L231.462 30.2436C232.156 30.0227 232.882 30.4329 233.102 31.127C233.323 31.8211 232.913 32.5468 232.219 32.7676L224.047 35.2286C223.353 35.4179 222.596 35.0393 222.407 34.3452Z" fill="#FAE0B2"/>
<path d="M235.816 56.0834C235.69 56.0834 235.564 56.0519 235.469 56.0203C232.629 55.2316 229.885 54.1273 227.297 52.739C226.666 52.392 226.414 51.6032 226.761 50.9722C227.108 50.3412 227.897 50.0888 228.528 50.4358C230.957 51.7294 233.544 52.7706 236.195 53.4963C236.889 53.6856 237.299 54.4112 237.11 55.1054C236.92 55.7048 236.384 56.0834 235.816 56.0834Z" fill="#FAE0B2"/>
<path d="M355.52 114.231L351.387 104.482L341.007 102.337C339.839 102.084 339.429 100.601 340.344 99.8125L348.358 92.8713L347.191 82.3649C347.064 81.166 348.358 80.3457 349.399 80.9451L358.454 86.4034L368.109 82.0178C369.213 81.513 370.412 82.4911 370.128 83.6585L367.73 93.9756L374.861 101.8C375.681 102.684 375.113 104.135 373.914 104.23L363.376 105.145L358.139 114.357C357.539 115.43 355.993 115.336 355.52 114.231Z" fill="#F7CC7F"/>
<path d="M421.146 80.7891L419.473 87.604L408.178 86.0896L404.487 95.7757L395.842 96.0281L395.968 100.382L407.516 100.067L411.018 90.8853L422.755 92.4629L425.31 82.1773L421.146 80.7891Z" fill="#F48C7F"/>
<path d="M320.625 407.971H122.296C114.724 407.971 108.571 401.598 108.571 393.742V385.286C108.571 377.43 114.724 371.057 122.296 371.057H320.656C311.569 381.342 311.412 397.055 320.277 407.529L320.625 407.971Z" fill="#B75742"/>
<path d="M317.565 375.283H207.547C199.975 375.283 193.822 381.656 193.822 389.513C193.822 397.369 199.975 403.742 207.547 403.742H317.565C312.422 395.002 312.453 383.991 317.565 375.283Z" fill="#FAE0B2"/>
<path d="M250.96 345.406C251.244 344.869 250.803 344.238 250.14 344.238H145.17C136.936 344.238 130.278 350.233 130.278 357.647C130.278 365.062 136.936 371.056 145.17 371.056H250.172C250.834 371.056 251.276 370.425 250.992 369.889C246.827 362.128 246.827 353.136 250.96 345.406Z" fill="#86B1F2"/>
<path d="M250.298 346.762H198.27C188.616 346.762 180.791 351.778 180.791 357.994C180.791 364.209 188.616 369.226 198.27 369.226H250.613C247.048 362.064 246.953 353.924 250.298 346.762Z" fill="#F7CC7F"/>
<path d="M236.858 352.062H230.074C228.623 352.062 227.424 352.567 227.424 353.167V353.261H236.826V352.062H236.858Z" fill="#B75742"/>
<path d="M242.63 354.807C242.63 353.293 240.864 352.062 238.687 352.062H229.979C231.619 352.062 232.976 352.977 232.976 354.145L232.944 383.519L237.74 379.733L242.63 383.519V354.807Z" fill="#F47458"/>
<path d="M231.651 343.292H170.6C165.174 343.292 160.788 338.086 160.788 331.65C160.788 325.214 165.174 320.008 170.6 320.008H231.651C226.982 326.444 226.792 335.909 231.21 342.63L231.651 343.292Z" fill="#FAE0B2"/>
<path d="M160.788 331.65C160.788 325.213 165.268 320.008 170.821 320.008H232.819C233.103 320.008 233.355 319.724 233.324 319.408C233.324 319.093 233.103 318.809 232.819 318.809H134.475C128.354 318.809 123.4 324.551 123.4 331.65C123.4 338.749 128.354 344.491 134.475 344.491H232.819C233.103 344.491 233.324 344.239 233.324 343.892C233.324 343.544 233.103 343.292 232.819 343.292H170.821C165.268 343.292 160.788 338.086 160.788 331.65Z" fill="#466EB6"/>
<path d="M220.986 325.717H214.203C212.752 325.717 211.553 326.19 211.553 326.789V326.884H220.955V325.717H220.986Z" fill="#184655"/>
<path d="M226.76 328.43C226.76 326.947 224.993 325.748 222.816 325.748H214.108C215.749 325.748 217.106 326.663 217.106 327.799L217.074 356.605L221.87 352.913L226.76 356.605V328.43Z" fill="#3C8F7C"/>
<path d="M328.955 147.833L337.979 145.467L331.858 226.963L321.036 227.31L326.494 150.799C326.589 149.379 327.599 148.18 328.955 147.833Z" fill="#184655"/>
<path d="M332.679 229.267C332.49 229.298 332.269 229.298 332.048 229.267C330.249 229.046 328.924 227.279 329.082 225.291L335.077 148.654C335.234 146.667 336.812 145.215 338.61 145.436C340.409 145.657 341.734 147.424 341.576 149.412L335.582 226.049C335.424 227.816 334.193 229.141 332.679 229.267Z" fill="#F7CC7F"/>
<path d="M249.7 233.337C249.7 233.4 249.7 233.463 249.7 233.495C249.984 236.619 252.414 238.953 255.095 238.701L331.228 231.886C333.909 231.633 335.897 228.92 335.613 225.797C335.613 225.67 335.582 225.544 335.55 225.418L249.7 233.337Z" fill="#F7CC7F"/>
<path d="M302.705 315.653C297.72 318.429 282.481 313.571 282.481 313.129C282.26 317.294 265.412 358.057 265.412 358.057V370.615C265.412 370.615 300.118 372.255 299.613 369.195C299.108 366.134 297.247 368.122 290.337 362.317C289.738 361.812 279.989 359.54 282.639 353.798C287.939 342.219 299.203 322.91 302.705 315.653Z" fill="#F7A491"/>
<path d="M264.307 371.056H302.294C303.651 370.93 303.998 369.794 303.493 369.131C302.483 367.743 295.227 364.43 290.305 362.253C281.786 363.263 266.799 359.982 265.411 358.025C261.814 362.853 263.518 370.898 264.307 371.056Z" fill="#3C8F7C"/>
<path d="M255.946 286.405C255.441 284.859 288.664 270.756 290.147 272.365C292.766 275.205 272.163 328.715 272.163 328.715L295.826 335.94C295.826 335.94 320.436 274.132 319.426 262.837C318.385 251.542 306.08 238.701 279.357 246.904C252.665 255.139 255.946 286.405 255.946 286.405Z" fill="#355389"/>
<path d="M324.759 322.689C319.143 321.68 311.886 321.364 306.049 321.27C306.743 326.444 310.056 353.01 309.457 354.65C306.996 361.276 301.506 364.368 301.506 364.368C301.506 364.368 327.314 387.652 328.86 384.971C330.406 382.289 327.725 382.636 326.021 373.77C325.863 372.981 322.14 360.613 321.919 353.925C321.509 341.178 324.57 329.757 324.759 322.689Z" fill="#F7A491"/>
<path d="M316.461 235.766C312.864 233.842 303.525 233.778 293.239 234.441C273.205 235.735 253.422 239.678 234.397 245.989L221.65 250.216L221.682 237.154C221.682 237.154 181.108 230.371 179.719 240.436C177.605 255.58 180.224 286.311 193.76 293.157C235.722 314.454 294.564 259.208 294.785 266.434C295.069 276.151 303.241 312.277 305.355 328.084C311.16 328.179 321.162 328.179 325.516 327.2C326.336 296.218 326.715 241.224 316.461 235.766Z" fill="#466EB6"/>
<path d="M300.749 364.903L329.744 388.061C330.88 388.819 331.858 388.156 331.89 387.336C332.016 385.632 328.45 378.47 326.053 373.674C318.827 369.036 309.299 356.952 309.457 354.586C306.428 357.173 300.244 364.304 300.749 364.903Z" fill="#3C8F7C"/>
<path d="M235.091 109.404C234.113 100.507 233.103 91.5466 225.72 85.0471C219.757 79.7781 212.153 78.8631 204.644 81.7027C183.347 89.6851 194.327 108.584 167.193 127.641C158.769 133.572 149.462 137.611 143.12 145.593C134.223 156.762 137.598 170.171 145.676 179.132C184.42 222.009 227.676 164.114 230.8 150.2C233.103 139.882 235.722 115.147 235.091 109.404Z" fill="#13375B"/>
<path d="M227.235 159.477C224.08 153.64 220.799 149.002 220.799 149.002C217.518 143.165 209.03 140.199 209.03 140.199C209.03 140.199 206.191 140.262 202.941 140.42C202.752 140.956 202.531 141.335 202.342 141.493C201.111 142.408 194.107 141.24 189.564 144.301C174.388 157.331 178.584 220.433 179.783 240.373L226.036 240.815C226.036 240.815 220.199 197.906 229.602 186.894C236.133 179.259 231.936 168.153 227.235 159.477Z" fill="#50BFA5"/>
<path d="M206.38 118.871C206.38 118.871 203.824 137.044 202.058 141.461C200.291 145.878 211.838 155.312 221.43 158.183C231.021 161.054 218.496 148.434 218.906 143.701C219.316 138.969 221.051 116.631 221.051 116.631L206.38 118.871Z" fill="#F7A491"/>
<path d="M220.546 123.067C220.83 119.375 221.019 116.662 221.019 116.662L206.348 118.902C206.348 118.902 205.97 121.048 205.56 124.045C211.523 127.484 216.886 126.38 220.546 123.067Z" fill="#F47458"/>
<path d="M210.955 85.7098C210.955 85.7098 205.181 87.0034 201.616 92.4617C198.051 97.92 195.59 113.916 207.358 121.425C219.095 128.903 228.245 118.333 228.403 108.016C228.56 97.6676 226.32 83.8798 210.955 85.7098Z" fill="#F7A491"/>
<path d="M226.658 108.21C228.113 108.796 230.105 107.252 231.107 104.763C232.109 102.273 231.741 99.7806 230.287 99.1951C228.832 98.6095 226.84 100.153 225.838 102.642C224.836 105.132 225.203 107.625 226.658 108.21Z" fill="#F7A491"/>
<path d="M212.69 85.3632C212.69 85.3632 205.339 101.896 198.839 103.347C192.371 104.83 192.466 113.128 192.466 113.128C192.466 113.128 192.624 93.945 198.681 89.5279C204.771 85.1423 212.69 85.3632 212.69 85.3632Z" fill="#13375B"/>
<path d="M199.691 112.738C201.502 112.163 202.277 109.516 201.422 106.825C200.568 104.135 198.408 102.42 196.598 102.995C194.788 103.569 194.013 106.216 194.867 108.907C195.721 111.597 197.881 113.312 199.691 112.738Z" fill="#F7A491"/>
<path d="M284.185 226.08C281.408 225.071 277.275 224.944 277.338 224.597C277.622 223.114 289.864 227.879 288.223 225.702C287.308 224.503 278.127 220.243 275.887 220.937C273.71 221.632 259.512 225.607 259.512 225.607L220.673 216.489C220.673 216.489 210.86 194.214 209.914 175.062C201.805 176.167 196.284 178.154 189.248 182.067C192.656 200.366 200.89 230.056 210.04 235.609C213.889 237.943 259.733 232.801 259.733 232.801C259.733 232.801 269.829 232.075 271.501 231.444C272.763 230.971 275.981 229.141 277.717 228.636C281.692 227.5 288.791 230.34 288.822 229.551C288.822 229.014 287.024 227.09 284.185 226.08Z" fill="#F7A491"/>
<path d="M210.166 154.616C209.787 148.716 207.547 143.037 201.3 141.207C197.42 140.071 193.066 141.144 189.942 143.7C186.251 146.729 185.209 151.556 185.241 156.131C185.272 166.542 185.998 177.301 187.891 187.555C194.927 183.643 203.162 181.308 211.27 180.204C211.239 180.109 210.639 162.409 210.166 154.616Z" fill="#96D9C9"/>
<path d="M89.8303 165.723L29.5997 154.523C28.4008 154.302 27.5804 153.134 27.8329 151.936L35.3735 111.393C35.5944 110.194 36.7617 109.373 37.9607 109.626L98.1912 120.826C99.3902 121.047 100.21 122.215 99.9581 123.414L92.4174 163.956C92.1966 165.155 91.0292 165.944 89.8303 165.723Z" fill="#F7CC7F"/>
<path d="M61.1505 119.407L42.8194 115.999C41.6205 115.779 40.8002 114.611 41.0526 113.412L42.1884 107.26C42.4093 106.061 43.5766 105.241 44.7756 105.493L63.1066 108.901C64.3055 109.121 65.1259 110.289 64.8735 111.488L63.7376 117.64C63.5168 118.839 62.3494 119.628 61.1505 119.407Z" fill="#F7CC7F"/>
<path d="M92.5438 164.178C92.2283 165.282 91.124 165.976 89.9882 165.755L29.379 154.46C28.2432 154.239 27.4544 153.23 27.5806 152.062L30.7673 115.747C30.8304 115.116 31.1459 114.548 31.6507 114.17C32.1555 113.791 32.7865 113.633 33.4175 113.76L100.747 126.285C101.378 126.411 101.914 126.759 102.23 127.295C102.545 127.831 102.64 128.462 102.482 129.062L92.5438 164.178Z" fill="#FAE0B2"/>
<path d="M368.74 31.5063L358.454 34.3143L356.214 21.8202L359.59 21.2207L361.167 30.0234L367.856 28.1934L368.74 31.5063Z" fill="#50BFA5"/>
<path d="M40.2324 203.112C42.8196 202.891 46.795 204.027 48.5618 205.257C48.8142 205.51 50.8651 206.33 53.0105 209.832L52.5372 210.148C50.2971 207.813 48.7827 207.276 46.9843 206.74C44.0185 205.983 41.0527 206.551 40.8003 206.677L40.2324 203.112Z" fill="#355389"/>
<path d="M52.758 209.989C52.758 209.989 37.0141 212.607 38.497 224.912C39.9799 237.217 56.5756 246.777 71.373 239.173C91.3131 228.951 83.4254 202.953 69.2591 200.934C55.0612 198.914 52.758 209.989 52.758 209.989Z" fill="#F47458"/>
<path d="M59.4466 204.594C59.4466 204.594 63.5482 200.366 72.5402 204.215C81.5322 208.065 82.1947 225.922 74.1493 224.881C66.1354 223.84 53.0102 207.15 59.4466 204.594Z" fill="#F48C7F"/>
<path d="M167.666 41.2867L102.956 64.3819C100.873 65.1391 98.57 64.0349 97.8443 61.9525L85.8865 28.4455C85.1293 26.3631 86.2336 24.0599 88.3159 23.3343L153.027 0.239046C155.109 -0.518174 157.412 0.586105 158.138 2.66846L170.096 36.1439C170.853 38.2578 169.749 40.5295 167.666 41.2867Z" fill="#86B1F2"/>
<path d="M112.706 49.8048C119.781 49.8048 125.516 44.0698 125.516 36.9952C125.516 29.9206 119.781 24.1855 112.706 24.1855C105.632 24.1855 99.8965 29.9206 99.8965 36.9952C99.8965 44.0698 105.632 49.8048 112.706 49.8048Z" fill="white"/>
<path d="M110.971 35.955C113.062 35.955 114.757 34.2599 114.757 32.1689C114.757 30.0779 113.062 28.3828 110.971 28.3828C108.88 28.3828 107.185 30.0779 107.185 32.1689C107.185 34.2599 108.88 35.955 110.971 35.955Z" fill="#86B1F2"/>
<path d="M120.688 41.4439L109.298 45.514L108.857 44.252C108.036 41.9172 109.235 39.3616 111.57 38.5413L114.504 37.5001C116.839 36.6798 119.395 37.8787 120.215 40.2134L120.688 41.4439Z" fill="#86B1F2"/>
<path d="M126.367 25.6702C125.673 25.6702 125.073 25.2285 124.821 24.5975C124.505 23.7456 124.947 22.7991 125.799 22.5151L154.1 12.4189C154.289 12.3558 154.447 12.3242 154.636 12.3242C155.33 12.3242 155.93 12.7659 156.182 13.3969C156.498 14.2488 156.056 15.1953 155.204 15.4793L126.903 25.5756C126.745 25.6387 126.556 25.6702 126.367 25.6702Z" fill="white"/>
<path d="M134.002 32.7371C133.308 32.7371 132.709 32.2953 132.456 31.6643C132.141 30.8125 132.583 29.8659 133.435 29.582L155.52 21.6943C155.709 21.6312 155.867 21.5996 156.057 21.5996C156.751 21.5996 157.35 22.0413 157.602 22.6723C157.76 23.0825 157.729 23.5242 157.539 23.9344C157.35 24.3445 157.035 24.6285 156.624 24.7862L134.539 32.674C134.381 32.7055 134.192 32.7371 134.002 32.7371Z" fill="white"/>
<path d="M268.219 293.852H111.979C107.12 293.852 103.208 297.795 103.208 302.623V310.006C103.208 314.864 107.152 318.777 111.979 318.777H268.219L268.124 318.682C261.467 311.772 261.499 300.761 268.219 293.852Z" fill="#F47458"/>
<path d="M265.442 297.543H181.927C177.069 297.543 173.156 301.487 173.156 306.314C173.156 311.173 177.1 315.085 181.927 315.085H265.442C262.382 309.69 262.382 302.97 265.442 297.543Z" fill="#FAE0B2"/>
<path d="M396.094 294.576L384.263 264.855C383.663 263.372 384.389 261.669 385.903 261.069L428.529 244.095C430.012 243.495 431.715 244.221 432.315 245.735L444.146 275.456C444.746 276.939 444.02 278.643 442.506 279.242L399.88 296.217C398.398 296.785 396.694 296.059 396.094 294.576Z" fill="#FAE0B2"/>
<path d="M436.321 277.382L425.689 250.69C425.531 250.248 425.72 249.775 426.162 249.617C426.604 249.46 427.077 249.649 427.235 250.091L437.867 276.783C438.025 277.224 437.836 277.698 437.394 277.855C436.952 278.013 436.479 277.824 436.321 277.382Z" fill="#466EB6"/>
<path d="M431.242 273.88L422.502 251.952C422.344 251.51 422.534 251.037 422.975 250.879C423.417 250.721 423.89 250.911 424.048 251.352L432.788 273.28C432.946 273.722 432.756 274.195 432.315 274.353C431.904 274.511 431.4 274.29 431.242 273.88Z" fill="#466EB6"/>
<path d="M429.98 279.906L419.347 253.214C419.189 252.772 419.378 252.299 419.82 252.141C420.262 251.983 420.735 252.172 420.893 252.614L431.526 279.306C431.683 279.748 431.494 280.221 431.052 280.379C430.642 280.537 430.137 280.347 429.98 279.906Z" fill="#466EB6"/>
<path d="M424.364 275.078L416.16 254.475C416.003 254.034 416.192 253.56 416.634 253.403C417.075 253.245 417.549 253.434 417.706 253.876L425.91 274.479C426.067 274.92 425.878 275.394 425.436 275.551C425.026 275.709 424.553 275.52 424.364 275.078Z" fill="#466EB6"/>
<path d="M436.006 247.851L435.785 247.315C435.69 247.125 435.501 247.031 435.312 247.094L431.273 248.703C431.084 248.766 430.989 248.987 431.084 249.208L431.305 249.744C431.4 249.933 431.589 250.028 431.778 249.965L435.817 248.356C436.006 248.261 436.101 248.04 436.006 247.851Z" fill="#355389"/>
<path d="M436.921 250.12L436.7 249.584C436.605 249.395 436.416 249.3 436.227 249.363L432.188 250.972C431.999 251.035 431.904 251.256 431.999 251.477L432.22 252.013C432.315 252.203 432.504 252.297 432.693 252.234L436.732 250.625C436.921 250.562 437.016 250.341 436.921 250.12Z" fill="#355389"/>
<path d="M437.867 252.425L437.646 251.889C437.583 251.699 437.362 251.605 437.173 251.668L433.135 253.277C432.945 253.34 432.851 253.561 432.945 253.782L433.166 254.318C433.261 254.507 433.45 254.602 433.639 254.539L437.678 252.93C437.836 252.867 437.93 252.646 437.867 252.425Z" fill="#355389"/>
<path d="M438.782 254.728L438.561 254.191C438.467 254.002 438.277 253.908 438.088 253.971L434.05 255.58C433.86 255.643 433.766 255.864 433.86 256.085L434.081 256.621C434.176 256.81 434.365 256.905 434.555 256.842L438.593 255.233C438.751 255.138 438.845 254.917 438.782 254.728Z" fill="#355389"/>
<path d="M439.696 257.031L439.476 256.494C439.381 256.305 439.192 256.21 439.002 256.273L434.964 257.882C434.774 257.946 434.68 258.166 434.774 258.387L434.995 258.924C435.09 259.113 435.279 259.208 435.469 259.144L439.507 257.535C439.665 257.441 439.759 257.22 439.696 257.031Z" fill="#355389"/>
<path d="M440.611 259.335L440.391 258.799C440.296 258.61 440.107 258.515 439.917 258.578L435.879 260.187C435.689 260.25 435.595 260.471 435.689 260.692L435.91 261.228C436.005 261.418 436.194 261.512 436.384 261.449L440.422 259.84C440.58 259.745 440.675 259.525 440.611 259.335Z" fill="#355389"/>
<path d="M441.527 261.638L441.307 261.102C441.212 260.912 441.023 260.818 440.833 260.881L436.795 262.49C436.605 262.553 436.511 262.774 436.605 262.995L436.826 263.531C436.921 263.72 437.11 263.815 437.3 263.752L441.338 262.143C441.527 262.048 441.591 261.827 441.527 261.638Z" fill="#355389"/>
<path d="M442.442 263.941L442.222 263.404C442.127 263.215 441.938 263.12 441.748 263.184L437.71 264.793C437.521 264.856 437.426 265.077 437.521 265.297L437.741 265.834C437.836 266.023 438.025 266.118 438.215 266.055L442.253 264.446C442.442 264.351 442.506 264.13 442.442 263.941Z" fill="#355389"/>
<path d="M443.358 266.243L443.137 265.707C443.042 265.518 442.853 265.423 442.663 265.486L438.625 267.095C438.436 267.158 438.341 267.379 438.436 267.6L438.656 268.137C438.751 268.326 438.94 268.42 439.13 268.357L443.168 266.748C443.357 266.654 443.421 266.433 443.358 266.243Z" fill="#355389"/>
<path d="M444.272 268.548L444.051 268.012C443.956 267.823 443.767 267.728 443.577 267.791L439.539 269.4C439.35 269.463 439.255 269.684 439.35 269.905L439.571 270.441C439.665 270.631 439.854 270.725 440.044 270.662L444.082 269.053C444.272 268.958 444.335 268.737 444.272 268.548Z" fill="#355389"/>
<path d="M445.187 270.82L444.966 270.283C444.903 270.094 444.682 269.999 444.492 270.062L440.454 271.672C440.265 271.735 440.17 271.955 440.265 272.176L440.486 272.713C440.58 272.902 440.769 272.997 440.959 272.934L444.997 271.324C445.187 271.261 445.25 271.041 445.187 270.82Z" fill="#355389"/>
<path d="M446.102 273.122L445.881 272.586C445.786 272.397 445.597 272.302 445.408 272.365L441.369 273.974C441.18 274.037 441.085 274.258 441.18 274.479L441.401 275.015C441.464 275.205 441.685 275.299 441.874 275.236L445.912 273.627C446.102 273.564 446.196 273.343 446.102 273.122Z" fill="#355389"/>
<path d="M457.271 270.756L440.36 294.83C440.328 294.893 440.297 294.956 440.265 295.019L438.53 300.319C438.341 300.95 439.035 301.455 439.571 301.045L444.083 297.638C444.146 297.606 444.177 297.543 444.241 297.48L461.215 273.343C461.436 273.028 461.341 272.618 461.026 272.397L458.186 270.567C457.871 270.409 457.492 270.472 457.271 270.756Z" fill="#B75742"/>
<path d="M444.24 297.512L444.208 297.575L439.854 300.856L438.655 300.067L440.296 295.051C441.558 295.745 443.072 296.471 444.24 297.512Z" fill="#F7CC7F"/>
<path d="M285.92 10.0195C288.35 11.9757 292.577 18.2227 298.004 22.6083C301.159 25.1639 303.589 24.5329 307.627 25.0062C326.778 27.3094 321.573 31.2217 323.876 31.6319C323.213 33.1463 317.25 45.7982 316.146 48.3854C315.105 50.7517 313.338 51.7928 310.751 51.4458C306.807 50.9094 302.8 50.4993 298.888 49.6474C288.886 47.4704 283.333 42.4853 276.171 36.4276C274.278 34.8185 273.805 32.7992 274.783 30.5276C279.389 19.8949 285.415 10.9976 285.92 10.0195Z" fill="#466EB6"/>
<path d="M325.957 46.8706C325.863 51.0353 326.178 51.8871 324.412 51.2561C323.339 50.8775 322.298 50.3727 321.256 49.8679C320.531 49.4893 320.499 49.016 321.099 48.4166C321.951 47.5647 322.834 46.7444 323.686 45.8925C323.055 44.2518 323.78 42.3588 325.295 41.4438C325.61 41.2545 325.39 41.6331 328.04 35.5123C319.237 34.4395 312.99 33.6823 302.231 32.3572C299.36 32.0101 296.804 30.8743 294.564 29.0128C286.866 22.5764 279.199 16.14 271.532 9.73523C270.491 8.8518 270.365 7.58977 271.185 6.61169C271.816 5.85447 272.668 5.82292 273.552 5.94912C276.013 6.26463 300.086 9.26196 302.515 9.54592C305.733 9.92453 308.541 11.1235 311.034 13.2058C318.575 19.516 326.147 25.8262 333.719 32.1363C334.76 32.9882 335.044 33.8085 334.666 34.755C334.255 35.8278 333.403 36.3326 332.078 36.0171C331.132 35.7962 330.69 36.1117 330.375 36.9952C328.892 40.9706 327.851 41.854 328.229 43.3369C328.482 44.4412 327.156 46.3658 325.957 46.8706Z" fill="#86B1F2"/>
<path d="M365.869 330.293L370.255 334.489C380.635 344.396 389.091 356.102 395.211 369.069L395.874 370.489C395.874 370.489 407.359 371.498 408.968 361.118C398.903 349.728 390.605 337.581 383.758 324.078L381.676 319.219L365.869 330.293Z" fill="#466EB6"/>
<path d="M381.676 319.218C382.244 320.038 379.152 323.162 374.798 326.191C370.444 329.219 366.405 331.081 365.869 330.261C365.301 329.44 368.393 326.285 372.779 323.256C377.133 320.196 381.108 318.397 381.676 319.218Z" fill="#86B1F2"/>
<path d="M381.708 319.25C381.708 319.25 372.937 326.633 369.34 327.39L370.444 328.905C371.769 328.179 373.252 327.264 374.798 326.191C379.121 323.162 382.181 320.102 381.708 319.25Z" fill="#355389"/>
<path d="M393.382 340.734C393.382 341.996 392.909 347.518 383.759 349.821C384.358 350.641 384.958 351.462 385.526 352.314C391.331 350.61 393.918 347.612 395.117 345.341C395.306 344.994 395.527 344.489 395.685 344.142C394.896 343.006 394.139 341.87 393.382 340.734Z" fill="#B75742"/>
<path d="M384.579 348.18L371.075 347.707L374.293 350.42L372.369 353.859L385.147 350.61L384.579 348.18Z" fill="#B75742"/>
<path d="M385.809 351.305L381.014 359.666L384.39 358.372L385.683 361.022L387.923 352.251L385.809 351.305Z" fill="#B75742"/>
<path d="M383.038 349.467C383.21 351.9 385.266 353.737 387.629 353.57C389.993 353.403 391.77 351.295 391.598 348.861C391.426 346.428 389.37 344.591 387.006 344.758C384.642 344.925 382.865 347.033 383.038 349.467Z" fill="#F47458"/>
<path d="M416.256 164.208L387.86 138.873C386.03 137.232 386.788 133.824 389.343 132.405L411.997 119.563C413.448 118.743 415.089 118.806 416.13 119.753L444.526 145.088C446.356 146.729 445.598 150.136 443.043 151.556L420.389 164.397C418.938 165.218 417.297 165.154 416.256 164.208Z" fill="#9BC1F9"/>
<path d="M414.899 144.047L412.532 124.581C412.438 123.823 412.974 123.035 413.731 122.814C414.488 122.561 415.183 123.003 415.277 123.729L417.454 141.65L438.972 146.855C439.666 147.013 440.013 147.77 439.698 148.559C439.382 149.316 438.593 149.79 437.868 149.632L414.899 144.047Z" fill="white"/>
<path d="M44.1137 54.8848L47.0479 60.6901L53.6736 60.4693L56.4816 67.2211L63.4859 64.8233L67.0196 72.3008L73.7399 70.881L78.3148 77.5067L75.7907 79.242L72.3832 74.2885L65.2843 75.7714L61.9083 68.5778L54.7778 71.0388L51.6543 63.5928L45.1864 63.8137L42.473 58.4185L38.2452 59.4596L37.5195 56.4939L44.1137 54.8848Z" fill="#F7CC7F"/>
<path d="M399.218 203.426L405.244 205.887L410.103 201.344L416.666 204.594L420.357 198.157L427.929 201.502L432.062 196.012L439.887 197.999L439.13 200.965L433.293 199.482L428.939 205.256L421.651 202.069L417.896 208.569L410.639 205.035L405.907 209.421L400.322 207.149L397.798 210.714L395.306 208.948L399.218 203.426Z" fill="#50BFA5"/>
</svg>
