
<svg width="24" height="24" viewBox="0 0 48 48" fill="none" xmlns="http://www.w3.org/2000/svg">
<path d="M2 4C2 2.89543 2.89543 2 4 2H15C16.1046 2 17 2.89543 17 4V5C17 6.10457 16.1046 7 15 7H9C7.89543 7 7 7.89543 7 9V15C7 16.1046 6.10457 17 5 17H4C2.89543 17 2 16.1046 2 15V4Z" fill="#fff"/>
<path d="M2 44C2 45.1046 2.89543 46 4 46H15C16.1046 46 17 45.1046 17 44V43C17 41.8954 16.1046 41 15 41H9C7.89543 41 7 40.1046 7 39V33C7 31.8954 6.10457 31 5 31H4C2.89543 31 2 31.8954 2 33V44Z" fill="#fff"/>
<path d="M46 4C46 2.89543 45.1046 2 44 2H33C31.8954 2 31 2.89543 31 4V5C31 6.10457 31.8954 7 33 7H39C40.1046 7 41 7.89543 41 9V15C41 16.1046 41.8954 17 43 17H44C45.1046 17 46 16.1046 46 15V4Z" fill="#fff"/>
<path d="M46 44C46 45.1046 45.1046 46 44 46H33C31.8954 46 31 45.1046 31 44V43C31 41.8954 31.8954 41 33 41H39C40.1046 41 41 40.1046 41 39V33C41 31.8954 41.8954 31 43 31H44C45.1046 31 46 31.8954 46 33V44Z" fill="#fff"/>
</svg>
