<svg width="433" height="294" viewBox="0 0 433 294" fill="none" xmlns="http://www.w3.org/2000/svg">
<path d="M9.60725 254.839C20.3484 232.114 18.3262 233.241 13.3037 212.72C8.28118 192.199 -0.785834 137.863 24.7079 93.2412C50.2016 48.6189 82.7401 42.9333 98.5037 48.3039C114.267 53.6745 127.014 62.3934 154.182 48.967C181.35 35.5405 248.433 -4.02614 298.077 19.1138C347.722 42.2537 327.151 80.9253 344.589 97.3685C362.027 113.812 403.069 118.072 415.816 157.97C428.563 197.868 407.428 285.588 359.474 290.875L24.741 293.146C24.7079 293.163 -1.11735 277.565 9.60725 254.839Z" fill="#FEEFDC"/>
<path d="M311.902 70.9783C311.902 47.9046 293.204 29.207 270.131 29.207C247.057 29.207 228.359 47.9046 228.359 70.9783C228.359 82.4156 232.967 92.7921 240.41 100.334C240.41 100.334 253.057 113.86 257.317 128.596C257.317 128.596 264.611 131.082 270.131 131.215C275.634 131.082 282.944 128.596 282.944 128.596C287.22 113.86 299.851 100.334 299.851 100.334C307.294 92.7921 311.902 82.4322 311.902 70.9783Z" fill="#FECC86"/>
<path d="M270.131 153.146C266.55 153.146 263.633 150.245 263.633 146.648H276.612C276.612 150.229 273.711 153.146 270.131 153.146Z" fill="#4CB7D8"/>
<path d="M271.839 148.422H268.408C261.661 148.422 256.191 142.952 256.191 136.206V125.266H284.039V136.206C284.055 142.952 278.585 148.422 271.839 148.422Z" fill="#4CB7D8"/>
<path opacity="0.3" d="M311.9 70.9779C311.9 62.4247 309.33 54.4849 304.921 47.8711C292.705 77.9729 273.211 98.2286 245.148 106.069C248.679 110.71 253.37 117.689 256.205 125.264H284.035C289.041 111.887 299.832 100.334 299.832 100.334C307.291 92.7917 311.9 82.4318 311.9 70.9779Z" fill="#FECC86"/>
<path d="M276.956 125.428L275.763 125.097C275.796 124.947 279.691 110.626 282.393 95.9562C287.084 70.4956 284.382 65.1085 282.36 64.1471C280.288 63.1691 278.664 63.3514 277.52 64.6609C277.437 64.7604 277.354 64.8598 277.288 64.9593C280.205 66.6832 280.918 69.3188 281.084 70.3962C281.548 73.3467 280.222 76.2972 278.133 76.9768C277.619 77.1426 276.658 77.2255 275.813 75.9491C274.47 73.9269 274.056 68.8712 275.547 65.5063C274.105 64.9261 272.365 64.6112 270.359 64.6112H269.149C267.143 64.6112 265.403 64.9261 263.961 65.5063C265.453 68.8712 265.038 73.9269 263.696 75.9491C262.85 77.2255 261.889 77.1426 261.375 76.9768C259.286 76.3138 257.96 73.3633 258.424 70.3962C258.59 69.3188 259.303 66.6832 262.22 64.9593C262.137 64.8598 262.071 64.7604 261.988 64.6609C260.845 63.3349 259.22 63.1691 257.148 64.1471C255.126 65.0919 252.424 70.4956 257.115 95.9562C259.817 110.626 263.712 124.947 263.745 125.097L262.552 125.428C262.519 125.279 258.607 110.924 255.888 96.1883C252.142 75.8662 252.374 65.0256 256.618 63.0365C259.9 61.4949 261.856 62.6387 262.917 63.8653C263.066 64.031 263.198 64.23 263.331 64.4123C264.79 63.7824 266.679 63.3846 269.132 63.3846H270.343C272.796 63.3846 274.685 63.7824 276.144 64.4123C276.277 64.2134 276.409 64.031 276.558 63.8653C277.619 62.6387 279.575 61.4949 282.857 63.0365C287.084 65.0256 287.316 75.8662 283.587 96.1883C280.901 110.908 276.989 125.279 276.956 125.428ZM262.867 66.0699C261.11 67.0976 259.983 68.6391 259.684 70.5951C259.286 73.1809 260.447 75.369 261.789 75.7999C261.922 75.8331 262.253 75.9491 262.701 75.2695C263.828 73.5456 264.127 68.9872 262.867 66.0699ZM276.675 66.0699C275.398 68.9872 275.713 73.5456 276.857 75.2695C277.304 75.9491 277.636 75.8331 277.769 75.7999C279.111 75.369 280.271 73.1809 279.874 70.5951C279.542 68.6391 278.432 67.0976 276.675 66.0699Z" fill="#F99247"/>
<path d="M255.99 125.563C255.658 124.618 255.509 124.27 255.178 123.491L254.995 123.077C249.774 110.893 240.276 100.65 240.177 100.55L240.143 100.517C232.336 92.5937 228.043 82.1012 228.043 70.9788C228.043 47.7725 246.923 28.8926 270.129 28.8926C284.368 28.8926 297.546 36.0202 305.353 47.9548L304.839 48.2864C297.148 36.5341 284.169 29.5059 270.129 29.5059C247.271 29.5059 228.673 48.104 228.673 70.9622C228.673 81.9354 232.916 92.2953 240.641 100.103L241.038 100.517H241.005C242.829 102.556 250.901 111.905 255.559 122.812L255.741 123.226C256.073 124.005 256.222 124.353 256.57 125.331L255.99 125.563Z" fill="#21111D"/>
<path d="M240.956 51.6984L240.359 51.5326C240.393 51.4331 243.476 41.1395 253.869 37.2773L254.084 37.8575C244.006 41.6036 240.989 51.5989 240.956 51.6984Z" fill="#21111D"/>
<path d="M242.878 55.4152L242.281 55.2494C242.314 55.1499 245.398 44.8563 255.791 40.9941L256.006 41.5743C245.911 45.337 242.911 55.3157 242.878 55.4152Z" fill="#21111D"/>
<path d="M271.638 148.735H268.604C261.593 148.735 255.891 143.033 255.891 136.021V124.965H284.053V125.578H256.52V136.021C256.52 142.684 261.941 148.121 268.621 148.121H271.654C274.853 148.121 277.854 146.895 280.141 144.64L280.572 145.088C278.169 147.442 275.003 148.735 271.638 148.735Z" fill="#21111D"/>
<path d="M270.295 153.459C264.261 153.459 263.383 147.608 263.383 147.542L263.996 147.459C264.029 147.691 264.825 152.962 270.494 152.83L270.51 153.443C270.444 153.443 270.378 153.459 270.295 153.459Z" fill="#21111D"/>
<path d="M298.771 94.3679L298.406 93.8707C303.926 89.7764 304.788 82.9472 304.788 82.8809L305.401 82.9472C305.401 83.03 304.506 90.1245 298.771 94.3679Z" fill="#21111D"/>
<path d="M297.56 91.4019L297.195 90.9046C301.207 87.9209 301.853 82.9482 301.853 82.8984L302.466 82.9647C302.433 83.1802 301.787 88.2525 297.56 91.4019Z" fill="#21111D"/>
<path d="M254.91 130.835V130.222C255.142 130.222 278.63 129.907 286.073 127.139L286.288 127.719C278.746 130.52 255.888 130.819 254.91 130.835Z" fill="#21111D"/>
<path d="M254.911 136.072L254.895 135.459C255.143 135.459 280.637 134.945 285.394 132.393L285.693 132.94C280.803 135.559 255.972 136.039 254.911 136.072Z" fill="#21111D"/>
<path d="M256.203 141.442V140.829C256.435 140.829 279.293 140.58 285.426 137.414L285.708 137.961C279.443 141.193 257.148 141.425 256.203 141.442Z" fill="#21111D"/>
<path d="M217.718 64.4136C217.685 64.4136 217.669 64.4136 217.635 64.4136L202.85 63.1538C202.336 63.1041 201.955 62.6566 202.004 62.1427C202.054 61.6288 202.502 61.2476 203.015 61.2973L217.801 62.5571C218.315 62.6068 218.696 63.0544 218.647 63.5682C218.597 64.0489 218.182 64.4136 217.718 64.4136Z" fill="#FECC86"/>
<path d="M225.359 40.862C225.177 40.862 224.995 40.8122 224.829 40.6962L212.579 32.3254C212.148 32.0436 212.049 31.4634 212.331 31.0325C212.612 30.6015 213.193 30.502 213.624 30.7838L225.873 39.1546C226.304 39.4364 226.404 40.0166 226.122 40.4476C225.94 40.7128 225.658 40.862 225.359 40.862Z" fill="#FECC86"/>
<path d="M247.488 23.9701C247.123 23.9701 246.775 23.7546 246.626 23.3899L241.04 9.6485C240.841 9.1678 241.073 8.63737 241.554 8.43846C242.035 8.23955 242.565 8.47162 242.764 8.95232L248.35 22.6937C248.549 23.1744 248.317 23.7049 247.836 23.9038C247.72 23.9535 247.604 23.9701 247.488 23.9701Z" fill="#FECC86"/>
<path d="M321.813 67.0826C321.332 67.0826 320.918 66.7013 320.885 66.2206C320.852 65.7068 321.233 65.2592 321.747 65.2261L336.549 64.2481C337.063 64.2149 337.51 64.5962 337.544 65.11C337.577 65.6239 337.195 66.0714 336.682 66.1046L321.879 67.0826C321.846 67.0826 321.83 67.0826 321.813 67.0826Z" fill="#FECC86"/>
<path d="M314.62 43.3962C314.322 43.3962 314.023 43.247 313.841 42.9818C313.559 42.5508 313.675 41.9706 314.106 41.6888L326.505 33.5501C326.936 33.2683 327.516 33.3843 327.798 33.8153C328.08 34.2463 327.964 34.8264 327.533 35.1082L315.134 43.247C314.968 43.3464 314.786 43.3962 314.62 43.3962Z" fill="#FECC86"/>
<path d="M295.673 23.9176C295.557 23.9176 295.424 23.901 295.308 23.8347C294.844 23.6358 294.612 23.0888 294.827 22.6081L300.678 8.96611C300.877 8.50199 301.424 8.26993 301.905 8.48541C302.369 8.68433 302.601 9.23133 302.386 9.71203L296.535 23.354C296.369 23.7021 296.037 23.9176 295.673 23.9176Z" fill="#FECC86"/>
<path d="M271.839 16.6919C271.308 16.6919 270.894 16.2609 270.911 15.7471L271.143 0.911674C271.143 0.397821 271.574 0 272.071 0H272.088C272.601 0 273.016 0.430973 272.999 0.944825L272.767 15.7802C272.767 16.2941 272.353 16.6919 271.839 16.6919Z" fill="#FECC86"/>
<g opacity="0.5">
<path opacity="0.5" d="M286.924 49.4212C291.672 52.4809 296.707 53.121 298.17 50.8509C299.633 48.5807 296.97 44.26 292.222 41.2003C287.474 38.1406 282.439 37.5005 280.976 39.7706C279.513 42.0407 282.176 46.3614 286.924 49.4212Z" fill="#F3FFFE"/>
</g>
<path d="M74.6886 217.559C74.6886 217.559 62.0773 223.971 59.7844 223.865C57.4914 223.742 43.3867 218.845 43.3867 218.845L43.7488 221.681C43.7488 221.681 54.6403 228.991 58.4418 229.414C62.1829 229.819 75.0054 225.486 76.2423 224.57C77.4793 223.636 78.2789 218.492 74.6886 217.559Z" fill="#ED985F"/>
<path d="M76.5896 193.953C76.5896 193.953 81.2359 192.914 83.559 194.904C87.7527 198.48 87.979 210.829 89.5479 212.661C91.1167 214.493 94.9182 213.718 95.2501 223.23C95.5819 232.743 93.7416 233.535 95.944 237.781C98.1464 242.026 95.0087 246.271 95.0087 246.271C95.0087 246.271 96.291 243.928 95.7479 242.237C95.7479 242.237 95.2199 245.972 93.1834 246.853C91.1469 247.733 90.8452 248.368 90.5284 249.654C90.5284 249.654 73.1955 239.278 73.1804 231.932C73.1653 224.586 69.7711 217.294 71.4305 214.105C71.4305 214.105 70.6913 215.462 70.6008 216.977C70.6008 216.977 69.6052 214.739 71.34 212.661C73.0748 210.582 69.3035 206.266 69.8616 201.281C70.2388 197.864 72.3054 194.111 76.5896 193.953Z" fill="#233862"/>
<path d="M73.1641 224.57C74.2653 225.468 75.6531 226.208 77.403 226.684C83.9349 228.445 86.4391 221.998 87.3894 217.577C86.4994 216.978 85.6546 216.854 85.1719 216.784C84.7043 216.713 84.2064 216.678 83.7841 216.643C83.0449 215.991 81.9588 213.296 81.7174 209.139L81.4157 209.227L76.2716 210.865C76.2716 210.865 76.513 212.785 76.6186 214.582C76.7091 215.991 76.7242 217.348 76.4979 217.682C76.0906 217.788 75.8492 217.858 75.8492 217.858C75.7587 217.982 74.2653 220.853 73.1641 224.57Z" fill="#FFB27D"/>
<path d="M76.2578 210.865C76.2578 210.865 76.4992 212.767 76.6048 214.582C79.5162 214.247 80.8739 210.988 81.4019 209.209L76.2578 210.865Z" fill="#ED985F"/>
<path d="M75.3835 212.66C75.3835 212.66 82.3076 212.219 82.0059 207.181C81.7042 202.143 82.383 198.708 77.963 198.778C73.528 198.849 72.7888 200.839 72.5324 202.548C72.2759 204.257 73.5732 212.642 75.3835 212.66Z" fill="#FFB27D"/>
<path d="M72.5584 199.73C73.5389 198.127 74.3686 198.392 74.8363 198.814C78.4718 196.066 81.1268 199.449 81.1268 199.449C81.8056 203.025 84.174 204.909 84.174 204.909C84.174 204.909 82.9672 205.931 80.0105 205.297C79.1054 205.103 78.2757 204.434 77.5365 203.588C78.8489 205.79 80.5536 207.323 80.5536 207.323C76.9633 205.737 75.2285 200.224 75.0474 199.625C74.6552 200.1 73.8859 201.14 73.6898 202.091C73.4182 203.395 72.2718 205.456 71.608 205.42C71.6231 205.42 71.0951 202.126 72.5584 199.73Z" fill="#233862"/>
<path d="M89.3512 241.005C89.9697 237.271 92.0213 222.35 89.9697 217.559C89.2305 215.833 86.3643 215.674 83.2115 215.833C82.231 216.573 78.4898 219.373 76.9511 219.021C76.936 219.021 76.9059 219.003 76.8606 219.003C76.1365 218.792 75.865 218.193 76.4684 217.682C76.4684 217.682 74.8995 217.506 72.9686 217.929C71.8674 218.176 68.9258 219.955 68.9258 219.955C68.9258 219.955 70.4192 223.09 72.6066 224.182C72.2295 228.076 72.7876 229.802 76.2572 238.803C79.1837 246.413 75.865 253.266 75.865 253.266C75.865 253.266 93.0923 269.437 93.1828 261.193C93.2432 254.992 88.5517 245.779 89.3512 241.005Z" fill="#B5453C"/>
<path d="M75.0025 270.829C74.0672 270.706 73.2224 270.107 72.6944 269.191C72.6039 269.05 72.5285 268.891 72.4229 268.715C70.4618 265.245 69.6925 254.64 65.2876 243.331C64.2165 240.583 60.3547 240.09 59.3138 236.972C59.3138 236.972 56.7192 226.896 64.2618 226.596C71.8044 226.297 84.4458 254.658 84.657 257.635C84.8531 260.524 89.6502 272.767 75.0025 270.829Z" fill="#DD6D22"/>
<path d="M45.0469 270.598H55.7725C55.7725 270.598 56.1798 268.607 55.4708 267.233C54.8523 266.035 55.0936 265.348 55.5462 264.344C55.0635 264.573 54.4299 264.785 53.736 264.749C53.208 264.714 52.6347 264.432 52.1369 264.098C51.6693 264.714 49.6931 267.321 49.0746 267.85C48.3807 268.431 45.2581 268.22 45.0469 270.598Z" fill="#9E332E"/>
<path d="M88.2188 221.469C88.2188 221.469 89.6218 236.301 80.5555 239.419C71.5044 242.519 68.9248 225.767 76.2412 224.569C83.5575 223.354 88.2188 221.469 88.2188 221.469Z" fill="#9E332E"/>
<path d="M59.0731 229.52C58.4245 235.175 55.9052 253.037 51.4551 261.739C50.022 264.54 55.0756 266.125 55.0906 266.108C55.7695 265.896 56.9009 264.646 57.4138 264.1C61.0342 260.295 68.3656 249.531 68.3656 240.9C68.3656 236.69 68.426 228.657 65.8011 226.614C64.2021 225.345 59.3296 227.265 59.0731 229.52Z" fill="#ED7D2B"/>
<path d="M81.4018 270.597C81.4018 270.597 81.0095 269.946 80.3156 268.73C79.4859 267.268 78.5808 264.397 77.4645 260.715C76.303 256.857 74.9151 252.101 73.1954 247.151C72.6674 245.618 72.0942 244.086 71.4908 242.536C70.4197 239.788 67.463 240.158 66.4071 237.057C66.4071 237.057 62.3039 226.276 69.8465 225.977C77.3891 225.677 91.705 254.831 92.5347 257.65C93.4549 260.733 97.8447 273.557 81.4018 270.597Z" fill="#F99746"/>
<path d="M52.918 270.598H63.6436C63.6436 270.598 64.0509 268.607 63.3419 267.233C62.7234 266.035 62.9647 265.348 63.4173 264.344C62.9346 264.573 62.301 264.785 61.6071 264.749C61.0791 264.714 60.5058 264.432 60.008 264.098C59.5404 264.714 57.5642 267.321 56.9457 267.85C56.2669 268.431 53.1292 268.22 52.918 270.598Z" fill="#B5453C"/>
<path d="M77.4644 260.715C76.3029 256.857 74.915 252.101 73.1953 247.151C73.6479 243.398 74.6133 240.122 76.2576 238.801C76.2576 238.783 80.225 253.14 77.4644 260.715Z" fill="#ED7D2B"/>
<path d="M65.3496 229.115C64.701 234.77 63.7959 253.019 59.3457 261.739C57.9126 264.54 62.9662 266.126 62.9813 266.108C63.6601 265.897 64.7915 264.646 65.3044 264.1C68.9248 260.295 76.2563 249.532 76.2563 240.9C76.2563 236.69 72.0324 228.992 69.4076 226.948C67.7934 225.68 65.6061 226.878 65.3496 229.115Z" fill="#F99746"/>
<path d="M42.1157 211.552L53.0977 210.195C53.4145 210.16 53.7162 210.371 53.8369 210.724L57.7742 222.79C57.9401 223.319 57.6233 223.883 57.1406 223.918L46.234 224.429C45.9323 224.446 45.6607 224.235 45.5551 223.918L41.5274 212.697C41.3463 212.186 41.633 211.604 42.1157 211.552Z" fill="#9E332E"/>
<path d="M41.1669 211.675L52.1489 210.318C52.4657 210.283 52.7674 210.494 52.8881 210.847L56.8254 222.913C56.9913 223.442 56.6745 224.006 56.1918 224.041L45.2852 224.552C44.9835 224.569 44.7119 224.358 44.6063 224.041L40.5937 212.82C40.3975 212.309 40.6842 211.728 41.1669 211.675Z" fill="#B5453C"/>
<path d="M47.2463 217.295C47.1106 216.872 47.3067 216.52 47.6687 216.52C48.0308 216.52 48.4381 216.872 48.5738 217.295C48.7096 217.717 48.5135 218.07 48.1514 218.07C47.7894 218.07 47.3821 217.735 47.2463 217.295Z" fill="#9E332E"/>
<path d="M41.4835 212.804C41.4231 212.592 41.5136 212.416 41.6947 212.416C41.8757 212.416 42.0718 212.592 42.1472 212.804C42.2076 213.015 42.117 213.191 41.936 213.191C41.755 213.191 41.5589 213.015 41.4835 212.804Z" fill="#9E332E"/>
<path d="M87.3727 217.558C87.3727 217.558 72.1366 224.111 69.8588 223.97C68.3804 223.882 56.0859 218.844 56.0859 218.844C56.0859 218.844 55.1808 217.205 54.1852 216.871C54.1852 216.871 52.4353 215.937 51.9375 215.761C51.4397 215.585 51.5453 215.761 51.6811 216.325C51.7565 216.606 52.0431 216.888 52.2845 217.117C51.4397 217.381 50.61 217.751 50.2329 217.839C49.5842 217.98 47.7287 218.685 48.2869 219.742C48.83 220.799 51.3794 221.028 52.4806 220.799C53.5818 220.57 54.9847 221.31 54.9847 221.31C54.9847 221.31 66.9473 230.294 70.2359 230.241C76.7376 230.153 87.6895 225.502 88.9265 224.586C90.1635 223.635 90.963 218.491 87.3727 217.558Z" fill="#FFB27D"/>
<path d="M42.2993 217.789C42.2993 217.789 43.4005 215.745 43.7625 215.675C44.8638 215.428 44.8638 217.119 44.6224 218.194C44.366 219.356 43.5212 220.466 43.2949 220.378C43.0535 220.29 42.0277 218.863 42.2993 217.789Z" fill="#FFB27D"/>
<path d="M42.2562 218.191C42.2562 218.191 41.9092 220.481 43.7647 221.662L42.2562 218.191Z" fill="#FFB27D"/>
<path d="M74.0859 209.773C74.0859 209.773 74.7346 209.473 76.5901 209.649C76.5901 209.649 76.4996 210.495 75.1268 210.565C74.3575 210.601 74.0859 209.773 74.0859 209.773Z" fill="white"/>
<path d="M79.5312 220.785C79.5312 220.785 80.8889 225.823 85.5653 226.968C85.5653 226.968 93.289 224.184 89.4422 218.036C89.4422 218.054 85.6408 214.742 79.5312 220.785Z" fill="#B5453C"/>
<path d="M75.8308 155.532C75.8308 155.022 75.8459 154.511 75.8459 154C75.9666 150.195 76.5247 146.478 77.4902 142.867C76.6756 142.902 75.8911 142.955 75.1369 143.008C74.3675 146.055 73.8848 149.208 73.7038 152.414C73.6434 153.366 73.6133 154.317 73.6133 155.268V155.515C73.6133 156.484 73.6435 157.435 73.6887 158.386C74.4279 158.791 75.1972 159.179 75.9967 159.566C75.9213 158.668 75.861 157.752 75.8459 156.836C75.8459 156.413 75.8308 155.973 75.8308 155.532ZM146.912 138.199C144.997 132.896 142.251 128.122 138.736 124.036C135.236 119.949 131.148 116.725 126.608 114.488C121.901 112.163 116.908 111 111.764 111C106.62 111 101.611 112.18 96.9049 114.488C96.3467 114.77 95.7886 115.069 95.2455 115.369C94.3404 115.88 93.4504 116.426 92.6056 117.007C89.7545 118.927 87.1447 121.288 84.7914 124.036C84.2936 124.599 83.826 125.181 83.3583 125.797C82.77 126.537 82.2269 127.33 81.699 128.122C80.8542 129.391 80.0698 130.712 79.3306 132.068C78.9233 132.826 78.5461 133.601 78.1841 134.394C77.6109 135.627 77.098 136.895 76.6303 138.199C76.2683 139.185 75.9515 140.172 75.6649 141.176C75.4838 141.792 75.3179 142.391 75.1671 143.025C74.3977 146.073 73.915 149.226 73.734 152.432C73.6736 153.383 73.6435 154.335 73.6435 155.286V155.532C73.6435 156.501 73.6736 157.453 73.7189 158.404C73.7641 159.179 73.8245 159.972 73.8999 160.747C74.3072 164.922 75.2274 168.973 76.6454 172.866C78.5612 178.169 81.3067 182.942 84.8216 187.029C88.3214 191.116 92.4095 194.322 96.9501 196.577C101.657 198.902 106.65 200.065 111.809 200.065C116.953 200.065 121.946 198.885 126.653 196.577C131.194 194.322 135.267 191.116 138.781 187.029C142.191 183.048 144.891 178.415 146.792 173.271C146.837 173.13 146.897 172.99 146.943 172.849C147.154 172.267 147.365 171.668 147.546 171.087C149.145 166.119 149.945 160.888 149.945 155.515C149.914 149.525 148.904 143.695 146.912 138.199ZM144.891 171.809C144.876 171.827 144.876 171.845 144.876 171.862C144.635 172.514 144.378 173.166 144.107 173.817C142.357 178.028 140.034 181.85 137.167 185.197C133.879 189.055 130.032 192.067 125.748 194.181C121.313 196.383 116.621 197.475 111.764 197.475C106.906 197.475 102.2 196.366 97.7798 194.181C93.4956 192.067 89.664 189.055 86.3603 185.197C83.0566 181.339 80.462 176.847 78.6517 171.862C77.4902 168.638 76.6907 165.309 76.2532 161.874C76.1476 161.117 76.0722 160.359 76.0118 159.584C75.9364 158.686 75.8761 157.77 75.861 156.854C75.8459 156.413 75.8459 155.99 75.8459 155.55C75.8459 155.039 75.861 154.528 75.861 154.017C75.9817 150.212 76.5398 146.496 77.5053 142.884C77.6712 142.268 77.8371 141.669 78.0333 141.07C78.2294 140.453 78.4255 139.819 78.6517 139.22C78.9685 138.357 79.3004 137.512 79.6625 136.684C79.9943 135.891 80.3564 135.116 80.7335 134.358C81.7895 132.262 82.9963 130.272 84.354 128.404C84.9121 127.629 85.5004 126.889 86.1039 126.167C86.1944 126.061 86.2698 125.973 86.3603 125.868C89.0907 122.679 92.1983 120.054 95.6226 118.046C96.3316 117.623 97.0406 117.236 97.7798 116.884C97.9759 116.778 98.172 116.69 98.3681 116.602C102.622 114.594 107.133 113.59 111.764 113.59C116.621 113.59 121.313 114.699 125.748 116.884C130.032 118.998 133.879 122.01 137.167 125.868C140.471 129.725 143.066 134.217 144.876 139.203C146.746 144.364 147.697 149.86 147.697 155.532C147.697 161.187 146.746 166.648 144.891 171.809Z" fill="#ADCBF9"/>
<path d="M154.004 164.515L151.047 164.427C151.997 165.871 152.208 167.192 151.62 168.302C151.032 169.447 149.614 170.381 147.502 171.103C146.733 171.367 145.858 171.596 144.892 171.808C142.313 172.354 139.084 172.671 135.313 172.706C125.779 172.847 113.952 171.332 102.005 168.461C93.9644 166.523 86.5274 164.145 80.2972 161.52C79.3468 161.133 78.4266 160.71 77.5517 160.305C77.0237 160.076 76.5108 159.811 76.013 159.565C75.2135 159.177 74.4441 158.79 73.7049 158.385C73.177 158.12 72.6791 157.839 72.1813 157.557C65.3176 153.646 62.1798 149.876 63.5828 147.181C64.7141 145.014 68.8475 143.535 75.1531 143.006C75.9074 142.953 76.6918 142.9 77.5064 142.865C77.6724 142.249 77.8383 141.65 78.0344 141.051C77.2047 141.068 76.4203 141.121 75.6509 141.156C67.6859 141.703 63.4319 143.341 61.8781 146.3C60.083 149.753 62.5419 154.386 70.4013 158.878C71.4874 159.494 72.649 160.111 73.8709 160.727C74.6402 161.097 75.4247 161.467 76.2393 161.855C76.6164 162.031 76.9935 162.19 77.3706 162.366C78.3059 162.771 79.2563 163.176 80.2218 163.581C86.3464 166.065 93.4666 168.302 101.115 170.134C111.81 172.689 122.445 174.203 131.542 174.45C132.884 174.503 134.182 174.503 135.434 174.485C138.692 174.432 141.604 174.221 144.093 173.798C145.028 173.657 145.918 173.464 146.733 173.27C150.609 172.336 153.174 170.856 154.185 168.919C154.909 167.58 154.833 166.1 154.004 164.515Z" fill="#ADCBF9"/>
<path d="M137.71 163.407C137.68 163.495 137.635 163.566 137.59 163.636C136.428 165.803 133.818 166.913 130.153 166.913C128.403 166.913 126.412 166.648 124.209 166.138C116.998 164.429 108.475 160.131 100.209 154.053C92.0776 148.082 85.1837 141.088 80.7486 134.341C80.6732 134.218 80.5978 134.112 80.5224 133.989C80.1 133.337 79.7078 132.685 79.3457 132.069C76.1024 126.449 75.1369 121.693 76.6907 118.822C77.8523 116.655 80.462 115.545 84.1277 115.545C85.8776 115.545 87.8689 115.81 90.0713 116.32C90.901 116.514 91.7609 116.743 92.6207 117.007C93.6013 117.307 94.612 117.659 95.6378 118.047C96.3468 117.624 97.0709 117.236 97.81 116.884C98.0061 116.796 98.2022 116.69 98.3984 116.602C97.3424 116.162 96.3015 115.757 95.2757 115.387C93.6314 114.806 92.0324 114.33 90.4937 113.96C82.7097 112.11 77.1885 113.396 74.9408 117.554C72.7987 121.517 73.9754 127.471 78.1992 134.412C78.4104 134.764 78.6367 135.116 78.8781 135.486C79.1345 135.891 79.4061 136.297 79.6776 136.702C84.2786 143.413 91.1273 150.266 99.1074 156.15C107.585 162.385 116.35 166.789 123.802 168.551C126.125 169.097 128.252 169.379 130.153 169.379C134.603 169.379 137.786 167.882 139.355 164.957C139.611 164.482 139.822 163.971 139.988 163.425H137.71V163.407Z" fill="#ADCBF9"/>
<path d="M98.3086 196.367C97.8561 196.367 97.4186 196.279 97.0113 196.103C90.4643 193.337 93.4964 170.719 99.6663 150.866C105.369 132.493 114.586 113.908 121.178 113.908C121.63 113.908 122.068 113.996 122.475 114.172C126.201 115.758 126.427 123.544 125.96 129.798C125.341 138.147 123.154 148.682 119.82 159.409C114.103 177.765 104.886 196.367 98.3086 196.367ZM121.163 116.269C117.029 116.269 108.355 129.815 101.552 151.676C98.2785 162.228 96.1363 172.533 95.5329 180.689C94.8843 189.462 96.2269 193.267 97.6901 193.883C97.8862 193.971 98.0823 194.007 98.2935 194.007C102.427 194.007 111.101 180.46 117.904 158.599C121.178 148.047 123.32 137.742 123.923 129.586C124.572 120.814 123.229 117.009 121.766 116.392C121.585 116.304 121.389 116.269 121.163 116.269Z" fill="#ADCBF9"/>
<path d="M137.333 147.447C130.047 147.447 123.379 146.637 117.436 145.034C110.33 143.114 104.206 140.031 99.2579 135.891C90.7499 128.775 88.653 121.024 88.5625 120.689L90.4934 120.002C90.5085 120.072 92.5299 127.436 100.57 134.077C108.038 140.26 122.353 147.095 148.194 144.523L148.36 146.866C144.559 147.253 140.863 147.447 137.333 147.447Z" fill="#ADCBF9"/>
<path d="M130.17 193.777C116.036 181.499 102.082 175.986 92.8646 173.537C82.8933 170.895 76.2256 171.141 76.1653 171.141L76.0898 168.781C76.3765 168.763 83.0894 168.517 93.3172 171.229C102.73 173.731 116.971 179.35 131.392 191.875L130.17 193.777Z" fill="#ADCBF9"/>
<path d="M398.612 281.411C398.612 283.983 397.722 286.308 396.274 287.999C394.826 289.691 392.835 290.73 390.632 290.73H325.66V272.674H391.115C391.522 272.674 391.93 272.709 392.322 272.78C395.882 273.449 398.612 277.06 398.612 281.411Z" fill="#F99746"/>
<path d="M337.712 281.587C337.712 284.089 336.852 286.361 335.449 288.017C335.434 288.035 335.434 288.035 335.419 288.052C334.001 289.708 332.055 290.73 329.897 290.73H256.07V272.674H330.063C332.205 272.674 334.151 273.713 335.539 275.369C336.897 276.972 337.712 279.156 337.712 281.587Z" fill="#FCECDB"/>
<path d="M343.853 289.378C343.853 289.748 343.717 290.083 343.521 290.329C343.31 290.576 343.023 290.735 342.707 290.735H253.462C252.829 290.735 252.301 290.136 252.301 289.378C252.301 289.008 252.437 288.674 252.648 288.427C252.859 288.18 253.146 288.039 253.462 288.039H342.707C343.34 288.022 343.853 288.621 343.853 289.378Z" fill="#ED7D2B"/>
<path d="M343.853 274.019C343.853 274.389 343.717 274.723 343.521 274.97C343.31 275.217 343.023 275.375 342.707 275.375H253.462C252.829 275.375 252.301 274.776 252.301 274.019C252.301 273.649 252.437 273.314 252.648 273.068C252.859 272.821 253.146 272.68 253.462 272.68H342.707C343.34 272.662 343.853 273.261 343.853 274.019Z" fill="#ED7D2B"/>
<path d="M256.086 281.695L265.982 281.995L256.086 282.171V281.695Z" fill="#F4D2B8"/>
<path d="M256.086 284.535L279.634 284.835L256.086 285.011V284.535Z" fill="#F4D2B8"/>
<path d="M392.322 272.766L370.961 290.716H325.66V272.66H391.115C391.522 272.66 391.93 272.695 392.322 272.766Z" fill="#ED7D2B"/>
<path d="M136.807 290.713H92.125V269.486H137.29C141.424 269.486 144.772 273.397 144.772 278.224V281.412C144.772 286.556 141.212 290.713 136.807 290.713Z" fill="#86D1CD"/>
<path d="M93.3921 290.713H41.9062V269.486H93.5581C97.5708 269.486 100.829 273.291 100.829 277.977V282.046C100.829 286.838 97.4953 290.713 93.3921 290.713Z" fill="#FCECDB"/>
<path d="M104.102 290.716H40.3217C39.6881 290.716 39.1602 290.117 39.1602 289.359V288.884C39.1602 288.144 39.6731 287.527 40.3217 287.527H104.102C104.736 287.527 105.264 288.126 105.264 288.884V289.359C105.249 290.117 104.736 290.716 104.102 290.716Z" fill="#86D1CD"/>
<path d="M104.102 272.657H40.3217C39.6881 272.657 39.1602 272.058 39.1602 271.301V270.825C39.1602 270.085 39.6731 269.469 40.3217 269.469H104.102C104.736 269.469 105.264 270.068 105.264 270.825V271.301C105.249 272.058 104.736 272.657 104.102 272.657Z" fill="#86D1CD"/>
<path d="M41.9062 280.107L49.0416 280.46L41.9062 280.671V280.107Z" fill="#F4D2B8"/>
<path d="M41.9062 283.441L58.8922 283.794L41.9062 284.005V283.441Z" fill="#F4D2B8"/>
<path d="M161.985 193.017L155.348 285.13C155.348 285.13 154.654 290.714 158.214 290.732C164.067 290.749 187.313 290.732 187.313 290.732C187.313 290.732 182.908 289.569 182.969 286.962C183.029 283.879 190.722 192.172 190.722 192.172L161.985 193.017Z" fill="#D86713"/>
<path d="M189.216 289.042C188.07 289.042 165.849 289.13 160.162 289.042C157.673 289.007 157.251 286.47 157.22 284.814C157.205 284.022 157.296 283.44 157.296 283.44L157.462 281.045L157.899 274.95L158.291 269.559L158.789 262.636L159.212 256.788L163.918 191.346L192.656 190.482C192.656 190.482 189.412 228.867 187.119 256.805C186.863 259.923 186.622 262.9 186.395 265.684C186.32 266.564 186.26 267.445 186.184 268.291C185.973 270.933 185.777 273.364 185.611 275.513C185.52 276.641 185.445 277.698 185.369 278.649C185.083 282.419 184.902 284.814 184.902 285.272C184.902 285.537 184.917 285.783 184.962 286.012C185.43 288.954 188.779 289.042 189.216 289.042Z" fill="#EE9849"/>
<path d="M92.2031 142.898L108.359 218.681L110.562 229.057L118.089 264.358H257.914L230.173 142.898H92.2031Z" fill="#F1A34F"/>
<path d="M92.2008 142.898L89.9531 143.762L115.115 267.001L118.087 264.358L92.2008 142.898Z" fill="#EE9849"/>
<path d="M115.117 267.002H254.067L257.914 264.359H118.089L115.117 267.002Z" fill="#D86713"/>
<path d="M193.998 289.074H163.918V290.748H193.998V289.074Z" fill="#F1A34F"/>
<path d="M251.141 241.987L228.453 144.501H91.9766V142.898H230.172L252.785 241.758L251.141 241.987Z" fill="#F1A34F"/>
<path d="M186.349 267L186.198 268.268L157.898 274.945L158.291 269.554L158.472 267H186.349Z" fill="#D86713"/>
<path d="M189.215 289.04C188.068 289.04 165.848 289.128 160.16 289.04C157.671 289.005 157.249 286.468 157.219 284.812L185.383 278.629C185.096 282.399 184.915 284.794 184.915 285.252C184.915 285.517 184.93 285.763 184.976 285.992C185.428 288.952 188.777 289.04 189.215 289.04Z" fill="#E78B37"/>
<path d="M179.513 239.771L118.086 264.362L110.559 229.061L179.513 239.771Z" fill="#E78B37"/>
<path d="M92.2031 142.898H230.173L252.559 240.524H112.297L92.2031 142.898Z" fill="#699DEE"/>
<path d="M191.702 252.859C191.31 250.463 189.318 248.525 187.267 248.525C185.215 248.525 183.873 250.463 184.28 252.859C184.672 255.255 186.663 257.192 188.715 257.192C190.767 257.192 192.109 255.255 191.702 252.859Z" fill="#D86713"/>
<path d="M246.039 236.282H116.864L102.232 168.232L101.115 163.018L100.15 158.561L97.9023 148.115H225.237L227.696 158.561L228.752 163.018L229.974 168.232L246.039 236.282Z" fill="#E9F3FE"/>
<path d="M227.696 158.561H100.15L97.9023 148.115H225.237L227.696 158.561Z" fill="#AFCDFB"/>
<path d="M103.182 152.835C103.031 152.113 103.408 151.531 104.026 151.531C104.645 151.531 105.263 152.113 105.429 152.835C105.58 153.557 105.203 154.138 104.585 154.138C103.951 154.138 103.333 153.557 103.182 152.835Z" fill="#E9F3FE"/>
<path d="M106.893 152.835C106.742 152.113 107.119 151.531 107.737 151.531C108.356 151.531 108.974 152.113 109.14 152.835C109.291 153.557 108.914 154.138 108.296 154.138C107.662 154.138 107.043 153.557 106.893 152.835Z" fill="#E9F3FE"/>
<path d="M110.889 152.835C110.738 152.113 111.115 151.531 111.733 151.531C112.352 151.531 112.97 152.113 113.136 152.835C113.287 153.557 112.91 154.138 112.292 154.138C111.658 154.138 111.04 153.557 110.889 152.835Z" fill="#E9F3FE"/>
<path d="M124.452 231.349C127.118 231.349 129.28 228.905 129.28 225.889C129.28 222.873 127.118 220.428 124.452 220.428C121.786 220.428 119.625 222.873 119.625 225.889C119.625 228.905 121.786 231.349 124.452 231.349Z" fill="#699DEE"/>
<path d="M124.073 222.682L126.849 225.483C127.09 225.729 127.09 226.17 126.849 226.399L124.119 229.076C123.772 229.429 123.229 229.147 123.214 228.618L123.168 223.14C123.153 222.611 123.711 222.329 124.073 222.682Z" fill="#E9F3FE"/>
<path d="M233.186 226.522C233.186 226.804 233.08 227.068 232.93 227.244C232.764 227.438 232.552 227.543 232.311 227.543H133.91C133.427 227.543 133.035 227.085 133.035 226.522C133.035 226.24 133.141 225.976 133.292 225.799C133.458 225.606 133.669 225.5 133.91 225.5H232.311C232.794 225.5 233.186 225.958 233.186 226.522Z" fill="#AFCDFB"/>
<path d="M144.846 225.5V227.561H133.894C133.412 227.561 133.02 227.103 133.02 226.539C133.02 226.257 133.125 225.993 133.276 225.817C133.442 225.623 133.653 225.518 133.894 225.518H144.846V225.5Z" fill="#699DEE"/>
<path d="M217.771 217.22H132.223L122.538 176.334L121.784 173.199L121.15 170.521L119.672 164.25H203.983L205.612 170.521L206.321 173.199L207.136 176.334L217.771 217.22Z" fill="#AFCDFB"/>
<path d="M207.951 186.764H179.817L176.634 173.323L176.393 172.301L176.182 171.42L175.699 169.359H203.411L203.954 171.42L204.18 172.301L204.452 173.323L207.951 186.764Z" fill="#E9F3FE"/>
<path opacity="0.6" d="M191.404 183.435H181.644L180.543 178.767L180.452 178.414L180.377 178.115L180.211 177.393H189.82L190.016 178.115L190.092 178.414L190.182 178.767L191.404 183.435Z" fill="#AFCDFB"/>
<path opacity="0.6" d="M203.818 183.435H194.058L192.957 178.767L192.866 178.414L192.806 178.115L192.625 177.393H202.234L202.43 178.115L202.506 178.414L202.596 178.767L203.818 183.435Z" fill="#AFCDFB"/>
<path d="M196.818 171.915H178.987C178.851 171.915 178.73 171.774 178.73 171.616C178.73 171.457 178.851 171.316 178.987 171.316H196.818C196.953 171.316 197.074 171.457 197.074 171.616C197.074 171.774 196.969 171.915 196.818 171.915Z" fill="#AFCDFB"/>
<path d="M197.482 173.517H179.651C179.515 173.517 179.395 173.376 179.395 173.217C179.395 173.059 179.515 172.918 179.651 172.918H197.482C197.617 172.918 197.738 173.059 197.738 173.217C197.738 173.376 197.617 173.517 197.482 173.517Z" fill="#AFCDFB"/>
<path d="M200.557 175.843H180.494C180.343 175.843 180.207 175.685 180.207 175.509C180.207 175.332 180.343 175.174 180.494 175.174H200.557C200.708 175.174 200.844 175.332 200.844 175.509C200.844 175.685 200.723 175.843 200.557 175.843Z" fill="#AFCDFB"/>
<path d="M213.198 207.799H185.079L181.896 194.34L181.639 193.319L181.443 192.438L180.945 190.377H208.672L209.2 192.438L209.441 193.319L209.698 194.34L213.198 207.799Z" fill="#E9F3FE"/>
<path opacity="0.6" d="M196.647 204.45H186.887L185.786 199.8L185.71 199.447L185.635 199.13L185.469 198.426H195.078L195.259 199.13L195.334 199.447L195.44 199.8L196.647 204.45Z" fill="#AFCDFB"/>
<path opacity="0.6" d="M209.061 204.45H199.316L198.2 199.8L198.124 199.447L198.049 199.13L197.883 198.426H207.492L207.673 199.13L207.764 199.447L207.854 199.8L209.061 204.45Z" fill="#AFCDFB"/>
<path d="M202.079 192.931H184.249C184.113 192.931 183.992 192.79 183.992 192.631C183.992 192.473 184.113 192.332 184.249 192.332H202.079C202.215 192.332 202.336 192.473 202.336 192.631C202.336 192.808 202.215 192.931 202.079 192.931Z" fill="#AFCDFB"/>
<path d="M202.743 194.534H184.913C184.777 194.534 184.656 194.394 184.656 194.235C184.656 194.076 184.777 193.936 184.913 193.936H202.743C202.879 193.936 203 194.076 203 194.235C202.985 194.411 202.879 194.534 202.743 194.534Z" fill="#AFCDFB"/>
<path d="M203.224 196.138H185.393C185.257 196.138 185.137 195.997 185.137 195.839C185.137 195.68 185.257 195.539 185.393 195.539H203.224C203.36 195.539 203.48 195.68 203.48 195.839C203.465 195.997 203.36 196.138 203.224 196.138Z" fill="#AFCDFB"/>
<path d="M64.3112 279.334C64.3112 279.334 62.7574 280.197 62.2445 281.642C62.154 281.888 62.0937 282.153 62.0786 282.434C61.9881 284.337 62.0786 288.635 62.0786 288.635L57.4927 286.486L52.9219 288.635V282.804C52.9219 281.695 53.3141 280.62 54.0382 279.915C54.3851 279.581 54.8226 279.316 55.3053 279.316H64.3112V279.334Z" fill="#F99746"/>
<path d="M64.3116 279.332C64.3116 279.332 62.7579 280.195 62.245 281.64L53.043 281.728C53.043 281.728 53.405 279.684 55.3058 279.332H64.3116Z" fill="#ED7D2B"/>
<path d="M288.159 272.816H343.145V245.336H287.54C282.321 245.336 278.082 250.286 278.082 256.381V261.049C278.082 267.549 282.593 272.816 288.159 272.816Z" fill="#B5453C"/>
<path d="M341.789 272.816H405.192V245.336H341.578C336.494 245.336 332.391 250.145 332.391 256.064V261.824C332.391 267.902 336.599 272.816 341.789 272.816Z" fill="#FCECDB"/>
<path d="M328.377 272.817H407.107C407.907 272.817 408.57 272.06 408.57 271.109V270.404C408.57 269.47 407.922 268.695 407.107 268.695H328.377C327.578 268.695 326.914 269.453 326.914 270.404V271.109C326.914 272.06 327.578 272.817 328.377 272.817Z" fill="#B5453C"/>
<path d="M328.377 249.458H407.107C407.907 249.458 408.57 248.701 408.57 247.749V247.045C408.57 246.111 407.922 245.336 407.107 245.336H328.377C327.578 245.336 326.914 246.093 326.914 247.045V247.749C326.914 248.683 327.578 249.458 328.377 249.458Z" fill="#B5453C"/>
<path d="M405.192 259.078L396.367 259.554L405.192 259.818V259.078Z" fill="#F4D2B8"/>
<path d="M405.19 252.754L384.191 253.23L405.19 253.494V252.754Z" fill="#F4D2B8"/>
<path d="M384.402 253.123C384.402 253.123 385.79 253.986 386.243 255.431C386.318 255.677 386.379 255.942 386.394 256.223C386.469 258.126 386.394 262.424 386.394 262.424L390.482 260.275L394.57 262.424V256.593C394.57 255.484 394.223 254.409 393.574 253.722C393.257 253.387 392.88 253.123 392.443 253.123H384.402Z" fill="#B5453C"/>
<path d="M384.402 253.123C384.402 253.123 385.79 253.986 386.243 255.431L394.449 255.519C394.449 255.519 394.132 253.475 392.428 253.123H384.402Z" fill="#9E3732"/>
<path d="M271.159 214.631C271.159 214.631 268.233 216.569 267.418 216.569C266.604 216.569 263.391 215.846 262.501 216.375C261.61 216.903 259.981 219.052 259.68 219.757C259.137 221.025 261.882 220.462 263.179 219.387C263.36 219.229 263.602 219.176 263.828 219.229C264.507 219.405 265.895 219.704 266.574 219.405C267.479 219.017 272.261 218.577 272.261 218.577L271.159 214.631Z" fill="#E49963"/>
<path d="M267.855 284.724C267.855 284.724 267.538 290.643 266.558 290.731C266.422 290.749 261.579 290.749 261.579 290.749L255.395 290.714C255.395 290.714 255.44 288.97 257.25 288.6C259.06 288.23 262.092 286.75 263.179 283.949C264.325 281.007 267.855 284.724 267.855 284.724Z" fill="#163560"/>
<path d="M293.395 188.208C293.395 188.208 290.363 213.346 285.355 215.601C282.881 216.711 271.944 219.23 268.701 219.476C268.701 219.476 267.901 218.719 268.097 215.671C268.097 215.671 279.562 210.757 281.191 208.079C283.62 204.098 279.683 191.837 282.73 188.103C285.777 184.368 290.891 182.765 293.395 188.208Z" fill="#ED7D2B"/>
<path d="M292.382 241.175C291.492 242.919 290.481 244.575 289.425 246.125C286.167 250.916 282.622 254.88 282.003 258.632C281.882 259.372 281.686 260.182 281.43 261.028C281.173 261.891 280.857 262.789 280.48 263.723C279.092 267.228 277.025 271.157 274.973 274.733C271.413 280.898 268.049 286.06 268.049 286.06L261.895 285.76C262.136 285.038 264.821 276.512 268.411 266.101C269.875 261.873 271.413 257.381 272.907 253.048C273.103 252.466 273.299 251.885 273.495 251.321C273.948 250 274.4 248.697 274.838 247.411C278.202 237.634 280.887 229.848 280.887 229.848C280.887 229.848 294.358 223.894 295.746 227.752C296.938 230.905 295.987 234.023 292.382 241.175Z" fill="#599DAD"/>
<path d="M282.097 267.795C282.097 267.795 286.381 271.001 285.959 272.04C285.898 272.181 283.545 277.131 283.545 277.131L280.498 283.42C280.498 283.42 279.216 282.522 279.819 280.513C280.422 278.488 280.785 274.683 279.231 272.199C277.602 269.574 282.097 267.795 282.097 267.795Z" fill="#163560"/>
<path d="M280.012 273.431C280.012 273.431 282.682 270.683 283.15 268.657C283.15 268.657 272.137 253.243 269.739 249.79C269.633 249.632 269.663 249.456 269.799 249.262C271.609 246.884 291.643 242.057 294.267 237.301C295.173 235.663 295.685 234.112 295.957 232.738C296.545 229.832 296.078 227.824 296.078 227.824L276.06 227.154C276.06 227.154 259.39 239.274 257.505 247.536C255.634 255.815 280.012 273.431 280.012 273.431Z" fill="#6BB7BF"/>
<path d="M269.816 249.266C271.627 246.887 291.66 242.061 294.285 237.305C295.19 235.666 295.703 234.116 295.974 232.742V229.783L287.466 228.215C287.466 228.215 285.052 236.882 277.902 240.141C271.219 243.188 269.937 248.596 269.816 249.266Z" fill="#5AA9AD"/>
<path d="M281.551 186.623C285.594 187.838 292.307 183.47 292.307 183.47C292.307 183.47 289.697 181.426 288.731 176.934C288.686 176.705 288.641 176.476 288.596 176.23C288.173 176.124 287.374 175.93 286.514 175.719L283.421 178.96C283.421 178.96 283.497 180.299 283.874 182.606C283.934 183.012 284.025 183.434 284.1 183.91C282.471 185.09 281.551 186.623 281.551 186.623Z" fill="#E49963"/>
<path d="M296.607 206.229C296.034 215.336 296.788 229.2 296.139 231.596C295.566 233.674 289.095 232.441 286.515 231.737C285.565 231.472 284.403 231.12 283.211 230.68C279.877 229.482 276.242 227.755 275.85 226.469C275.835 226.417 275.82 226.364 275.82 226.329C275.789 226.135 275.789 225.976 275.82 225.8C275.955 225.148 276.453 224.444 276.513 222.823C276.574 221.026 276.574 218.895 276.634 216.622C276.634 216.358 276.634 216.094 276.664 215.83V215.742C276.664 215.689 276.664 215.636 276.664 215.601C276.725 213.064 276.83 210.386 276.966 207.726C277.056 206.053 277.147 204.415 277.253 202.829C277.539 198.742 277.931 195.114 278.459 192.824C279.304 189.089 281.175 186.64 282.879 184.861L284.116 183.628C285.489 183.98 287.118 183.751 288.582 182.941C290.166 182.06 290.724 181.426 290.995 181.673C294.646 184.949 297.286 195.078 296.607 206.229Z" fill="#F99746"/>
<path d="M283.196 230.676C279.863 229.479 276.227 227.752 275.835 226.466C275.82 226.413 275.805 226.361 275.805 226.325C275.805 226.149 275.805 225.973 275.805 225.797C275.94 225.145 276.438 224.441 276.499 222.82C276.559 221.023 276.559 218.892 276.619 216.619C276.619 216.355 276.619 216.091 276.649 215.826V215.738C276.649 215.686 276.649 215.633 276.649 215.597L290.136 195.533C290.136 195.516 299.202 217.57 283.196 230.676Z" fill="#ED7D2B"/>
<path d="M283.438 178.942C283.438 178.942 283.513 180.281 283.89 182.589C286.907 181.444 288.28 178.255 288.732 176.917C288.687 176.688 288.642 176.459 288.597 176.212C288.174 176.106 287.375 175.913 286.515 175.701L283.438 178.942Z" fill="#D68D5D"/>
<path d="M283.029 180.984C283.029 180.984 289.621 179.698 288.867 174.925C288.113 170.151 288.46 166.768 284.236 167.385C279.997 168.002 279.469 169.992 279.394 171.666C279.303 173.322 281.294 181.196 283.029 180.984Z" fill="#E49963"/>
<path d="M252.164 204.13L251.59 204.348L256.531 222.107L257.105 221.889L252.164 204.13Z" fill="#4A75CB"/>
<path d="M273.294 220.509L256.508 220.928L256.529 222.108L273.316 221.689L273.294 220.509Z" fill="#4A75CB"/>
<path d="M272.969 222.592C272.969 222.592 267.584 224.247 265.562 224.071C263.541 223.895 261.866 222.768 261.61 222.186C261.354 221.605 260.826 220.566 262.198 220.76C263.571 220.953 265.457 221.288 265.517 220.989C265.577 220.689 264.401 220.707 264.401 220.707C264.401 220.707 264.039 220.108 264.491 220.073C264.944 220.037 266.256 219.632 266.739 219.914C267.222 220.196 267.674 221.253 268.036 221.2C268.398 221.147 272.547 219.016 272.547 219.016L272.969 222.592Z" fill="#E49963"/>
<path d="M292.068 189.229C292.068 189.229 291.434 214.613 286.652 217.502C284.299 218.929 273.664 222.84 270.466 223.509C270.466 223.509 269.606 222.857 269.516 219.81C269.516 219.81 280.437 213.45 281.81 210.579C283.847 206.316 278.778 194.619 281.448 190.515C284.118 186.41 289.051 184.156 292.068 189.229Z" fill="#F99746"/>
<path d="M288.748 176.916C288.748 176.916 288.824 175.278 287.964 174.344C287.964 174.344 288.265 172.706 287.707 172.424C287.149 172.16 287.028 173.534 286.772 173.322C286.516 173.111 285.384 172.072 284.886 170.557C284.404 169.042 279.938 170.874 279.425 171.156C278.913 171.438 277.238 170.433 276.906 169.606C276.906 169.606 277.842 168.742 278.249 168.091C278.671 167.439 281.583 163.052 285.671 164.303C289.759 165.554 290.317 167.826 290.076 169.782C289.834 171.737 290.423 176.264 288.748 176.916Z" fill="#2B478B"/>
<path d="M333.019 197.988C333.019 197.988 335.116 201.599 336.308 209.192C337.349 215.851 338.269 218.299 339.778 219.656C341.286 221.012 349.689 225.046 349.689 225.046L349.055 226.772C349.055 226.772 336.73 224.817 335.358 222.404C333.97 220.008 328.705 205.792 329.112 202.533C329.52 199.274 333.019 197.988 333.019 197.988Z" fill="#F4A269"/>
<path d="M363.175 277.326C363.07 278.735 364.744 279.07 366.675 279.176C368.606 279.281 368.033 279.757 370.688 280.321C373.343 280.884 374.399 280.039 374.595 279.616C374.761 279.246 373.539 278.665 372.212 278.013C372.046 277.925 371.88 277.854 371.714 277.766C370.235 277.009 369.406 275.459 368.244 274.014C367.158 272.658 366.117 268.289 366.117 268.289L362.512 267.391C362.512 267.391 363.522 271.319 363.869 272.992C364.081 273.979 363.764 275.071 363.507 275.917C363.356 276.375 363.221 276.833 363.175 277.326Z" fill="#FFB27D"/>
<path d="M366.676 279.194C368.607 279.3 368.034 279.776 370.689 280.339C373.344 280.903 374.4 280.058 374.596 279.635C374.762 279.265 373.54 278.684 372.213 278.032L372.198 278.049C372.198 278.049 370.327 278.789 368.17 278.102C366.42 277.539 364.715 276.323 363.508 275.918C363.358 276.376 363.222 276.834 363.177 277.327C363.071 278.736 364.745 279.071 366.676 279.194Z" fill="#C65447"/>
<path d="M327.257 227.388C327.257 227.388 351.227 225.274 355.738 228.603C360.248 231.932 367.489 270.669 367.489 270.669C367.489 270.669 367.037 271.092 366.041 271.215C365.106 271.339 363.069 270.687 363.069 270.687C363.069 270.687 352.661 253.353 351.936 248.984C351.197 244.616 351.378 240.723 349.719 240.617C348.045 240.511 327.257 243.576 324.104 237.094C320.951 230.611 323.561 224.217 323.561 224.217L327.257 227.388Z" fill="#163560"/>
<path d="M354.004 281.838C353.898 283.247 355.572 283.582 357.503 283.687C359.434 283.793 358.861 284.269 361.516 284.832C364.171 285.396 365.227 284.55 365.423 284.128C365.589 283.758 364.367 283.176 363.04 282.525C362.874 282.437 362.708 282.366 362.542 282.278C361.063 281.521 360.234 279.97 359.072 278.526C357.986 277.169 356.945 272.801 356.945 272.801L353.34 271.902C353.34 271.902 354.351 275.831 354.698 277.504C354.909 278.491 354.592 279.583 354.335 280.428C354.185 280.869 354.049 281.344 354.004 281.838Z" fill="#FFB27D"/>
<path d="M357.505 283.689C359.435 283.794 358.862 284.27 361.517 284.834C364.172 285.397 365.228 284.552 365.424 284.129C365.59 283.759 364.368 283.178 363.041 282.526L363.026 282.544C363.026 282.544 361.155 283.283 358.998 282.596C357.248 282.033 355.543 280.817 354.337 280.412C354.186 280.87 354.05 281.328 354.005 281.821C353.899 283.231 355.574 283.583 357.505 283.689Z" fill="#C65447"/>
<path d="M322.564 229.113C322.564 229.113 343.864 230.294 348.254 233.817C352.659 237.34 358.587 276.376 358.587 276.376C358.587 276.376 358.12 276.781 357.124 276.852C356.189 276.922 354.167 276.2 354.167 276.2C354.167 276.2 344.347 258.408 343.758 254.004C343.17 249.6 343.487 245.725 341.812 245.549C340.153 245.373 319.26 247.486 316.333 240.863C313.437 234.275 322.564 229.113 322.564 229.113Z" fill="#1C468A"/>
<path d="M330.153 174.397C329.202 173.675 328.041 173.499 327.211 173.499C327.437 173.252 327.86 173.2 327.86 173.2C327.347 173.076 326.185 173.569 326.185 173.569C319.261 169.817 317.451 181.937 317.436 184.791C317.421 187.644 317.255 190.903 313.559 193.176C306.303 197.632 311.688 206.828 311.688 206.828C311.733 206.863 316.531 214.262 316.531 214.262C316.485 211.954 324.269 199.729 329.202 196.47C330.469 194.585 331.073 191.115 331.118 190.85C330.756 193.598 330.273 195.131 329.851 195.977C334.09 192.013 332.657 176.335 330.153 174.397Z" fill="#B5453C"/>
<path d="M321.66 193.83C321.66 193.83 323.636 193.619 325.627 193.83C326.97 193.971 328.313 194.464 329.067 194.834C330.937 195.75 330.741 199.626 326.804 198.904C322.882 198.199 321.388 194.975 321.66 193.83Z" fill="#FFB27D"/>
<path d="M328.9 196.647C328.93 196.665 329.458 199.977 326.879 199.853C325.189 199.765 321.539 197.37 321.855 195.678C322.006 194.868 323.288 192.789 323.545 188.016L323.847 188.104L329.021 189.724C329.021 189.724 328.795 191.644 328.689 193.459C328.613 195.009 328.613 196.471 328.9 196.647Z" fill="#FFB27D"/>
<path d="M329.053 189.759C329.053 189.759 328.827 191.679 328.721 193.494C325.795 193.177 324.422 189.918 323.879 188.139L329.053 189.759Z" fill="#F4A269"/>
<path d="M323.364 187.417C323.364 187.417 321.991 184.458 321.75 181.992C321.584 180.23 322.715 173.871 328.191 175.227C328.191 175.227 329.79 175.544 331.223 176.848C332.37 177.887 333.984 180.072 331.721 185.532L331.102 187.382L323.364 187.417Z" fill="#B5453C"/>
<path d="M329.926 191.557C329.926 191.557 322.972 191.152 323.259 186.096C323.545 181.041 322.836 177.588 327.286 177.623C331.737 177.676 332.491 179.667 332.747 181.375C333.004 183.084 331.752 191.522 329.926 191.557Z" fill="#FFB27D"/>
<path d="M330.457 177.748C330.457 177.748 328.209 183.526 325.237 184.178C322.265 184.83 321.059 183.808 321.059 183.808C321.059 183.808 323.412 181.905 324.091 178.312C324.091 178.312 329.19 174.806 330.457 177.748Z" fill="#B5453C"/>
<path d="M329.957 178.186C329.957 178.186 331.3 179.613 331.571 180.934C331.843 182.255 331.843 184.915 332.522 184.88C332.522 184.88 334.181 180.952 332.703 178.556C331.134 176.002 329.957 178.186 329.957 178.186Z" fill="#B5453C"/>
<path d="M336.895 227.811C336.337 228.603 334.572 228.832 332.701 229.202C331.223 229.484 329.669 229.836 328.568 230.594C326.064 232.32 317.857 238.133 315.459 237.869C314.524 237.764 314.705 235.685 315.263 232.937C316.153 228.586 318.008 222.544 318.008 219.919C318.008 218.492 318.416 215.092 318.959 211.217C319.004 210.9 319.049 210.583 319.094 210.265C320.181 202.726 321.674 193.83 321.674 193.83C321.674 193.83 323.333 198.075 326.592 198.075C329.835 198.075 329.081 194.834 329.081 194.834C329.081 194.834 332.038 195.239 332.747 196.12C333.44 197.001 335.221 200.806 335.583 201.845C335.583 201.845 335.658 203.166 332.852 203.801C332.852 203.801 333.531 207.394 333.622 209.772C333.682 211.534 332.596 217.065 332.279 220.5C332.173 221.716 332.158 222.667 332.324 223.107C332.535 223.671 333.244 224.217 334.044 224.763C335.598 225.838 337.559 226.877 336.895 227.811Z" fill="#1C468A"/>
<path d="M334.014 224.762C335.809 228.338 329.141 229.413 328.04 230.17C325.536 231.897 317.857 238.133 315.459 237.868C314.524 237.763 314.705 235.684 315.263 232.936C316.153 228.585 318.008 222.543 318.008 219.918C318.008 218.491 318.416 215.091 318.959 211.216L321.855 207.975C321.855 207.975 324.947 217.329 327.904 218.861C329.458 219.671 331.072 220.2 332.264 220.517C332.158 221.732 332.143 222.684 332.309 223.124C332.505 223.67 333.214 224.216 334.014 224.762Z" fill="#163560"/>
<path d="M344.35 227.42H337.637V228.354H344.35V227.42Z" fill="#9E332E"/>
<path d="M342.934 228.214C342.994 227.914 349.103 216.729 349.103 216.729H362.68L355.877 227.914L342.934 228.214Z" fill="#9E332E"/>
<path d="M343.492 228.337C343.553 228.038 349.677 216.729 349.677 216.729H362.65L356.179 228.337H343.492Z" fill="#B5453C"/>
<path d="M354.938 222.558C354.802 223.016 354.38 223.386 353.987 223.386C353.595 223.386 353.399 223.016 353.52 222.558C353.656 222.1 354.078 221.73 354.47 221.73C354.862 221.73 355.074 222.118 354.938 222.558Z" fill="#9E332E"/>
<path d="M339.624 223.441C339.247 223.247 336.305 223.881 335.46 224.057C332.805 223.441 324.041 221.415 323.618 220.763C323.121 220.006 322.019 197 320.767 196.63C320.767 196.63 318.293 194.868 315.91 198.197C313.526 201.527 317.614 225.29 321.144 226.523C325.082 227.88 336.441 226.312 336.441 226.312C337.376 226.682 339.005 226.893 339.88 227.228C341.027 227.669 342.037 227.299 342.294 226.788C342.55 226.277 340.076 223.652 339.624 223.441Z" fill="#FFB27D"/>
<path d="M321.659 193.83C321.659 193.83 316.575 194.359 315.112 196.314C313.633 198.269 313.211 203.554 313.211 203.554C313.211 203.554 317.676 207.764 323.062 206.126L321.659 193.83Z" fill="#1C468A"/>
<path d="M431.905 291.999H0.482727C0.211193 291.999 0 291.735 0 291.435V291.241C0 290.924 0.226278 290.678 0.482727 290.678H431.89C432.162 290.678 432.373 290.942 432.373 291.241V291.435C432.388 291.735 432.162 291.999 431.905 291.999Z" fill="#2E3552"/>
<mask id="mask0_3093_340" style="mask-type:alpha" maskUnits="userSpaceOnUse" x="122" y="164" width="100" height="54">
<path d="M221.029 217.048H135.481L125.796 176.162L125.042 173.027L124.408 170.349L122.93 164.078H207.241L208.87 170.349L209.579 173.027L210.394 176.162L221.029 217.048Z" fill="#AFCDFB"/>
</mask>
<g mask="url(#mask0_3093_340)">
<path d="M175.835 183.575C175.835 183.575 176.302 181.39 177.102 181.267C177.886 181.144 179.078 180.563 179.335 181.302C179.591 182.042 177.449 185.847 176.589 184.914C175.744 183.98 175.835 183.575 175.835 183.575Z" fill="#FFB27D"/>
<path d="M165.441 229.727C166.135 232.052 166.572 233.902 166.572 234.783C166.557 238.693 173.164 256.326 173.164 256.326C175.291 257.383 177.735 256.309 177.735 256.309C177.011 253.86 172.983 231.999 170.856 218.664C169.951 213.062 169.348 209.152 169.348 209.152L157.672 207.619C157.657 207.602 163.042 221.624 165.441 229.727Z" fill="#2C3A64"/>
<path d="M157.656 207.604C157.656 207.604 163.027 221.643 165.425 229.746L170.826 218.666C169.921 213.064 169.317 209.154 169.317 209.154L157.656 207.604Z" fill="#2C3A64"/>
<path d="M163.899 210.579C163.899 210.579 167.112 249.545 167.851 257.085C167.851 257.085 165.86 257.789 163.431 256.697C163.431 256.697 158.996 238.588 158.498 233.145C158.001 227.684 152.977 210.826 153.822 209.258C154.667 207.708 163.899 210.579 163.899 210.579Z" fill="#2C3A64"/>
<path d="M155.681 177.358C155.681 177.358 156.918 180.828 156.963 181.85C157.008 182.872 154.187 183.453 152.769 182.59C151.351 181.727 151.563 180.969 151.563 180.969C151.563 180.969 150.914 177.446 151.019 177.164C151.125 176.9 155.681 177.358 155.681 177.358Z" fill="#FFB27D"/>
<path d="M175.503 183.172C175.503 183.172 170.464 190.5 170.253 191.433C167.357 187.488 162.906 182.555 162.695 182.361C162.122 181.815 161.096 181.498 160.07 181.287C158.652 181.005 157.204 180.987 156.872 180.97C156.827 180.97 156.797 180.97 156.797 180.97C156.933 181.551 156.39 182.643 155.198 182.731C153.78 182.837 151.774 181.939 151.562 180.97C151.547 180.917 148.244 181.164 148.817 188.386C148.817 188.492 148.832 188.597 148.847 188.703C149.073 191.134 149.722 194.305 151.065 198.48C151.547 199.977 153.116 211.11 153.584 211.128C153.584 211.128 153.991 211.374 154.896 211.674C155.364 211.832 155.982 212.009 156.737 212.167C158.351 212.519 160.613 212.836 163.646 212.836C169.212 212.836 170.615 210.987 170.615 210.987C170.917 210.987 167.523 202.038 165.742 194.34C167.583 195.591 169.544 196.789 169.755 196.947C170.69 197.617 171.339 197.881 171.792 197.916C171.792 197.916 171.807 197.916 171.852 197.916C172.124 197.916 172.32 197.846 172.455 197.705C172.878 197.44 173.451 196.877 174.024 195.626C174.794 193.988 175.699 190.658 176.483 188.439C176.921 187.206 177.252 185.867 177.69 184.757C177.705 184.775 176.634 183.436 175.503 183.172Z" fill="#BC3F3F"/>
<path d="M157.412 201.209C158.528 206.599 156.417 210.034 154.893 211.673C153.988 211.373 153.581 211.126 153.581 211.126C153.113 211.109 151.529 199.993 151.061 198.478C149.734 194.303 149.07 191.133 148.844 188.702C148.964 188.543 149.04 188.455 149.04 188.455C149.04 188.455 155.768 193.229 157.412 201.209Z" fill="#A02E2E"/>
<path d="M155.813 177.746C155.813 177.746 155.104 179.631 153.897 179.649C152.691 179.666 151.031 177.781 151.031 177.781L155.813 177.746Z" fill="#E8945B"/>
<path d="M155.905 177.658C155.649 177.94 155.045 178.345 154.517 178.609C154.125 178.803 153.642 178.821 153.16 178.645C152.436 178.38 151.319 177.958 151.033 177.782C150.324 177.359 150.173 176.478 149.856 175.28C149.494 173.853 149.117 172.726 149.056 171.916C148.996 170.929 149.403 170.365 150.867 170.224C153.552 169.943 154.879 170.753 155.166 171.827C155.241 172.109 155.317 172.391 155.392 172.655C156.267 176.002 156.328 177.183 155.905 177.658Z" fill="#FFB27D"/>
<path d="M155.288 172.214C155.288 172.214 154.655 171.439 153.885 171.738C153.116 172.038 153.222 172.883 151.743 172.742C150.265 172.601 149.737 171.809 149.571 172.214C149.405 172.619 149.797 174.962 149.797 174.962C149.797 174.962 145.121 167.229 151.004 167.229C151.004 167.229 156.978 166.806 155.862 174.662L155.288 172.214Z" fill="#2C3A64"/>
<path d="M168.289 168.479C168.304 168.356 168.319 168.268 168.319 168.268C168.304 168.338 168.289 168.409 168.289 168.479Z" fill="#D35C2B"/>
<path d="M177.657 192.103L176.691 191.944L179.392 174.029L177.657 192.103Z" fill="#2C3A64"/>
<path d="M176.315 182.923C176.315 182.923 177.205 183.962 177.356 183.381C177.507 182.817 178.638 182.165 178.713 181.901C178.804 181.637 177.416 181.514 177.205 181.514C177.009 181.514 176.164 182.553 176.315 182.923Z" fill="#FFB27D"/>
<path d="M153.582 182.52C153.657 182.538 154.698 182.221 156.116 182.415C156.116 182.415 156.222 183.912 155.86 184.035C155.498 184.158 154.729 184.053 154.563 184.035C154.397 184.018 153.582 182.52 153.582 182.52Z" fill="#1C468A"/>
<path d="M154.562 184.035C154.562 184.035 158.847 205.068 159.993 206.407C161.14 207.746 162.03 208.169 162.03 208.169C162.03 208.169 162.935 206.9 162.92 206.284C162.905 205.667 155.86 184.018 155.86 184.018H154.562V184.035Z" fill="#1C468A"/>
<path d="M160.567 204.572C160.567 204.572 163.478 205.682 164.368 205.717C165.243 205.753 166.284 204.009 165.937 203.498C165.831 203.357 164.564 204.026 164.202 203.797C163.644 203.445 162.95 203.709 162.498 203.78C162.045 203.85 160.355 202.723 160.355 202.723L160.567 204.572Z" fill="#FFB27D"/>
<path d="M161.592 202.706C156.856 198.796 153.522 196.823 152.481 196.242C152.768 193.353 152.647 188.755 151.561 180.969C151.561 180.969 146.96 181.568 146.477 183.435C145.768 186.148 147.442 193.67 148.815 199.694C148.815 199.694 148.83 199.712 148.876 199.729C148.981 199.941 149.117 200.135 149.313 200.328C151.274 202.16 161.638 205.684 161.638 205.684C162.392 204.433 161.592 202.706 161.592 202.706Z" fill="#BC3F3F"/>
<path d="M163.705 203.252L155.936 200.539L155.68 201.843L164.022 204.573L163.705 203.252Z" fill="#FCECDB"/>
<path d="M167.64 199.748L163.703 203.254L164.02 204.575L168.545 200.981L167.64 199.748Z" fill="#F4D2B8"/>
<path d="M164.112 204.962L155.227 201.809L155.257 201.545L164.021 204.575L164.112 204.962Z" fill="#2C3A64"/>
<path d="M164.114 204.96L169.137 200.891L168.926 200.645L164.023 204.573L164.114 204.96Z" fill="#2C3A64"/>
<path d="M153.58 182.52C153.58 182.52 151.544 180.054 151.378 180.212C151.212 180.371 151.001 180.917 151.106 181.076C151.212 181.234 153.837 182.96 153.837 182.96L153.58 182.52Z" fill="#1C468A"/>
<path d="M156.116 182.416C156.116 182.416 156.524 179.967 156.584 180.055C156.644 180.143 157.308 180.83 157.338 181.006C157.368 181.182 156.524 182.556 156.131 182.662C155.739 182.768 156.116 182.416 156.116 182.416Z" fill="#1C468A"/>
</g>
</svg>
