<svg width="432" height="286" viewBox="0 0 432 286" fill="none" xmlns="http://www.w3.org/2000/svg">
<path d="M11.9666 247.693C22.7078 224.967 20.6855 226.095 15.663 205.574C10.6406 185.053 1.57354 130.717 27.0673 86.0947C52.561 41.4724 85.0994 35.7869 100.863 41.1574C116.627 46.528 129.374 55.2469 156.542 41.8205C183.709 28.394 250.792 -11.1726 300.437 11.9673C350.082 35.1073 329.511 73.7788 346.949 90.2221C364.387 106.665 405.428 110.925 418.175 150.824C430.922 190.722 409.788 278.441 361.834 283.729L27.1004 286C27.0673 286.016 1.24202 270.419 11.9666 247.693Z" fill="#FEEFDC"/>
<path d="M355.353 142.105C360.16 142.105 371.432 142.254 381.162 143.63C385.19 144.194 388.853 141.16 389.002 137.099C389.052 135.442 388.571 133.469 387.162 131.198C381.709 122.446 370.934 129.905 370.802 134.182C370.802 134.182 369.078 127.618 362.68 128.397C356.281 129.176 357.989 138.657 357.989 138.657C357.989 138.657 355.966 138.11 354.491 139.005C353.049 139.884 353.662 142.105 355.353 142.105Z" fill="white"/>
<path d="M350.914 284.161C352.34 282.752 363.429 263.126 371.104 273.221C371.104 273.221 383.651 244.744 399.548 250.33C399.548 250.33 409.676 256.115 402.316 270.519C402.316 270.519 426.848 268.978 426.517 284.161H350.914Z" fill="#258D8C"/>
<path d="M388.856 253.648C388.823 253.648 388.79 253.631 388.757 253.598C388.707 253.548 388.723 253.466 388.773 253.432C388.889 253.333 391.84 251.079 394.525 250.764C394.591 250.764 394.658 250.797 394.658 250.863C394.658 250.929 394.624 250.996 394.542 250.996C391.923 251.311 388.939 253.598 388.922 253.615C388.922 253.648 388.889 253.648 388.856 253.648Z" fill="black"/>
<path d="M388.856 255.072C388.823 255.072 388.79 255.055 388.757 255.022C388.707 254.972 388.723 254.889 388.773 254.856C388.79 254.839 390.812 253.248 393.381 252.502C393.448 252.486 393.514 252.519 393.53 252.585C393.547 252.651 393.514 252.718 393.448 252.734C390.928 253.464 388.956 255.022 388.922 255.038C388.922 255.072 388.889 255.072 388.856 255.072Z" fill="black"/>
<path d="M411.351 244.446C408.516 247.811 407.704 251.756 409.544 253.265C411.367 254.757 415.163 253.248 417.981 249.867C420.816 246.502 421.628 242.557 419.788 241.048C417.948 239.54 414.185 241.081 411.351 244.446Z" fill="#258D8C"/>
<path d="M415.676 257.708C414.002 259.698 413.521 262.035 414.598 262.93C415.676 263.808 417.913 262.913 419.604 260.924C421.278 258.935 421.759 256.598 420.682 255.703C419.588 254.824 417.35 255.719 415.676 257.708Z" fill="#258D8C"/>
<path d="M160.537 84.4357C170.748 83.6235 195.678 82.0157 210.729 84.0877C212.901 84.386 214.326 81.8333 212.884 80.1757C211.84 78.9823 210.016 77.9877 206.801 77.8717C206.801 77.8717 209.635 63.8982 196.126 62.7213C182.252 61.5113 182.202 76.181 182.202 76.181C182.202 76.181 174.03 68.5726 170.184 78.1369C170.184 78.1369 161.582 74.4736 157.753 79.1646C155.946 81.3526 157.686 84.6512 160.537 84.4357Z" fill="white"/>
<path d="M218.388 281.824H183.645L183.661 209.006H218.421L218.388 281.824Z" fill="#49263E"/>
<path d="M305.709 235.479V135.725C305.709 130.984 301.863 127.139 297.123 127.139H103.715C98.9745 127.139 95.1289 130.984 95.1289 135.725V235.479H305.709Z" fill="#49263E"/>
<path d="M95.1289 235.479V251.458C95.1289 254.789 97.3335 257.475 100.035 257.475H300.786C303.504 257.475 305.692 254.773 305.692 251.458V235.479H95.1289Z" fill="#3A1F33"/>
<path d="M300.771 231.133V135.987C300.771 133.501 298.683 131.479 296.097 131.479H104.745C102.159 131.479 100.07 133.501 100.07 135.987V231.149H300.771V231.133Z" fill="#E8F2FC"/>
<path d="M248.044 283.895C248.641 280.447 246.321 277.662 242.889 277.662H159.231C155.783 277.662 152.518 280.447 151.938 283.895H248.044Z" fill="#3A1F33"/>
<path d="M300.788 257.722H100.038C97.1869 257.722 94.8828 254.904 94.8828 251.456V135.724C94.8828 130.85 98.8444 126.889 103.718 126.889V127.386C99.1262 127.386 95.3801 131.116 95.3801 135.724V251.456C95.3801 254.639 97.4686 257.225 100.038 257.225H300.788V257.722Z" fill="#21111D"/>
<path d="M297.103 239.95L296.699 239.66L291.906 246.34L292.31 246.63L297.103 239.95Z" fill="#21111D"/>
<path d="M297.115 243.28L296.715 242.984L291.922 249.48L292.322 249.776L297.115 243.28Z" fill="#21111D"/>
<path d="M194.588 259.153L194.156 258.906L191.771 263.08L192.203 263.326L194.588 259.153Z" fill="#21111D"/>
<path d="M194.761 262.041L194.332 261.789L192.176 265.463L192.605 265.715L194.761 262.041Z" fill="#21111D"/>
<path d="M193.641 126.522C193.641 126.522 195.249 120.505 196.724 119.875C198.199 119.245 199.84 120.306 199.84 120.306C199.84 120.306 201.415 118.151 202.492 118.367C203.57 118.566 203.818 119.527 203.818 119.527C203.818 119.527 205.708 119.726 205.907 121.284C205.907 121.284 207.399 121.649 207.382 122.875C207.382 122.875 208.145 123.223 208.095 124.699C208.095 124.699 205.542 129.705 201.779 131.478C198.017 133.252 193.641 126.522 193.641 126.522Z" fill="#FE9F73"/>
<path d="M159.542 231.134L159.99 188.55L159.028 183.08L135.789 191.418C135.789 191.418 136.502 209.419 138.01 231.134H159.542Z" fill="#3AA1C9"/>
<path d="M141.688 231.135L144.307 201.1L148.716 179.17L118.68 191.95C118.68 191.95 118.465 209.636 118.83 231.135H141.688Z" fill="#4CB7D8"/>
<path d="M187.191 96.2891L211.641 136.999L209.602 138.541L190.258 102.671L187.191 96.2891Z" fill="#683D46"/>
<path d="M199.656 120.176C199.656 120.176 200.733 119.065 201.38 118.734C202.026 118.402 205.889 125.513 205.889 125.513L206.452 127.27C206.452 127.27 205.955 128.199 205.64 128.166C205.325 128.132 204.347 127.387 204.347 127.387L204.098 126.409L203.7 126.293L203.187 125.828L202.938 125.066L202.391 125.315L201.629 125.016L201.28 124.303L201.131 124.237L198.844 120.557L199.656 120.176Z" fill="#FE9F73"/>
<path d="M201.063 124.353C200.715 124.353 200.334 124.121 199.919 123.873C199.638 123.707 199.339 123.525 199.041 123.409C198.146 123.06 197.731 123.21 197.715 123.21C197.649 123.243 197.582 123.21 197.549 123.143C197.516 123.077 197.549 123.011 197.615 122.978C197.632 122.961 198.113 122.779 199.124 123.176C199.455 123.309 199.754 123.491 200.052 123.657C200.699 124.038 201.096 124.254 201.362 123.956C201.61 123.69 201.71 123.375 201.677 123.011C201.61 122.248 200.881 121.27 199.754 120.408C198.361 119.347 197.135 119.861 197.085 119.894C197.019 119.928 196.952 119.894 196.919 119.828C196.886 119.762 196.919 119.696 196.986 119.662C197.035 119.629 198.395 119.049 199.919 120.209C201.13 121.138 201.859 122.149 201.942 122.994C201.975 123.425 201.859 123.806 201.561 124.121C201.395 124.287 201.246 124.353 201.063 124.353Z" fill="#F07162"/>
<path d="M201.482 122.197C201.449 122.197 201.416 122.18 201.399 122.163C201.349 122.114 201.349 122.031 201.382 121.981L203.703 119.428C203.753 119.379 203.836 119.379 203.885 119.412C203.935 119.462 203.935 119.544 203.902 119.594L201.581 122.147C201.565 122.197 201.515 122.197 201.482 122.197Z" fill="#F07162"/>
<path d="M204.031 126.508C203.849 126.508 203.683 126.442 203.534 126.325C203.285 126.176 202.805 125.712 202.954 125.033C202.97 124.966 203.037 124.917 203.103 124.933C203.169 124.95 203.219 125.016 203.203 125.082C203.053 125.745 203.65 126.093 203.683 126.11C203.832 126.226 203.998 126.259 204.181 126.226C205.424 125.994 207.264 122.828 207.28 122.795C207.313 122.729 207.396 122.712 207.446 122.745C207.512 122.778 207.529 122.861 207.496 122.911C207.413 123.043 205.589 126.209 204.23 126.475C204.147 126.508 204.081 126.508 204.031 126.508Z" fill="#F07162"/>
<path d="M202.343 125.397C202.061 125.397 201.829 125.314 201.63 125.165C201.199 124.817 201.133 124.203 201.133 124.187C201.133 124.12 201.183 124.054 201.249 124.054C201.315 124.054 201.381 124.104 201.381 124.17C201.381 124.17 201.431 124.701 201.779 124.982C201.962 125.132 202.21 125.198 202.525 125.148C203.437 125.016 205.194 122.281 205.791 121.236C205.824 121.17 205.907 121.153 205.956 121.186C206.023 121.22 206.039 121.303 206.006 121.352C205.923 121.518 203.785 125.214 202.558 125.397C202.492 125.397 202.409 125.397 202.343 125.397Z" fill="#F07162"/>
<path d="M191.234 125.15L192.146 124.006C192.146 124.006 200.202 126.277 203.119 132.874L201.843 134.598C201.843 134.598 195.942 127.238 191.234 125.15Z" fill="#E2F2F1"/>
<path d="M162.495 194.601L162.644 194.402L161.865 151.072C161.865 151.072 176.12 160.637 180.397 160.819C184.673 161.001 202.327 134.795 202.327 134.795C198.597 126.258 190.773 125.065 190.773 125.065L176.186 141.061L159.097 125.562C156.826 124.186 139.305 123.888 139.305 123.888C139.305 123.888 119.364 123.44 117.093 124.816C114.823 126.192 106.435 148.984 105.126 159.311C103.816 169.637 105.126 176.334 113.016 177.561L115.883 177.627L116.099 194.634C116.115 194.601 132.012 198.181 162.495 194.601Z" fill="#EF3A4C"/>
<path d="M155.697 180.626H138.391C137.297 180.626 136.402 179.731 136.402 178.637V155.696C136.402 154.602 137.297 153.707 138.391 153.707H155.697C156.791 153.707 157.686 154.602 157.686 155.696V178.637C157.686 179.748 156.791 180.626 155.697 180.626Z" fill="#49263E"/>
<path d="M152.447 152.697H142.535C141.971 152.697 141.523 153.145 141.523 153.708H153.458C153.458 153.161 153.011 152.697 152.447 152.697Z" fill="#E2F2F1"/>
<path d="M158.203 167.581C160.507 165.559 158.087 165.211 158.087 165.211C159.215 164.001 158.949 163.437 158.535 163.172C158.237 162.973 157.855 162.957 157.524 163.089C156.463 163.504 153.247 164.763 151.275 165.675C149.882 165.576 150.313 163.222 150.943 162.012C151.258 161.382 151.291 160.354 149.766 161.399C148.523 162.244 146.667 165.029 146.667 165.029L138.859 164.283L140.02 175.024C140.02 175.024 148.921 174.891 150.264 174.891C151.606 174.875 156.098 173.35 157.458 172.173C159.927 170.035 158.369 169.919 158.369 169.919C160.74 167.449 158.203 167.581 158.203 167.581Z" fill="#FE9F73"/>
<path d="M155.268 166.983C155.202 166.983 155.136 166.95 155.103 166.884C155.069 166.801 155.103 166.701 155.185 166.668C156.346 166.187 157.97 165.077 157.987 165.077C158.053 165.027 158.153 165.044 158.219 165.127C158.269 165.193 158.252 165.292 158.169 165.359C158.103 165.408 156.495 166.502 155.318 166.983C155.301 166.983 155.285 166.983 155.268 166.983Z" fill="#F07162"/>
<path d="M155.435 169.025C155.352 169.025 155.285 168.976 155.269 168.909C155.252 168.827 155.302 168.727 155.385 168.711C156.86 168.313 158.103 167.451 158.12 167.451C158.186 167.401 158.286 167.418 158.352 167.484C158.402 167.55 158.385 167.65 158.319 167.716C158.269 167.749 157.009 168.611 155.484 169.025C155.451 169.025 155.451 169.025 155.435 169.025Z" fill="#F07162"/>
<path d="M155.965 171.314C155.899 171.314 155.816 171.281 155.799 171.198C155.766 171.115 155.816 171.015 155.915 170.999C157.175 170.617 158.269 169.789 158.286 169.789C158.352 169.739 158.451 169.756 158.518 169.822C158.567 169.888 158.551 169.988 158.485 170.054C158.435 170.087 157.324 170.932 156.015 171.314C155.998 171.314 155.982 171.314 155.965 171.314Z" fill="#F07162"/>
<path d="M120.26 162.245L119.945 161.864L123.111 159.178L124.321 144.459L124.819 144.509L123.592 159.427L120.26 162.245Z" fill="#21111D"/>
<path d="M115.881 177.86L112.981 177.794C109.102 177.197 106.632 175.274 105.389 171.926C104.311 169.025 104.162 164.997 104.875 159.262L105.372 159.328C103.897 171.014 106.118 176.219 113.03 177.296L115.881 177.363V177.86Z" fill="#21111D"/>
<path d="M143.795 161.715H145.37C145.37 161.715 147.044 172.439 144.757 177.362H142.801C142.801 177.362 145.072 167.301 143.795 161.715Z" fill="#E2F2F1"/>
<path d="M135.607 160.09L143.448 160.587C143.448 160.587 145.039 165.593 143.133 175.737C142.95 176.715 142.553 178.406 142.553 178.406C142.553 178.406 134.58 179.036 133.336 176.45C132.557 174.826 134.265 167.798 134.265 167.798L135.607 160.09Z" fill="#EF3A4C"/>
<path d="M142.752 178.673L115.883 177.861L115.899 177.363L142.355 178.176C142.736 176.617 145.156 166.075 143.266 160.854L123.325 159.577L123.359 159.08L143.614 160.373L143.664 160.522C145.869 166.224 142.902 177.993 142.785 178.49L142.752 178.673Z" fill="#21111D"/>
<path d="M176.351 145.32L175.937 141.16L159.394 126.159C158.184 125.065 155.83 125.048 155.797 125.048V124.551C155.896 124.551 158.366 124.567 159.725 125.794L176.417 140.928L176.848 145.271L176.351 145.32Z" fill="#21111D"/>
<path d="M176.369 141.212L176.004 140.88L190.674 124.785L190.806 124.802C190.889 124.818 198.647 126.178 202.558 134.664L202.094 134.88C198.58 127.238 191.867 125.531 190.856 125.316L176.369 141.212Z" fill="#21111D"/>
<path d="M148.75 124.206C143.943 123.94 139.285 123.858 139.285 123.858C139.285 123.858 135.423 123.775 130.914 123.791C130.914 123.824 130.914 123.841 130.914 123.874C130.914 128.797 134.909 132.792 139.832 132.792C144.655 132.809 148.584 128.98 148.75 124.206Z" fill="#E2F2F1"/>
<path d="M143.448 196.341C143.298 196.341 143.149 196.341 143 196.341V195.844C149.282 195.91 160.504 194.584 162.228 194.385L161.615 146.912H162.112L162.742 194.833L162.526 194.866C162.394 194.866 150.343 196.341 143.448 196.341Z" fill="#21111D"/>
<path d="M134.531 133.269C131.995 131.695 130.155 129.241 129.359 126.39L129.84 126.258C130.619 128.993 132.376 131.347 134.796 132.855L134.531 133.269Z" fill="#21111D"/>
<path d="M136.454 105.805C136.454 105.805 140.001 104.297 143.167 105.374C144.991 106.004 146.201 107.745 146.201 109.667V111.557L136.487 107.413C136.487 107.413 134.946 108.142 135.078 107.927C135.194 107.695 136.454 105.805 136.454 105.805Z" fill="#FE9F73"/>
<path d="M146.199 109.47V117.443C146.199 117.443 146.316 120.294 143.829 120.642L144.293 124.438C144.459 125.847 143.614 127.206 142.271 127.637C141.608 127.853 140.812 128.002 139.917 128.002C137.066 128.002 135.525 125.863 135.293 124.803C135.06 123.742 135.773 118.636 135.773 118.636L135.69 116.133L136.022 106.42L146.199 109.47Z" fill="#FE9F73"/>
<path d="M139.339 113.214C139.306 113.214 139.273 113.198 139.256 113.181C139.206 113.131 139.206 113.065 139.256 113.015C139.273 112.999 140.897 111.325 142.389 112.535C142.439 112.568 142.455 112.651 142.405 112.7C142.372 112.75 142.289 112.767 142.24 112.717C140.914 111.656 139.488 113.115 139.422 113.181C139.389 113.198 139.372 113.214 139.339 113.214Z" fill="#21111D"/>
<path d="M144.23 112.5C144.197 112.5 144.164 112.483 144.147 112.467C144.097 112.417 144.114 112.351 144.164 112.301C144.214 112.251 145.341 111.29 146.053 111.903C146.103 111.953 146.103 112.019 146.07 112.069C146.02 112.119 145.954 112.119 145.904 112.085C145.341 111.605 144.33 112.467 144.313 112.483C144.28 112.5 144.247 112.5 144.23 112.5Z" fill="#21111D"/>
<path d="M141.375 114.046C141.568 114.046 141.724 113.89 141.724 113.698C141.724 113.505 141.568 113.35 141.375 113.35C141.183 113.35 141.027 113.505 141.027 113.698C141.027 113.89 141.183 114.046 141.375 114.046Z" fill="black"/>
<path d="M145.153 113.696C145.345 113.696 145.501 113.54 145.501 113.348C145.501 113.156 145.345 113 145.153 113C144.961 113 144.805 113.156 144.805 113.348C144.805 113.54 144.961 113.696 145.153 113.696Z" fill="black"/>
<path d="M136.453 105.673C136.453 105.673 133.436 105.524 132.674 108.16C131.911 110.795 133.204 112.188 133.237 112.983C133.271 113.779 132.724 119.067 136.453 118.669L137.464 109.917L136.171 106.436L136.453 105.673Z" fill="#21111D"/>
<path d="M136.65 115.716C137.831 115.716 138.788 114.759 138.788 113.578C138.788 112.397 137.831 111.439 136.65 111.439C135.469 111.439 134.512 112.397 134.512 113.578C134.512 114.759 135.469 115.716 136.65 115.716Z" fill="#FE9F73"/>
<path d="M136.504 114.889C136.056 114.889 135.758 114.557 135.659 114.226C135.543 113.828 135.675 113.447 135.99 113.248C136.471 112.95 136.885 113.149 137.117 113.281C137.018 113.032 136.885 112.867 136.686 112.751C136.272 112.519 135.742 112.684 135.742 112.684C135.708 112.701 135.675 112.684 135.659 112.651C135.642 112.618 135.659 112.585 135.692 112.568C135.708 112.568 136.272 112.386 136.736 112.635C137.001 112.784 137.184 113.049 137.283 113.414L137.333 113.613L137.184 113.463C137.167 113.447 136.653 112.95 136.056 113.314C135.725 113.513 135.692 113.894 135.775 114.16C135.858 114.425 136.09 114.74 136.504 114.74C136.504 114.74 136.504 114.74 136.521 114.74C136.554 114.74 136.587 114.773 136.587 114.806C136.57 114.856 136.537 114.889 136.504 114.889Z" fill="#F07162"/>
<path d="M138.062 118.221C138.062 118.221 138.228 122.978 144.179 123.442L143.831 120.641C143.831 120.624 139.969 121.403 138.062 118.221Z" fill="#F07162"/>
<path d="M146.613 116.082C146.613 116.082 147.393 121.784 143.597 121.983C138.176 122.265 137.646 119.182 137.331 116.646L137.281 111.424L137.447 109.916C137.828 110.347 138.06 110.894 138.11 111.474C138.226 112.734 138.508 116.099 138.806 116.248C139.27 116.463 145.768 115.535 146.613 116.082Z" fill="#21111D"/>
<path d="M142.982 116.096C142.949 116.096 142.932 116.08 142.932 116.063C142.916 116.03 142.932 115.997 142.965 115.98L144.159 115.582L143.778 112.781C143.778 112.748 143.794 112.715 143.827 112.715C143.861 112.715 143.894 112.731 143.894 112.765L144.275 115.665L142.999 116.096H142.982Z" fill="#F07162"/>
<path d="M135.672 119.282L136.086 115.254L137.081 115.37V119.398L135.672 119.282Z" fill="#FE9F73"/>
<path d="M137.018 105.604C137.018 105.604 136.321 107.279 137.465 110.047C138.609 112.832 134.531 109.002 134.531 109.002C134.531 109.002 134.813 104.941 137.018 105.604Z" fill="#21111D"/>
<path d="M141.608 117.306C142.569 118.549 143.879 117.952 143.895 117.952C143.928 117.936 143.962 117.886 143.928 117.836C143.912 117.803 143.862 117.77 143.812 117.803C143.763 117.82 142.602 118.334 141.724 117.206C141.707 117.19 141.691 117.157 141.674 117.14C141.658 117.107 141.591 117.09 141.558 117.124C141.525 117.157 141.508 117.206 141.542 117.24C141.575 117.273 141.591 117.289 141.608 117.306Z" fill="#F07162"/>
<path d="M205.789 128.246H205.772C205.076 128.13 204.595 127.865 204.314 127.451C203.966 126.937 204.082 126.406 204.098 126.39C204.115 126.323 204.181 126.274 204.247 126.29C204.314 126.307 204.363 126.373 204.347 126.439C204.347 126.439 204.247 126.887 204.529 127.318C204.761 127.666 205.209 127.898 205.822 128.014C205.888 128.031 205.938 128.097 205.922 128.163C205.905 128.197 205.855 128.246 205.789 128.246Z" fill="#F07162"/>
<path d="M301.021 231.384H100.055V230.887H300.523V135.99C300.523 133.636 298.534 131.73 296.098 131.73V131.232C298.816 131.232 301.021 133.371 301.021 136.006V231.384Z" fill="#21111D"/>
<path d="M137.465 110.049C137.465 110.049 146.532 109.518 147.095 107.38C147.659 105.242 145.521 105.192 145.521 105.192C145.521 105.192 145.918 102.175 143.183 103.07C140.448 103.965 135.376 103.849 133.951 106.385C132.509 108.938 137.465 110.049 137.465 110.049Z" fill="#21111D"/>
<path d="M171.248 200.549L169.06 202.14C168.728 202.389 168.646 202.853 168.894 203.201C169.043 203.4 169.275 203.516 169.508 203.516C169.657 203.516 169.822 203.466 169.955 203.367L171.696 202.091L173.237 207.329C173.337 207.66 173.635 207.876 173.966 207.876C174.033 207.876 174.116 207.859 174.182 207.842C174.58 207.726 174.812 207.312 174.696 206.914L173.005 201.146L175.326 199.455L178.061 203.035C178.309 203.367 178.79 203.433 179.122 203.168C179.453 202.919 179.519 202.439 179.254 202.107L176.536 198.56L178.011 197.483C178.342 197.234 178.425 196.77 178.177 196.422C177.928 196.09 177.464 196.007 177.116 196.256L175.624 197.35L170.535 190.703C170.22 190.289 169.673 190.156 169.209 190.405C168.745 190.637 168.513 191.151 168.662 191.664L171.248 200.549ZM174.397 198.245L172.541 199.604L170.751 193.504L174.397 198.245Z" fill="#F75553"/>
<path d="M179.351 185.502C179.882 185.502 180.031 185.203 180.495 184.176C180.561 184.043 180.611 183.91 180.677 183.794L181.904 187.971C181.887 188.021 181.871 188.054 181.854 188.104C181.838 188.154 181.805 188.204 181.805 188.253C181.506 189.065 181.191 189.845 180.876 190.557C180.711 190.939 180.876 191.386 181.258 191.552C181.357 191.602 181.457 191.618 181.556 191.618C181.838 191.618 182.12 191.452 182.252 191.171C182.335 190.988 182.451 190.706 182.6 190.358L184.374 196.442C184.473 196.773 184.772 196.989 185.103 196.989C185.17 196.989 185.252 196.972 185.319 196.956C185.717 196.84 185.949 196.425 185.833 196.027L185.667 195.48C187.076 194.768 190.507 192.762 191.485 190.043C191.916 188.867 191.85 187.706 191.286 186.596C190.557 185.104 189.479 184.64 188.717 184.524C187.142 184.275 185.435 185.17 184.125 186.098C184.871 183.562 185.319 180.811 184.374 179.485C183.843 178.739 183.23 178.689 182.899 178.706C182.236 178.772 181.606 179.302 181.042 180.081C180.86 179.932 180.595 179.866 180.346 179.932C179.948 180.048 179.716 180.463 179.832 180.86L180.064 181.656C179.749 182.253 179.434 182.899 179.136 183.546C179.02 183.811 178.871 184.109 178.804 184.242C178.672 184.374 178.605 184.557 178.605 184.756C178.605 185.154 178.937 185.502 179.351 185.502ZM188.485 185.999C189.098 186.098 189.562 186.496 189.927 187.242C190.291 187.988 190.341 188.734 190.059 189.513C189.313 191.585 186.578 193.259 185.219 193.989L183.595 188.436C184.788 187.375 186.943 185.75 188.485 185.999ZM183.015 180.197C183.031 180.214 183.081 180.247 183.147 180.33C183.694 181.092 183.379 183.148 182.733 185.419L181.689 181.838C182.418 180.529 182.816 180.231 183.015 180.197Z" fill="#258D8C"/>
<path d="M202.012 194.12C202.824 194.12 203.769 194.02 204.813 193.805C205.227 193.722 205.476 193.324 205.393 192.91C205.31 192.495 204.912 192.247 204.498 192.329C200.967 193.075 198.73 192.396 197.851 190.307C196.392 186.859 198.862 181.025 200.603 179.831C201.349 179.317 202.061 179.152 202.691 179.301C203.901 179.616 204.631 181.008 204.647 181.025C204.829 181.389 205.294 181.538 205.658 181.356C206.023 181.174 206.189 180.71 205.99 180.345C205.957 180.262 204.962 178.323 203.072 177.825C201.995 177.544 200.868 177.792 199.741 178.555C197.304 180.212 194.768 186.926 196.442 190.871C197.138 192.462 198.63 194.12 202.012 194.12Z" fill="#397FA1"/>
<path d="M190.575 205.16L174.546 216.167L173.9 222.714L170.601 218.073L166.556 220.974C166.225 221.222 166.142 221.686 166.391 222.034C166.639 222.366 167.103 222.449 167.452 222.2L170.269 220.178L175.027 226.858L176.005 217.012L191.453 206.403C191.801 206.171 191.884 205.691 191.652 205.359C191.387 205.011 190.923 204.928 190.575 205.16Z" fill="#61A3C5"/>
<path d="M213.001 209.985C212.852 209.604 212.404 209.405 212.023 209.571L198.083 215.24C197.701 215.389 197.502 215.836 197.668 216.218C197.784 216.516 198.066 216.682 198.364 216.682C198.464 216.682 198.563 216.665 198.646 216.632L212.587 210.963C212.968 210.814 213.15 210.366 213.001 209.985Z" fill="#F75553"/>
<path d="M204.314 210.545C205.01 210.545 205.574 209.981 205.574 209.285C205.574 208.589 205.01 208.025 204.314 208.025C203.619 208.025 203.055 208.589 203.055 209.285C203.055 209.981 203.619 210.545 204.314 210.545Z" fill="#F75553"/>
<path d="M206.854 218.451C207.549 218.451 208.113 217.887 208.113 217.191C208.113 216.496 207.549 215.932 206.854 215.932C206.158 215.932 205.594 216.496 205.594 217.191C205.594 217.887 206.158 218.451 206.854 218.451Z" fill="#F75553"/>
<path d="M200.22 172.755C200.369 172.904 200.552 172.97 200.751 172.97C200.949 172.97 201.148 172.887 201.298 172.738L205.11 168.776L208.922 172.738C209.072 172.887 209.271 172.97 209.469 172.97C209.652 172.97 209.851 172.904 210 172.755C210.298 172.473 210.315 171.992 210.016 171.694L206.154 167.682L210.016 163.671C210.298 163.373 210.298 162.892 210 162.61C209.702 162.328 209.221 162.328 208.939 162.627L205.127 166.588L201.314 162.627C201.032 162.328 200.552 162.312 200.253 162.61C199.955 162.892 199.938 163.373 200.237 163.671L204.099 167.682L200.237 171.694C199.905 171.992 199.922 172.473 200.22 172.755Z" fill="#FE9F73"/>
<path d="M54.9155 217.344H49.8102H49.4787H44.3733L40.1133 278.376H49.4787H49.8102H59.159L54.9155 217.344Z" fill="#258D8C"/>
<path d="M55.5786 218.568H43.5942C42.7323 218.568 42.0195 217.871 42.0195 216.993V211.191H57.1533V216.993C57.1533 217.871 56.4571 218.568 55.5786 218.568Z" fill="#F99247"/>
<path d="M52.6433 218.816H44.4051C42.9464 218.816 41.7695 217.639 41.7695 216.181V211.191H42.2668V216.181C42.2668 217.358 43.2282 218.319 44.4051 218.319H52.6433V218.816Z" fill="#21111D"/>
<path d="M49.4757 215.223C67.1807 215.223 81.5335 200.87 81.5335 183.165C81.5335 165.46 67.1807 151.107 49.4757 151.107C31.7707 151.107 17.418 165.46 17.418 183.165C17.418 200.87 31.7707 215.223 49.4757 215.223Z" fill="#FECC86"/>
<path d="M49.4806 210.811C64.7505 210.811 77.1292 198.432 77.1292 183.162C77.1292 167.892 64.7505 155.514 49.4806 155.514C34.2107 155.514 21.832 167.892 21.832 183.162C21.832 198.432 34.2107 210.811 49.4806 210.811Z" fill="#E2F2F1"/>
<path d="M49.4783 215.468C31.6592 215.468 17.1719 200.981 17.1719 183.162C17.1719 165.343 31.6592 150.855 49.4783 150.855C57.8325 150.855 65.7558 154.038 71.7894 159.79L71.4413 160.155C65.5072 154.486 57.6999 151.353 49.4783 151.353C31.941 151.353 17.6857 165.625 17.6857 183.145C17.6857 200.683 31.9576 214.938 49.4783 214.938C57.617 214.938 65.358 211.871 71.2756 206.285L71.6237 206.65C65.6066 212.352 57.7496 215.468 49.4783 215.468Z" fill="#21111D"/>
<path d="M57.9688 174.098C62.0275 178.157 66.8868 179.878 68.8223 177.943C70.7578 176.007 69.0366 171.148 64.9779 167.089C60.9191 163.03 56.0599 161.309 54.1244 163.245C52.1889 165.18 53.9101 170.04 57.9688 174.098Z" fill="#F3FFFE"/>
<path d="M44.6406 218.604L44.1445 218.568L40.0279 276.141L40.5239 276.177L44.6406 218.604Z" fill="#21111D"/>
<path d="M32.4564 166.322L32.0586 166.007C32.0917 165.957 35.9871 161.001 41.8881 159.725L41.9876 160.222C36.2854 161.465 32.5061 166.272 32.4564 166.322Z" fill="#21111D"/>
<path d="M34.0306 169.421L33.6328 169.106C33.666 169.057 37.5613 164.101 43.4623 162.824L43.5618 163.321C37.8597 164.565 34.0804 169.372 34.0306 169.421Z" fill="#21111D"/>
<path d="M86.6414 270.254H15.6469C14.7684 270.254 14.0391 270.967 14.0391 271.862V283.912H86.6414V270.254Z" fill="#F99247"/>
<path d="M20.6373 270.254H19.7422V277.083H20.6373V270.254Z" fill="#FECC86"/>
<path d="M29.9693 270.254H29.0742V277.083H29.9693V270.254Z" fill="#FECC86"/>
<path d="M25.3287 270.254H24.4336V274.398H25.3287V270.254Z" fill="#FECC86"/>
<path d="M40.1803 270.254H39.2852V277.083H40.1803V270.254Z" fill="#FECC86"/>
<path d="M35.5396 270.254H34.6445V274.398H35.5396V270.254Z" fill="#FECC86"/>
<path d="M50.3717 270.254H49.4766V277.083H50.3717V270.254Z" fill="#FECC86"/>
<path d="M45.731 270.254H44.8359V274.398H45.731V270.254Z" fill="#FECC86"/>
<path d="M60.5826 270.254H59.6875V277.083H60.5826V270.254Z" fill="#FECC86"/>
<path d="M55.942 270.254H55.0469V274.398H55.942V270.254Z" fill="#FECC86"/>
<path d="M70.7779 270.254H69.8828V277.083H70.7779V270.254Z" fill="#FECC86"/>
<path d="M66.1373 270.254H65.2422V274.398H66.1373V270.254Z" fill="#FECC86"/>
<path d="M104.133 194.221L104.183 283.847L166.64 283.913L104.133 194.221ZM112.885 224.157L146.899 273.437L112.835 273.404L112.885 224.157Z" fill="#FECC86"/>
<path d="M110.525 203.37L110.07 202.717L106.084 205.491L106.538 206.144L110.525 203.37Z" fill="#F99247"/>
<path d="M116.947 212.61L116.492 211.957L112.546 214.702L113.001 215.355L116.947 212.61Z" fill="#F99247"/>
<path d="M113.857 208.18L113.402 207.527L111.429 208.9L111.884 209.553L113.857 208.18Z" fill="#F99247"/>
<path d="M123.509 222.038L123.055 221.385L119.109 224.13L119.563 224.783L123.509 222.038Z" fill="#F99247"/>
<path d="M120.427 217.62L119.973 216.967L118 218.339L118.454 218.993L120.427 217.62Z" fill="#F99247"/>
<path d="M130.087 231.479L129.633 230.826L125.673 233.581L126.128 234.234L130.087 231.479Z" fill="#F99247"/>
<path d="M127.009 227.04L126.555 226.387L124.568 227.769L125.022 228.422L127.009 227.04Z" fill="#F99247"/>
<path d="M136.661 240.899L136.207 240.246L132.247 243.001L132.702 243.654L136.661 240.899Z" fill="#F99247"/>
<path d="M133.568 236.466L133.113 235.812L131.113 237.204L131.567 237.857L133.568 236.466Z" fill="#F99247"/>
<path d="M143.224 250.329L142.77 249.676L138.796 252.44L139.251 253.093L143.224 250.329Z" fill="#F99247"/>
<path d="M140.134 245.901L139.68 245.248L137.679 246.64L138.134 247.293L140.134 245.901Z" fill="#F99247"/>
<path d="M149.81 259.743L149.355 259.09L145.383 261.854L145.837 262.507L149.81 259.743Z" fill="#F99247"/>
<path d="M146.712 255.319L146.258 254.666L144.258 256.058L144.712 256.711L146.712 255.319Z" fill="#F99247"/>
<path d="M156.392 269.161L155.938 268.508L151.951 271.281L152.405 271.935L156.392 269.161Z" fill="#F99247"/>
<path d="M153.294 264.729L152.84 264.076L150.826 265.477L151.281 266.13L153.294 264.729Z" fill="#F99247"/>
<path d="M162.95 278.587L162.496 277.934L158.51 280.707L158.964 281.36L162.95 278.587Z" fill="#F99247"/>
<path d="M159.857 274.161L159.402 273.508L157.389 274.909L157.843 275.562L159.857 274.161Z" fill="#F99247"/>
<path d="M95.4288 233.353C94.8983 233.353 94.4342 232.956 94.3513 232.425C94.3348 232.326 92.9424 222.546 87.837 214.54C87.5221 214.042 87.6712 213.363 88.1685 213.048C88.6658 212.733 89.3454 212.882 89.6604 213.379C95.0309 221.783 96.4233 231.712 96.4896 232.143C96.5725 232.74 96.1581 233.287 95.5614 233.37C95.5282 233.353 95.4785 233.353 95.4288 233.353Z" fill="#21111D"/>
<path d="M124.733 232.61C118.468 221.537 108.837 222.499 103.533 225.383C99.2395 227.72 95.4271 228.333 94.1342 228.466C92.8413 228.317 89.0288 227.72 84.7356 225.383C79.4314 222.499 69.8008 221.537 63.5351 232.61C57.2694 243.683 67.6293 282.702 82.7963 284.393C82.7963 284.393 87.3712 284.393 89.0619 284.393C89.725 284.393 90.5869 284.36 91.5649 284.327C91.6146 284.376 91.6809 284.393 91.7472 284.393C92.5595 284.327 93.3551 284.294 94.1342 284.294C94.9132 284.294 95.7254 284.327 96.5211 284.393C96.5874 284.393 96.6537 284.376 96.7034 284.327C97.6814 284.36 98.5268 284.393 99.2064 284.393C100.897 284.393 105.472 284.393 105.472 284.393C120.639 282.702 130.982 243.699 124.733 232.61Z" fill="#FF424D"/>
<path d="M68.3096 234.895C68.2764 234.895 68.2433 234.895 68.2101 234.878C68.0775 234.829 68.0278 234.679 68.0775 234.547C68.0941 234.497 70.481 229.243 76.2826 227.933C76.4152 227.9 76.5478 227.983 76.5809 228.115C76.6141 228.248 76.5312 228.381 76.3986 228.414C70.8457 229.674 68.5582 234.696 68.5416 234.746C68.4919 234.829 68.3925 234.895 68.3096 234.895Z" fill="#21111D"/>
<path d="M69.7197 237.233C69.6866 237.233 69.6534 237.233 69.6203 237.216C69.4877 237.167 69.4379 237.017 69.4877 236.885C69.5042 236.835 71.8912 231.58 77.6927 230.271C77.8253 230.238 77.9579 230.321 77.9911 230.453C78.0242 230.586 77.9414 230.719 77.8088 230.752C72.2558 232.011 69.9684 237.017 69.9518 237.084C69.9021 237.183 69.8192 237.233 69.7197 237.233Z" fill="#21111D"/>
<path d="M114.92 224.055C104.544 238.393 84.5365 263.124 67.1484 267.484C70.9443 276.468 76.4475 283.695 82.7795 284.391C82.7795 284.391 87.3544 284.391 89.0452 284.391C89.7082 284.391 90.5702 284.358 91.5481 284.325C91.5979 284.374 91.6642 284.391 91.7305 284.391C92.5427 284.325 93.3383 284.291 94.1174 284.291C94.8965 284.291 95.7087 284.325 96.5043 284.391C96.5706 284.391 96.6369 284.374 96.6867 284.325C97.6646 284.358 98.51 284.391 99.1896 284.391C100.88 284.391 105.455 284.391 105.455 284.391C120.622 282.7 130.982 243.697 124.716 232.608C121.915 227.619 118.418 225.082 114.92 224.055Z" fill="#EF3A4C"/>
<path d="M110.744 236.641C113.86 238.44 117.083 238.69 117.943 237.199C118.804 235.709 116.976 233.042 113.86 231.243C110.744 229.445 107.521 229.195 106.661 230.685C105.8 232.175 107.628 234.842 110.744 236.641Z" fill="#F46E6E"/>
<path d="M89.0631 284.638H82.7809C76.3826 283.926 71.6087 277.063 68.7245 271.411C61.9118 258.084 59.3426 239.535 63.3208 232.474C66.1221 227.518 69.9677 224.418 74.4432 223.506C77.8578 222.81 81.6537 223.407 84.8528 225.164C89.0631 227.452 92.7595 228.065 94.1685 228.231C94.2016 228.231 97.1024 228.579 100.915 226.374C101.031 226.308 101.197 226.341 101.263 226.474C101.329 226.59 101.296 226.755 101.164 226.822C97.2019 229.126 94.2182 228.744 94.1022 228.728C92.6767 228.562 88.8974 227.949 84.6042 225.612C79.8304 223.009 70.0672 221.584 63.7517 232.739C61.8787 236.054 61.4311 242.254 62.5086 249.763C63.586 257.189 66.0061 264.996 69.1721 271.179C73.1668 278.986 78.007 283.577 82.814 284.124H89.0631C89.1957 284.124 89.3118 284.24 89.3118 284.373C89.3118 284.522 89.1957 284.638 89.0631 284.638Z" fill="#21111D"/>
<path d="M14.0729 284.146C13.9402 284.146 13.8242 284.03 13.8242 283.897V272.676C13.8242 271.2 15.0343 269.99 16.5095 269.99H68.4086C68.5412 269.99 68.6573 270.106 68.6573 270.239C68.6573 270.371 68.5412 270.488 68.4086 270.488H16.5095C15.316 270.488 14.3381 271.465 14.3381 272.659V283.881C14.3215 284.047 14.222 284.146 14.0729 284.146Z" fill="#21111D"/>
<path d="M346.324 70.9783C346.324 47.9046 327.626 29.207 304.552 29.207C281.479 29.207 262.781 47.9046 262.781 70.9783C262.781 82.4156 267.389 92.7921 274.832 100.334C274.832 100.334 287.479 113.86 291.739 128.596C291.739 128.596 299.033 131.082 304.552 131.215C310.056 131.082 317.366 128.596 317.366 128.596C321.642 113.86 334.273 100.334 334.273 100.334C341.716 92.7921 346.324 82.4322 346.324 70.9783Z" fill="#FECC86"/>
<path d="M304.552 153.146C300.972 153.146 298.055 150.245 298.055 146.648H311.034C311.034 150.229 308.133 153.146 304.552 153.146Z" fill="#4CB7D8"/>
<path d="M306.261 148.422H302.83C296.083 148.422 290.613 142.952 290.613 136.206V125.266H318.461V136.206C318.477 142.952 313.007 148.422 306.261 148.422Z" fill="#4CB7D8"/>
<path opacity="0.3" d="M346.321 70.9779C346.321 62.4247 343.752 54.4849 339.343 47.8711C327.127 77.9729 307.633 98.2286 279.57 106.069C283.101 110.71 287.792 117.689 290.626 125.264H318.457C323.463 111.887 334.254 100.334 334.254 100.334C341.713 92.7917 346.321 82.4318 346.321 70.9779Z" fill="#FECC86"/>
<path d="M311.382 125.428L310.189 125.097C310.222 124.947 314.117 110.626 316.819 95.9562C321.51 70.4956 318.808 65.1085 316.786 64.1471C314.714 63.1691 313.089 63.3514 311.946 64.6609C311.863 64.7604 311.78 64.8598 311.714 64.9593C314.631 66.6832 315.344 69.3188 315.509 70.3962C315.974 73.3467 314.648 76.2972 312.559 76.9768C312.045 77.1426 311.084 77.2255 310.238 75.9491C308.896 73.9269 308.481 68.8712 309.973 65.5063C308.531 64.9261 306.791 64.6112 304.785 64.6112H303.575C301.569 64.6112 299.829 64.9261 298.387 65.5063C299.878 68.8712 299.464 73.9269 298.121 75.9491C297.276 77.2255 296.315 77.1426 295.801 76.9768C293.712 76.3138 292.386 73.3633 292.85 70.3962C293.016 69.3188 293.729 66.6832 296.646 64.9593C296.563 64.8598 296.497 64.7604 296.414 64.6609C295.27 63.3349 293.646 63.1691 291.574 64.1471C289.552 65.0919 286.85 70.4956 291.541 95.9562C294.243 110.626 298.138 124.947 298.171 125.097L296.978 125.428C296.944 125.279 293.033 110.924 290.314 96.1883C286.568 75.8662 286.8 65.0256 291.043 63.0365C294.326 61.4949 296.281 62.6387 297.342 63.8653C297.492 64.031 297.624 64.23 297.757 64.4123C299.215 63.7824 301.105 63.3846 303.558 63.3846H304.768C307.222 63.3846 309.111 63.7824 310.57 64.4123C310.702 64.2134 310.835 64.031 310.984 63.8653C312.045 62.6387 314.001 61.4949 317.283 63.0365C321.51 65.0256 321.742 75.8662 318.012 96.1883C315.327 110.908 311.415 125.279 311.382 125.428ZM297.293 66.0699C295.536 67.0976 294.408 68.6391 294.11 70.5951C293.712 73.1809 294.873 75.369 296.215 75.7999C296.348 75.8331 296.679 75.9491 297.127 75.2695C298.254 73.5456 298.552 68.9872 297.293 66.0699ZM311.1 66.0699C309.824 68.9872 310.139 73.5456 311.283 75.2695C311.73 75.9491 312.062 75.8331 312.194 75.7999C313.537 75.369 314.697 73.1809 314.299 70.5951C313.968 68.6391 312.857 67.0976 311.1 66.0699Z" fill="#F99247"/>
<path d="M290.412 125.563C290.08 124.618 289.931 124.27 289.6 123.491L289.417 123.077C284.196 110.893 274.698 100.65 274.598 100.55L274.565 100.517C266.758 92.5937 262.465 82.1012 262.465 70.9788C262.465 47.7725 281.345 28.8926 304.551 28.8926C318.79 28.8926 331.968 36.0202 339.775 47.9548L339.261 48.2864C331.57 36.5341 318.591 29.5059 304.551 29.5059C281.693 29.5059 263.095 48.104 263.095 70.9622C263.095 81.9354 267.338 92.2953 275.063 100.103L275.46 100.517H275.427C277.251 102.556 285.323 111.905 289.981 122.812L290.163 123.226C290.495 124.005 290.644 124.353 290.992 125.331L290.412 125.563Z" fill="#21111D"/>
<path d="M275.378 51.6984L274.781 51.5326C274.814 51.4331 277.898 41.1395 288.291 37.2773L288.506 37.8575C278.428 41.6036 275.411 51.5989 275.378 51.6984Z" fill="#21111D"/>
<path d="M277.3 55.4152L276.703 55.2494C276.736 55.1499 279.819 44.8563 290.212 40.9941L290.428 41.5743C280.333 45.337 277.333 55.3157 277.3 55.4152Z" fill="#21111D"/>
<path d="M306.06 148.735H303.026C296.015 148.735 290.312 143.033 290.312 136.021V124.965H318.475V125.578H290.942V136.021C290.942 142.684 296.363 148.121 303.043 148.121H306.076C309.275 148.121 312.276 146.895 314.563 144.64L314.994 145.088C312.59 147.442 309.424 148.735 306.06 148.735Z" fill="#21111D"/>
<path d="M304.717 153.459C298.683 153.459 297.805 147.608 297.805 147.542L298.418 147.459C298.451 147.691 299.247 152.962 304.916 152.83L304.932 153.443C304.866 153.443 304.8 153.459 304.717 153.459Z" fill="#21111D"/>
<path d="M333.197 94.3679L332.832 93.8707C338.352 89.7764 339.214 82.9472 339.214 82.8809L339.827 82.9472C339.827 83.03 338.932 90.1245 333.197 94.3679Z" fill="#21111D"/>
<path d="M331.986 91.4019L331.621 90.9046C335.632 87.9209 336.279 82.9482 336.279 82.8984L336.892 82.9647C336.859 83.1802 336.213 88.2525 331.986 91.4019Z" fill="#21111D"/>
<path d="M289.332 130.835V130.222C289.564 130.222 313.052 129.907 320.495 127.139L320.71 127.719C313.168 130.52 290.31 130.819 289.332 130.835Z" fill="#21111D"/>
<path d="M289.333 136.072L289.316 135.459C289.565 135.459 315.059 134.945 319.816 132.393L320.114 132.94C315.225 135.559 290.394 136.039 289.333 136.072Z" fill="#21111D"/>
<path d="M290.625 141.442V140.829C290.857 140.829 313.715 140.58 319.848 137.414L320.13 137.961C313.864 141.193 291.57 141.425 290.625 141.442Z" fill="#21111D"/>
<path d="M252.136 64.4136C252.103 64.4136 252.087 64.4136 252.053 64.4136L237.268 63.1538C236.754 63.1041 236.373 62.6566 236.422 62.1427C236.472 61.6288 236.92 61.2476 237.433 61.2973L252.219 62.5571C252.733 62.6068 253.114 63.0544 253.065 63.5682C253.015 64.0489 252.6 64.4136 252.136 64.4136Z" fill="#FECC86"/>
<path d="M259.777 40.862C259.595 40.862 259.413 40.8122 259.247 40.6962L246.997 32.3254C246.566 32.0436 246.467 31.4634 246.749 31.0325C247.03 30.6015 247.611 30.502 248.042 30.7838L260.291 39.1546C260.722 39.4364 260.822 40.0166 260.54 40.4476C260.357 40.7128 260.076 40.862 259.777 40.862Z" fill="#FECC86"/>
<path d="M281.906 23.9701C281.541 23.9701 281.193 23.7546 281.044 23.3899L275.458 9.6485C275.259 9.1678 275.491 8.63737 275.972 8.43846C276.453 8.23955 276.983 8.47162 277.182 8.95232L282.768 22.6937C282.967 23.1744 282.735 23.7049 282.254 23.9038C282.138 23.9535 282.022 23.9701 281.906 23.9701Z" fill="#FECC86"/>
<path d="M356.231 67.0826C355.75 67.0826 355.336 66.7013 355.303 66.2206C355.27 65.7068 355.651 65.2592 356.165 65.2261L370.967 64.2481C371.481 64.2149 371.928 64.5962 371.962 65.11C371.995 65.6239 371.613 66.0714 371.1 66.1046L356.297 67.0826C356.264 67.0826 356.248 67.0826 356.231 67.0826Z" fill="#FECC86"/>
<path d="M349.038 43.3962C348.74 43.3962 348.441 43.247 348.259 42.9818C347.977 42.5508 348.093 41.9706 348.524 41.6888L360.923 33.5501C361.354 33.2683 361.934 33.3843 362.216 33.8153C362.498 34.2463 362.382 34.8264 361.951 35.1082L349.552 43.247C349.386 43.3464 349.204 43.3962 349.038 43.3962Z" fill="#FECC86"/>
<path d="M330.091 23.9176C329.975 23.9176 329.842 23.901 329.726 23.8347C329.262 23.6358 329.03 23.0888 329.245 22.6081L335.096 8.96611C335.295 8.50199 335.842 8.26993 336.323 8.48541C336.787 8.68433 337.019 9.23133 336.804 9.71203L330.952 23.354C330.787 23.7021 330.455 23.9176 330.091 23.9176Z" fill="#FECC86"/>
<path d="M306.257 16.6919C305.726 16.6919 305.312 16.2609 305.329 15.7471L305.561 0.911674C305.561 0.397821 305.992 0 306.489 0H306.505C307.019 0 307.434 0.430973 307.417 0.944825L307.185 15.7802C307.185 16.2941 306.771 16.6919 306.257 16.6919Z" fill="#FECC86"/>
<g opacity="0.5">
<path opacity="0.5" d="M321.342 49.4212C326.09 52.4809 331.125 53.121 332.588 50.8509C334.051 48.5807 331.388 44.26 326.64 41.2003C321.892 38.1406 316.857 37.5005 315.394 39.7706C313.931 42.0407 316.594 46.3614 321.342 49.4212Z" fill="#F3FFFE"/>
</g>
<path d="M32.5197 149.319C32.3042 149.319 32.1053 149.186 32.039 148.954C32.0224 148.921 31.7572 148.042 31.4091 146.484C31.3428 146.219 31.5086 145.937 31.7903 145.888C32.0556 145.821 32.3373 145.987 32.3871 146.269C32.7352 147.794 33.0004 148.656 33.0004 148.672C33.0833 148.938 32.9341 149.219 32.6689 149.302C32.6191 149.302 32.5694 149.319 32.5197 149.319Z" fill="#21111D"/>
<path d="M30.9118 141.84C30.6632 141.84 30.4477 141.657 30.4145 141.409C30.1493 139.718 29.9338 137.994 29.7681 136.287C29.7349 136.005 29.9504 135.773 30.2156 135.74C30.4974 135.707 30.7295 135.922 30.7626 136.187C30.9118 137.861 31.1273 139.569 31.3925 141.243C31.4422 141.525 31.2433 141.773 30.9781 141.823C30.9615 141.84 30.945 141.84 30.9118 141.84ZM29.967 131.645C29.7018 131.645 29.4697 131.43 29.4697 131.148C29.4531 130.618 29.4531 130.104 29.4531 129.573C29.4531 128.363 29.4863 127.153 29.5526 125.977C29.5692 125.695 29.8012 125.479 30.083 125.496C30.3648 125.512 30.5803 125.744 30.5637 126.026C30.4974 127.187 30.4643 128.38 30.4643 129.573C30.4643 130.087 30.4643 130.601 30.4808 131.115C30.4808 131.397 30.2653 131.629 29.967 131.645C29.9836 131.645 29.9836 131.645 29.967 131.645ZM30.5471 121.402C30.5306 121.402 30.4974 121.402 30.4808 121.402C30.199 121.368 30.0167 121.103 30.0499 120.838C30.2985 119.098 30.63 117.39 31.0444 115.766C31.1107 115.501 31.3925 115.335 31.6577 115.401C31.9229 115.467 32.0887 115.749 32.0224 116.014C31.6246 117.606 31.293 119.28 31.0444 120.987C31.0113 121.219 30.7958 121.402 30.5471 121.402ZM76.28 115.998C76.0479 115.998 75.8325 115.832 75.7827 115.583C75.733 115.318 75.9153 115.053 76.1805 114.987C77.8381 114.672 79.2637 113.942 80.4405 112.832C80.6395 112.633 80.9544 112.649 81.1533 112.848C81.3522 113.047 81.3356 113.362 81.1367 113.561C79.8272 114.804 78.2194 115.617 76.3795 115.965C76.3463 115.998 76.3132 115.998 76.28 115.998ZM71.2078 115.799C71.1581 115.799 71.0917 115.782 71.042 115.766C69.4507 115.202 68.0915 113.909 67.1467 112.069C67.0141 111.821 67.1135 111.522 67.3622 111.39C67.6108 111.257 67.9092 111.357 68.0418 111.605C68.8706 113.23 70.0309 114.34 71.3735 114.821C71.6388 114.92 71.7714 115.202 71.6719 115.467C71.6056 115.666 71.4067 115.799 71.2078 115.799ZM33.0501 111.489C32.9838 111.489 32.9341 111.473 32.8678 111.456C32.6025 111.357 32.4699 111.075 32.5694 110.81C33.1827 109.169 33.912 107.577 34.7077 106.085C34.8403 105.837 35.1387 105.754 35.3873 105.87C35.6359 106.003 35.7188 106.301 35.5862 106.55C34.8071 108.008 34.1109 109.566 33.5142 111.158C33.4479 111.357 33.249 111.489 33.0501 111.489ZM83.4408 109.384C83.3911 109.384 83.3413 109.367 83.275 109.351C83.0098 109.268 82.8772 108.97 82.9601 108.721C83.4408 107.279 83.6894 105.671 83.6894 103.964V103.831C83.6894 103.549 83.9049 103.334 84.1867 103.317C84.4685 103.317 84.684 103.533 84.684 103.815V103.947C84.684 105.771 84.4188 107.461 83.9049 109.019C83.8552 109.251 83.6563 109.384 83.4408 109.384ZM66.2019 107.428C65.9532 107.428 65.7377 107.246 65.7046 106.981C65.6217 106.201 65.572 105.373 65.572 104.544C65.572 103.632 65.6217 102.704 65.7212 101.759C65.7543 101.477 66.0029 101.278 66.2682 101.312C66.55 101.345 66.7489 101.593 66.7157 101.859C66.6163 102.77 66.5665 103.665 66.5665 104.544C66.5665 105.34 66.6163 106.135 66.6991 106.865C66.7323 107.146 66.5334 107.395 66.2516 107.428C66.235 107.428 66.2184 107.428 66.2019 107.428ZM37.8737 102.472C37.7742 102.472 37.6748 102.439 37.5753 102.372C37.3432 102.207 37.3101 101.892 37.4593 101.676C38.487 100.284 39.6141 98.9412 40.8242 97.7146C41.0231 97.5157 41.338 97.5157 41.5369 97.7146C41.7359 97.9135 41.7359 98.2285 41.5369 98.4274C40.3601 99.6208 39.266 100.914 38.2715 102.273C38.1886 102.406 38.0394 102.472 37.8737 102.472ZM83.4739 99.2728C83.2584 99.2728 83.0595 99.1236 82.9932 98.9081C82.5457 97.2837 81.8826 95.7421 81.0539 94.3166C80.9047 94.0845 80.9876 93.7696 81.2362 93.6204C81.4683 93.4712 81.7832 93.5541 81.9324 93.8027C82.8109 95.2945 83.5071 96.919 83.9712 98.6263C84.0375 98.8915 83.8883 99.1733 83.6231 99.2396C83.5734 99.2728 83.5237 99.2728 83.4739 99.2728ZM67.2296 97.2837C67.1798 97.2837 67.1301 97.2836 67.097 97.2671C66.8317 97.1842 66.6826 96.919 66.7489 96.6372C67.213 95.0128 67.8263 93.3717 68.5556 91.7639C68.6717 91.5152 68.97 91.3992 69.2187 91.5152C69.4673 91.6313 69.5833 91.9296 69.4673 92.1783C68.7546 93.7364 68.1744 95.3277 67.7103 96.919C67.644 97.151 67.4451 97.2837 67.2296 97.2837ZM45.0345 95.1619C44.8853 95.1619 44.7361 95.0956 44.6366 94.963C44.4709 94.7475 44.504 94.4326 44.7195 94.2503C46.0787 93.1894 47.5208 92.1949 48.9961 91.2998C49.2282 91.1506 49.5431 91.2335 49.6923 91.4655C49.8415 91.6976 49.7586 92.0125 49.5265 92.1617C48.0844 93.0236 46.692 94.0016 45.366 95.0459C45.2499 95.1288 45.1339 95.1619 45.0345 95.1619ZM78.1862 90.6864C78.0702 90.6864 77.9542 90.6533 77.8713 90.5704C76.6281 89.5427 75.186 88.7139 73.5781 88.1172C73.3129 88.0177 73.1803 87.7359 73.2798 87.4707C73.3792 87.2055 73.661 87.0729 73.9262 87.1724C75.6335 87.8022 77.1751 88.6808 78.5012 89.7914C78.7167 89.9737 78.7498 90.2886 78.5675 90.5041C78.468 90.6201 78.3188 90.6864 78.1862 90.6864ZM53.8031 89.8908C53.6042 89.8908 53.4219 89.7748 53.339 89.5924C53.2229 89.3438 53.339 89.0454 53.5876 88.9294C55.1955 88.2166 56.8365 87.6199 58.4775 87.1558C58.7427 87.0729 59.0245 87.2387 59.0908 87.5039C59.1737 87.7691 59.0079 88.0509 58.7427 88.1172C57.1514 88.5647 55.5601 89.1449 53.9854 89.8411C53.9357 89.8742 53.8694 89.8908 53.8031 89.8908ZM71.4398 87.968C71.3404 87.968 71.2575 87.9349 71.1746 87.8851C70.9426 87.7359 70.8763 87.421 71.0089 87.1889C71.9205 85.7468 72.9317 84.3213 74.0423 82.9787C74.2246 82.7632 74.5395 82.73 74.755 82.9124C74.9705 83.0947 75.0037 83.4096 74.8213 83.6251C73.7439 84.9346 72.7493 86.327 71.8542 87.7359C71.7714 87.8851 71.6056 87.968 71.4398 87.968ZM63.6326 87.1392C63.384 87.1392 63.1685 86.9569 63.1353 86.6917C63.1022 86.4099 63.3011 86.1612 63.5829 86.1281C65.3731 85.9292 67.1467 85.896 68.8043 86.0452C69.0861 86.0784 69.285 86.3104 69.2684 86.5922C69.2518 86.874 69.0032 87.0729 68.7214 87.0398C67.1301 86.8906 65.4394 86.9237 63.6989 87.1226C63.6823 87.1392 63.6492 87.1392 63.6326 87.1392ZM77.9376 80.0779C77.805 80.0779 77.6724 80.0282 77.5729 79.9121C77.3906 79.7132 77.3906 79.3983 77.6061 79.1994C78.8493 78.0556 80.2085 76.9616 81.6837 75.9671C81.9158 75.8179 82.2307 75.8676 82.3799 76.0997C82.5291 76.3317 82.4794 76.6467 82.2473 76.7959C80.8218 77.7573 79.4957 78.8181 78.2857 79.9287C78.1862 80.0282 78.0536 80.0779 77.9376 80.0779ZM86.3747 74.2929C86.1924 74.2929 86.01 74.1934 85.9272 74.0111C85.7946 73.7625 85.9106 73.4641 86.1592 73.3315C87.6511 72.5856 89.2589 71.8894 90.9165 71.2761C91.1817 71.1766 91.4635 71.3092 91.563 71.5745C91.6624 71.8397 91.5298 72.1215 91.2646 72.2209C89.6402 72.8176 88.0655 73.4973 86.6068 74.2432C86.5239 74.2763 86.441 74.2929 86.3747 74.2929ZM95.9721 70.7125C95.7567 70.7125 95.5412 70.5633 95.4914 70.3478C95.4251 70.0826 95.5743 69.8008 95.8395 69.7345C97.464 69.3036 99.1547 68.9057 100.879 68.5908C101.144 68.5411 101.409 68.7234 101.459 68.9886C101.508 69.2538 101.326 69.519 101.061 69.5688C99.3536 69.8837 97.696 70.265 96.1048 70.6959C96.055 70.6959 96.0053 70.7125 95.9721 70.7125ZM106.05 68.8063C105.802 68.8063 105.586 68.6239 105.553 68.3587C105.52 68.0769 105.719 67.8283 106.001 67.7952C107.691 67.5962 109.415 67.4471 111.139 67.3642C111.421 67.3476 111.653 67.5631 111.67 67.8449C111.686 68.1267 111.471 68.3587 111.189 68.3753C109.481 68.4582 107.774 68.6074 106.1 68.8063C106.083 68.8063 106.067 68.8063 106.05 68.8063Z" fill="#21111D"/>
<path d="M118.829 68.3616C118.813 68.3616 118.796 68.3616 118.796 68.3616C118.78 68.3616 117.868 68.2953 116.31 68.2787C116.028 68.2787 115.812 68.0466 115.812 67.7649C115.812 67.4831 116.045 67.2676 116.31 67.2676C117.901 67.2842 118.813 67.3505 118.846 67.367C119.128 67.3836 119.327 67.6323 119.31 67.914C119.31 68.1627 119.095 68.3616 118.829 68.3616Z" fill="#21111D"/>
<path d="M125.762 72.9849L128.596 69.736C128.596 69.736 142.686 68.211 142.885 68.1116C143.084 68.0121 150.327 64.382 150.327 64.382L141.227 63.8516L126.358 65.9733L125.762 72.9849Z" fill="#7FC6A6"/>
<path d="M122.977 58.6953L150.343 64.3643L126.358 65.9721L122.977 58.6953Z" fill="#B9EDD6"/>
<path d="M128.613 69.7339L132.144 77.4914L150.344 64.3633L128.613 69.7339Z" fill="#B9EDD6"/>
<path d="M281.109 261.699C281.109 261.699 285.734 273.319 281.855 282.121L370.702 282.867L378.907 282.121L386.134 277.645V270.799L384.128 265.13L377.564 261.699H281.109Z" fill="white"/>
<path d="M374.864 283.996H278.873C278.243 283.996 277.746 283.482 277.746 282.869C277.746 282.256 278.26 281.742 278.873 281.742H374.864C380.666 281.742 385.373 277.366 385.373 271.995C385.373 266.624 380.666 262.248 374.864 262.248H278.873C278.243 262.248 277.746 261.735 277.746 261.121C277.746 260.491 278.26 259.994 278.873 259.994H374.864C381.909 259.994 387.644 265.381 387.644 272.012C387.628 278.609 381.892 283.996 374.864 283.996Z" fill="#61A3C5"/>
<path d="M329.51 272.224H282.401C282.268 272.224 282.152 272.108 282.152 271.975C282.152 271.843 282.268 271.727 282.401 271.727H329.51C329.642 271.727 329.758 271.843 329.758 271.975C329.758 272.124 329.659 272.224 329.51 272.224Z" fill="#AAC9F8"/>
<path d="M381.905 272.224H336.139C336.007 272.224 335.891 272.108 335.891 271.975C335.891 271.843 336.007 271.727 336.139 271.727H381.905C382.038 271.727 382.154 271.843 382.154 271.975C382.154 272.124 382.054 272.224 381.905 272.224Z" fill="#AAC9F8"/>
<path d="M380.681 276.734H357.21C357.077 276.734 356.961 276.618 356.961 276.485C356.961 276.352 357.077 276.236 357.21 276.236H380.698C380.83 276.236 380.946 276.352 380.946 276.485C380.946 276.618 380.814 276.734 380.681 276.734Z" fill="#AAC9F8"/>
<path d="M353.763 276.734H282.421C282.288 276.734 282.172 276.618 282.172 276.485C282.172 276.352 282.288 276.236 282.421 276.236H353.763C353.896 276.236 354.012 276.352 354.012 276.485C354.012 276.618 353.896 276.734 353.763 276.734Z" fill="#AAC9F8"/>
<path d="M385.189 237.881C385.189 237.881 380.564 249.501 384.443 258.302L295.596 259.048L287.391 258.302L280.164 253.827V246.981L282.17 241.312L288.734 237.881H385.189Z" fill="white"/>
<path d="M291.436 260.191H387.427C388.057 260.191 388.554 259.677 388.554 259.064C388.554 258.434 388.041 257.937 387.427 257.937H291.436C285.635 257.937 280.927 253.561 280.927 248.19C280.927 242.82 285.635 238.444 291.436 238.444H387.427C388.057 238.444 388.554 237.93 388.554 237.317C388.554 236.687 388.041 236.189 387.427 236.189H291.436C284.392 236.189 278.656 241.577 278.656 248.207C278.656 254.788 284.392 260.191 291.436 260.191Z" fill="#F75553"/>
<path d="M383.881 248.423H336.772C336.639 248.423 336.523 248.307 336.523 248.174C336.523 248.042 336.639 247.926 336.772 247.926H383.881C384.013 247.926 384.129 248.042 384.129 248.174C384.146 248.307 384.03 248.423 383.881 248.423Z" fill="#AAC9F8"/>
<path d="M330.14 248.423H284.374C284.241 248.423 284.125 248.307 284.125 248.174C284.125 248.042 284.241 247.926 284.374 247.926H330.14C330.272 247.926 330.388 248.042 330.388 248.174C330.388 248.307 330.289 248.423 330.14 248.423Z" fill="#AAC9F8"/>
<path d="M309.088 252.931H285.6C285.468 252.931 285.352 252.815 285.352 252.682C285.352 252.55 285.468 252.434 285.6 252.434H309.088C309.221 252.434 309.337 252.55 309.337 252.682C309.337 252.815 309.221 252.931 309.088 252.931Z" fill="#AAC9F8"/>
<path d="M383.88 252.931H312.538C312.405 252.931 312.289 252.815 312.289 252.682C312.289 252.55 312.405 252.434 312.538 252.434H383.88C384.013 252.434 384.129 252.55 384.129 252.682C384.129 252.815 384.029 252.931 383.88 252.931Z" fill="#AAC9F8"/>
<path d="M296.109 215.452C296.109 215.452 300.403 226.243 296.806 234.398L379.254 235.095L386.862 234.398L393.576 230.238V223.873L391.719 218.618L385.636 215.436H296.109V215.452Z" fill="white"/>
<path d="M383.115 236.155H294.036C293.456 236.155 292.992 235.691 292.992 235.111C292.992 234.531 293.456 234.066 294.036 234.066H383.115C388.486 234.066 392.862 230.005 392.862 225.016C392.862 220.027 388.486 215.966 383.115 215.966H294.036C293.456 215.966 292.992 215.501 292.992 214.921C292.992 214.341 293.456 213.877 294.036 213.877H383.115C389.646 213.877 394.967 218.883 394.967 225.033C394.967 231.149 389.646 236.155 383.115 236.155Z" fill="#258D8C"/>
<path d="M341.033 225.249H297.323C297.19 225.249 297.074 225.133 297.074 225.001C297.074 224.868 297.19 224.752 297.323 224.752H341.033C341.166 224.752 341.282 224.868 341.282 225.001C341.282 225.15 341.183 225.249 341.033 225.249Z" fill="#AAC9F8"/>
<path d="M389.665 225.249H347.198C347.065 225.249 346.949 225.133 346.949 225.001C346.949 224.868 347.065 224.752 347.198 224.752H389.665C389.798 224.752 389.914 224.868 389.914 225.001C389.914 225.15 389.798 225.249 389.665 225.249Z" fill="#AAC9F8"/>
<path d="M388.519 229.445H366.721C366.589 229.445 366.473 229.329 366.473 229.196C366.473 229.063 366.589 228.947 366.721 228.947H388.519C388.651 228.947 388.767 229.063 388.767 229.196C388.767 229.329 388.651 229.445 388.519 229.445Z" fill="#AAC9F8"/>
<path d="M388.519 221.073H297.319C297.186 221.073 297.07 220.957 297.07 220.825C297.07 220.692 297.186 220.576 297.319 220.576H388.519C388.652 220.576 388.768 220.692 388.768 220.825C388.768 220.957 388.652 221.073 388.519 221.073Z" fill="#AAC9F8"/>
<path d="M387.43 260.441H291.439C284.261 260.441 278.41 254.937 278.41 248.174C278.41 241.411 284.245 235.908 291.439 235.908H387.43C388.192 235.908 388.806 236.522 388.806 237.284C388.806 238.047 388.192 238.66 387.43 238.66C387.297 238.66 387.181 238.544 387.181 238.411C387.181 238.279 387.297 238.163 387.43 238.163C387.91 238.163 388.308 237.765 388.308 237.284C388.308 236.803 387.91 236.405 387.43 236.405H291.439C284.527 236.405 278.924 241.677 278.924 248.174C278.924 254.656 284.543 259.943 291.439 259.943H387.43C387.91 259.943 388.308 259.545 388.308 259.065C388.308 258.584 387.91 258.186 387.43 258.186C387.297 258.186 387.181 258.07 387.181 257.938C387.181 257.805 387.297 257.689 387.43 257.689C388.192 257.689 388.806 258.302 388.806 259.065C388.806 259.811 388.192 260.441 387.43 260.441Z" fill="#21111D"/>
<path d="M383.115 236.405H294.036C293.323 236.405 292.727 235.825 292.727 235.096C292.727 234.366 293.307 233.786 294.036 233.786C294.169 233.786 294.285 233.902 294.285 234.035C294.285 234.167 294.169 234.283 294.036 234.283C293.589 234.283 293.24 234.648 293.24 235.079C293.24 235.51 293.605 235.875 294.036 235.875H383.115C389.513 235.875 394.718 230.985 394.718 224.968C394.718 218.951 389.513 214.077 383.115 214.077H294.036C293.589 214.077 293.24 214.442 293.24 214.873C293.24 215.32 293.605 215.669 294.036 215.669C294.169 215.669 294.285 215.785 294.285 215.917C294.285 216.05 294.169 216.166 294.036 216.166C293.323 216.166 292.727 215.586 292.727 214.856C292.727 214.144 293.307 213.547 294.036 213.547H383.115C389.795 213.547 395.215 218.669 395.215 224.951C395.215 231.3 389.795 236.405 383.115 236.405Z" fill="#21111D"/>
<path d="M374.863 284.243H278.872C278.109 284.243 277.496 283.63 277.496 282.867C277.496 282.105 278.109 281.492 278.872 281.492C279.005 281.492 279.121 281.608 279.121 281.74C279.121 281.873 279.005 281.989 278.872 281.989C278.391 281.989 277.993 282.387 277.993 282.867C277.993 283.348 278.391 283.746 278.872 283.746H374.863C381.775 283.746 387.378 278.475 387.378 271.977C387.378 265.496 381.758 260.208 374.863 260.208H278.872C278.391 260.208 277.993 260.606 277.993 261.087C277.993 261.567 278.391 261.965 278.872 261.965C279.005 261.965 279.121 262.081 279.121 262.214C279.121 262.346 279.005 262.463 278.872 262.463C278.109 262.463 277.496 261.849 277.496 261.087C277.496 260.324 278.109 259.711 278.872 259.711H374.863C382.04 259.711 387.892 265.214 387.892 271.977C387.875 278.74 382.04 284.243 374.863 284.243Z" fill="#21111D"/>
<path d="M307.778 267.469C307.778 267.469 304.761 274.994 306.502 280.547L308.955 276.751C308.955 276.751 310.629 278.757 311.657 280.547C311.657 280.547 313.53 268.165 317.177 267.469H307.778Z" fill="#F75553"/>
<path d="M372.211 243.664C372.211 243.664 375.228 251.19 373.487 256.742L371.034 252.947C371.034 252.947 369.36 254.952 368.332 256.742C368.332 256.742 366.459 244.36 362.812 243.664H372.211Z" fill="#7FC6A6"/>
<path d="M311.708 229.195C311.708 229.195 308.691 236.721 310.431 242.274L312.885 238.478C312.885 238.478 314.559 240.483 315.587 242.274C315.587 242.274 317.46 229.891 321.106 229.195H311.708Z" fill="#4CB7D8"/>
<path d="M380.679 267.716H282.401C282.268 267.716 282.152 267.6 282.152 267.467C282.152 267.335 282.268 267.219 282.401 267.219H380.679C380.812 267.219 380.928 267.335 380.928 267.467C380.928 267.6 380.812 267.716 380.679 267.716Z" fill="#AAC9F8"/>
<path d="M383.879 243.913H285.6C285.468 243.913 285.352 243.797 285.352 243.665C285.352 243.532 285.468 243.416 285.6 243.416H383.879C384.011 243.416 384.127 243.532 384.127 243.665C384.144 243.797 384.028 243.913 383.879 243.913Z" fill="#AAC9F8"/>
<path d="M363.524 229.445H297.303C297.171 229.445 297.055 229.329 297.055 229.196C297.055 229.063 297.171 228.947 297.303 228.947H363.524C363.657 228.947 363.773 229.063 363.773 229.196C363.789 229.329 363.673 229.445 363.524 229.445Z" fill="#AAC9F8"/>
<path d="M341.957 245.77L345.471 247.743L349.648 243.632L349.764 242.952L348.736 235.477L340.598 236.985L341.957 245.77Z" fill="#FE9F73"/>
<path d="M347.942 247.958L336.72 249.483C336.62 249.483 336.538 249.483 336.471 249.466C335.377 249.284 335.626 248.571 335.626 248.571L340.549 244.51L340.582 244.013C340.632 243.201 341.577 242.803 342.356 243.234L344.428 244.345C344.428 244.345 349.284 244.411 349.765 242.969L350.213 246.499C350.196 246.483 350.71 247.56 347.942 247.958Z" fill="#F75553"/>
<path d="M327.457 246.251L330.971 248.223L335.148 244.112L335.264 243.433L334.236 235.957L326.098 237.465L327.457 246.251Z" fill="#FE9F73"/>
<path d="M333.442 248.439L322.22 249.964C322.12 249.964 322.038 249.964 321.971 249.947C320.877 249.765 321.126 249.052 321.126 249.052L326.049 244.991L326.082 244.494C326.132 243.681 327.077 243.283 327.856 243.714L329.928 244.825C329.928 244.825 334.784 244.891 335.265 243.449L335.713 246.98C335.696 246.963 336.226 248.041 333.442 248.439Z" fill="#F75553"/>
<path d="M354.905 215.718C354.905 215.718 368.911 216.381 372.79 215.519C376.686 214.657 377.63 202.523 373.221 195.081C368.812 187.638 353.363 210.48 353.363 210.48L354.905 215.718Z" fill="#49263E"/>
<path d="M346.253 197.699C346.253 197.699 326.76 200.732 326.197 202.986C325.633 205.241 324.009 229.276 325.219 239.536C325.219 239.536 332.645 240.05 336.192 239.188L337.054 214.192L342.922 213.512L356.348 197.367L346.253 197.699Z" fill="#3A1F33"/>
<path d="M355.734 199.109C355.734 199.109 340.633 203.369 340.07 205.624C339.506 207.878 337.898 229.327 339.108 239.588C339.108 239.588 347.098 240.052 350.645 239.19L351.606 215.602L355.054 215.718L363.408 201.016L355.734 199.109Z" fill="#49263E"/>
<path d="M365.101 170.35C365.101 170.35 371.782 170.466 373.323 171.378C374.865 172.289 381.976 183.992 383.517 188.965C383.517 188.965 379.506 192.479 374.334 192.611L373.091 190.274L373.804 195.065L360.278 199.076C355.686 200.435 350.78 200.286 346.288 198.628L344.879 198.115C344.879 198.115 344.895 175.339 348.973 172.936C352.587 170.764 360.427 169.637 365.101 170.35Z" fill="#FEBAC7"/>
<path d="M356.715 159.161V165.609C356.715 165.609 356.632 167.78 358.539 168.062L358.191 170.963C358.058 172.04 358.704 173.085 359.749 173.4C360.263 173.565 360.859 173.681 361.556 173.681C363.727 173.681 364.92 172.04 365.103 171.228C365.285 170.416 364.738 166.504 364.738 166.504L364.804 164.581L364.556 157.139L356.715 159.161Z" fill="#FE9F73"/>
<path d="M361.969 162.378C361.986 162.378 362.019 162.362 362.036 162.345C362.069 162.312 362.069 162.246 362.036 162.212C362.019 162.196 360.776 160.919 359.632 161.848C359.599 161.881 359.583 161.931 359.616 161.98C359.649 162.014 359.699 162.03 359.748 161.997C360.759 161.185 361.853 162.312 361.903 162.345C361.92 162.378 361.953 162.378 361.969 162.378Z" fill="#FECC86"/>
<path d="M358.221 161.828C358.254 161.828 358.271 161.812 358.287 161.795C358.32 161.762 358.32 161.696 358.271 161.662C358.237 161.629 357.376 160.883 356.812 161.364C356.779 161.397 356.762 161.447 356.795 161.497C356.829 161.53 356.878 161.546 356.928 161.513C357.359 161.149 358.138 161.812 358.138 161.812C358.188 161.828 358.204 161.828 358.221 161.828Z" fill="#FECC86"/>
<path d="M360.41 163.009C360.556 163.009 360.675 162.89 360.675 162.744C360.675 162.597 360.556 162.479 360.41 162.479C360.263 162.479 360.145 162.597 360.145 162.744C360.145 162.89 360.263 163.009 360.41 163.009Z" fill="black"/>
<path d="M357.507 162.741C357.654 162.741 357.773 162.623 357.773 162.476C357.773 162.33 357.654 162.211 357.507 162.211C357.361 162.211 357.242 162.33 357.242 162.476C357.242 162.623 357.361 162.741 357.507 162.741Z" fill="black"/>
<path d="M364.273 157.52L362.748 159.675C362.748 159.675 358.14 161.465 355.786 159.344C353.432 157.222 354.145 156.211 354.841 155.15C355.189 154.62 356.814 153.559 358.803 154.454C359.897 154.935 360.692 153.493 361.969 154.222C363.245 154.951 364.737 156.211 364.571 156.708C364.405 157.206 364.273 157.52 364.273 157.52Z" fill="#FECC86"/>
<path d="M364.172 156.608C364.172 156.608 366.26 156.509 366.857 158.531C367.437 160.553 366.658 161.614 366.641 162.211C366.625 162.808 367.023 166.869 364.188 166.57L363.426 159.874L364.42 157.205L364.172 156.608Z" fill="#FECC86"/>
<path d="M364.024 164.3C364.93 164.3 365.665 163.565 365.665 162.659C365.665 161.752 364.93 161.018 364.024 161.018C363.118 161.018 362.383 161.752 362.383 162.659C362.383 163.565 363.118 164.3 364.024 164.3Z" fill="#FE9F73"/>
<path d="M364.139 163.654C364.47 163.654 364.702 163.406 364.785 163.141C364.868 162.842 364.769 162.544 364.52 162.395C364.155 162.163 363.824 162.312 363.658 162.428C363.724 162.246 363.84 162.113 363.989 162.03C364.304 161.848 364.719 161.98 364.719 161.98C364.735 161.98 364.769 161.98 364.769 161.947C364.769 161.931 364.769 161.897 364.735 161.897C364.719 161.897 364.288 161.748 363.94 161.947C363.741 162.063 363.592 162.262 363.525 162.544L363.492 162.71L363.608 162.594C363.625 162.577 364.006 162.196 364.47 162.478C364.719 162.643 364.752 162.925 364.686 163.124C364.619 163.323 364.437 163.572 364.139 163.572C364.139 163.572 364.139 163.572 364.122 163.572C364.106 163.572 364.072 163.588 364.072 163.621C364.089 163.638 364.106 163.654 364.139 163.654Z" fill="#F07162"/>
<path d="M362.945 166.207C362.945 166.207 362.812 169.854 358.254 170.202L358.519 168.064C358.519 168.064 361.486 168.644 362.945 166.207Z" fill="#F07162"/>
<path d="M373.272 190.557C378.908 189.678 382.24 186.313 382.273 186.28L382.074 186.098C382.041 186.131 378.759 189.446 373.223 190.308L373.272 190.557Z" fill="#21111D"/>
<path d="M345.854 239.87C349.385 239.87 350.645 239.339 350.695 239.306L350.778 239.273L351.706 215.553L350.247 216.232L350.363 216.481L351.407 215.984L350.512 239.074C350.131 239.207 348.308 239.737 343.981 239.538L343.965 239.803C344.661 239.853 345.291 239.87 345.854 239.87Z" fill="#21111D"/>
<path d="M349.171 234.745C349.553 233.287 349.652 219.131 349.652 218.518H349.387C349.387 218.667 349.271 233.254 348.906 234.679L349.171 234.745Z" fill="#21111D"/>
<path d="M335.15 214.723C336.94 214.143 339.41 214.06 339.427 214.06L339.41 213.795C339.377 213.795 336.891 213.878 335.051 214.475L335.15 214.723Z" fill="#21111D"/>
<path d="M331.121 239.819C334.137 239.819 336.209 239.322 336.243 239.322L336.342 239.306L337.221 214.027L336.11 214.922L336.276 215.138L336.922 214.607L336.077 239.074C335.613 239.173 333.607 239.571 330.855 239.538V239.803C330.938 239.819 331.021 239.819 331.121 239.819Z" fill="#21111D"/>
<path d="M334.918 235.277C335.299 233.089 334.934 218.237 334.918 217.607H334.652C334.652 217.757 335.017 233.073 334.652 235.228L334.918 235.277Z" fill="#21111D"/>
<path d="M353.579 203.9L359.298 200.767L351.922 199.408L353.579 203.9Z" fill="#5089A0"/>
<path d="M353.363 203.537C353.463 203.471 358.883 200.604 358.883 200.604L358.966 200.935L353.579 203.886L353.363 203.537Z" fill="#4CB7D8"/>
<path d="M348.373 200.284L349.914 197.88C350.76 196.505 352.135 194.698 353.561 194.549C355.898 194.283 370.12 193.703 374.629 193.14C374.629 193.14 374.314 192.593 374.331 192.593C374.38 192.609 378.027 191.979 378.027 191.979L380.364 190.869L382.469 189.957C383.049 192.228 384.641 195.941 383.016 198.543C379.999 203.334 356.876 200.98 354.821 200.35L352.931 202.389L352.55 202.986C352.367 203.267 351.986 203.35 351.704 203.168C351.423 202.986 351.34 202.604 351.522 202.323L351.356 202.571C351.174 202.853 350.793 202.936 350.511 202.754C350.229 202.571 350.146 202.19 350.329 201.908C350.146 202.19 349.765 202.273 349.483 202.091C349.201 201.908 349.119 201.527 349.301 201.245L349.467 200.997C349.284 201.278 348.903 201.361 348.621 201.179C348.605 201.179 348.605 201.162 348.588 201.162C348.588 201.162 348.572 201.162 348.572 201.146C348.538 201.113 348.505 201.079 348.472 201.046C348.157 200.632 348.373 200.284 348.373 200.284Z" fill="#FE9F73"/>
<path d="M374.249 192.794H374.332C378.923 192.694 383.548 189.147 383.581 189.114L383.664 189.048L380.747 182.6L380.498 182.716L383.316 188.965C382.669 189.445 378.525 192.379 374.398 192.512L373.155 189.959L372.906 190.075L374.249 192.794Z" fill="#21111D"/>
<path d="M376.257 195.365C376.29 195.365 376.306 195.365 376.339 195.349C376.373 195.315 376.389 195.266 376.356 195.216L374.698 193.078C374.665 193.044 374.616 193.028 374.566 193.061C374.533 193.094 374.516 193.144 374.549 193.194L376.207 195.332C376.223 195.349 376.24 195.365 376.257 195.365Z" fill="#F07162"/>
<path d="M349.22 201.346C349.253 201.346 349.286 201.346 349.32 201.313L351.491 198.346C351.524 198.313 351.508 198.247 351.474 198.213C351.441 198.18 351.375 198.197 351.342 198.23L349.17 201.197C349.137 201.23 349.154 201.296 349.187 201.33C349.204 201.346 349.204 201.346 349.22 201.346Z" fill="#F07162"/>
<path d="M350.165 202.223C350.199 202.223 350.232 202.223 350.265 202.19L352.337 199.123C352.37 199.074 352.353 199.024 352.32 198.991C352.271 198.958 352.221 198.974 352.188 199.007L350.116 202.074C350.083 202.124 350.099 202.173 350.132 202.206C350.149 202.206 350.165 202.223 350.165 202.223Z" fill="#F07162"/>
<path d="M351.326 202.772C351.359 202.772 351.392 202.772 351.425 202.739L353.149 200.136C353.182 200.086 353.166 200.037 353.116 200.004C353.066 199.97 353.016 199.987 352.983 200.037L351.259 202.639C351.226 202.689 351.243 202.739 351.293 202.772C351.293 202.772 351.309 202.772 351.326 202.772Z" fill="#F07162"/>
<path d="M360.909 215.968C353.996 215.968 349.836 215.503 349.77 215.503L349.803 215.238C349.902 215.255 359.268 216.283 373.224 215.238L373.241 215.503C368.55 215.852 364.389 215.968 360.909 215.968Z" fill="#21111D"/>
<path d="M351.492 179.44L351.227 179.432L350.861 190.996L351.126 191.004L351.492 179.44Z" fill="#21111D"/>
<path d="M330.09 184.537L332.56 202.157L353.578 203.898L352.865 184.719L330.09 184.537Z" fill="#4CB7D8"/>
<path d="M374.455 192.729L369.047 180.277L368.804 180.383L374.212 192.835L374.455 192.729Z" fill="#21111D"/>
<path d="M373.669 193.25L373.066 189.52L372.805 189.562L373.407 193.293L373.669 193.25Z" fill="#21111D"/>
<path d="M359.182 164.579C359.199 164.579 359.215 164.562 359.232 164.546C359.232 164.529 359.232 164.496 359.199 164.496L358.287 164.198L358.569 162.059C358.569 162.043 358.552 162.01 358.536 162.01C358.502 162.01 358.486 162.026 358.486 162.043L358.188 164.264L359.182 164.579C359.165 164.579 359.165 164.579 359.182 164.579Z" fill="#F07162"/>
<path d="M359.88 165.46C359.847 165.46 358.09 165.41 358.09 165.41C358.09 165.41 358.305 166.139 358.968 166.156C359.631 166.173 359.88 165.46 359.88 165.46Z" fill="#FBFDFC"/>
<path d="M341.085 193.589C341.524 193.589 341.88 193.233 341.88 192.794C341.88 192.354 341.524 191.998 341.085 191.998C340.645 191.998 340.289 192.354 340.289 192.794C340.289 193.233 340.645 193.589 341.085 193.589Z" fill="#E2F2F1"/>
<path d="M206.535 43.3944C208.641 43.3944 210.348 41.6875 210.348 39.582C210.348 37.4764 208.641 35.7695 206.535 35.7695C204.43 35.7695 202.723 37.4764 202.723 39.582C202.723 41.6875 204.43 43.3944 206.535 43.3944Z" fill="#FECC86"/>
<path d="M216.15 50.1921C217.065 50.1921 217.807 49.45 217.807 48.5345C217.807 47.6191 217.065 46.877 216.15 46.877C215.234 46.877 214.492 47.6191 214.492 48.5345C214.492 49.45 215.234 50.1921 216.15 50.1921Z" fill="#FECC86"/>
<path d="M108.242 94.4491C110.348 94.4491 112.055 92.7422 112.055 90.6367C112.055 88.5311 110.348 86.8242 108.242 86.8242C106.137 86.8242 104.43 88.5311 104.43 90.6367C104.43 92.7422 106.137 94.4491 108.242 94.4491Z" fill="#FECC86"/>
<path d="M75.75 147.492C77.8555 147.492 79.5624 145.785 79.5624 143.68C79.5624 141.574 77.8555 139.867 75.75 139.867C73.6444 139.867 71.9375 141.574 71.9375 143.68C71.9375 145.785 73.6444 147.492 75.75 147.492Z" fill="#FECC86"/>
<path d="M99.2904 106.716C100.206 106.716 100.948 105.973 100.948 105.058C100.948 104.143 100.206 103.4 99.2904 103.4C98.3749 103.4 97.6328 104.143 97.6328 105.058C97.6328 105.973 98.3749 106.716 99.2904 106.716Z" fill="#FECC86"/>
<path d="M49.5599 135.891C50.4754 135.891 51.2175 135.149 51.2175 134.234C51.2175 133.318 50.4754 132.576 49.5599 132.576C48.6445 132.576 47.9023 133.318 47.9023 134.234C47.9023 135.149 48.6445 135.891 49.5599 135.891Z" fill="#FECC86"/>
<path d="M235.875 103.07C237.981 103.07 239.687 101.363 239.687 99.2578C239.687 97.1522 237.981 95.4453 235.875 95.4453C233.769 95.4453 232.062 97.1522 232.062 99.2578C232.062 101.363 233.769 103.07 235.875 103.07Z" fill="#FECC86"/>
<path d="M221.29 107.214C222.206 107.214 222.948 106.471 222.948 105.556C222.948 104.641 222.206 103.898 221.29 103.898C220.375 103.898 219.633 104.641 219.633 105.556C219.633 106.471 220.375 107.214 221.29 107.214Z" fill="#FECC86"/>
<path d="M248.968 120.307C250.616 120.307 251.952 118.971 251.952 117.324C251.952 115.676 250.616 114.34 248.968 114.34C247.32 114.34 245.984 115.676 245.984 117.324C245.984 118.971 247.32 120.307 248.968 120.307Z" fill="#FECC86"/>
<path d="M398.484 157.273C400.59 157.273 402.297 155.566 402.297 153.461C402.297 151.355 400.59 149.648 398.484 149.648C396.379 149.648 394.672 151.355 394.672 153.461C394.672 155.566 396.379 157.273 398.484 157.273Z" fill="#FECC86"/>
<path d="M324.723 176.168C326.828 176.168 328.535 174.461 328.535 172.355C328.535 170.25 326.828 168.543 324.723 168.543C322.617 168.543 320.91 170.25 320.91 172.355C320.91 174.461 322.617 176.168 324.723 176.168Z" fill="#FECC86"/>
<path d="M383.896 161.415C384.811 161.415 385.553 160.673 385.553 159.757C385.553 158.842 384.811 158.1 383.896 158.1C382.98 158.1 382.238 158.842 382.238 159.757C382.238 160.673 382.98 161.415 383.896 161.415Z" fill="#FECC86"/>
<path d="M334.173 157.108C335.089 157.108 335.831 156.366 335.831 155.451C335.831 154.535 335.089 153.793 334.173 153.793C333.258 153.793 332.516 154.535 332.516 155.451C332.516 156.366 333.258 157.108 334.173 157.108Z" fill="#FECC86"/>
<path d="M411.577 174.51C413.225 174.51 414.561 173.174 414.561 171.527C414.561 169.879 413.225 168.543 411.577 168.543C409.93 168.543 408.594 169.879 408.594 171.527C408.594 173.174 409.93 174.51 411.577 174.51Z" fill="#FECC86"/>
<path d="M224.438 142.023V220.593H282.95V154.953L270.353 142.023H224.438Z" fill="white"/>
<path d="M282.953 154.969L270.422 142.023V154.969H282.953Z" fill="#AAC9F8"/>
<path d="M264.717 151.803H239.19C238.826 151.803 238.527 151.504 238.527 151.14C238.527 150.775 238.826 150.477 239.19 150.477H264.717C265.082 150.477 265.38 150.775 265.38 151.14C265.38 151.504 265.082 151.803 264.717 151.803Z" fill="#AAC9F8"/>
<path d="M268.199 156.943H235.71C235.345 156.943 235.047 156.645 235.047 156.28C235.047 155.916 235.345 155.617 235.71 155.617H268.199C268.563 155.617 268.862 155.916 268.862 156.28C268.862 156.645 268.563 156.943 268.199 156.943Z" fill="#AAC9F8"/>
<path d="M276.817 169.205H229.741C229.376 169.205 229.078 168.907 229.078 168.542C229.078 168.177 229.376 167.879 229.741 167.879H276.817C277.181 167.879 277.48 168.177 277.48 168.542C277.48 168.907 277.181 169.205 276.817 169.205Z" fill="#AAC9F8"/>
<path d="M276.817 175.006H229.741C229.376 175.006 229.078 174.707 229.078 174.343C229.078 173.978 229.376 173.68 229.741 173.68H276.817C277.181 173.68 277.48 173.978 277.48 174.343C277.48 174.707 277.181 175.006 276.817 175.006Z" fill="#AAC9F8"/>
<path d="M276.817 180.81H229.741C229.376 180.81 229.078 180.512 229.078 180.147C229.078 179.783 229.376 179.484 229.741 179.484H276.817C277.181 179.484 277.48 179.783 277.48 180.147C277.48 180.512 277.181 180.81 276.817 180.81Z" fill="#AAC9F8"/>
<path d="M276.817 192.41H229.741C229.376 192.41 229.078 192.112 229.078 191.747C229.078 191.382 229.376 191.084 229.741 191.084H276.817C277.181 191.084 277.48 191.382 277.48 191.747C277.48 192.112 277.181 192.41 276.817 192.41Z" fill="#AAC9F8"/>
<path d="M276.817 198.213H229.741C229.376 198.213 229.078 197.914 229.078 197.55C229.078 197.185 229.376 196.887 229.741 196.887H276.817C277.181 196.887 277.48 197.185 277.48 197.55C277.48 197.914 277.181 198.213 276.817 198.213Z" fill="#AAC9F8"/>
<path d="M276.817 213.133H229.741C229.376 213.133 229.078 212.834 229.078 212.47C229.078 212.105 229.376 211.807 229.741 211.807H276.817C277.181 211.807 277.48 212.105 277.48 212.47C277.48 212.834 277.181 213.133 276.817 213.133Z" fill="#AAC9F8"/>
<path d="M166.141 283.646L166.323 283.912L166.439 284.16H167.136L104.363 194.087C104.28 193.971 104.131 193.938 104.015 194.021C103.899 194.104 103.866 194.253 103.948 194.369L166.141 283.646Z" fill="#21111D"/>
<path d="M431.968 283.912H0V285.238H431.968V283.912Z" fill="#21111D"/>
</svg>
