<svg width="15" height="19" viewBox="0 0 15 19" fill="none" xmlns="http://www.w3.org/2000/svg">
<path d="M11 1H5C2.79086 1 1 2.79086 1 5V13" stroke="white"/>
<path d="M4.5 9.5C4.5 8.31558 4.50074 7.46912 4.57435 6.81625C4.64681 6.17346 4.78457 5.78051 5.01662 5.4781C5.14962 5.30477 5.30477 5.14962 5.4781 5.01662C5.78051 4.78457 6.17346 4.64681 6.81625 4.57435C7.46912 4.50074 8.31558 4.5 9.5 4.5C10.6844 4.5 11.5309 4.50074 12.1837 4.57435C12.8265 4.64681 13.2195 4.78457 13.5219 5.01662C13.6952 5.14962 13.8504 5.30477 13.9834 5.4781C14.2154 5.78051 14.3532 6.17346 14.4257 6.81625C14.4993 7.46912 14.5 8.31558 14.5 9.5V13.5C14.5 14.6844 14.4993 15.5309 14.4257 16.1837C14.3532 16.8265 14.2154 17.2195 13.9834 17.5219C13.8504 17.6952 13.6952 17.8504 13.5219 17.9834C13.2195 18.2154 12.8265 18.3532 12.1837 18.4257C11.5309 18.4993 10.6844 18.5 9.5 18.5C8.31558 18.5 7.46912 18.4993 6.81625 18.4257C6.17346 18.3532 5.78051 18.2154 5.4781 17.9834C5.30477 17.8504 5.14962 17.6952 5.01662 17.5219C4.78457 17.2195 4.64681 16.8265 4.57435 16.1837C4.50074 15.5309 4.5 14.6844 4.5 13.5V9.5Z" stroke="white"/>
</svg>
