<svg width="20" height="17" viewBox="0 0 20 17" fill="none" xmlns="http://www.w3.org/2000/svg">
<path d="M3 14H7C8.65685 14 10 15.3431 10 17V7C10 4.17157 10 2.75736 9.12132 1.87868C8.24264 1 6.82843 1 4 1H3C2.05719 1 1.58579 1 1.29289 1.29289C1 1.58579 1 2.05719 1 3V12C1 12.9428 1 13.4142 1.29289 13.7071C1.58579 14 2.05719 14 3 14Z" stroke="white"/>
<path d="M17 14H13C11.3431 14 10 15.3431 10 17V7C10 4.17157 10 2.75736 10.8787 1.87868C11.7574 1 13.1716 1 16 1H17C17.9428 1 18.4142 1 18.7071 1.29289C19 1.58579 19 2.05719 19 3V12C19 12.9428 19 13.4142 18.7071 13.7071C18.4142 14 17.9428 14 17 14Z" stroke="white"/>
</svg>
