<?xml version="1.0" encoding="UTF-8"?>
<svg width="782px" height="1222px" viewBox="0 0 782 1222" version="1.1" xmlns="http://www.w3.org/2000/svg" xmlns:xlink="http://www.w3.org/1999/xlink">
    <title>Ellipse 2</title>
    <g id="Page-1" stroke="none" stroke-width="1" fill="none" fill-rule="evenodd" fill-opacity="0.1">
        <g id="HS-home-page-refresh-2020_test" transform="translate(-372.000000, -6556.000000)" fill="#FFFFFF">
            <path d="M633.46878,6791.00556 C612.584862,6803.73191 603.582309,6830.63979 612.000918,6854.64614 C637.856029,6928.32256 633.758195,7013.21995 593.740145,7086.51265 C553.772206,7159.77141 486.208575,7205.56588 413.279,7218.1653 C389.506043,7222.26672 372,7243.86446 372,7269.51048 C372,7372.9314 372.014317,7617.00918 372.014317,7725.73286 C372.014317,7755.65298 395.610353,7779.82757 423.648861,7777.89124 C536.532057,7770.17987 642.854833,7736.80329 737.672586,7683.42585 L783.217138,7655.66639 C795.616996,7647.53145 807.774482,7639.02459 819.693686,7630.15615 C833.68993,7619.76314 839.874008,7601.05366 834.898724,7583.68426 C804.717725,7478.28716 814.060827,7360.40872 870.157274,7257.62981 C926.505298,7154.35205 1018.69172,7087.18565 1120.20182,7063.24276 C1136.48987,7059.42324 1149.0012,7045.08821 1150.57917,7027.41478 C1152.45475,7006.50774 1153.594,6985.3808 1153.97137,6964.03986 L1154,6931.82183 C1151.87183,6807.5721 1124.17796,6690.02572 1076.27718,6584.81902 C1064.0164,6557.87276 1032.49162,6548.0819 1008.06926,6562.93348 L633.46878,6791.00556 Z" id="Ellipse-2" transform="translate(763.000000, 7167.000000) scale(-1, 1) translate(-763.000000, -7167.000000) "></path>
        </g>
    </g>
</svg>