<svg width="590" height="390" viewBox="0 0 590 390" fill="none" xmlns="http://www.w3.org/2000/svg">
<path d="M16.3171 337.764C30.9641 306.774 28.2065 308.311 21.3576 280.328C14.5088 252.345 2.14468 178.251 36.9088 117.402C71.6729 56.5539 116.044 48.8009 137.539 56.1245C159.035 63.448 176.417 75.3374 213.465 57.0286C250.512 38.7198 341.988 -15.2347 409.685 16.3198C477.383 47.8742 449.332 100.608 473.111 123.031C496.889 145.453 552.856 151.262 570.238 205.669C587.62 260.076 558.8 379.693 493.408 386.904L36.954 390C36.9088 390.023 1.69261 368.753 16.3171 337.764Z" fill="#FEEFDC"/>
<path d="M484.566 193.779C491.121 193.779 506.491 193.982 519.759 195.858C525.252 196.627 530.247 192.49 530.451 186.953C530.518 184.692 529.863 182.002 527.942 178.906C520.505 166.971 505.813 177.143 505.632 182.974C505.632 182.974 503.281 174.023 494.556 175.086C485.831 176.148 488.159 189.077 488.159 189.077C488.159 189.077 485.402 188.331 483.39 189.552C481.424 190.75 482.26 193.779 484.566 193.779Z" fill="white"/>
<path d="M478.52 387.493C480.463 385.572 495.585 358.809 506.051 372.575C506.051 372.575 523.161 333.742 544.838 341.359C544.838 341.359 558.649 349.248 548.613 368.89C548.613 368.89 582.066 366.788 581.614 387.493H478.52Z" fill="#258D8C"/>
<path d="M530.255 345.884C530.209 345.884 530.164 345.862 530.119 345.816C530.051 345.749 530.074 345.636 530.142 345.59C530.3 345.455 534.323 342.381 537.985 341.951C538.076 341.951 538.166 341.996 538.166 342.087C538.166 342.177 538.121 342.268 538.008 342.268C534.436 342.697 530.368 345.816 530.345 345.839C530.345 345.884 530.3 345.884 530.255 345.884Z" fill="black"/>
<path d="M530.255 347.824C530.209 347.824 530.164 347.801 530.119 347.756C530.051 347.688 530.074 347.575 530.142 347.53C530.164 347.507 532.922 345.337 536.425 344.32C536.516 344.298 536.606 344.343 536.629 344.433C536.651 344.524 536.606 344.614 536.516 344.637C533.08 345.631 530.39 347.756 530.345 347.779C530.345 347.824 530.3 347.824 530.255 347.824Z" fill="black"/>
<path d="M560.936 333.334C557.071 337.923 555.964 343.302 558.473 345.359C560.959 347.394 566.135 345.337 569.978 340.726C573.843 336.137 574.951 330.757 572.442 328.701C569.933 326.644 564.802 328.746 560.936 333.334Z" fill="#258D8C"/>
<path d="M566.831 351.42C564.548 354.132 563.893 357.319 565.362 358.54C566.831 359.738 569.883 358.517 572.188 355.805C574.471 353.093 575.127 349.905 573.657 348.685C572.166 347.487 569.114 348.707 566.831 351.42Z" fill="#258D8C"/>
<path d="M218.912 115.139C232.835 114.031 266.831 111.839 287.355 114.664C290.316 115.071 292.26 111.59 290.293 109.33C288.869 107.702 286.383 106.346 281.998 106.188C281.998 106.188 285.863 87.1332 267.441 85.5284C248.522 83.8783 248.454 103.882 248.454 103.882C248.454 103.882 237.311 93.5074 232.067 106.55C232.067 106.55 220.336 101.554 215.114 107.951C212.65 110.935 215.024 115.433 218.912 115.139Z" fill="white"/>
<path d="M297.799 384.307H250.422L250.444 285.01H297.844L297.799 384.307Z" fill="#49263E"/>
<path d="M416.873 321.105V185.078C416.873 178.613 411.629 173.369 405.165 173.369H141.427C134.963 173.369 129.719 178.613 129.719 185.078V321.105H416.873Z" fill="#49263E"/>
<path d="M129.719 321.107V342.897C129.719 347.44 132.725 351.102 136.409 351.102H410.16C413.867 351.102 416.851 347.418 416.851 342.897V321.107H129.719Z" fill="#3A1F33"/>
<path d="M410.14 315.181V185.437C410.14 182.047 407.292 179.289 403.766 179.289H142.831C139.305 179.289 136.457 182.047 136.457 185.437V315.204H410.14V315.181Z" fill="#E8F2FC"/>
<path d="M338.242 387.13C339.056 382.428 335.892 378.631 331.213 378.631H217.133C212.432 378.631 207.979 382.428 207.188 387.13H338.242Z" fill="#3A1F33"/>
<path d="M410.167 351.44H136.416C132.529 351.44 129.387 347.598 129.387 342.896V185.079C129.387 178.433 134.789 173.031 141.434 173.031V173.709C135.173 173.709 130.065 178.795 130.065 185.079V342.896C130.065 347.236 132.913 350.762 136.416 350.762H410.167V351.44Z" fill="#21111D"/>
<path d="M405.149 327.206L404.598 326.811L398.061 335.92L398.612 336.315L405.149 327.206Z" fill="#21111D"/>
<path d="M405.151 331.746L404.605 331.344L398.07 340.202L398.616 340.604L405.151 331.746Z" fill="#21111D"/>
<path d="M265.35 353.391L264.762 353.055L261.509 358.746L262.098 359.082L265.35 353.391Z" fill="#21111D"/>
<path d="M265.581 357.327L264.996 356.984L262.057 361.995L262.642 362.338L265.581 357.327Z" fill="#21111D"/>
<path d="M264.055 172.53C264.055 172.53 266.247 164.325 268.259 163.466C270.271 162.607 272.508 164.054 272.508 164.054C272.508 164.054 274.656 161.115 276.125 161.409C277.594 161.681 277.933 162.992 277.933 162.992C277.933 162.992 280.51 163.263 280.781 165.388C280.781 165.388 282.816 165.885 282.793 167.557C282.793 167.557 283.833 168.032 283.765 170.044C283.765 170.044 280.284 176.87 275.153 179.289C270.022 181.707 264.055 172.53 264.055 172.53Z" fill="#FE9F73"/>
<path d="M217.555 315.184L218.165 257.115L216.854 249.656L185.164 261.026C185.164 261.026 186.136 285.573 188.193 315.184H217.555Z" fill="#3AA1C9"/>
<path d="M193.21 315.184L196.781 274.227L202.794 244.322L161.836 261.75C161.836 261.75 161.542 285.867 162.04 315.184H193.21Z" fill="#4CB7D8"/>
<path d="M255.262 131.303L288.602 186.817L285.822 188.919L259.443 140.005L255.262 131.303Z" fill="#683D46"/>
<path d="M272.256 163.876C272.256 163.876 273.725 162.362 274.607 161.91C275.488 161.458 280.755 171.155 280.755 171.155L281.523 173.551C281.523 173.551 280.845 174.816 280.416 174.771C279.986 174.726 278.653 173.709 278.653 173.709L278.314 172.375L277.771 172.217L277.071 171.584L276.732 170.544L275.986 170.883L274.946 170.477L274.471 169.505L274.268 169.414L271.148 164.396L272.256 163.876Z" fill="#FE9F73"/>
<path d="M274.173 169.574C273.698 169.574 273.178 169.257 272.613 168.918C272.229 168.692 271.822 168.444 271.415 168.285C270.194 167.811 269.629 168.014 269.607 168.014C269.516 168.059 269.426 168.014 269.381 167.924C269.335 167.833 269.381 167.743 269.471 167.698C269.494 167.675 270.149 167.426 271.528 167.969C271.98 168.15 272.387 168.398 272.794 168.624C273.675 169.144 274.218 169.438 274.579 169.031C274.918 168.67 275.054 168.24 275.009 167.743C274.918 166.703 273.924 165.369 272.387 164.194C270.488 162.747 268.815 163.448 268.748 163.493C268.657 163.539 268.567 163.493 268.522 163.403C268.476 163.313 268.522 163.222 268.612 163.177C268.68 163.132 270.533 162.341 272.613 163.923C274.263 165.189 275.257 166.567 275.371 167.72C275.416 168.308 275.257 168.828 274.851 169.257C274.625 169.483 274.421 169.574 274.173 169.574Z" fill="#F07162"/>
<path d="M274.745 166.634C274.7 166.634 274.655 166.611 274.632 166.588C274.564 166.521 274.564 166.408 274.61 166.34L277.774 162.859C277.842 162.791 277.955 162.791 278.023 162.836C278.091 162.904 278.091 163.017 278.045 163.085L274.881 166.566C274.858 166.634 274.79 166.634 274.745 166.634Z" fill="#F07162"/>
<path d="M278.226 172.511C277.978 172.511 277.752 172.421 277.548 172.262C277.209 172.059 276.554 171.426 276.757 170.499C276.78 170.409 276.87 170.341 276.961 170.364C277.051 170.386 277.119 170.477 277.096 170.567C276.893 171.471 277.706 171.946 277.752 171.969C277.955 172.127 278.181 172.172 278.43 172.127C280.125 171.81 282.634 167.493 282.657 167.448C282.702 167.357 282.815 167.335 282.883 167.38C282.973 167.425 282.996 167.538 282.95 167.606C282.837 167.787 280.351 172.104 278.498 172.466C278.385 172.511 278.294 172.511 278.226 172.511Z" fill="#F07162"/>
<path d="M275.92 170.994C275.535 170.994 275.219 170.881 274.948 170.678C274.36 170.203 274.27 169.367 274.27 169.344C274.27 169.254 274.337 169.163 274.428 169.163C274.518 169.163 274.609 169.231 274.609 169.322C274.609 169.322 274.676 170.045 275.151 170.429C275.4 170.633 275.739 170.723 276.168 170.655C277.411 170.474 279.807 166.745 280.621 165.321C280.666 165.23 280.779 165.208 280.847 165.253C280.938 165.298 280.96 165.411 280.915 165.479C280.802 165.705 277.886 170.746 276.213 170.994C276.123 170.994 276.01 170.994 275.92 170.994Z" fill="#F07162"/>
<path d="M260.777 170.659L262.021 169.1C262.021 169.1 273.006 172.196 276.984 181.192L275.244 183.543C275.244 183.543 267.197 173.507 260.777 170.659Z" fill="#E2F2F1"/>
<path d="M221.587 265.363L221.791 265.092L220.728 206.006C220.728 206.006 240.167 219.048 245.999 219.297C251.831 219.546 275.903 183.81 275.903 183.81C270.818 172.169 260.149 170.541 260.149 170.541L240.258 192.354L216.954 171.22C213.857 169.343 189.965 168.937 189.965 168.937C189.965 168.937 162.773 168.326 159.676 170.202C156.58 172.078 145.142 203.158 143.357 217.24C141.571 231.322 143.357 240.454 154.116 242.127L158.026 242.217L158.32 265.408C158.343 265.363 180.02 270.245 221.587 265.363Z" fill="#EF3A4C"/>
<path d="M212.31 246.312H188.712C187.221 246.312 186 245.091 186 243.599V212.316C186 210.824 187.221 209.604 188.712 209.604H212.31C213.802 209.604 215.023 210.824 215.023 212.316V243.599C215.023 245.114 213.802 246.312 212.31 246.312Z" fill="#49263E"/>
<path d="M207.88 208.225H194.363C193.595 208.225 192.984 208.835 192.984 209.603H209.259C209.259 208.858 208.649 208.225 207.88 208.225Z" fill="#E2F2F1"/>
<path d="M215.73 228.52C218.872 225.762 215.572 225.287 215.572 225.287C217.109 223.637 216.747 222.869 216.182 222.507C215.775 222.236 215.255 222.213 214.803 222.394C213.356 222.959 208.971 224.677 206.282 225.92C204.383 225.785 204.971 222.575 205.829 220.925C206.259 220.066 206.304 218.665 204.225 220.089C202.529 221.241 199.998 225.039 199.998 225.039L189.352 224.022L190.934 238.669C190.934 238.669 203.072 238.488 204.903 238.488C206.734 238.465 212.859 236.386 214.713 234.781C218.081 231.865 215.956 231.707 215.956 231.707C219.188 228.339 215.73 228.52 215.73 228.52Z" fill="#FE9F73"/>
<path d="M211.724 227.706C211.633 227.706 211.543 227.661 211.498 227.57C211.453 227.457 211.498 227.322 211.611 227.276C213.193 226.621 215.408 225.107 215.431 225.107C215.521 225.039 215.657 225.061 215.747 225.174C215.815 225.265 215.792 225.4 215.679 225.491C215.589 225.559 213.396 227.05 211.792 227.706C211.769 227.706 211.746 227.706 211.724 227.706Z" fill="#F07162"/>
<path d="M211.961 230.488C211.848 230.488 211.757 230.42 211.735 230.329C211.712 230.216 211.78 230.081 211.893 230.058C213.905 229.516 215.6 228.34 215.623 228.34C215.713 228.272 215.849 228.295 215.939 228.385C216.007 228.476 215.984 228.611 215.894 228.702C215.826 228.747 214.108 229.922 212.029 230.488C211.983 230.488 211.983 230.488 211.961 230.488Z" fill="#F07162"/>
<path d="M212.67 233.607C212.579 233.607 212.466 233.562 212.444 233.449C212.398 233.336 212.466 233.2 212.602 233.178C214.32 232.658 215.812 231.528 215.834 231.528C215.925 231.46 216.06 231.482 216.151 231.573C216.218 231.663 216.196 231.799 216.105 231.889C216.038 231.935 214.523 233.087 212.737 233.607C212.715 233.607 212.692 233.607 212.67 233.607Z" fill="#F07162"/>
<path d="M163.988 221.244L163.559 220.724L167.876 217.062L169.526 196.99L170.204 197.058L168.531 217.401L163.988 221.244Z" fill="#21111D"/>
<path d="M158.019 242.537L154.064 242.446C148.774 241.633 145.407 239.011 143.711 234.445C142.242 230.489 142.039 224.997 143.011 217.176L143.689 217.266C141.677 233.202 144.706 240.299 154.132 241.768L158.019 241.859V242.537Z" fill="#21111D"/>
<path d="M196.087 220.52H198.234C198.234 220.52 200.517 235.144 197.398 241.857H194.73C194.73 241.857 197.827 228.137 196.087 220.52Z" fill="#E2F2F1"/>
<path d="M184.921 218.303L195.613 218.981C195.613 218.981 197.783 225.807 195.183 239.64C194.935 240.974 194.392 243.28 194.392 243.28C194.392 243.28 183.52 244.138 181.825 240.612C180.762 238.397 183.09 228.813 183.09 228.813L184.921 218.303Z" fill="#EF3A4C"/>
<path d="M194.664 243.645L158.023 242.537L158.046 241.859L194.121 242.967C194.641 240.842 197.941 226.466 195.364 219.346L168.172 217.606L168.218 216.928L195.839 218.691L195.907 218.894C198.913 226.67 194.867 242.718 194.709 243.396L194.664 243.645Z" fill="#21111D"/>
<path d="M240.481 198.164L239.916 192.49L217.358 172.034C215.708 170.542 212.498 170.52 212.453 170.52V169.842C212.589 169.842 215.957 169.864 217.81 171.537L240.572 192.174L241.16 198.096L240.481 198.164Z" fill="#21111D"/>
<path d="M240.505 192.562L240.008 192.11L260.012 170.162L260.193 170.185C260.306 170.207 270.884 172.061 276.219 183.634L275.586 183.928C270.794 173.507 261.639 171.179 260.261 170.885L240.505 192.562Z" fill="#21111D"/>
<path d="M202.837 169.371C196.282 169.009 189.93 168.896 189.93 168.896C189.93 168.896 184.664 168.783 178.516 168.806C178.516 168.851 178.516 168.874 178.516 168.919C178.516 175.632 183.963 181.079 190.676 181.079C197.254 181.102 202.611 175.881 202.837 169.371Z" fill="#E2F2F1"/>
<path d="M195.61 267.738C195.407 267.738 195.203 267.738 195 267.738V267.059C203.567 267.15 218.869 265.342 221.22 265.07L220.384 200.334H221.062L221.921 265.681L221.627 265.726C221.446 265.726 205.013 267.738 195.61 267.738Z" fill="#21111D"/>
<path d="M183.451 181.729C179.992 179.582 177.483 176.237 176.398 172.349L177.054 172.168C178.116 175.898 180.512 179.107 183.812 181.164L183.451 181.729Z" fill="#21111D"/>
<path d="M186.075 144.279C186.075 144.279 190.912 142.222 195.229 143.691C197.715 144.55 199.365 146.923 199.365 149.545V152.122L186.12 146.471C186.12 146.471 184.018 147.466 184.199 147.172C184.357 146.856 186.075 144.279 186.075 144.279Z" fill="#FE9F73"/>
<path d="M199.366 149.276V160.148C199.366 160.148 199.524 164.036 196.134 164.511L196.767 169.687C196.993 171.608 195.84 173.462 194.009 174.05C193.105 174.343 192.02 174.547 190.799 174.547C186.912 174.547 184.809 171.631 184.493 170.184C184.177 168.738 185.149 161.776 185.149 161.776L185.036 158.363L185.488 145.117L199.366 149.276Z" fill="#FE9F73"/>
<path d="M190.015 154.383C189.97 154.383 189.925 154.36 189.902 154.337C189.835 154.27 189.835 154.179 189.902 154.111C189.925 154.089 192.14 151.806 194.174 153.456C194.242 153.501 194.265 153.614 194.197 153.682C194.152 153.75 194.039 153.772 193.971 153.705C192.163 152.258 190.219 154.247 190.128 154.337C190.083 154.36 190.061 154.383 190.015 154.383Z" fill="#21111D"/>
<path d="M196.673 153.406C196.628 153.406 196.583 153.384 196.56 153.361C196.493 153.293 196.515 153.203 196.583 153.135C196.651 153.067 198.188 151.756 199.16 152.592C199.228 152.66 199.228 152.751 199.182 152.818C199.115 152.886 199.024 152.886 198.956 152.841C198.188 152.186 196.809 153.361 196.787 153.384C196.741 153.406 196.696 153.406 196.673 153.406Z" fill="#21111D"/>
<path d="M192.787 155.518C193.049 155.518 193.262 155.305 193.262 155.043C193.262 154.781 193.049 154.568 192.787 154.568C192.525 154.568 192.312 154.781 192.312 155.043C192.312 155.305 192.525 155.518 192.787 155.518Z" fill="black"/>
<path d="M197.943 155.037C198.206 155.037 198.418 154.825 198.418 154.563C198.418 154.3 198.206 154.088 197.943 154.088C197.681 154.088 197.469 154.3 197.469 154.563C197.469 154.825 197.681 155.037 197.943 155.037Z" fill="black"/>
<path d="M186.075 144.098C186.075 144.098 181.961 143.894 180.921 147.488C179.882 151.082 181.645 152.981 181.69 154.066C181.735 155.151 180.989 162.361 186.075 161.819L187.454 149.884L185.691 145.138L186.075 144.098Z" fill="#21111D"/>
<path d="M186.349 157.793C187.96 157.793 189.265 156.487 189.265 154.877C189.265 153.266 187.96 151.961 186.349 151.961C184.739 151.961 183.434 153.266 183.434 154.877C183.434 156.487 184.739 157.793 186.349 157.793Z" fill="#FE9F73"/>
<path d="M186.147 156.668C185.537 156.668 185.13 156.216 184.994 155.764C184.836 155.222 185.017 154.702 185.446 154.431C186.102 154.024 186.667 154.295 186.983 154.476C186.848 154.137 186.667 153.911 186.395 153.753C185.83 153.436 185.107 153.662 185.107 153.662C185.062 153.685 185.017 153.662 184.994 153.617C184.971 153.572 184.994 153.527 185.039 153.504C185.062 153.504 185.83 153.255 186.463 153.594C186.825 153.798 187.074 154.159 187.209 154.657L187.277 154.928L187.074 154.725C187.051 154.702 186.35 154.024 185.537 154.521C185.084 154.792 185.039 155.312 185.152 155.674C185.265 156.036 185.582 156.465 186.147 156.465C186.147 156.465 186.147 156.465 186.169 156.465C186.215 156.465 186.26 156.51 186.26 156.555C186.237 156.623 186.192 156.668 186.147 156.668Z" fill="#F07162"/>
<path d="M188.27 161.209C188.27 161.209 188.496 167.696 196.61 168.329L196.136 164.509C196.136 164.486 190.869 165.549 188.27 161.209Z" fill="#F07162"/>
<path d="M199.933 158.293C199.933 158.293 200.995 166.069 195.819 166.34C188.428 166.724 187.704 162.52 187.275 159.062L187.207 151.942L187.433 149.885C187.953 150.472 188.269 151.218 188.337 152.009C188.495 153.727 188.88 158.316 189.287 158.519C189.919 158.813 198.78 157.547 199.933 158.293Z" fill="#21111D"/>
<path d="M194.979 158.31C194.934 158.31 194.911 158.288 194.911 158.265C194.889 158.22 194.911 158.175 194.956 158.152L196.584 157.61L196.064 153.79C196.064 153.744 196.087 153.699 196.132 153.699C196.177 153.699 196.222 153.722 196.222 153.767L196.742 157.723L195.002 158.31H194.979Z" fill="#F07162"/>
<path d="M185.012 162.655L185.577 157.162L186.933 157.32V162.813L185.012 162.655Z" fill="#FE9F73"/>
<path d="M186.848 144.006C186.848 144.006 185.898 146.289 187.458 150.064C189.017 153.861 183.457 148.64 183.457 148.64C183.457 148.64 183.841 143.102 186.848 144.006Z" fill="#21111D"/>
<path d="M193.107 159.959C194.418 161.654 196.204 160.84 196.227 160.84C196.272 160.818 196.317 160.75 196.272 160.682C196.249 160.637 196.181 160.592 196.113 160.637C196.046 160.66 194.463 161.36 193.265 159.823C193.243 159.801 193.22 159.755 193.198 159.733C193.175 159.688 193.085 159.665 193.039 159.71C192.994 159.755 192.972 159.823 193.017 159.868C193.062 159.914 193.085 159.936 193.107 159.959Z" fill="#F07162"/>
<path d="M280.622 174.883H280.6C279.65 174.724 278.995 174.363 278.611 173.798C278.136 173.097 278.294 172.374 278.317 172.351C278.339 172.261 278.43 172.193 278.52 172.215C278.611 172.238 278.678 172.328 278.656 172.419C278.656 172.419 278.52 173.029 278.904 173.617C279.221 174.091 279.831 174.408 280.667 174.566C280.758 174.589 280.826 174.679 280.803 174.77C280.781 174.815 280.713 174.883 280.622 174.883Z" fill="#F07162"/>
<path d="M410.482 315.523H136.438V314.845H409.804V185.44C409.804 182.231 407.091 179.631 403.769 179.631V178.953C407.476 178.953 410.482 181.869 410.482 185.463V315.523Z" fill="#21111D"/>
<path d="M187.455 150.067C187.455 150.067 199.82 149.343 200.588 146.427C201.357 143.512 198.441 143.444 198.441 143.444C198.441 143.444 198.983 139.33 195.254 140.551C191.524 141.771 184.607 141.613 182.663 145.071C180.697 148.552 187.455 150.067 187.455 150.067Z" fill="#21111D"/>
<path d="M233.521 273.477L230.537 275.647C230.085 275.986 229.972 276.619 230.311 277.093C230.515 277.365 230.831 277.523 231.148 277.523C231.351 277.523 231.577 277.455 231.758 277.319L234.131 275.579L236.233 282.722C236.369 283.174 236.776 283.468 237.228 283.468C237.318 283.468 237.431 283.445 237.522 283.422C238.064 283.264 238.381 282.699 238.223 282.157L235.917 274.291L239.081 271.985L242.811 276.867C243.15 277.319 243.806 277.41 244.258 277.048C244.71 276.709 244.8 276.054 244.439 275.602L240.732 270.764L242.743 269.295C243.195 268.956 243.308 268.323 242.969 267.849C242.63 267.397 241.997 267.284 241.523 267.623L239.488 269.114L232.549 260.05C232.12 259.485 231.374 259.304 230.741 259.644C230.108 259.96 229.791 260.661 229.995 261.361L233.521 273.477ZM237.816 270.335L235.284 272.188L232.843 263.87L237.816 270.335Z" fill="#F75553"/>
<path d="M244.572 252.956C245.295 252.956 245.499 252.549 246.131 251.148C246.222 250.967 246.29 250.786 246.38 250.628L248.053 256.324C248.03 256.392 248.008 256.437 247.985 256.505C247.962 256.573 247.917 256.641 247.917 256.708C247.51 257.816 247.081 258.878 246.651 259.85C246.425 260.37 246.651 260.98 247.171 261.207C247.307 261.274 247.442 261.297 247.578 261.297C247.962 261.297 248.347 261.071 248.527 260.687C248.64 260.438 248.799 260.054 249.002 259.579L251.421 267.875C251.556 268.327 251.963 268.62 252.415 268.62C252.506 268.62 252.619 268.598 252.709 268.575C253.252 268.417 253.568 267.852 253.41 267.309L253.184 266.564C255.105 265.592 259.784 262.857 261.118 259.15C261.705 257.545 261.615 255.963 260.846 254.448C259.852 252.414 258.383 251.781 257.343 251.623C255.195 251.284 252.867 252.504 251.082 253.77C252.099 250.312 252.709 246.559 251.421 244.751C250.697 243.734 249.861 243.666 249.409 243.689C248.505 243.779 247.646 244.503 246.877 245.565C246.629 245.361 246.267 245.271 245.928 245.361C245.386 245.52 245.069 246.085 245.227 246.627L245.544 247.712C245.114 248.526 244.685 249.408 244.278 250.289C244.12 250.651 243.916 251.058 243.826 251.238C243.645 251.419 243.555 251.668 243.555 251.939C243.555 252.482 244.007 252.956 244.572 252.956ZM257.026 253.634C257.863 253.77 258.496 254.312 258.993 255.33C259.49 256.347 259.558 257.364 259.174 258.426C258.157 261.252 254.427 263.535 252.573 264.529L250.358 256.957C251.986 255.51 254.924 253.295 257.026 253.634ZM249.567 245.723C249.59 245.746 249.658 245.791 249.748 245.904C250.494 246.944 250.064 249.747 249.183 252.843L247.759 247.961C248.753 246.175 249.296 245.768 249.567 245.723Z" fill="#258D8C"/>
<path d="M275.471 264.709C276.579 264.709 277.867 264.573 279.291 264.279C279.856 264.166 280.195 263.624 280.082 263.059C279.969 262.494 279.427 262.154 278.862 262.268C274.047 263.285 270.996 262.358 269.798 259.51C267.809 254.808 271.177 246.852 273.55 245.224C274.567 244.524 275.539 244.298 276.398 244.501C278.048 244.931 279.043 246.829 279.065 246.852C279.314 247.349 279.947 247.553 280.444 247.304C280.941 247.055 281.167 246.422 280.896 245.925C280.851 245.812 279.495 243.168 276.918 242.489C275.449 242.105 273.912 242.444 272.375 243.484C269.052 245.744 265.594 254.899 267.877 260.278C268.826 262.448 270.86 264.709 275.471 264.709Z" fill="#397FA1"/>
<path d="M259.875 279.762L238.017 294.771L237.136 303.699L232.638 297.371L227.122 301.326C226.67 301.665 226.557 302.298 226.896 302.773C227.235 303.225 227.868 303.338 228.343 302.999L232.186 300.241L238.673 309.35L240.006 295.924L261.073 281.458C261.547 281.141 261.66 280.486 261.344 280.034C260.982 279.559 260.349 279.446 259.875 279.762Z" fill="#61A3C5"/>
<path d="M290.453 286.343C290.25 285.823 289.64 285.551 289.12 285.778L270.11 293.508C269.59 293.711 269.319 294.322 269.545 294.842C269.703 295.248 270.088 295.474 270.494 295.474C270.63 295.474 270.766 295.452 270.879 295.407L289.888 287.676C290.408 287.473 290.657 286.862 290.453 286.343Z" fill="#F75553"/>
<path d="M278.612 287.106C279.561 287.106 280.33 286.337 280.33 285.388C280.33 284.439 279.561 283.67 278.612 283.67C277.664 283.67 276.895 284.439 276.895 285.388C276.895 286.337 277.664 287.106 278.612 287.106Z" fill="#F75553"/>
<path d="M282.077 297.887C283.026 297.887 283.795 297.118 283.795 296.169C283.795 295.22 283.026 294.451 282.077 294.451C281.128 294.451 280.359 295.22 280.359 296.169C280.359 297.118 281.128 297.887 282.077 297.887Z" fill="#F75553"/>
<path d="M273.03 235.575C273.233 235.778 273.482 235.869 273.753 235.869C274.024 235.869 274.295 235.755 274.499 235.552L279.698 230.15L284.896 235.552C285.1 235.755 285.371 235.869 285.642 235.869C285.891 235.869 286.162 235.778 286.366 235.575C286.772 235.19 286.795 234.535 286.388 234.128L281.122 228.658L286.388 223.188C286.772 222.781 286.772 222.126 286.366 221.741C285.959 221.357 285.303 221.357 284.919 221.764L279.72 227.166L274.521 221.764C274.137 221.357 273.482 221.334 273.075 221.741C272.668 222.126 272.645 222.781 273.052 223.188L278.319 228.658L273.052 234.128C272.6 234.535 272.623 235.19 273.03 235.575Z" fill="#FE9F73"/>
<path d="M74.8841 296.379H67.9222H67.4702H60.5083L54.6992 379.605H67.4702H67.9222H80.6706L74.8841 296.379Z" fill="#258D8C"/>
<path d="M75.7865 298.045H59.4442C58.2688 298.045 57.2969 297.096 57.2969 295.898V287.986H77.9338V295.898C77.9338 297.096 76.9845 298.045 75.7865 298.045Z" fill="#F99247"/>
<path d="M71.781 298.384H60.5471C58.558 298.384 56.9531 296.779 56.9531 294.79V287.986H57.6312V294.79C57.6312 296.395 58.9422 297.706 60.5471 297.706H71.781V298.384Z" fill="#21111D"/>
<path d="M67.469 293.485C91.6122 293.485 111.184 273.913 111.184 249.77C111.184 225.627 91.6122 206.055 67.469 206.055C43.3258 206.055 23.7539 225.627 23.7539 249.77C23.7539 273.913 43.3258 293.485 67.469 293.485Z" fill="#FECC86"/>
<path d="M67.476 287.468C88.2986 287.468 105.179 270.588 105.179 249.765C105.179 228.943 88.2986 212.062 67.476 212.062C46.6535 212.062 29.7734 228.943 29.7734 249.765C29.7734 270.588 46.6535 287.468 67.476 287.468Z" fill="#E2F2F1"/>
<path d="M67.4721 293.819C43.1734 293.819 23.418 274.064 23.418 249.765C23.418 225.466 43.1734 205.711 67.4721 205.711C78.8643 205.711 89.6687 210.051 97.8964 217.894L97.4217 218.391C89.3297 210.661 78.6835 206.389 67.4721 206.389C43.5577 206.389 24.1187 225.851 24.1187 249.743C24.1187 273.657 43.5803 293.096 67.4721 293.096C78.5704 293.096 89.1263 288.914 97.1957 281.297L97.6704 281.794C89.4653 289.57 78.7513 293.819 67.4721 293.819Z" fill="#21111D"/>
<path d="M79.0533 237.405C84.588 242.94 91.2142 245.287 93.8535 242.648C96.4928 240.008 94.1457 233.382 88.6111 227.847C83.0765 222.313 76.4503 219.966 73.811 222.605C71.1717 225.244 73.5187 231.871 79.0533 237.405Z" fill="#F3FFFE"/>
<path d="M60.8756 298.095L60.1992 298.047L54.5856 376.555L55.262 376.604L60.8756 298.095Z" fill="#21111D"/>
<path d="M44.2573 226.803L43.7148 226.373C43.7601 226.306 49.0719 219.547 57.1187 217.807L57.2543 218.485C49.4787 220.18 44.3251 226.735 44.2573 226.803Z" fill="#21111D"/>
<path d="M46.4058 231.029L45.8633 230.6C45.9085 230.532 51.2203 223.774 59.2671 222.033L59.4028 222.711C51.6272 224.407 46.4736 230.962 46.4058 231.029Z" fill="#21111D"/>
<path d="M118.152 368.527H21.341C20.143 368.527 19.1484 369.499 19.1484 370.72V387.153H118.152V368.527Z" fill="#F99247"/>
<path d="M28.1464 368.529H26.9258V377.842H28.1464V368.529Z" fill="#FECC86"/>
<path d="M40.869 368.527H39.6484V377.84H40.869V368.527Z" fill="#FECC86"/>
<path d="M34.5448 368.529H33.3242V374.18H34.5448V368.529Z" fill="#FECC86"/>
<path d="M54.7987 368.527H53.5781V377.84H54.7987V368.527Z" fill="#FECC86"/>
<path d="M48.4667 368.529H47.2461V374.18H48.4667V368.529Z" fill="#FECC86"/>
<path d="M68.6893 368.527H67.4688V377.84H68.6893V368.527Z" fill="#FECC86"/>
<path d="M62.3612 368.529H61.1406V374.18H62.3612V368.529Z" fill="#FECC86"/>
<path d="M82.619 368.527H81.3984V377.84H82.619V368.527Z" fill="#FECC86"/>
<path d="M76.287 368.527H75.0664V374.178H76.287V368.527Z" fill="#FECC86"/>
<path d="M96.5214 368.527H95.3008V377.84H96.5214V368.527Z" fill="#FECC86"/>
<path d="M90.1893 368.529H88.9688V374.18H90.1893V368.529Z" fill="#FECC86"/>
<path d="M142 264.846L142.068 387.063L227.238 387.153L142 264.846ZM153.935 305.668L200.317 372.868L153.867 372.822L153.935 305.668Z" fill="#FECC86"/>
<path d="M150.713 277.322L150.094 276.432L144.658 280.215L145.277 281.105L150.713 277.322Z" fill="#F99247"/>
<path d="M159.475 289.924L158.855 289.033L153.474 292.777L154.094 293.667L159.475 289.924Z" fill="#F99247"/>
<path d="M155.26 283.885L154.641 282.994L151.95 284.866L152.57 285.757L155.26 283.885Z" fill="#F99247"/>
<path d="M168.424 302.779L167.805 301.889L162.424 305.632L163.043 306.523L168.424 302.779Z" fill="#F99247"/>
<path d="M164.217 296.754L163.598 295.863L160.907 297.735L161.527 298.626L164.217 296.754Z" fill="#F99247"/>
<path d="M177.393 315.652L176.773 314.762L171.374 318.518L171.994 319.409L177.393 315.652Z" fill="#F99247"/>
<path d="M173.198 309.598L172.578 308.707L169.869 310.592L170.489 311.482L173.198 309.598Z" fill="#F99247"/>
<path d="M186.354 328.498L185.734 327.607L180.335 331.364L180.954 332.255L186.354 328.498Z" fill="#F99247"/>
<path d="M182.139 322.453L181.52 321.562L178.792 323.46L179.412 324.351L182.139 322.453Z" fill="#F99247"/>
<path d="M195.307 341.357L194.688 340.467L189.269 344.236L189.889 345.127L195.307 341.357Z" fill="#F99247"/>
<path d="M191.092 335.318L190.473 334.428L187.745 336.325L188.365 337.216L191.092 335.318Z" fill="#F99247"/>
<path d="M204.284 354.195L203.664 353.305L198.247 357.074L198.866 357.965L204.284 354.195Z" fill="#F99247"/>
<path d="M200.061 348.162L199.441 347.271L196.714 349.169L197.333 350.06L200.061 348.162Z" fill="#F99247"/>
<path d="M213.26 367.037L212.641 366.146L207.205 369.929L207.824 370.819L213.26 367.037Z" fill="#F99247"/>
<path d="M209.038 360.996L208.418 360.105L205.672 362.016L206.292 362.907L209.038 360.996Z" fill="#F99247"/>
<path d="M222.206 379.891L221.586 379L216.15 382.782L216.77 383.673L222.206 379.891Z" fill="#F99247"/>
<path d="M217.987 373.855L217.367 372.965L214.621 374.875L215.241 375.766L217.987 373.855Z" fill="#F99247"/>
<path d="M130.128 318.211C129.405 318.211 128.772 317.669 128.659 316.945C128.637 316.81 126.738 303.474 119.776 292.556C119.346 291.878 119.55 290.952 120.228 290.522C120.906 290.093 121.833 290.296 122.262 290.974C129.586 302.434 131.485 315.974 131.575 316.561C131.688 317.375 131.123 318.121 130.309 318.234C130.264 318.211 130.196 318.211 130.128 318.211Z" fill="#21111D"/>
<path d="M170.093 317.195C161.549 302.095 148.416 303.406 141.183 307.339C135.329 310.527 130.13 311.363 128.367 311.544C126.604 311.34 121.405 310.527 115.551 307.339C108.318 303.406 95.185 302.095 86.6409 317.195C78.0968 332.294 92.2239 385.502 112.906 387.808C112.906 387.808 119.145 387.808 121.45 387.808C122.354 387.808 123.53 387.763 124.863 387.717C124.931 387.785 125.022 387.808 125.112 387.808C126.22 387.717 127.305 387.672 128.367 387.672C129.429 387.672 130.537 387.717 131.622 387.808C131.712 387.808 131.803 387.785 131.87 387.717C133.204 387.763 134.357 387.808 135.284 387.808C137.589 387.808 143.828 387.808 143.828 387.808C164.51 385.502 178.614 332.316 170.093 317.195Z" fill="#FF424D"/>
<path d="M93.1547 320.31C93.1095 320.31 93.0643 320.31 93.0191 320.287C92.8383 320.22 92.7705 320.016 92.8383 319.835C92.8609 319.768 96.1158 312.602 104.027 310.817C104.208 310.771 104.389 310.884 104.434 311.065C104.479 311.246 104.366 311.427 104.185 311.472C96.6131 313.19 93.4938 320.039 93.4712 320.107C93.4034 320.22 93.2678 320.31 93.1547 320.31Z" fill="#21111D"/>
<path d="M95.0727 323.498C95.0275 323.498 94.9823 323.498 94.9371 323.475C94.7563 323.407 94.6885 323.204 94.7563 323.023C94.7789 322.955 98.0338 315.79 105.945 314.004C106.126 313.959 106.307 314.072 106.352 314.253C106.397 314.434 106.284 314.614 106.103 314.66C98.531 316.377 95.4118 323.204 95.3892 323.294C95.3213 323.43 95.2083 323.498 95.0727 323.498Z" fill="#21111D"/>
<path d="M156.714 305.529C142.564 325.081 115.281 358.806 91.5703 364.75C96.7465 377.001 104.251 386.857 112.885 387.806C112.885 387.806 119.124 387.806 121.429 387.806C122.334 387.806 123.509 387.761 124.843 387.716C124.91 387.783 125.001 387.806 125.091 387.806C126.199 387.716 127.284 387.67 128.346 387.67C129.409 387.67 130.516 387.716 131.601 387.806C131.691 387.806 131.782 387.783 131.85 387.716C133.183 387.761 134.336 387.806 135.263 387.806C137.568 387.806 143.807 387.806 143.807 387.806C164.489 385.5 178.616 332.314 170.072 317.193C166.252 310.389 161.483 306.931 156.714 305.529Z" fill="#EF3A4C"/>
<path d="M151.021 322.694C155.27 325.147 159.666 325.488 160.839 323.456C162.012 321.423 159.52 317.787 155.271 315.334C151.022 312.881 146.627 312.54 145.453 314.573C144.28 316.605 146.773 320.241 151.021 322.694Z" fill="#F46E6E"/>
<path d="M121.453 388.143H112.886C104.161 387.171 97.6511 377.813 93.7181 370.106C84.4281 351.932 80.9245 326.639 86.3493 317.01C90.1693 310.252 95.4133 306.025 101.516 304.782C106.173 303.832 111.349 304.646 115.711 307.042C121.453 310.161 126.493 310.997 128.414 311.224C128.46 311.224 132.415 311.698 137.614 308.692C137.772 308.601 137.998 308.647 138.089 308.828C138.179 308.986 138.134 309.212 137.953 309.302C132.551 312.444 128.482 311.924 128.324 311.902C126.38 311.676 121.226 310.839 115.372 307.652C108.862 304.103 95.549 302.16 86.937 317.372C84.3828 321.892 83.7726 330.346 85.2418 340.585C86.711 350.712 90.0111 361.358 94.3284 369.789C99.7758 380.435 106.376 386.696 112.931 387.442H121.453C121.633 387.442 121.792 387.601 121.792 387.781C121.792 387.985 121.633 388.143 121.453 388.143Z" fill="#21111D"/>
<path d="M19.1906 387.471C19.0098 387.471 18.8516 387.313 18.8516 387.132V371.83C18.8516 369.818 20.5016 368.168 22.5133 368.168H93.2848C93.4656 368.168 93.6238 368.326 93.6238 368.507C93.6238 368.688 93.4656 368.846 93.2848 368.846H22.5133C20.8859 368.846 19.5523 370.18 19.5523 371.807V387.11C19.5297 387.336 19.394 387.471 19.1906 387.471Z" fill="#21111D"/>
<path d="M472.257 96.7889C472.257 65.3248 446.761 39.8281 415.297 39.8281C383.833 39.8281 358.336 65.3248 358.336 96.7889C358.336 112.385 364.62 126.535 374.769 136.82C374.769 136.82 392.015 155.264 397.824 175.359C397.824 175.359 407.77 178.749 415.297 178.93C422.801 178.749 432.769 175.359 432.769 175.359C438.601 155.264 455.825 136.82 455.825 136.82C465.974 126.535 472.257 112.408 472.257 96.7889Z" fill="#FECC86"/>
<path d="M415.298 208.837C410.416 208.837 406.438 204.882 406.438 199.977H424.136C424.136 204.859 420.18 208.837 415.298 208.837Z" fill="#4CB7D8"/>
<path d="M417.627 202.393H412.948C403.748 202.393 396.289 194.934 396.289 185.735V170.816H434.263V185.735C434.285 194.934 426.826 202.393 417.627 202.393Z" fill="#4CB7D8"/>
<path opacity="0.3" d="M472.255 96.7885C472.255 85.1251 468.751 74.2981 462.739 65.2793C446.08 106.327 419.498 133.949 381.23 144.64C386.045 150.969 392.442 160.485 396.307 170.815H434.258C441.084 152.574 455.799 136.819 455.799 136.819C465.971 126.535 472.255 112.408 472.255 96.7885Z" fill="#FECC86"/>
<path d="M424.609 171.039L422.982 170.587C423.027 170.383 428.339 150.854 432.023 130.85C438.42 96.1308 434.736 88.7846 431.978 87.4736C429.153 86.14 426.938 86.3887 425.378 88.1744C425.265 88.31 425.152 88.4456 425.062 88.5812C429.04 90.932 430.012 94.5259 430.238 95.9952C430.871 100.019 429.062 104.042 426.214 104.969C425.514 105.195 424.203 105.308 423.05 103.567C421.219 100.81 420.654 93.9156 422.688 89.3271C420.722 88.536 418.348 88.1065 415.613 88.1065H413.963C411.228 88.1065 408.855 88.536 406.888 89.3271C408.923 93.9156 408.358 100.81 406.527 103.567C405.374 105.308 404.063 105.195 403.362 104.969C400.514 104.065 398.706 100.041 399.339 95.9952C399.565 94.5259 400.537 90.932 404.515 88.5812C404.402 88.4456 404.312 88.31 404.198 88.1744C402.639 86.3661 400.424 86.14 397.598 87.4736C394.841 88.762 391.156 96.1308 397.553 130.85C401.237 150.854 406.549 170.383 406.594 170.587L404.967 171.039C404.922 170.835 399.587 151.261 395.88 131.166C390.772 103.454 391.089 88.6716 396.875 85.9592C401.35 83.8571 404.018 85.4167 405.464 87.0894C405.668 87.3154 405.849 87.5867 406.029 87.8353C408.019 86.9764 410.595 86.4339 413.941 86.4339H415.591C418.936 86.4339 421.513 86.9764 423.502 87.8353C423.683 87.5641 423.864 87.3154 424.067 87.0894C425.514 85.4167 428.181 83.8571 432.656 85.9592C438.42 88.6716 438.737 103.454 433.651 131.166C429.989 151.238 424.655 170.835 424.609 171.039ZM405.396 90.0957C403.001 91.4971 401.463 93.5992 401.057 96.2664C400.514 99.7925 402.096 102.776 403.927 103.364C404.108 103.409 404.56 103.567 405.17 102.641C406.707 100.29 407.114 94.0739 405.396 90.0957ZM424.225 90.0957C422.485 94.0739 422.914 100.29 424.474 102.641C425.084 103.567 425.536 103.409 425.717 103.364C427.548 102.776 429.13 99.7925 428.588 96.2664C428.136 93.5992 426.621 91.4971 424.225 90.0957Z" fill="#F99247"/>
<path d="M396.016 171.222C395.564 169.933 395.36 169.459 394.908 168.396L394.659 167.831C387.539 151.218 374.588 137.249 374.452 137.113L374.407 137.068C363.761 126.264 357.906 111.956 357.906 96.7886C357.906 65.1438 383.652 39.3984 415.296 39.3984C434.713 39.3984 452.683 49.1179 463.329 65.3924L462.628 65.8445C452.14 49.8186 434.442 40.2348 415.296 40.2348C384.126 40.2348 358.765 65.5959 358.765 96.766C358.765 111.73 364.552 125.857 375.085 136.503L375.627 137.068H375.582C378.069 139.848 389.076 152.597 395.428 167.47L395.677 168.035C396.129 169.097 396.332 169.572 396.807 170.905L396.016 171.222Z" fill="#21111D"/>
<path d="M375.517 70.497L374.703 70.271C374.748 70.1354 378.953 56.0986 393.125 50.832L393.419 51.6232C379.676 56.7315 375.562 70.3614 375.517 70.497Z" fill="#21111D"/>
<path d="M378.138 75.5654L377.324 75.3394C377.369 75.2037 381.574 61.167 395.746 55.9004L396.04 56.6915C382.274 61.8225 378.183 75.4298 378.138 75.5654Z" fill="#21111D"/>
<path d="M417.352 202.82H413.216C403.654 202.82 395.879 195.044 395.879 185.483V170.406H434.282V171.243H396.738V185.483C396.738 194.569 404.129 201.983 413.238 201.983H417.375C421.737 201.983 425.828 200.311 428.948 197.237L429.535 197.847C426.258 201.057 421.941 202.82 417.352 202.82Z" fill="#21111D"/>
<path d="M415.523 209.263C407.296 209.263 406.098 201.284 406.098 201.193L406.934 201.08C406.979 201.397 408.064 208.584 415.795 208.404L415.817 209.24C415.727 209.24 415.636 209.263 415.523 209.263Z" fill="#21111D"/>
<path d="M454.361 128.684L453.863 128.006C461.39 122.423 462.566 113.11 462.566 113.02L463.402 113.11C463.402 113.223 462.181 122.897 454.361 128.684Z" fill="#21111D"/>
<path d="M452.704 124.641L452.207 123.962C457.677 119.894 458.559 113.113 458.559 113.045L459.395 113.135C459.35 113.429 458.468 120.346 452.704 124.641Z" fill="#21111D"/>
<path d="M394.543 178.412V177.575C394.859 177.575 426.889 177.146 437.037 173.371L437.331 174.162C427.047 177.982 395.877 178.389 394.543 178.412Z" fill="#21111D"/>
<path d="M394.546 185.553L394.523 184.717C394.862 184.717 429.627 184.016 436.114 180.535L436.521 181.281C429.853 184.852 395.993 185.508 394.546 185.553Z" fill="#21111D"/>
<path d="M396.309 192.875V192.039C396.625 192.039 427.795 191.7 436.158 187.383L436.543 188.129C427.999 192.536 397.597 192.853 396.309 192.875Z" fill="#21111D"/>
<path d="M343.821 87.8374C343.776 87.8374 343.753 87.8374 343.708 87.8374L323.545 86.1196C322.845 86.0518 322.325 85.4415 322.393 84.7408C322.46 84.0401 323.071 83.5202 323.771 83.588L343.934 85.3058C344.634 85.3737 345.154 85.984 345.087 86.6847C345.019 87.3402 344.454 87.8374 343.821 87.8374Z" fill="#FECC86"/>
<path d="M354.241 55.7212C353.992 55.7212 353.743 55.6534 353.517 55.4952L336.813 44.0804C336.226 43.6961 336.09 42.905 336.474 42.3173C336.859 41.7296 337.65 41.594 338.237 41.9783L354.941 53.393C355.529 53.7773 355.665 54.5684 355.28 55.1561C355.032 55.5178 354.648 55.7212 354.241 55.7212Z" fill="#FECC86"/>
<path d="M384.413 32.6848C383.916 32.6848 383.441 32.391 383.238 31.8937L375.621 13.1555C375.349 12.5 375.666 11.7766 376.321 11.5054C376.977 11.2342 377.7 11.5506 377.971 12.2061L385.589 30.9444C385.86 31.5999 385.544 32.3232 384.888 32.5944C384.73 32.6622 384.572 32.6848 384.413 32.6848Z" fill="#FECC86"/>
<path d="M485.769 91.4773C485.113 91.4773 484.548 90.9574 484.503 90.3019C484.458 89.6012 484.977 88.9909 485.678 88.9457L505.863 87.6121C506.564 87.5669 507.174 88.0868 507.219 88.7875C507.264 89.4882 506.745 90.0985 506.044 90.1437L485.859 91.4773C485.814 91.4773 485.791 91.4773 485.769 91.4773Z" fill="#FECC86"/>
<path d="M475.959 59.1769C475.552 59.1769 475.146 58.9735 474.897 58.6118C474.513 58.0242 474.671 57.233 475.259 56.8488L492.166 45.7505C492.754 45.3662 493.545 45.5244 493.929 46.1121C494.313 46.6998 494.155 47.4909 493.567 47.8752L476.66 58.9735C476.434 59.1091 476.185 59.1769 475.959 59.1769Z" fill="#FECC86"/>
<path d="M450.127 32.6173C449.968 32.6173 449.788 32.5947 449.629 32.5043C448.996 32.2331 448.68 31.4872 448.974 30.8317L456.953 12.229C457.224 11.5961 457.97 11.2797 458.626 11.5735C459.258 11.8447 459.575 12.5907 459.281 13.2462L451.302 31.8488C451.076 32.3235 450.624 32.6173 450.127 32.6173Z" fill="#FECC86"/>
<path d="M417.618 22.7617C416.895 22.7617 416.33 22.174 416.352 21.4733L416.669 1.24319C416.669 0.542483 417.256 0 417.934 0H417.957C418.658 0 419.223 0.58769 419.2 1.2884L418.884 21.5185C418.884 22.2192 418.319 22.7617 417.618 22.7617Z" fill="#FECC86"/>
<g opacity="0.5">
<path opacity="0.5" d="M438.194 67.392C444.669 71.5643 451.535 72.4372 453.53 69.3416C455.525 66.2459 451.893 60.354 445.419 56.1817C438.944 52.0093 432.078 51.1365 430.083 54.2321C428.088 57.3277 431.72 63.2196 438.194 67.392Z" fill="#F3FFFE"/>
</g>
<path d="M44.3468 203.617C44.0529 203.617 43.7817 203.436 43.6913 203.119C43.6687 203.074 43.307 201.876 42.8324 199.752C42.7419 199.39 42.968 199.006 43.3522 198.938C43.7139 198.847 44.0982 199.073 44.166 199.458C44.6406 201.537 45.0023 202.713 45.0023 202.735C45.1153 203.097 44.9119 203.481 44.5502 203.594C44.4824 203.594 44.4146 203.617 44.3468 203.617Z" fill="#21111D"/>
<path d="M42.1493 193.418C41.8102 193.418 41.5164 193.169 41.4712 192.83C41.1095 190.525 40.8157 188.174 40.5896 185.846C40.5444 185.462 40.8383 185.145 41.1999 185.1C41.5842 185.055 41.9006 185.349 41.9458 185.71C42.1493 187.993 42.4431 190.321 42.8048 192.604C42.8726 192.989 42.6013 193.328 42.2397 193.395C42.2171 193.418 42.1945 193.418 42.1493 193.418ZM40.8609 179.517C40.4992 179.517 40.1828 179.223 40.1828 178.839C40.1602 178.115 40.1602 177.415 40.1602 176.691C40.1602 175.041 40.2054 173.391 40.2958 171.786C40.3184 171.402 40.6348 171.108 41.0191 171.131C41.4033 171.154 41.6972 171.47 41.6746 171.854C41.5842 173.437 41.539 175.064 41.539 176.691C41.539 177.392 41.539 178.093 41.5616 178.794C41.5616 179.178 41.2677 179.494 40.8609 179.517C40.8835 179.517 40.8835 179.517 40.8609 179.517ZM41.652 165.548C41.6294 165.548 41.5842 165.548 41.5616 165.548C41.1773 165.503 40.9287 165.141 40.9739 164.779C41.3129 162.406 41.765 160.078 42.3301 157.863C42.4205 157.501 42.8048 157.275 43.1664 157.365C43.5281 157.456 43.7541 157.84 43.6637 158.202C43.1212 160.372 42.6691 162.655 42.3301 164.983C42.2849 165.299 41.991 165.548 41.652 165.548ZM104.015 158.179C103.699 158.179 103.405 157.953 103.337 157.614C103.269 157.252 103.518 156.891 103.879 156.8C106.14 156.371 108.084 155.376 109.688 153.862C109.96 153.591 110.389 153.613 110.66 153.885C110.932 154.156 110.909 154.585 110.638 154.856C108.852 156.552 106.66 157.659 104.151 158.134C104.105 158.179 104.06 158.179 104.015 158.179ZM97.0983 157.908C97.0305 157.908 96.9401 157.885 96.8723 157.863C94.7023 157.094 92.8488 155.331 91.5604 152.822C91.3796 152.483 91.5152 152.076 91.8543 151.895C92.1933 151.715 92.6002 151.85 92.781 152.189C93.9112 154.404 95.4934 155.919 97.3243 156.574C97.686 156.71 97.8668 157.094 97.7312 157.456C97.6408 157.727 97.3695 157.908 97.0983 157.908ZM45.0651 152.031C44.9747 152.031 44.9069 152.008 44.8165 151.986C44.4548 151.85 44.274 151.466 44.4096 151.104C45.2459 148.867 46.2405 146.697 47.3255 144.662C47.5063 144.323 47.9131 144.21 48.2522 144.368C48.5913 144.549 48.7043 144.956 48.5234 145.295C47.4611 147.284 46.5117 149.409 45.698 151.579C45.6076 151.85 45.3363 152.031 45.0651 152.031ZM113.78 149.16C113.712 149.16 113.644 149.138 113.554 149.115C113.192 149.002 113.011 148.595 113.124 148.256C113.78 146.29 114.119 144.097 114.119 141.769V141.588C114.119 141.204 114.413 140.91 114.797 140.888C115.181 140.888 115.475 141.181 115.475 141.566V141.746C115.475 144.233 115.113 146.538 114.413 148.663C114.345 148.98 114.073 149.16 113.78 149.16ZM90.272 146.493C89.933 146.493 89.6391 146.245 89.5939 145.883C89.4809 144.821 89.4131 143.69 89.4131 142.56C89.4131 141.317 89.4809 140.051 89.6165 138.763C89.6618 138.379 90.0008 138.107 90.3625 138.153C90.7467 138.198 91.018 138.537 90.9728 138.898C90.8371 140.142 90.7693 141.362 90.7693 142.56C90.7693 143.645 90.8371 144.73 90.9501 145.725C90.9954 146.109 90.7241 146.448 90.3399 146.493C90.3173 146.493 90.2946 146.493 90.272 146.493ZM51.6427 139.735C51.5071 139.735 51.3715 139.69 51.2359 139.599C50.9194 139.373 50.8742 138.944 51.0776 138.65C52.479 136.751 54.0161 134.92 55.6661 133.248C55.9374 132.976 56.3668 132.976 56.6381 133.248C56.9093 133.519 56.9093 133.948 56.6381 134.219C55.0332 135.847 53.5414 137.61 52.1852 139.463C52.0722 139.644 51.8688 139.735 51.6427 139.735ZM113.825 135.372C113.531 135.372 113.26 135.169 113.169 134.875C112.559 132.66 111.655 130.558 110.525 128.614C110.321 128.297 110.434 127.868 110.773 127.664C111.09 127.461 111.519 127.574 111.723 127.913C112.921 129.947 113.87 132.163 114.503 134.491C114.593 134.852 114.39 135.237 114.028 135.327C113.96 135.372 113.893 135.372 113.825 135.372ZM91.6735 132.66C91.6056 132.66 91.5378 132.66 91.4926 132.637C91.131 132.524 90.9275 132.163 91.018 131.778C91.6509 129.563 92.4872 127.325 93.4817 125.133C93.64 124.794 94.0468 124.636 94.3859 124.794C94.7249 124.952 94.8832 125.359 94.7249 125.698C93.753 127.823 92.9619 129.993 92.329 132.163C92.2385 132.479 91.9673 132.66 91.6735 132.66ZM61.4074 129.767C61.204 129.767 61.0006 129.676 60.8649 129.495C60.6389 129.202 60.6841 128.772 60.9779 128.523C62.8314 127.077 64.7979 125.721 66.8096 124.5C67.1261 124.297 67.5556 124.41 67.759 124.726C67.9624 125.042 67.8494 125.472 67.533 125.675C65.5665 126.851 63.6678 128.184 61.8595 129.608C61.7013 129.721 61.543 129.767 61.4074 129.767ZM106.614 123.664C106.456 123.664 106.298 123.618 106.185 123.505C104.49 122.104 102.523 120.974 100.331 120.16C99.9689 120.025 99.7881 119.64 99.9237 119.279C100.059 118.917 100.444 118.736 100.805 118.872C103.133 119.731 105.236 120.929 107.044 122.443C107.338 122.692 107.383 123.121 107.134 123.415C106.999 123.573 106.795 123.664 106.614 123.664ZM73.3647 122.579C73.0934 122.579 72.8448 122.42 72.7318 122.172C72.5735 121.833 72.7318 121.426 73.0708 121.268C75.2633 120.296 77.5011 119.482 79.7388 118.849C80.1005 118.736 80.4847 118.962 80.5752 119.324C80.6882 119.685 80.4621 120.07 80.1005 120.16C77.9305 120.77 75.7606 121.562 73.6133 122.511C73.5455 122.556 73.4551 122.579 73.3647 122.579ZM97.4147 119.957C97.2791 119.957 97.1661 119.912 97.0531 119.844C96.7366 119.64 96.6462 119.211 96.827 118.894C98.0702 116.928 99.4491 114.984 100.963 113.153C101.212 112.859 101.642 112.814 101.935 113.063C102.229 113.311 102.274 113.741 102.026 114.035C100.557 115.82 99.2004 117.719 97.9798 119.64C97.8668 119.844 97.6408 119.957 97.4147 119.957ZM86.7685 118.827C86.4295 118.827 86.1356 118.578 86.0904 118.216C86.0452 117.832 86.3164 117.493 86.7007 117.448C89.1419 117.176 91.5604 117.131 93.8208 117.335C94.205 117.38 94.4763 117.696 94.4537 118.081C94.4311 118.465 94.092 118.736 93.7078 118.691C91.5378 118.487 89.2323 118.533 86.8589 118.804C86.8363 118.827 86.7911 118.827 86.7685 118.827ZM106.275 109.197C106.094 109.197 105.914 109.13 105.778 108.971C105.529 108.7 105.529 108.271 105.823 107.999C107.518 106.44 109.372 104.948 111.384 103.592C111.7 103.388 112.13 103.456 112.333 103.773C112.536 104.089 112.469 104.519 112.152 104.722C110.208 106.033 108.4 107.48 106.75 108.994C106.614 109.13 106.434 109.197 106.275 109.197ZM117.78 101.309C117.532 101.309 117.283 101.173 117.17 100.925C116.989 100.586 117.148 100.179 117.487 99.9978C119.521 98.9807 121.713 98.0313 123.974 97.195C124.335 97.0594 124.72 97.2402 124.855 97.6019C124.991 97.9635 124.81 98.3478 124.448 98.4834C122.233 99.2971 120.086 100.224 118.097 101.241C117.984 101.286 117.871 101.309 117.78 101.309ZM130.868 96.4265C130.574 96.4265 130.28 96.2231 130.212 95.9292C130.122 95.5676 130.325 95.1833 130.687 95.0929C132.902 94.5052 135.208 93.9627 137.558 93.5333C137.92 93.4654 138.282 93.7141 138.35 94.0757C138.417 94.4374 138.169 94.7991 137.807 94.8669C135.479 95.2963 133.219 95.8162 131.049 96.4039C130.981 96.4039 130.913 96.4265 130.868 96.4265ZM144.611 93.8271C144.272 93.8271 143.978 93.5785 143.933 93.2168C143.887 92.8325 144.159 92.4935 144.543 92.4483C146.849 92.177 149.199 91.9736 151.55 91.8606C151.934 91.838 152.251 92.1318 152.273 92.5161C152.296 92.9004 152.002 93.2168 151.618 93.2394C149.29 93.3524 146.962 93.5559 144.679 93.8271C144.656 93.8271 144.633 93.8271 144.611 93.8271Z" fill="#21111D"/>
<path d="M162.044 93.2203C162.021 93.2203 161.998 93.2203 161.998 93.2203C161.976 93.2203 160.733 93.1299 158.608 93.1073C158.224 93.1073 157.93 92.7909 157.93 92.4066C157.93 92.0224 158.246 91.7285 158.608 91.7285C160.778 91.7511 162.021 91.8415 162.066 91.8641C162.45 91.8867 162.722 92.2258 162.699 92.6101C162.699 92.9491 162.405 93.2203 162.044 93.2203Z" fill="#21111D"/>
<path d="M171.492 99.5248L175.357 95.0945C175.357 95.0945 194.57 93.015 194.842 92.8794C195.113 92.7438 204.991 87.7936 204.991 87.7936L192.581 87.0703L172.306 89.9636L171.492 99.5248Z" fill="#7FC6A6"/>
<path d="M167.699 80.0391L205.018 87.7694L172.31 89.962L167.699 80.0391Z" fill="#B9EDD6"/>
<path d="M175.383 95.0931L180.197 105.671L205.016 87.7695L175.383 95.0931Z" fill="#B9EDD6"/>
<path d="M383.324 356.863C383.324 356.863 389.631 372.708 384.341 384.711L505.496 385.728L516.685 384.711L526.54 378.608V369.273L523.805 361.542L514.854 356.863H383.324Z" fill="white"/>
<path d="M511.172 387.269H380.275C379.416 387.269 378.738 386.568 378.738 385.732C378.738 384.896 379.439 384.195 380.275 384.195H511.172C519.083 384.195 525.503 378.228 525.503 370.904C525.503 363.58 519.083 357.613 511.172 357.613H380.275C379.416 357.613 378.738 356.912 378.738 356.076C378.738 355.217 379.439 354.539 380.275 354.539H511.172C520.778 354.539 528.599 361.885 528.599 370.927C528.577 379.923 520.756 387.269 511.172 387.269Z" fill="#61A3C5"/>
<path d="M449.328 371.215H385.089C384.908 371.215 384.75 371.057 384.75 370.876C384.75 370.695 384.908 370.537 385.089 370.537H449.328C449.509 370.537 449.667 370.695 449.667 370.876C449.667 371.08 449.532 371.215 449.328 371.215Z" fill="#AAC9F8"/>
<path d="M520.775 371.213H458.366C458.186 371.213 458.027 371.055 458.027 370.874C458.027 370.693 458.186 370.535 458.366 370.535H520.775C520.955 370.535 521.114 370.693 521.114 370.874C521.114 371.078 520.978 371.213 520.775 371.213Z" fill="#AAC9F8"/>
<path d="M519.107 377.364H487.101C486.92 377.364 486.762 377.205 486.762 377.025C486.762 376.844 486.92 376.686 487.101 376.686H519.13C519.311 376.686 519.469 376.844 519.469 377.025C519.469 377.205 519.288 377.364 519.107 377.364Z" fill="#AAC9F8"/>
<path d="M482.402 377.364H385.116C384.936 377.364 384.777 377.205 384.777 377.025C384.777 376.844 384.936 376.686 385.116 376.686H482.402C482.583 376.686 482.741 376.844 482.741 377.025C482.741 377.205 482.583 377.364 482.402 377.364Z" fill="#AAC9F8"/>
<path d="M525.251 324.385C525.251 324.385 518.944 340.23 524.234 352.232L403.079 353.249L391.89 352.232L382.035 346.129V336.794L384.77 329.064L393.721 324.385H525.251Z" fill="white"/>
<path d="M397.404 354.804H528.301C529.159 354.804 529.838 354.103 529.838 353.267C529.838 352.408 529.137 351.73 528.301 351.73H397.404C389.493 351.73 383.073 345.763 383.073 338.439C383.073 331.116 389.493 325.148 397.404 325.148H528.301C529.159 325.148 529.838 324.448 529.838 323.611C529.838 322.752 529.137 322.074 528.301 322.074H397.404C387.797 322.074 379.977 329.42 379.977 338.462C379.977 347.435 387.797 354.804 397.404 354.804Z" fill="#F75553"/>
<path d="M523.469 338.758H459.23C459.049 338.758 458.891 338.6 458.891 338.419C458.891 338.238 459.049 338.08 459.23 338.08H523.469C523.65 338.08 523.808 338.238 523.808 338.419C523.83 338.6 523.672 338.758 523.469 338.758Z" fill="#AAC9F8"/>
<path d="M450.189 338.76H387.78C387.6 338.76 387.441 338.602 387.441 338.421C387.441 338.24 387.6 338.082 387.78 338.082H450.189C450.369 338.082 450.528 338.24 450.528 338.421C450.528 338.602 450.392 338.76 450.189 338.76Z" fill="#AAC9F8"/>
<path d="M421.481 344.907H389.452C389.272 344.907 389.113 344.748 389.113 344.568C389.113 344.387 389.272 344.229 389.452 344.229H421.481C421.662 344.229 421.82 344.387 421.82 344.568C421.82 344.748 421.662 344.907 421.481 344.907Z" fill="#AAC9F8"/>
<path d="M523.468 344.905H426.183C426.002 344.905 425.844 344.746 425.844 344.566C425.844 344.385 426.002 344.227 426.183 344.227H523.468C523.649 344.227 523.807 344.385 523.807 344.566C523.807 344.746 523.672 344.905 523.468 344.905Z" fill="#AAC9F8"/>
<path d="M403.781 293.798C403.781 293.798 409.636 308.513 404.731 319.634L517.16 320.583L527.535 319.634L536.69 313.96V305.281L534.158 298.115L525.863 293.775H403.781V293.798Z" fill="white"/>
<path d="M522.426 322.029H400.955C400.164 322.029 399.531 321.397 399.531 320.605C399.531 319.814 400.164 319.181 400.955 319.181H522.426C529.75 319.181 535.717 313.644 535.717 306.84C535.717 300.036 529.75 294.498 522.426 294.498H400.955C400.164 294.498 399.531 293.866 399.531 293.074C399.531 292.283 400.164 291.65 400.955 291.65H522.426C531.332 291.65 538.588 298.477 538.588 306.863C538.588 315.203 531.332 322.029 522.426 322.029Z" fill="#258D8C"/>
<path d="M465.038 307.157H405.433C405.252 307.157 405.094 306.998 405.094 306.818C405.094 306.637 405.252 306.479 405.433 306.479H465.038C465.219 306.479 465.377 306.637 465.377 306.818C465.377 307.021 465.242 307.157 465.038 307.157Z" fill="#AAC9F8"/>
<path d="M531.358 307.157H473.448C473.268 307.157 473.109 306.998 473.109 306.818C473.109 306.637 473.268 306.479 473.448 306.479H531.358C531.539 306.479 531.698 306.637 531.698 306.818C531.698 307.021 531.539 307.157 531.358 307.157Z" fill="#AAC9F8"/>
<path d="M529.793 312.879H500.07C499.889 312.879 499.73 312.721 499.73 312.54C499.73 312.359 499.889 312.201 500.07 312.201H529.793C529.974 312.201 530.132 312.359 530.132 312.54C530.132 312.721 529.974 312.879 529.793 312.879Z" fill="#AAC9F8"/>
<path d="M529.797 301.463H405.433C405.252 301.463 405.094 301.305 405.094 301.124C405.094 300.943 405.252 300.785 405.433 300.785H529.797C529.978 300.785 530.136 300.943 530.136 301.124C530.136 301.305 529.978 301.463 529.797 301.463Z" fill="#AAC9F8"/>
<path d="M528.308 355.146H397.411C387.624 355.146 379.645 347.642 379.645 338.42C379.645 329.198 387.601 321.693 397.411 321.693H528.308C529.347 321.693 530.184 322.53 530.184 323.569C530.184 324.609 529.347 325.446 528.308 325.446C528.127 325.446 527.968 325.287 527.968 325.107C527.968 324.926 528.127 324.767 528.308 324.767C528.963 324.767 529.506 324.225 529.506 323.569C529.506 322.914 528.963 322.371 528.308 322.371H397.411C387.985 322.371 380.345 329.559 380.345 338.42C380.345 347.258 388.008 354.468 397.411 354.468H528.308C528.963 354.468 529.506 353.926 529.506 353.27C529.506 352.615 528.963 352.072 528.308 352.072C528.127 352.072 527.968 351.914 527.968 351.733C527.968 351.553 528.127 351.394 528.308 351.394C529.347 351.394 530.184 352.231 530.184 353.27C530.184 354.288 529.347 355.146 528.308 355.146Z" fill="#21111D"/>
<path d="M522.425 322.369H400.954C399.982 322.369 399.168 321.578 399.168 320.584C399.168 319.589 399.959 318.798 400.954 318.798C401.134 318.798 401.293 318.956 401.293 319.137C401.293 319.318 401.134 319.476 400.954 319.476C400.343 319.476 399.869 319.973 399.869 320.561C399.869 321.149 400.366 321.646 400.954 321.646H522.425C531.15 321.646 538.247 314.978 538.247 306.773C538.247 298.568 531.15 291.923 522.425 291.923H400.954C400.343 291.923 399.869 292.42 399.869 293.007C399.869 293.618 400.366 294.092 400.954 294.092C401.134 294.092 401.293 294.251 401.293 294.431C401.293 294.612 401.134 294.771 400.954 294.771C399.982 294.771 399.168 293.979 399.168 292.985C399.168 292.013 399.959 291.199 400.954 291.199H522.425C531.534 291.199 538.925 298.184 538.925 306.75C538.925 315.408 531.534 322.369 522.425 322.369Z" fill="#21111D"/>
<path d="M511.171 387.602H380.275C379.235 387.602 378.398 386.765 378.398 385.725C378.398 384.686 379.235 383.849 380.275 383.849C380.455 383.849 380.614 384.008 380.614 384.188C380.614 384.369 380.455 384.527 380.275 384.527C379.619 384.527 379.077 385.07 379.077 385.725C379.077 386.381 379.619 386.923 380.275 386.923H511.171C520.597 386.923 528.237 379.736 528.237 370.875C528.237 362.037 520.574 354.827 511.171 354.827H380.275C379.619 354.827 379.077 355.369 379.077 356.025C379.077 356.68 379.619 357.223 380.275 357.223C380.455 357.223 380.614 357.381 380.614 357.562C380.614 357.742 380.455 357.901 380.275 357.901C379.235 357.901 378.398 357.064 378.398 356.025C378.398 354.985 379.235 354.148 380.275 354.148H511.171C520.958 354.148 528.938 361.653 528.938 370.875C528.915 380.097 520.958 387.602 511.171 387.602Z" fill="#21111D"/>
<path d="M419.697 364.73C419.697 364.73 415.583 374.992 417.956 382.565L421.302 377.388C421.302 377.388 423.585 380.123 424.986 382.565C424.986 382.565 427.54 365.68 432.513 364.73H419.697Z" fill="#F75553"/>
<path d="M507.558 332.27C507.558 332.27 511.672 342.532 509.299 350.104L505.953 344.927C505.953 344.927 503.671 347.662 502.269 350.104C502.269 350.104 499.715 333.219 494.742 332.27H507.558Z" fill="#7FC6A6"/>
<path d="M425.052 312.539C425.052 312.539 420.938 322.801 423.312 330.373L426.657 325.197C426.657 325.197 428.94 327.932 430.341 330.373C430.341 330.373 432.896 313.488 437.868 312.539H425.052Z" fill="#4CB7D8"/>
<path d="M519.105 365.065H385.089C384.908 365.065 384.75 364.907 384.75 364.726C384.75 364.545 384.908 364.387 385.089 364.387H519.105C519.286 364.387 519.444 364.545 519.444 364.726C519.444 364.907 519.286 365.065 519.105 365.065Z" fill="#AAC9F8"/>
<path d="M523.468 332.61H389.452C389.272 332.61 389.113 332.452 389.113 332.271C389.113 332.09 389.272 331.932 389.452 331.932H523.468C523.649 331.932 523.807 332.09 523.807 332.271C523.83 332.452 523.672 332.61 523.468 332.61Z" fill="#AAC9F8"/>
<path d="M495.71 312.879H405.409C405.229 312.879 405.07 312.721 405.07 312.54C405.07 312.359 405.229 312.201 405.409 312.201H495.71C495.891 312.201 496.049 312.359 496.049 312.54C496.072 312.721 495.914 312.879 495.71 312.879Z" fill="#AAC9F8"/>
<path d="M466.307 335.14L471.099 337.83L476.795 332.224L476.953 331.298L475.551 321.104L464.453 323.16L466.307 335.14Z" fill="#FE9F73"/>
<path d="M474.46 338.124L459.158 340.203C459.022 340.203 458.909 340.203 458.819 340.181C457.327 339.932 457.666 338.96 457.666 338.96L464.379 333.422L464.424 332.744C464.492 331.637 465.781 331.094 466.843 331.682L469.668 333.196C469.668 333.196 476.291 333.287 476.947 331.32L477.557 336.135C477.534 336.112 478.235 337.581 474.46 338.124Z" fill="#F75553"/>
<path d="M446.537 335.797L451.329 338.486L457.025 332.881L457.183 331.954L455.782 321.76L444.684 323.817L446.537 335.797Z" fill="#FE9F73"/>
<path d="M454.695 338.78L439.392 340.86C439.257 340.86 439.143 340.86 439.053 340.837C437.561 340.589 437.9 339.617 437.9 339.617L444.614 334.079L444.659 333.401C444.727 332.293 446.015 331.751 447.077 332.338L449.903 333.853C449.903 333.853 456.526 333.943 457.181 331.977L457.791 336.791C457.769 336.769 458.492 338.238 454.695 338.78Z" fill="#F75553"/>
<path d="M483.962 294.159C483.962 294.159 503.061 295.063 508.351 293.888C513.662 292.712 514.951 276.166 508.938 266.017C502.926 255.869 481.859 287.016 481.859 287.016L483.962 294.159Z" fill="#49263E"/>
<path d="M472.171 269.587C472.171 269.587 445.589 273.723 444.821 276.797C444.052 279.871 441.837 312.646 443.487 326.638C443.487 326.638 453.614 327.339 458.451 326.163L459.626 292.077L467.628 291.151L485.936 269.135L472.171 269.587Z" fill="#3A1F33"/>
<path d="M485.092 271.514C485.092 271.514 464.5 277.323 463.732 280.397C462.963 283.471 460.771 312.72 462.421 326.711C462.421 326.711 473.315 327.344 478.153 326.169L479.464 294.004L484.165 294.162L495.557 274.113L485.092 271.514Z" fill="#49263E"/>
<path d="M497.857 232.291C497.857 232.291 506.967 232.449 509.069 233.692C511.171 234.935 520.868 250.893 522.97 257.675C522.97 257.675 517.5 262.466 510.448 262.647L508.752 259.46L509.724 265.993L491.28 271.463C485.019 273.316 478.328 273.113 472.203 270.852L470.281 270.152C470.281 270.152 470.304 239.094 475.864 235.817C480.792 232.856 491.483 231.319 497.857 232.291Z" fill="#FEBAC7"/>
<path d="M486.43 217.037V225.83C486.43 225.83 486.317 228.791 488.917 229.175L488.442 233.131C488.261 234.6 489.143 236.024 490.567 236.453C491.268 236.679 492.081 236.838 493.031 236.838C495.992 236.838 497.619 234.6 497.868 233.492C498.116 232.385 497.37 227.05 497.37 227.05L497.461 224.428L497.122 214.279L486.43 217.037Z" fill="#FE9F73"/>
<path d="M493.602 221.424C493.624 221.424 493.669 221.402 493.692 221.379C493.737 221.334 493.737 221.244 493.692 221.198C493.669 221.176 491.974 219.435 490.414 220.701C490.369 220.746 490.347 220.814 490.392 220.882C490.437 220.927 490.505 220.95 490.573 220.905C491.951 219.797 493.443 221.334 493.511 221.379C493.534 221.424 493.579 221.424 493.602 221.424Z" fill="#FECC86"/>
<path d="M488.488 220.675C488.533 220.675 488.556 220.652 488.578 220.629C488.624 220.584 488.624 220.494 488.556 220.449C488.511 220.403 487.335 219.386 486.567 220.042C486.522 220.087 486.499 220.155 486.544 220.223C486.589 220.268 486.657 220.29 486.725 220.245C487.313 219.748 488.375 220.652 488.375 220.652C488.443 220.675 488.465 220.675 488.488 220.675Z" fill="#FECC86"/>
<path d="M491.471 222.284C491.671 222.284 491.833 222.122 491.833 221.922C491.833 221.722 491.671 221.561 491.471 221.561C491.271 221.561 491.109 221.722 491.109 221.922C491.109 222.122 491.271 222.284 491.471 222.284Z" fill="black"/>
<path d="M487.514 221.921C487.714 221.921 487.876 221.759 487.876 221.559C487.876 221.359 487.714 221.197 487.514 221.197C487.314 221.197 487.152 221.359 487.152 221.559C487.152 221.759 487.314 221.921 487.514 221.921Z" fill="black"/>
<path d="M496.744 214.802L494.664 217.741C494.664 217.741 488.381 220.182 485.171 217.289C481.961 214.395 482.933 213.017 483.883 211.57C484.357 210.847 486.572 209.4 489.285 210.621C490.777 211.276 491.862 209.31 493.602 210.304C495.343 211.299 497.377 213.017 497.151 213.695C496.925 214.373 496.744 214.802 496.744 214.802Z" fill="#FECC86"/>
<path d="M496.599 213.556C496.599 213.556 499.447 213.42 500.261 216.178C501.052 218.935 499.99 220.382 499.967 221.196C499.944 222.009 500.487 227.547 496.622 227.14L495.582 218.009L496.938 214.37L496.599 213.556Z" fill="#FECC86"/>
<path d="M496.398 224.048C497.634 224.048 498.636 223.046 498.636 221.81C498.636 220.574 497.634 219.572 496.398 219.572C495.162 219.572 494.16 220.574 494.16 221.81C494.16 223.046 495.162 224.048 496.398 224.048Z" fill="#FE9F73"/>
<path d="M496.561 223.166C497.013 223.166 497.33 222.827 497.443 222.466C497.556 222.059 497.42 221.652 497.081 221.449C496.584 221.132 496.132 221.336 495.906 221.494C495.996 221.245 496.154 221.064 496.358 220.951C496.787 220.703 497.352 220.884 497.352 220.884C497.375 220.884 497.42 220.884 497.42 220.838C497.42 220.816 497.42 220.771 497.375 220.771C497.352 220.771 496.765 220.567 496.29 220.838C496.019 220.997 495.815 221.268 495.725 221.652L495.68 221.878L495.838 221.72C495.861 221.697 496.38 221.177 497.013 221.562C497.352 221.788 497.398 222.172 497.307 222.443C497.217 222.714 496.968 223.053 496.561 223.053C496.561 223.053 496.561 223.053 496.539 223.053C496.516 223.053 496.471 223.076 496.471 223.121C496.493 223.144 496.516 223.166 496.561 223.166Z" fill="#F07162"/>
<path d="M494.932 226.646C494.932 226.646 494.751 231.619 488.535 232.094L488.897 229.178C488.897 229.178 492.943 229.969 494.932 226.646Z" fill="#F07162"/>
<path d="M509.009 259.85C516.694 258.652 521.238 254.063 521.283 254.018L521.012 253.77C520.966 253.815 516.491 258.335 508.941 259.511L509.009 259.85Z" fill="#21111D"/>
<path d="M471.62 327.095C476.434 327.095 478.152 326.372 478.22 326.326L478.333 326.281L479.599 293.936L477.61 294.862L477.768 295.201L479.192 294.523L477.971 326.01C477.451 326.191 474.965 326.914 469.066 326.643L469.043 327.004C469.992 327.072 470.851 327.095 471.62 327.095Z" fill="#21111D"/>
<path d="M476.147 320.107C476.667 318.118 476.802 298.815 476.802 297.979H476.441C476.441 298.182 476.282 318.073 475.785 320.017L476.147 320.107Z" fill="#21111D"/>
<path d="M457.026 292.805C459.467 292.014 462.835 291.901 462.858 291.901L462.835 291.539C462.79 291.539 459.4 291.652 456.891 292.466L457.026 292.805Z" fill="#21111D"/>
<path d="M451.537 327.023C455.651 327.023 458.477 326.344 458.522 326.344L458.658 326.322L459.856 291.852L458.341 293.072L458.567 293.366L459.449 292.643L458.296 326.005C457.663 326.141 454.928 326.684 451.176 326.638V327C451.289 327.023 451.402 327.023 451.537 327.023Z" fill="#21111D"/>
<path d="M456.705 320.832C457.225 317.848 456.728 297.595 456.705 296.736H456.344C456.344 296.94 456.841 317.825 456.344 320.764L456.705 320.832Z" fill="#21111D"/>
<path d="M482.155 278.044L489.953 273.771L479.895 271.918L482.155 278.044Z" fill="#5089A0"/>
<path d="M481.859 277.55C481.995 277.459 489.386 273.549 489.386 273.549L489.499 274.001L482.153 278.024L481.859 277.55Z" fill="#4CB7D8"/>
<path d="M475.059 273.113L477.161 269.836C478.314 267.96 480.19 265.496 482.134 265.292C485.321 264.931 504.715 264.14 510.863 263.371C510.863 263.371 510.433 262.625 510.456 262.625C510.524 262.648 515.497 261.789 515.497 261.789L518.684 260.274L521.554 259.031C522.345 262.128 524.515 267.191 522.3 270.74C518.186 277.272 486.655 274.063 483.852 273.204L481.275 275.984L480.755 276.798C480.506 277.182 479.987 277.295 479.602 277.046C479.218 276.798 479.105 276.278 479.354 275.893L479.128 276.232C478.879 276.617 478.359 276.73 477.975 276.481C477.591 276.232 477.478 275.713 477.726 275.328C477.478 275.713 476.958 275.826 476.573 275.577C476.189 275.328 476.076 274.808 476.325 274.424L476.551 274.085C476.302 274.469 475.782 274.582 475.398 274.334C475.375 274.334 475.375 274.311 475.353 274.311C475.353 274.311 475.33 274.311 475.33 274.289C475.285 274.243 475.24 274.198 475.195 274.153C474.765 273.588 475.059 273.113 475.059 273.113Z" fill="#FE9F73"/>
<path d="M510.347 262.897H510.46C516.721 262.762 523.027 257.924 523.072 257.879L523.185 257.789L519.207 248.996L518.868 249.154L522.711 257.676C521.829 258.331 516.178 262.332 510.55 262.513L508.855 259.032L508.516 259.19L510.347 262.897Z" fill="#21111D"/>
<path d="M513.083 266.407C513.128 266.407 513.151 266.407 513.196 266.384C513.241 266.339 513.264 266.271 513.219 266.203L510.959 263.287C510.913 263.242 510.846 263.22 510.778 263.265C510.732 263.31 510.71 263.378 510.755 263.446L513.015 266.362C513.038 266.384 513.061 266.407 513.083 266.407Z" fill="#F07162"/>
<path d="M476.217 274.564C476.263 274.564 476.308 274.564 476.353 274.519L479.314 270.473C479.359 270.428 479.337 270.337 479.291 270.292C479.246 270.247 479.156 270.27 479.111 270.315L476.15 274.361C476.104 274.406 476.127 274.496 476.172 274.542C476.195 274.564 476.195 274.564 476.217 274.564Z" fill="#F07162"/>
<path d="M477.495 275.757C477.54 275.757 477.585 275.757 477.63 275.711L480.456 271.53C480.501 271.462 480.478 271.394 480.433 271.349C480.365 271.304 480.298 271.326 480.252 271.371L477.427 275.553C477.382 275.621 477.404 275.689 477.45 275.734C477.472 275.734 477.495 275.757 477.495 275.757Z" fill="#F07162"/>
<path d="M479.079 276.507C479.124 276.507 479.169 276.507 479.214 276.462L481.565 272.913C481.61 272.846 481.588 272.778 481.52 272.732C481.452 272.687 481.384 272.71 481.339 272.778L478.988 276.326C478.943 276.394 478.966 276.462 479.034 276.507C479.034 276.507 479.056 276.507 479.079 276.507Z" fill="#F07162"/>
<path d="M492.15 294.5C482.725 294.5 477.051 293.868 476.961 293.868L477.006 293.506C477.142 293.528 489.913 294.93 508.945 293.506L508.967 293.868C502.571 294.342 496.897 294.5 492.15 294.5Z" fill="#21111D"/>
<path d="M479.307 244.691L478.945 244.68L478.447 260.449L478.809 260.46L479.307 244.691Z" fill="#21111D"/>
<path d="M450.129 251.641L453.497 275.668L482.158 278.041L481.186 251.889L450.129 251.641Z" fill="#4CB7D8"/>
<path d="M510.625 262.811L503.25 245.832L502.918 245.976L510.294 262.956L510.625 262.811Z" fill="#21111D"/>
<path d="M509.545 263.521L508.723 258.434L508.366 258.491L509.188 263.579L509.545 263.521Z" fill="#21111D"/>
<path d="M489.802 224.425C489.824 224.425 489.847 224.403 489.869 224.38C489.869 224.358 489.869 224.312 489.824 224.312L488.581 223.906L488.965 220.99C488.965 220.967 488.943 220.922 488.92 220.922C488.875 220.922 488.852 220.944 488.852 220.967L488.445 223.996L489.802 224.425C489.779 224.425 489.779 224.425 489.802 224.425Z" fill="#F07162"/>
<path d="M490.754 225.626C490.708 225.626 488.312 225.559 488.312 225.559C488.312 225.559 488.606 226.553 489.51 226.576C490.415 226.598 490.754 225.626 490.754 225.626Z" fill="#FBFDFC"/>
<path d="M465.116 263.986C465.715 263.986 466.201 263.501 466.201 262.901C466.201 262.302 465.715 261.816 465.116 261.816C464.517 261.816 464.031 262.302 464.031 262.901C464.031 263.501 464.517 263.986 465.116 263.986Z" fill="#E2F2F1"/>
<path d="M281.636 59.173C284.508 59.173 286.835 56.8454 286.835 53.9742C286.835 51.103 284.508 48.7754 281.636 48.7754C278.765 48.7754 276.438 51.103 276.438 53.9742C276.438 56.8454 278.765 59.173 281.636 59.173Z" fill="#FECC86"/>
<path d="M294.749 68.4426C295.997 68.4426 297.009 67.4306 297.009 66.1822C297.009 64.9339 295.997 63.9219 294.749 63.9219C293.5 63.9219 292.488 64.9339 292.488 66.1822C292.488 67.4306 293.5 68.4426 294.749 68.4426Z" fill="#FECC86"/>
<path d="M147.605 128.794C150.476 128.794 152.804 126.466 152.804 123.595C152.804 120.724 150.476 118.396 147.605 118.396C144.734 118.396 142.406 120.724 142.406 123.595C142.406 126.466 144.734 128.794 147.605 128.794Z" fill="#FECC86"/>
<path d="M103.296 201.126C106.168 201.126 108.495 198.799 108.495 195.927C108.495 193.056 106.168 190.729 103.296 190.729C100.425 190.729 98.0977 193.056 98.0977 195.927C98.0977 198.799 100.425 201.126 103.296 201.126Z" fill="#FECC86"/>
<path d="M135.397 145.521C136.645 145.521 137.657 144.509 137.657 143.26C137.657 142.012 136.645 141 135.397 141C134.149 141 133.137 142.012 133.137 143.26C133.137 144.509 134.149 145.521 135.397 145.521Z" fill="#FECC86"/>
<path d="M67.5807 185.306C68.829 185.306 69.841 184.294 69.841 183.046C69.841 181.797 68.829 180.785 67.5807 180.785C66.3323 180.785 65.3203 181.797 65.3203 183.046C65.3203 184.294 66.3323 185.306 67.5807 185.306Z" fill="#FECC86"/>
<path d="M321.648 140.55C324.519 140.55 326.847 138.222 326.847 135.351C326.847 132.48 324.519 130.152 321.648 130.152C318.777 130.152 316.449 132.48 316.449 135.351C316.449 138.222 318.777 140.55 321.648 140.55Z" fill="#FECC86"/>
<path d="M301.756 146.2C303.005 146.2 304.017 145.188 304.017 143.94C304.017 142.692 303.005 141.68 301.756 141.68C300.508 141.68 299.496 142.692 299.496 143.94C299.496 145.188 300.508 146.2 301.756 146.2Z" fill="#FECC86"/>
<path d="M339.498 164.055C341.745 164.055 343.567 162.234 343.567 159.987C343.567 157.74 341.745 155.918 339.498 155.918C337.251 155.918 335.43 157.74 335.43 159.987C335.43 162.234 337.251 164.055 339.498 164.055Z" fill="#FECC86"/>
<path d="M543.386 214.464C546.258 214.464 548.585 212.136 548.585 209.265C548.585 206.394 546.258 204.066 543.386 204.066C540.515 204.066 538.188 206.394 538.188 209.265C538.188 212.136 540.515 214.464 543.386 214.464Z" fill="#FECC86"/>
<path d="M442.804 240.23C445.675 240.23 448.003 237.902 448.003 235.031C448.003 232.16 445.675 229.832 442.804 229.832C439.933 229.832 437.605 232.16 437.605 235.031C437.605 237.902 439.933 240.23 442.804 240.23Z" fill="#FECC86"/>
<path d="M523.491 220.111C524.739 220.111 525.751 219.099 525.751 217.85C525.751 216.602 524.739 215.59 523.491 215.59C522.242 215.59 521.23 216.602 521.23 217.85C521.23 219.099 522.242 220.111 523.491 220.111Z" fill="#FECC86"/>
<path d="M455.69 214.237C456.938 214.237 457.95 213.225 457.95 211.977C457.95 210.729 456.938 209.717 455.69 209.717C454.442 209.717 453.43 210.729 453.43 211.977C453.43 213.225 454.442 214.237 455.69 214.237Z" fill="#FECC86"/>
<path d="M561.24 237.969C563.488 237.969 565.309 236.148 565.309 233.901C565.309 231.654 563.488 229.832 561.24 229.832C558.993 229.832 557.172 231.654 557.172 233.901C557.172 236.148 558.993 237.969 561.24 237.969Z" fill="#FECC86"/>
<path d="M306.051 193.668V300.808H385.841V211.299L368.662 193.668H306.051Z" fill="white"/>
<path d="M385.842 211.321L368.754 193.668V211.321H385.842Z" fill="#AAC9F8"/>
<path d="M360.975 207.004H326.166C325.669 207.004 325.262 206.597 325.262 206.099C325.262 205.602 325.669 205.195 326.166 205.195H360.975C361.472 205.195 361.879 205.602 361.879 206.099C361.879 206.597 361.472 207.004 360.975 207.004Z" fill="#AAC9F8"/>
<path d="M365.726 214.013H321.424C320.926 214.013 320.52 213.606 320.52 213.109C320.52 212.612 320.926 212.205 321.424 212.205H365.726C366.224 212.205 366.631 212.612 366.631 213.109C366.631 213.606 366.224 214.013 365.726 214.013Z" fill="#AAC9F8"/>
<path d="M377.477 230.734H313.283C312.786 230.734 312.379 230.327 312.379 229.83C312.379 229.333 312.786 228.926 313.283 228.926H377.477C377.974 228.926 378.381 229.333 378.381 229.83C378.381 230.327 377.974 230.734 377.477 230.734Z" fill="#AAC9F8"/>
<path d="M377.477 238.644H313.283C312.786 238.644 312.379 238.237 312.379 237.74C312.379 237.243 312.786 236.836 313.283 236.836H377.477C377.974 236.836 378.381 237.243 378.381 237.74C378.381 238.237 377.974 238.644 377.477 238.644Z" fill="#AAC9F8"/>
<path d="M377.477 246.56H313.283C312.786 246.56 312.379 246.153 312.379 245.656C312.379 245.159 312.786 244.752 313.283 244.752H377.477C377.974 244.752 378.381 245.159 378.381 245.656C378.381 246.153 377.974 246.56 377.477 246.56Z" fill="#AAC9F8"/>
<path d="M377.477 262.377H313.283C312.786 262.377 312.379 261.97 312.379 261.472C312.379 260.975 312.786 260.568 313.283 260.568H377.477C377.974 260.568 378.381 260.975 378.381 261.472C378.381 261.97 377.974 262.377 377.477 262.377Z" fill="#AAC9F8"/>
<path d="M377.477 270.289H313.283C312.786 270.289 312.379 269.882 312.379 269.385C312.379 268.887 312.786 268.48 313.283 268.48H377.477C377.974 268.48 378.381 268.887 378.381 269.385C378.381 269.882 377.974 270.289 377.477 270.289Z" fill="#AAC9F8"/>
<path d="M377.477 290.636H313.283C312.786 290.636 312.379 290.23 312.379 289.732C312.379 289.235 312.786 288.828 313.283 288.828H377.477C377.974 288.828 378.381 289.235 378.381 289.732C378.381 290.23 377.974 290.636 377.477 290.636Z" fill="#AAC9F8"/>
<path d="M226.558 386.789L226.807 387.151L226.965 387.49H227.915L142.315 264.663C142.202 264.505 141.999 264.46 141.841 264.573C141.682 264.686 141.637 264.889 141.75 265.047L226.558 386.789Z" fill="#21111D"/>
<path d="M589.046 387.152H0V388.961H589.046V387.152Z" fill="#21111D"/>
</svg>
