<svg width="20" height="20" viewBox="0 0 20 20" fill="none" xmlns="http://www.w3.org/2000/svg">
<path d="M19.5055 8.1719H18.7422V8.13317H10.2139V11.8665H15.5692C14.7879 14.0398 12.6886 15.5998 10.2139 15.5998C7.07409 15.5998 4.52839 13.0924 4.52839 9.99984C4.52839 6.90724 7.07409 4.39984 10.2139 4.39984C11.6633 4.39984 12.9818 4.93837 13.9858 5.81804L16.6661 3.1781C14.9737 1.62457 12.7099 0.666504 10.2139 0.666504C4.98087 0.666504 0.738037 4.8455 0.738037 9.99984C0.738037 15.1542 4.98087 19.3332 10.2139 19.3332C15.447 19.3332 19.6898 15.1542 19.6898 9.99984C19.6898 9.37404 19.6244 8.76317 19.5055 8.1719Z" fill="#FFC107"/>
<path d="M1.83105 5.65564L4.94436 7.9045C5.78677 5.85024 7.82693 4.39984 10.2144 4.39984C11.6637 4.39984 12.9823 4.93837 13.9863 5.81804L16.6665 3.1781C14.9741 1.62457 12.7103 0.666504 10.2144 0.666504C6.57469 0.666504 3.41827 2.69044 1.83105 5.65564Z" fill="#FF3D00"/>
<path d="M10.2142 19.3331C12.6618 19.3331 14.8858 18.4105 16.5673 16.9101L13.6345 14.4657C12.6512 15.2023 11.4496 15.6007 10.2142 15.5997C7.74949 15.5997 5.65674 14.0518 4.86835 11.8916L1.77826 14.2366C3.34652 17.2592 6.53137 19.3331 10.2142 19.3331Z" fill="#4CAF50"/>
<path d="M19.5056 8.17203H18.7424V8.1333H10.2141V11.8666H15.5694C15.1956 12.901 14.5224 13.8048 13.633 14.4664L13.6344 14.4655L16.5672 16.9099C16.3596 17.0956 19.6899 14.6666 19.6899 9.99997C19.6899 9.37417 19.6246 8.7633 19.5056 8.17203Z" fill="#1976D2"/>
</svg>
