<svg width="27" height="27" viewBox="0 0 27 27" fill="none" xmlns="http://www.w3.org/2000/svg">
<path d="M1 9C1 5.22876 1 3.34315 2.17157 2.17157C3.34315 1 5.22876 1 9 1H18C21.7712 1 23.6569 1 24.8284 2.17157C26 3.34315 26 5.22876 26 9V18C26 21.7712 26 23.6569 24.8284 24.8284C23.6569 26 21.7712 26 18 26H9C5.22876 26 3.34315 26 2.17157 24.8284C1 23.6569 1 21.7712 1 18V9Z" stroke="#707584"/>
<path fill-rule="evenodd" clip-rule="evenodd" d="M24 17.7372L22.2375 15.9748L22.2117 15.9489C21.567 15.3042 21.0474 14.7846 20.5837 14.4308C20.1024 14.0635 19.623 13.8283 19.0556 13.8283C18.4881 13.8283 18.0088 14.0635 17.5274 14.4308C17.0638 14.7846 16.5441 15.3042 15.8994 15.9489L15.8994 15.9489L15.8736 15.9748L15.2353 16.6131C14.7505 17.0979 14.426 17.4205 14.1609 17.6174C13.9041 17.808 13.8004 17.806 13.7428 17.7949C13.6852 17.7838 13.5881 17.7472 13.4205 17.4748C13.2475 17.1936 13.066 16.7735 12.7959 16.1433L12.1202 14.5667L12.1031 14.5267C11.5904 13.3304 11.1832 12.3802 10.77 11.7086C10.3468 11.0208 9.8554 10.5208 9.13148 10.3814C8.40755 10.242 7.76562 10.5237 7.11723 11.0052C6.48414 11.4753 5.75317 12.2063 4.8329 13.1266L4.8021 13.1574L3 14.9595V16.3737L5.5092 13.8645C6.46723 12.9064 7.14663 12.2289 7.71341 11.808C8.27194 11.3933 8.62425 11.3021 8.94237 11.3634C9.26049 11.4246 9.55374 11.6401 9.91828 12.2326C10.2882 12.8339 10.6674 13.7153 11.2011 14.9606L11.8768 16.5372L11.8925 16.5739C12.1427 17.1577 12.3524 17.6471 12.5687 17.9988C12.795 18.3665 13.0902 18.6876 13.5537 18.7769C14.0171 18.8661 14.4104 18.6776 14.7571 18.4202C15.0886 18.174 15.4651 17.7975 15.9142 17.3484L15.9142 17.3484L15.9424 17.3202L16.5807 16.6819C17.2573 16.0052 17.73 15.534 18.134 15.2258C18.5264 14.9264 18.7946 14.8283 19.0556 14.8283C19.3165 14.8283 19.5847 14.9264 19.9771 15.2258C20.3811 15.534 20.8538 16.0052 21.5304 16.6819L23.9983 19.1498C23.9998 18.7953 24 18.4131 24 17.9999V17.7372Z" fill="#707584"/>
<circle cx="19.7513" cy="7.25033" r="2.08333" fill="#707584"/>
</svg>
