<svg width="18" height="18" viewBox="0 0 18 18" fill="none" xmlns="http://www.w3.org/2000/svg">
<path d="M1 9C1 5.22876 1 3.34315 2.17157 2.17157C3.34315 1 5.22876 1 9 1V1C12.7712 1 14.6569 1 15.8284 2.17157C17 3.34315 17 5.22876 17 9V9C17 12.7712 17 14.6569 15.8284 15.8284C14.6569 17 12.7712 17 9 17V17C5.22876 17 3.34315 17 2.17157 15.8284C1 14.6569 1 12.7712 1 9V9Z" stroke="#586ED1"/>
<path fill-rule="evenodd" clip-rule="evenodd" d="M14.9942 10.7314L14.9543 10.6915L14.8812 10.6183L14.8812 10.6183C14.3649 10.1016 14.0119 9.74829 13.6091 9.56111C12.941 9.25068 12.1701 9.25068 11.502 9.56111C11.0992 9.74829 10.7462 10.1016 10.2299 10.6183L10.1568 10.6915C9.9444 10.9039 9.80276 11.0452 9.68886 11.1446C9.57514 11.2439 9.52647 11.2671 9.50881 11.2736C9.33538 11.3369 9.14116 11.2995 9.00365 11.1763C8.98965 11.1637 8.9531 11.1241 8.88438 10.9897C8.81555 10.855 8.7365 10.6713 8.61816 10.3952L8.57068 10.2844L8.56194 10.264C8.29551 9.6423 8.08362 9.14789 7.88498 8.77075C7.68384 8.38885 7.46955 8.07296 7.17369 7.84757C6.55178 7.3738 5.74404 7.21824 4.99066 7.42716C4.63225 7.52655 4.31597 7.74026 3.98738 8.02014C3.70843 8.25773 3.38821 8.57215 3 8.95955C3 8.97296 3 8.98639 3 8.99986C3 9.50043 3.00028 9.95538 3.00283 10.3708L3.49568 9.87796C3.99318 9.38046 4.34542 9.02876 4.6358 8.78142C4.92564 8.53455 5.10886 8.43212 5.25788 8.3908C5.70991 8.26545 6.19455 8.35878 6.56769 8.64304C6.69071 8.73676 6.82278 8.89991 7.00021 9.23676C7.17796 9.57426 7.37439 10.0316 7.65154 10.6783L7.69901 10.7891L7.70578 10.8049C7.81558 11.0611 7.90786 11.2764 7.99401 11.4449C8.08203 11.6171 8.18562 11.786 8.33632 11.921C8.74885 12.2907 9.33151 12.4029 9.85182 12.2129C10.0419 12.1435 10.2008 12.0251 10.3465 11.8979C10.489 11.7735 10.6547 11.6078 10.8518 11.4107L10.8518 11.4107L10.8639 11.3986C11.4823 10.7802 11.7029 10.5705 11.9235 10.468C12.3243 10.2817 12.7868 10.2817 13.1877 10.468C13.4082 10.5705 13.6288 10.7802 14.2472 11.3986L14.9583 12.1097C14.9784 11.7072 14.9888 11.2526 14.9942 10.7314Z" fill="#586ED1"/>
<circle cx="13.0003" cy="5.00001" r="1.33333" fill="#586ED1"/>
</svg>
