<svg width="185" height="210" viewBox="0 0 185 210" fill="none" xmlns="http://www.w3.org/2000/svg">
<path d="M149.871 96.7889C149.871 65.3248 124.374 39.8281 92.9101 39.8281C61.4461 39.8281 35.9493 65.3248 35.9493 96.7889C35.9493 112.385 42.2331 126.535 52.3821 136.82C52.3821 136.82 69.6285 155.264 75.4376 175.359C75.4376 175.359 85.3831 178.749 92.9101 178.93C100.414 178.749 110.383 175.359 110.383 175.359C116.214 155.264 133.438 136.82 133.438 136.82C143.587 126.535 149.871 112.408 149.871 96.7889Z" fill="#FECC86"/>
<path d="M92.9109 208.837C88.0285 208.837 84.0503 204.882 84.0503 199.977H101.749C101.749 204.859 97.7932 208.837 92.9109 208.837Z" fill="#4CB7D8"/>
<path d="M95.2409 202.393H90.562C81.3624 202.393 73.9032 194.934 73.9032 185.735V170.816H111.877V185.735C111.9 194.934 104.44 202.393 95.2409 202.393Z" fill="#4CB7D8"/>
<path opacity="0.3" d="M149.868 96.7885C149.868 85.1251 146.364 74.2981 140.352 65.2793C123.693 106.327 97.1115 133.949 58.8439 144.64C63.6584 150.969 70.0552 160.485 73.9204 170.815H111.872C118.698 152.574 133.413 136.819 133.413 136.819C143.584 126.535 149.868 112.408 149.868 96.7885Z" fill="#FECC86"/>
<path d="M102.222 171.039L100.594 170.587C100.639 170.383 105.951 150.854 109.636 130.85C116.032 96.1308 112.348 88.7846 109.59 87.4736C106.765 86.14 104.55 86.3887 102.99 88.1744C102.877 88.31 102.764 88.4456 102.674 88.5812C106.652 90.932 107.624 94.5259 107.85 95.9952C108.483 100.019 106.674 104.042 103.826 104.969C103.126 105.195 101.815 105.308 100.662 103.567C98.8311 100.81 98.266 93.9156 100.3 89.3271C98.3338 88.536 95.9604 88.1065 93.2254 88.1065H91.5754C88.8404 88.1065 86.467 88.536 84.5005 89.3271C86.5348 93.9156 85.9697 100.81 84.1388 103.567C82.9861 105.308 81.6751 105.195 80.9744 104.969C78.1263 104.065 76.318 100.041 76.9509 95.9952C77.177 94.5259 78.1489 90.932 82.1271 88.5812C82.0141 88.4456 81.9237 88.31 81.8107 88.1744C80.251 86.3661 78.0359 86.14 75.2105 87.4736C72.4529 88.762 68.7685 96.1308 75.1653 130.85C78.8496 150.854 84.1615 170.383 84.2067 170.587L82.5792 171.039C82.534 170.835 77.1996 151.261 73.4926 131.166C68.3842 103.454 68.7007 88.6716 74.4872 85.9592C78.9627 83.8571 81.6299 85.4167 83.0765 87.0894C83.2799 87.3154 83.4608 87.5867 83.6416 87.8353C85.6307 86.9764 88.2075 86.4339 91.5528 86.4339H93.2028C96.5481 86.4339 99.1249 86.9764 101.114 87.8353C101.295 87.5641 101.476 87.3154 101.679 87.0894C103.126 85.4167 105.793 83.8571 110.268 85.9592C116.032 88.6716 116.349 103.454 111.263 131.166C107.601 151.238 102.267 170.835 102.222 171.039ZM83.0087 90.0957C80.6127 91.4971 79.0757 93.5992 78.6688 96.2664C78.1263 99.7925 79.7086 102.776 81.5394 103.364C81.7203 103.409 82.1723 103.567 82.7826 102.641C84.3197 100.29 84.7265 94.0739 83.0087 90.0957ZM101.837 90.0957C100.097 94.0739 100.526 100.29 102.086 102.641C102.696 103.567 103.148 103.409 103.329 103.364C105.16 102.776 106.742 99.7925 106.2 96.2664C105.748 93.5992 104.233 91.4971 101.837 90.0957Z" fill="#F99247"/>
<path d="M73.6282 171.222C73.1762 169.933 72.9727 169.459 72.5207 168.396L72.272 167.831C65.1519 151.218 52.2001 137.249 52.0645 137.113L52.0193 137.068C41.3731 126.264 35.5188 111.956 35.5188 96.7886C35.5188 65.1438 61.2642 39.3984 92.909 39.3984C112.325 39.3984 130.295 49.1179 140.941 65.3924L140.241 65.8445C129.753 49.8186 112.054 40.2348 92.909 40.2348C61.7388 40.2348 36.3777 65.5959 36.3777 96.766C36.3777 111.73 42.1642 125.857 52.6974 136.503L53.2399 137.068H53.1947C55.6811 139.848 66.689 152.597 73.0406 167.47L73.2892 168.035C73.7413 169.097 73.9447 169.572 74.4194 170.905L73.6282 171.222Z" fill="#21111D"/>
<path d="M53.1287 70.497L52.3149 70.271C52.3601 70.1354 56.5644 56.0986 70.7368 50.832L71.0306 51.6232C57.2877 56.7315 53.1739 70.3614 53.1287 70.497Z" fill="#21111D"/>
<path d="M55.7488 75.5654L54.9351 75.3394C54.9803 75.2037 59.1845 61.167 73.3569 55.9004L73.6507 56.6915C59.8852 61.8225 55.794 75.4298 55.7488 75.5654Z" fill="#21111D"/>
<path d="M94.9658 202.82H90.8294C81.2681 202.82 73.4926 195.044 73.4926 185.483V170.406H111.896V171.243H74.3515V185.483C74.3515 194.569 81.7428 201.983 90.852 201.983H94.9884C99.3509 201.983 103.442 200.311 106.561 197.237L107.149 197.847C103.872 201.057 99.5543 202.82 94.9658 202.82Z" fill="#21111D"/>
<path d="M93.1364 209.263C84.9087 209.263 83.7107 201.284 83.7107 201.193L84.547 201.08C84.5922 201.397 85.6772 208.584 93.4076 208.404L93.4302 209.24C93.3398 209.24 93.2494 209.263 93.1364 209.263Z" fill="#21111D"/>
<path d="M131.972 128.684L131.475 128.006C139.002 122.423 140.178 113.11 140.178 113.02L141.014 113.11C141.014 113.223 139.793 122.897 131.972 128.684Z" fill="#21111D"/>
<path d="M130.318 124.641L129.821 123.962C135.291 119.894 136.172 113.113 136.172 113.045L137.009 113.135C136.964 113.429 136.082 120.346 130.318 124.641Z" fill="#21111D"/>
<path d="M72.1553 178.412V177.575C72.4717 177.575 104.501 177.146 114.65 173.371L114.944 174.162C104.659 177.982 73.4889 178.389 72.1553 178.412Z" fill="#21111D"/>
<path d="M72.1583 185.553L72.1357 184.717C72.4748 184.717 107.239 184.016 113.726 180.535L114.133 181.281C107.465 184.852 73.605 185.508 72.1583 185.553Z" fill="#21111D"/>
<path d="M73.9199 192.875V192.039C74.2364 192.039 105.407 191.7 113.77 187.383L114.154 188.129C105.61 192.536 75.2083 192.853 73.9199 192.875Z" fill="#21111D"/>
<path d="M21.434 87.8374C21.3888 87.8374 21.3662 87.8374 21.321 87.8374L1.15872 86.1196C0.458013 86.0518 -0.0618616 85.4415 0.00594883 84.7408C0.0737592 84.0401 0.684047 83.5202 1.38475 83.588L21.547 85.3058C22.2477 85.3737 22.7676 85.984 22.6998 86.6847C22.632 87.3402 22.0669 87.8374 21.434 87.8374Z" fill="#FECC86"/>
<path d="M31.8525 55.7212C31.6039 55.7212 31.3552 55.6534 31.1292 55.4952L14.4252 44.0804C13.8376 43.6961 13.7019 42.905 14.0862 42.3173C14.4705 41.7296 15.2616 41.594 15.8493 41.9783L32.5532 53.393C33.1409 53.7773 33.2766 54.5684 32.8923 55.1561C32.6437 55.5178 32.2594 55.7212 31.8525 55.7212Z" fill="#FECC86"/>
<path d="M62.0255 32.6848C61.5283 32.6848 61.0536 32.391 60.8502 31.8937L53.2328 13.1555C52.9616 12.5 53.278 11.7766 53.9335 11.5054C54.589 11.2342 55.3123 11.5506 55.5836 12.2061L63.2009 30.9444C63.4722 31.5999 63.1557 32.3232 62.5002 32.5944C62.342 32.6622 62.1838 32.6848 62.0255 32.6848Z" fill="#FECC86"/>
<path d="M163.382 91.4773C162.726 91.4773 162.161 90.9574 162.116 90.3019C162.071 89.6012 162.59 88.9909 163.291 88.9457L183.476 87.6121C184.177 87.5669 184.787 88.0868 184.832 88.7875C184.877 89.4882 184.358 90.0985 183.657 90.1437L163.472 91.4773C163.427 91.4773 163.404 91.4773 163.382 91.4773Z" fill="#FECC86"/>
<path d="M153.573 59.1769C153.166 59.1769 152.76 58.9735 152.511 58.6118C152.127 58.0242 152.285 57.233 152.873 56.8488L169.78 45.7505C170.368 45.3662 171.159 45.5244 171.543 46.1121C171.927 46.6998 171.769 47.4909 171.181 47.8752L154.274 58.9735C154.048 59.1091 153.799 59.1769 153.573 59.1769Z" fill="#FECC86"/>
<path d="M127.742 32.6173C127.584 32.6173 127.403 32.5947 127.244 32.5043C126.612 32.2331 126.295 31.4872 126.589 30.8317L134.568 12.229C134.839 11.5961 135.585 11.2797 136.241 11.5735C136.874 11.8447 137.19 12.5907 136.896 13.2462L128.917 31.8488C128.691 32.3235 128.239 32.6173 127.742 32.6173Z" fill="#FECC86"/>
<path d="M95.2301 22.7617C94.5068 22.7617 93.9417 22.174 93.9643 21.4733L94.2807 1.24319C94.2807 0.542483 94.8684 0 95.5465 0H95.5691C96.2698 0 96.8349 0.58769 96.8123 1.2884L96.4959 21.5185C96.4959 22.2192 95.9308 22.7617 95.2301 22.7617Z" fill="#FECC86"/>
<g opacity="0.5">
<path opacity="0.5" d="M115.809 67.392C122.283 71.5643 129.149 72.4372 131.144 69.3416C133.139 66.2459 129.507 60.354 123.033 56.1817C116.558 52.0093 109.692 51.1365 107.698 54.2321C105.703 57.3277 109.334 63.2196 115.809 67.392Z" fill="#F3FFFE"/>
</g>
</svg>
