<svg width="20" height="14" viewBox="0 0 20 14" fill="none" xmlns="http://www.w3.org/2000/svg">
<path d="M1 3C1 2.05719 1 1.58579 1.29289 1.29289C1.58579 1 2.05719 1 3 1H13.9296C14.4536 1 14.7156 1 14.9367 1.11833C15.1578 1.23665 15.3031 1.45463 15.5937 1.8906L18.2604 5.8906C18.6189 6.42835 18.7981 6.69722 18.7981 7C18.7981 7.30278 18.6189 7.57165 18.2604 8.1094L15.5937 12.1094C15.3031 12.5454 15.1578 12.7633 14.9367 12.8817C14.7156 13 14.4536 13 13.9296 13H3C2.05719 13 1.58579 13 1.29289 12.7071C1 12.4142 1 11.9428 1 11V3Z" stroke="#586ED1"/>
<circle cx="13" cy="7" r="1" fill="white" stroke="#586ED1"/>
</svg>
