<svg width="196" height="98" viewBox="0 0 196 98" fill="none" xmlns="http://www.w3.org/2000/svg">
<g opacity="0.1">
<rect x="55.9688" width="10" height="10" rx="5" transform="rotate(21.9077 55.9688 0)" fill="white"/>
<rect x="26.1211" y="74.2227" width="10" height="10" rx="5" transform="rotate(21.9077 26.1211 74.2227)" fill="white"/>
<rect x="130.191" y="29.8496" width="10" height="10" rx="5" transform="rotate(21.9077 130.191 29.8496)" fill="white"/>
<rect x="41.043" y="37.1113" width="10" height="10" rx="5" transform="rotate(21.9077 41.043 37.1113)" fill="white"/>
<rect x="115.266" y="66.9609" width="10" height="10" rx="5" transform="rotate(21.9077 115.266 66.9609)" fill="white"/>
<rect x="93.082" y="14.9238" width="10" height="10" rx="5" transform="rotate(21.9077 93.082 14.9238)" fill="white"/>
<rect x="63.2305" y="89.1465" width="10" height="10" rx="5" transform="rotate(21.9077 63.2305 89.1465)" fill="white"/>
<rect x="167.305" y="44.7734" width="10" height="10" rx="5" transform="rotate(21.9077 167.305 44.7734)" fill="white"/>
<rect x="78.1562" y="52.0352" width="10" height="10" rx="5" transform="rotate(21.9077 78.1562 52.0352)" fill="white"/>
<rect x="152.379" y="81.8848" width="10" height="10" rx="5" transform="rotate(21.9077 152.379 81.8848)" fill="white"/>
<rect x="48.5078" y="18.5566" width="10" height="10" rx="5" transform="rotate(21.9077 48.5078 18.5566)" fill="white"/>
<rect x="18.6562" y="92.7793" width="10" height="10" rx="5" transform="rotate(21.9077 18.6562 92.7793)" fill="white"/>
<rect x="122.73" y="48.4043" width="10" height="10" rx="5" transform="rotate(21.9077 122.73 48.4043)" fill="white"/>
<rect x="33.582" y="55.668" width="10" height="10" rx="5" transform="rotate(21.9077 33.582 55.668)" fill="white"/>
<rect x="107.805" y="85.5156" width="10" height="10" rx="5" transform="rotate(21.9077 107.805 85.5156)" fill="white"/>
<rect x="85.6172" y="33.4805" width="10" height="10" rx="5" transform="rotate(21.9077 85.6172 33.4805)" fill="white"/>
<rect x="159.84" y="63.3301" width="10" height="10" rx="5" transform="rotate(21.9077 159.84 63.3301)" fill="white"/>
<rect x="70.6953" y="70.5918" width="10" height="10" rx="5" transform="rotate(21.9077 70.6953 70.5918)" fill="white"/>
<rect x="74.5234" y="7.46289" width="10" height="10" rx="5" transform="rotate(21.9077 74.5234 7.46289)" fill="white"/>
<rect x="44.6758" y="81.6855" width="10" height="10" rx="5" transform="rotate(21.9077 44.6758 81.6855)" fill="white"/>
<rect x="148.746" y="37.3105" width="10" height="10" rx="5" transform="rotate(21.9077 148.746 37.3105)" fill="white"/>
<rect x="59.6016" y="44.5742" width="10" height="10" rx="5" transform="rotate(21.9077 59.6016 44.5742)" fill="white"/>
<rect x="133.824" y="74.4219" width="10" height="10" rx="5" transform="rotate(21.9077 133.824 74.4219)" fill="white"/>
<rect x="111.637" y="22.3867" width="10" height="10" rx="5" transform="rotate(21.9077 111.637 22.3867)" fill="white"/>
<rect x="81.7852" y="96.6094" width="10" height="10" rx="5" transform="rotate(21.9077 81.7852 96.6094)" fill="white"/>
<rect x="185.859" y="52.2363" width="10" height="10" rx="5" transform="rotate(21.9077 185.859 52.2363)" fill="white"/>
<rect x="96.7109" y="59.498" width="10" height="10" rx="5" transform="rotate(21.9077 96.7109 59.498)" fill="white"/>
<rect x="170.934" y="89.3477" width="10" height="10" rx="5" transform="rotate(21.9077 170.934 89.3477)" fill="white"/>
<rect x="67.0625" y="26.0176" width="10" height="10" rx="5" transform="rotate(21.9077 67.0625 26.0176)" fill="white"/>
<rect x="141.285" y="55.8672" width="10" height="10" rx="5" transform="rotate(21.9077 141.285 55.8672)" fill="white"/>
<rect x="52.1367" y="63.1289" width="10" height="10" rx="5" transform="rotate(21.9077 52.1367 63.1289)" fill="white"/>
<rect x="126.359" y="92.9785" width="10" height="10" rx="5" transform="rotate(21.9077 126.359 92.9785)" fill="white"/>
<rect x="104.172" y="40.9434" width="10" height="10" rx="5" transform="rotate(21.9077 104.172 40.9434)" fill="white"/>
<rect x="178.398" y="70.791" width="10" height="10" rx="5" transform="rotate(21.9077 178.398 70.791)" fill="white"/>
<rect x="89.25" y="78.0547" width="10" height="10" rx="5" transform="rotate(21.9077 89.25 78.0547)" fill="white"/>
</g>
</svg>
