<svg width="204" height="31" viewBox="0 0 204 31" fill="none" xmlns="http://www.w3.org/2000/svg">
<path d="M56.608 12.6C56.464 11.528 56.168 10.672 55.72 10.032C55.288 9.392 54.728 9.072 54.04 9.072C53.064 9.072 52.288 9.536 51.712 10.464C51.136 11.376 50.848 12.792 50.848 14.712C50.848 17.032 51.296 18.728 52.192 19.8C53.088 20.872 54.248 21.408 55.672 21.408C56.36 21.408 56.968 21.28 57.496 21.024C58.024 20.768 58.4 20.464 58.624 20.112C58.816 20.256 58.976 20.472 59.104 20.76C59.232 21.048 59.296 21.312 59.296 21.552C59.296 21.952 59.088 22.368 58.672 22.8C58.272 23.232 57.688 23.6 56.92 23.904C56.152 24.192 55.264 24.336 54.256 24.336C52.848 24.336 51.56 24.008 50.392 23.352C49.24 22.696 48.32 21.704 47.632 20.376C46.944 19.048 46.6 17.44 46.6 15.552C46.6 13.712 46.912 12.152 47.536 10.872C48.16 9.576 49.032 8.608 50.152 7.968C51.288 7.312 52.608 6.984 54.112 6.984C54.464 6.984 54.864 7.032 55.312 7.128C55.76 7.224 56.152 7.352 56.488 7.512C56.728 7.4 57.08 7.288 57.544 7.176C58.008 7.064 58.368 7 58.624 6.984C59.088 8.12 59.32 9.992 59.32 12.6H56.608ZM66.1195 24.312C64.3595 24.312 62.9515 23.76 61.8955 22.656C60.8395 21.536 60.3115 19.944 60.3115 17.88C60.3115 16.408 60.5595 15.152 61.0555 14.112C61.5675 13.072 62.2795 12.288 63.1915 11.76C64.1035 11.232 65.1595 10.968 66.3595 10.968C67.5115 10.968 68.5195 11.224 69.3835 11.736C70.2635 12.232 70.9435 12.968 71.4235 13.944C71.9195 14.92 72.1675 16.104 72.1675 17.496C72.1675 18.952 71.9115 20.192 71.3995 21.216C70.9035 22.24 70.1995 23.016 69.2875 23.544C68.3755 24.056 67.3195 24.312 66.1195 24.312ZM66.3115 22.584C66.8715 22.584 67.2875 22.264 67.5595 21.624C67.8315 20.984 67.9675 19.8 67.9675 18.072C67.9675 16.616 67.8955 15.496 67.7515 14.712C67.6075 13.928 67.4075 13.392 67.1515 13.104C66.8955 12.816 66.5675 12.672 66.1675 12.672C65.6075 12.672 65.1835 12.992 64.8955 13.632C64.6235 14.272 64.4875 15.472 64.4875 17.232C64.4875 18.672 64.5595 19.784 64.7035 20.568C64.8475 21.336 65.0475 21.864 65.3035 22.152C65.5755 22.44 65.9115 22.584 66.3115 22.584ZM84.9599 21.192C84.9599 21.576 85.0559 21.896 85.2479 22.152C85.4559 22.408 85.7439 22.552 86.1119 22.584V23.256C85.8559 23.544 85.4559 23.768 84.9119 23.928C84.3839 24.088 83.8479 24.168 83.3039 24.168C82.7599 24.168 82.2959 24.024 81.9119 23.736C81.5279 23.448 81.2719 23.048 81.1439 22.536C80.3759 23.624 79.2799 24.168 77.8559 24.168C76.7359 24.168 75.8639 23.824 75.2399 23.136C74.6159 22.448 74.3039 21.52 74.3039 20.352V13.752C74.3039 13.48 74.1999 13.288 73.9919 13.176C73.7999 13.064 73.5119 13.008 73.1279 13.008V11.952C73.3679 11.76 73.8239 11.568 74.4959 11.376C75.1839 11.184 75.9119 11.088 76.6799 11.088C77.1279 11.088 77.4559 11.12 77.6639 11.184C77.8719 11.232 78.0159 11.344 78.0959 11.52C78.1759 11.696 78.2159 11.976 78.2159 12.36V20.424C78.2159 20.92 78.2959 21.296 78.4559 21.552C78.6319 21.792 78.9119 21.912 79.2959 21.912C79.6159 21.912 79.9279 21.816 80.2319 21.624C80.5519 21.416 80.8239 21.168 81.0479 20.88V13.752C81.0479 13.256 80.5999 13.008 79.7039 13.008V11.952C79.9599 11.744 80.4239 11.552 81.0959 11.376C81.7839 11.184 82.5359 11.088 83.3519 11.088C84.0079 11.088 84.4399 11.168 84.6479 11.328C84.8559 11.472 84.9599 11.816 84.9599 12.36V21.192ZM95.2383 10.968C95.9583 10.968 96.4863 11.152 96.8223 11.52C97.1583 11.888 97.3263 12.392 97.3263 13.032C97.3263 13.72 97.1423 14.28 96.7743 14.712C96.4223 15.144 95.9423 15.36 95.3343 15.36C94.8063 15.36 94.3743 15.208 94.0383 14.904C93.7183 14.6 93.5583 14.24 93.5583 13.824C93.5583 13.568 93.5823 13.368 93.6303 13.224C93.0543 13.368 92.5663 13.616 92.1663 13.968V21.168C92.1663 21.568 92.2223 21.872 92.3343 22.08C92.4463 22.288 92.6623 22.448 92.9823 22.56C93.3183 22.656 93.8143 22.704 94.4703 22.704C94.4703 22.992 94.4383 23.24 94.3743 23.448C94.3103 23.64 94.1903 23.824 94.0143 24H87.6063C87.2383 23.632 87.0543 23.2 87.0543 22.704C87.5183 22.704 87.8463 22.608 88.0383 22.416C88.2463 22.208 88.3503 21.864 88.3503 21.384V14.448C88.3503 14.016 88.2303 13.712 87.9902 13.536C87.7663 13.36 87.3583 13.272 86.7663 13.272V12.192C87.2943 11.888 87.9903 11.624 88.8543 11.4C89.7343 11.16 90.4143 11.04 90.8943 11.04C91.2783 11.04 91.5503 11.176 91.7103 11.448C91.8703 11.72 91.9503 12.264 91.9503 13.08C92.2383 12.536 92.6943 12.048 93.3183 11.616C93.9423 11.184 94.5823 10.968 95.2383 10.968ZM102.755 24.24C101.971 24.24 101.187 24.128 100.403 23.904C99.6349 23.664 99.0029 23.328 98.5069 22.896C98.0109 22.464 97.7629 21.952 97.7629 21.36C97.7629 20.8 97.9229 20.352 98.2429 20.016C98.5629 19.664 98.9709 19.488 99.4669 19.488C99.9149 19.488 100.291 19.632 100.595 19.92C100.915 20.208 101.075 20.584 101.075 21.048C101.075 21.256 101.043 21.44 100.979 21.6C100.931 21.744 100.835 21.904 100.691 22.08C100.819 22.208 101.059 22.312 101.411 22.392C101.763 22.456 102.139 22.488 102.539 22.488C103.083 22.488 103.507 22.392 103.811 22.2C104.131 21.992 104.291 21.728 104.291 21.408C104.291 20.976 104.091 20.608 103.691 20.304C103.291 19.984 102.651 19.592 101.771 19.128C100.875 18.648 100.195 18.256 99.7309 17.952C99.2669 17.632 98.8509 17.208 98.4829 16.68C98.1309 16.136 97.9549 15.472 97.9549 14.688C97.9549 13.6 98.4029 12.72 99.2989 12.048C100.195 11.376 101.435 11.04 103.019 11.04C104.571 11.04 105.723 11.32 106.475 11.88C107.243 12.424 107.627 13.08 107.627 13.848C107.627 14.328 107.467 14.72 107.147 15.024C106.843 15.328 106.467 15.48 106.019 15.48C105.603 15.48 105.243 15.36 104.939 15.12C104.651 14.864 104.507 14.536 104.507 14.136C104.507 13.928 104.539 13.72 104.603 13.512C104.667 13.288 104.755 13.104 104.867 12.96C104.547 12.704 104.067 12.576 103.427 12.576C102.915 12.576 102.515 12.696 102.227 12.936C101.939 13.176 101.795 13.48 101.795 13.848C101.795 14.344 101.995 14.752 102.395 15.072C102.795 15.392 103.435 15.776 104.315 16.224C105.147 16.656 105.803 17.032 106.283 17.352C106.763 17.672 107.179 18.096 107.531 18.624C107.883 19.152 108.059 19.8 108.059 20.568C108.059 21.816 107.547 22.744 106.523 23.352C105.515 23.944 104.259 24.24 102.755 24.24ZM116.282 21.552C117.29 21.552 118.226 21.232 119.09 20.592C119.218 20.72 119.33 20.912 119.426 21.168C119.522 21.424 119.57 21.648 119.57 21.84C119.57 22.128 119.378 22.464 118.994 22.848C118.61 23.216 118.074 23.536 117.386 23.808C116.714 24.08 115.954 24.216 115.106 24.216C113.922 24.216 112.882 23.96 111.986 23.448C111.106 22.936 110.426 22.192 109.946 21.216C109.466 20.24 109.226 19.088 109.226 17.76C109.226 16.4 109.482 15.208 109.994 14.184C110.522 13.16 111.242 12.376 112.154 11.832C113.066 11.272 114.098 10.992 115.25 10.992C116.706 10.992 117.866 11.416 118.73 12.264C119.594 13.112 120.026 14.288 120.026 15.792C120.026 16.496 119.914 17.056 119.69 17.472C119.466 17.872 119.066 18.072 118.49 18.072H113.306C113.402 20.392 114.394 21.552 116.282 21.552ZM115.106 12.648C114.61 12.648 114.194 12.928 113.858 13.488C113.522 14.032 113.338 14.952 113.306 16.248H115.73C115.986 16.248 116.154 16.16 116.234 15.984C116.314 15.808 116.354 15.536 116.354 15.168C116.354 14.224 116.242 13.568 116.018 13.2C115.794 12.832 115.49 12.648 115.106 12.648Z" fill="white"/>
<path d="M129.344 7.08C131.808 7.08 133.568 7.528 134.624 8.424C135.68 9.32 136.208 10.68 136.208 12.504C136.208 13.576 135.944 14.536 135.416 15.384C134.888 16.216 134.088 16.872 133.016 17.352C131.944 17.832 130.632 18.072 129.08 18.072H128.072V20.184C128.072 20.824 128.144 21.304 128.288 21.624C128.432 21.944 128.68 22.168 129.032 22.296C129.4 22.408 129.952 22.464 130.688 22.464C130.688 22.752 130.64 23.032 130.544 23.304C130.448 23.576 130.32 23.808 130.16 24H123.176C123 23.808 122.864 23.576 122.768 23.304C122.672 23.032 122.624 22.752 122.624 22.464C123.168 22.464 123.552 22.376 123.776 22.2C124.016 22.008 124.136 21.696 124.136 21.264V9.984C124.136 9.536 124.016 9.224 123.776 9.048C123.552 8.856 123.168 8.76 122.624 8.76C122.624 8.216 122.8 7.712 123.152 7.248C124.224 7.248 125.68 7.208 127.52 7.128C128.448 7.096 129.056 7.08 129.344 7.08ZM132.032 12.432C132.032 11.408 131.792 10.576 131.312 9.936C130.848 9.296 130.064 8.976 128.96 8.976C128.608 8.976 128.312 9.008 128.072 9.072V16.104C128.216 16.136 128.424 16.152 128.696 16.152C130.024 16.152 130.912 15.8 131.36 15.096C131.808 14.392 132.032 13.504 132.032 12.432ZM142.87 24.312C141.11 24.312 139.702 23.76 138.646 22.656C137.59 21.536 137.062 19.944 137.062 17.88C137.062 16.408 137.31 15.152 137.806 14.112C138.318 13.072 139.03 12.288 139.942 11.76C140.854 11.232 141.91 10.968 143.11 10.968C144.262 10.968 145.27 11.224 146.134 11.736C147.014 12.232 147.694 12.968 148.174 13.944C148.67 14.92 148.918 16.104 148.918 17.496C148.918 18.952 148.662 20.192 148.15 21.216C147.654 22.24 146.95 23.016 146.038 23.544C145.126 24.056 144.07 24.312 142.87 24.312ZM143.062 22.584C143.622 22.584 144.038 22.264 144.31 21.624C144.582 20.984 144.718 19.8 144.718 18.072C144.718 16.616 144.646 15.496 144.502 14.712C144.358 13.928 144.158 13.392 143.902 13.104C143.646 12.816 143.318 12.672 142.918 12.672C142.358 12.672 141.934 12.992 141.646 13.632C141.374 14.272 141.238 15.472 141.238 17.232C141.238 18.672 141.31 19.784 141.454 20.568C141.598 21.336 141.798 21.864 142.054 22.152C142.326 22.44 142.662 22.584 143.062 22.584ZM158.371 10.968C159.091 10.968 159.619 11.152 159.955 11.52C160.291 11.888 160.459 12.392 160.459 13.032C160.459 13.72 160.275 14.28 159.907 14.712C159.555 15.144 159.075 15.36 158.467 15.36C157.939 15.36 157.507 15.208 157.171 14.904C156.851 14.6 156.691 14.24 156.691 13.824C156.691 13.568 156.715 13.368 156.763 13.224C156.187 13.368 155.699 13.616 155.299 13.968V21.168C155.299 21.568 155.355 21.872 155.467 22.08C155.579 22.288 155.795 22.448 156.115 22.56C156.451 22.656 156.947 22.704 157.603 22.704C157.603 22.992 157.571 23.24 157.507 23.448C157.443 23.64 157.323 23.824 157.147 24H150.739C150.371 23.632 150.187 23.2 150.187 22.704C150.651 22.704 150.979 22.608 151.171 22.416C151.379 22.208 151.483 21.864 151.483 21.384V14.448C151.483 14.016 151.363 13.712 151.123 13.536C150.899 13.36 150.491 13.272 149.899 13.272V12.192C150.427 11.888 151.123 11.624 151.987 11.4C152.867 11.16 153.547 11.04 154.027 11.04C154.411 11.04 154.683 11.176 154.843 11.448C155.003 11.72 155.083 12.264 155.083 13.08C155.371 12.536 155.827 12.048 156.451 11.616C157.075 11.184 157.715 10.968 158.371 10.968ZM166.488 7.032C166.488 7.72 166.272 8.272 165.84 8.688C165.424 9.088 164.864 9.288 164.16 9.288C163.472 9.288 162.92 9.088 162.504 8.688C162.104 8.272 161.904 7.72 161.904 7.032C161.904 6.36 162.112 5.816 162.528 5.4C162.96 4.984 163.52 4.776 164.208 4.776C164.896 4.776 165.448 4.984 165.864 5.4C166.28 5.816 166.488 6.36 166.488 7.032ZM166.032 21.408C166.032 21.872 166.144 22.208 166.368 22.416C166.608 22.608 166.968 22.704 167.448 22.704C167.448 23.2 167.264 23.632 166.896 24H161.472C161.104 23.632 160.92 23.2 160.92 22.704C161.4 22.704 161.744 22.608 161.952 22.416C162.176 22.208 162.288 21.864 162.288 21.384V14.424C162.288 13.976 162.176 13.656 161.952 13.464C161.744 13.272 161.328 13.176 160.704 13.176V12.12C161.088 11.88 161.736 11.632 162.648 11.376C163.576 11.104 164.36 10.968 165 10.968C165.368 10.968 165.632 11.056 165.792 11.232C165.952 11.392 166.032 11.672 166.032 12.072V21.408ZM180.108 21.192C180.108 21.576 180.204 21.896 180.396 22.152C180.604 22.408 180.892 22.552 181.26 22.584V23.256C181.004 23.544 180.604 23.768 180.06 23.928C179.532 24.088 178.996 24.168 178.452 24.168C177.908 24.168 177.444 24.024 177.06 23.736C176.676 23.448 176.42 23.048 176.292 22.536C175.524 23.624 174.428 24.168 173.004 24.168C171.884 24.168 171.012 23.824 170.388 23.136C169.764 22.448 169.452 21.52 169.452 20.352V13.752C169.452 13.48 169.348 13.288 169.14 13.176C168.948 13.064 168.66 13.008 168.276 13.008V11.952C168.516 11.76 168.972 11.568 169.644 11.376C170.332 11.184 171.06 11.088 171.828 11.088C172.276 11.088 172.604 11.12 172.812 11.184C173.02 11.232 173.164 11.344 173.244 11.52C173.324 11.696 173.364 11.976 173.364 12.36V20.424C173.364 20.92 173.444 21.296 173.604 21.552C173.78 21.792 174.06 21.912 174.444 21.912C174.764 21.912 175.076 21.816 175.38 21.624C175.7 21.416 175.972 21.168 176.196 20.88V13.752C176.196 13.256 175.748 13.008 174.852 13.008V11.952C175.108 11.744 175.572 11.552 176.244 11.376C176.932 11.184 177.684 11.088 178.5 11.088C179.156 11.088 179.588 11.168 179.796 11.328C180.004 11.472 180.108 11.816 180.108 12.36V21.192ZM201.667 21.408C201.667 22.096 202.059 22.512 202.843 22.656V23.352C202.235 23.88 201.251 24.144 199.891 24.144C199.219 24.144 198.691 24.056 198.307 23.88C197.923 23.688 197.731 23.36 197.731 22.896V14.904C197.731 14.392 197.587 14 197.299 13.728C197.027 13.44 196.659 13.296 196.195 13.296C195.619 13.296 195.123 13.488 194.707 13.872C194.723 13.952 194.731 14.072 194.731 14.232V21.408C194.731 21.872 194.827 22.208 195.019 22.416C195.211 22.608 195.515 22.704 195.931 22.704C195.931 23.184 195.739 23.616 195.355 24H190.243C189.875 23.6 189.691 23.168 189.691 22.704C190.091 22.704 190.379 22.608 190.555 22.416C190.731 22.208 190.819 21.872 190.819 21.408V14.904C190.819 14.408 190.675 14.016 190.387 13.728C190.099 13.44 189.739 13.296 189.307 13.296C188.987 13.296 188.667 13.376 188.347 13.536C188.027 13.68 187.763 13.88 187.555 14.136V21.408C187.555 21.872 187.635 22.208 187.795 22.416C187.971 22.608 188.259 22.704 188.659 22.704C188.659 23.2 188.467 23.632 188.083 24H182.875C182.491 23.616 182.299 23.184 182.299 22.704C182.779 22.704 183.123 22.608 183.331 22.416C183.539 22.208 183.643 21.872 183.643 21.408V14.376C183.643 13.944 183.523 13.64 183.283 13.464C183.043 13.272 182.627 13.176 182.035 13.176V12.12C182.547 11.816 183.267 11.544 184.195 11.304C185.139 11.064 185.851 10.944 186.331 10.944C186.683 10.944 186.955 11.056 187.147 11.28C187.355 11.488 187.491 11.888 187.555 12.48C187.971 12 188.499 11.624 189.139 11.352C189.779 11.08 190.491 10.944 191.275 10.944C192.875 10.944 193.915 11.48 194.395 12.552C194.811 12.04 195.347 11.648 196.003 11.376C196.675 11.088 197.419 10.944 198.235 10.944C199.371 10.944 200.227 11.224 200.803 11.784C201.379 12.344 201.667 13.16 201.667 14.232V21.408Z" fill="white"/>
<path fill-rule="evenodd" clip-rule="evenodd" d="M14.2451 28.9638C14.2451 28.5759 14.1041 28.2586 13.822 27.9765C13.5752 27.7297 13.2226 27.5534 12.8347 27.5534H0V26.002H12.87C13.681 26.002 14.3862 26.3193 14.9151 26.8482C15.444 27.3771 15.7613 28.1176 15.7613 28.8933H14.2451V28.9638ZM37.4816 27.5887H24.6116C24.2238 27.5887 23.9064 27.7297 23.6243 28.0118C23.3775 28.2586 23.2012 28.6112 23.2012 28.9991H21.6498C21.6498 28.1881 21.9671 27.4829 22.496 26.954C23.0249 26.4251 23.7654 26.1077 24.5411 26.1077H37.4111V27.5887H37.4816Z" fill="white"/>
<path fill-rule="evenodd" clip-rule="evenodd" d="M0.775726 5.58594H1.55145V9.95821V22.2993H12.87C14.7035 22.2993 16.3607 23.0397 17.5596 24.2386C18.018 24.697 18.4411 25.2611 18.7584 25.8253C19.0758 25.2259 19.4636 24.697 19.9573 24.2386C21.1561 23.0397 22.8134 22.2993 24.6469 22.2993H35.9654V9.95821V5.58594H37.5169V23.8507H24.6469C23.2365 23.8507 21.9671 24.4149 21.0503 25.3669C20.1336 26.2837 19.5342 27.5883 19.5342 28.9634H17.9827C17.9827 27.553 17.4185 26.2837 16.4665 25.3669C15.5497 24.4501 14.2451 23.8507 12.87 23.8507H0V5.58594H0.775726Z" fill="white"/>
<path fill-rule="evenodd" clip-rule="evenodd" d="M32.1934 18.1393V9.74741V8.1607V5.58671H24.8945C23.8367 5.58671 22.8494 5.76301 21.9326 6.04509C20.9806 6.36243 20.0639 6.82082 19.2529 7.38498L18.7945 7.70232L18.3361 7.38498C17.5251 6.82082 16.6084 6.36243 15.6563 6.04509C14.7396 5.76301 13.717 5.58671 12.6945 5.58671H5.39562V8.1607V9.74741V18.1393H12.624C13.8228 18.1393 14.9864 18.3156 16.0795 18.6682C17.0315 18.9856 17.913 19.4087 18.7592 19.9376C19.5702 19.4087 20.487 18.9856 21.439 18.6682C22.5321 18.3156 23.6957 18.1393 24.8945 18.1393H32.1934ZM3.70312 5.58671V4H5.28983H12.624C13.8228 4 14.9864 4.1763 16.0795 4.5289C17.0315 4.84624 17.913 5.26937 18.7592 5.79827C19.5702 5.26937 20.487 4.84624 21.439 4.5289C22.5321 4.1763 23.6957 4 24.8945 4H32.1934H33.7801V5.58671V8.1607V8.97169V9.78268V19.7613H24.8592C23.8014 19.7613 22.8142 19.9376 21.8974 20.2197C20.9454 20.537 20.0286 20.9954 19.2176 21.5596L18.7592 21.8769L18.3008 21.5596C17.4899 20.9954 16.5731 20.537 15.6211 20.2197C14.7043 19.9376 13.6818 19.7613 12.6592 19.7613H3.70312V9.78268V8.1607V5.58671Z" fill="white"/>
<path d="M19.5358 6.64453H17.9844V20.7839H19.5358V6.64453Z" fill="white"/>
</svg>
