<svg width="199" height="110" viewBox="0 0 199 110" fill="none" xmlns="http://www.w3.org/2000/svg">
<g opacity="0.1">
<rect x="33.3789" y="46.2891" width="10" height="10" rx="5" transform="rotate(-24.6608 33.3789 46.2891)" fill="#C4C4C4"/>
<rect x="106.082" y="12.9102" width="10" height="10" rx="5" transform="rotate(-24.6608 106.082 12.9102)" fill="#C4C4C4"/>
<rect x="16.6914" y="9.9375" width="10" height="10" rx="5" transform="rotate(-24.6608 16.6914 9.9375)" fill="#C4C4C4"/>
<rect x="50.0703" y="82.6406" width="10" height="10" rx="5" transform="rotate(-24.6608 50.0703 82.6406)" fill="#C4C4C4"/>
<rect x="122.773" y="49.2617" width="10" height="10" rx="5" transform="rotate(-24.6608 122.773 49.2617)" fill="#C4C4C4"/>
<rect x="69.7305" y="29.5996" width="10" height="10" rx="5" transform="rotate(-24.6608 69.7305 29.5996)" fill="#C4C4C4"/>
<rect x="142.434" y="-3.7793" width="10" height="10" rx="5" transform="rotate(-24.6608 142.434 -3.7793)" fill="#C4C4C4"/>
<rect x="53.043" y="-6.75195" width="10" height="10" rx="5" transform="rotate(-24.6608 53.043 -6.75195)" fill="#C4C4C4"/>
<rect x="86.4219" y="65.9512" width="10" height="10" rx="5" transform="rotate(-24.6608 86.4219 65.9512)" fill="#C4C4C4"/>
<rect x="159.125" y="32.5723" width="10" height="10" rx="5" transform="rotate(-24.6608 159.125 32.5723)" fill="#C4C4C4"/>
<rect x="8.34375" y="-8.23828" width="10" height="10" rx="5" transform="rotate(-24.6608 8.34375 -8.23828)" fill="#C4C4C4"/>
<rect x="41.7227" y="64.4648" width="10" height="10" rx="5" transform="rotate(-24.6608 41.7227 64.4648)" fill="#C4C4C4"/>
<rect x="114.43" y="31.0859" width="10" height="10" rx="5" transform="rotate(-24.6608 114.43 31.0859)" fill="#C4C4C4"/>
<rect x="25.0352" y="28.1133" width="10" height="10" rx="5" transform="rotate(-24.6608 25.0352 28.1133)" fill="#C4C4C4"/>
<rect x="58.4141" y="100.816" width="10" height="10" rx="5" transform="rotate(-24.6608 58.4141 100.816)" fill="#C4C4C4"/>
<rect x="97.7383" y="-5.26562" width="10" height="10" rx="5" transform="rotate(-24.6608 97.7383 -5.26562)" fill="#C4C4C4"/>
<rect x="131.117" y="67.4375" width="10" height="10" rx="5" transform="rotate(-24.6608 131.117 67.4375)" fill="#C4C4C4"/>
<rect x="78.0781" y="47.7754" width="10" height="10" rx="5" transform="rotate(-24.6608 78.0781 47.7754)" fill="#C4C4C4"/>
<rect x="150.781" y="14.3965" width="10" height="10" rx="5" transform="rotate(-24.6608 150.781 14.3965)" fill="#C4C4C4"/>
<rect x="61.3867" y="11.4238" width="10" height="10" rx="5" transform="rotate(-24.6608 61.3867 11.4238)" fill="#C4C4C4"/>
<rect x="94.7656" y="84.127" width="10" height="10" rx="5" transform="rotate(-24.6608 94.7656 84.127)" fill="#C4C4C4"/>
<rect x="167.469" y="50.748" width="10" height="10" rx="5" transform="rotate(-24.6608 167.469 50.748)" fill="#C4C4C4"/>
<rect x="51.5547" y="37.9453" width="10" height="10" rx="5" transform="rotate(-24.6608 51.5547 37.9453)" fill="#C4C4C4"/>
<rect x="124.258" y="4.56445" width="10" height="10" rx="5" transform="rotate(-24.6608 124.258 4.56445)" fill="#C4C4C4"/>
<rect x="34.8672" y="1.59375" width="10" height="10" rx="5" transform="rotate(-24.6608 34.8672 1.59375)" fill="#C4C4C4"/>
<rect x="68.2461" y="74.2969" width="10" height="10" rx="5" transform="rotate(-24.6608 68.2461 74.2969)" fill="#C4C4C4"/>
<rect x="140.949" y="40.916" width="10" height="10" rx="5" transform="rotate(-24.6608 140.949 40.916)" fill="#C4C4C4"/>
<rect x="87.9062" y="21.2539" width="10" height="10" rx="5" transform="rotate(-24.6608 87.9062 21.2539)" fill="#C4C4C4"/>
<rect x="104.598" y="57.6074" width="10" height="10" rx="5" transform="rotate(-24.6608 104.598 57.6074)" fill="#C4C4C4"/>
<rect x="177.301" y="24.2266" width="10" height="10" rx="5" transform="rotate(-24.6608 177.301 24.2266)" fill="#C4C4C4"/>
<rect x="59.9023" y="56.1211" width="10" height="10" rx="5" transform="rotate(-24.6608 59.9023 56.1211)" fill="#C4C4C4"/>
<rect x="132.605" y="22.7402" width="10" height="10" rx="5" transform="rotate(-24.6608 132.605 22.7402)" fill="#C4C4C4"/>
<rect x="43.2109" y="19.7695" width="10" height="10" rx="5" transform="rotate(-24.6608 43.2109 19.7695)" fill="#C4C4C4"/>
<rect x="76.5898" y="92.4727" width="10" height="10" rx="5" transform="rotate(-24.6608 76.5898 92.4727)" fill="#C4C4C4"/>
<rect x="149.293" y="59.0918" width="10" height="10" rx="5" transform="rotate(-24.6608 149.293 59.0918)" fill="#C4C4C4"/>
<rect x="96.2539" y="39.4297" width="10" height="10" rx="5" transform="rotate(-24.6608 96.2539 39.4297)" fill="#C4C4C4"/>
<rect x="168.957" y="6.05078" width="10" height="10" rx="5" transform="rotate(-24.6608 168.957 6.05078)" fill="#C4C4C4"/>
<rect x="79.5625" y="3.07812" width="10" height="10" rx="5" transform="rotate(-24.6608 79.5625 3.07812)" fill="#C4C4C4"/>
<rect x="112.941" y="75.7832" width="10" height="10" rx="5" transform="rotate(-24.6608 112.941 75.7832)" fill="#C4C4C4"/>
<rect x="185.645" y="42.4023" width="10" height="10" rx="5" transform="rotate(-24.6608 185.645 42.4023)" fill="#C4C4C4"/>
</g>
</svg>
