<svg width="392" height="191" viewBox="0 0 392 191" fill="none" xmlns="http://www.w3.org/2000/svg">
<path d="M26.52 144.5C26.16 141.82 25.42 139.68 24.3 138.08C23.22 136.48 21.82 135.68 20.1 135.68C17.66 135.68 15.72 136.84 14.28 139.16C12.84 141.44 12.12 144.98 12.12 149.78C12.12 155.58 13.24 159.82 15.48 162.5C17.72 165.18 20.62 166.52 24.18 166.52C25.9 166.52 27.42 166.2 28.74 165.56C30.06 164.92 31 164.16 31.56 163.28C32.04 163.64 32.44 164.18 32.76 164.9C33.08 165.62 33.24 166.28 33.24 166.88C33.24 167.88 32.72 168.92 31.68 170C30.68 171.08 29.22 172 27.3 172.76C25.38 173.48 23.16 173.84 20.64 173.84C17.12 173.84 13.9 173.02 10.98 171.38C8.1 169.74 5.8 167.26 4.08 163.94C2.36 160.62 1.5 156.6 1.5 151.88C1.5 147.28 2.28 143.38 3.84 140.18C5.4 136.94 7.58 134.52 10.38 132.92C13.22 131.28 16.52 130.46 20.28 130.46C21.16 130.46 22.16 130.58 23.28 130.82C24.4 131.06 25.38 131.38 26.22 131.78C26.82 131.5 27.7 131.22 28.86 130.94C30.02 130.66 30.92 130.5 31.56 130.46C32.72 133.3 33.3 137.98 33.3 144.5H26.52ZM50.2988 173.78C45.8988 173.78 42.3788 172.4 39.7388 169.64C37.0988 166.84 35.7788 162.86 35.7788 157.7C35.7788 154.02 36.3988 150.88 37.6388 148.28C38.9188 145.68 40.6988 143.72 42.9788 142.4C45.2588 141.08 47.8988 140.42 50.8988 140.42C53.7788 140.42 56.2988 141.06 58.4588 142.34C60.6588 143.58 62.3588 145.42 63.5588 147.86C64.7988 150.3 65.4188 153.26 65.4188 156.74C65.4188 160.38 64.7788 163.48 63.4988 166.04C62.2588 168.6 60.4988 170.54 58.2188 171.86C55.9388 173.14 53.2988 173.78 50.2988 173.78ZM50.7788 169.46C52.1788 169.46 53.2188 168.66 53.8988 167.06C54.5788 165.46 54.9188 162.5 54.9188 158.18C54.9188 154.54 54.7388 151.74 54.3788 149.78C54.0188 147.82 53.5188 146.48 52.8788 145.76C52.2388 145.04 51.4188 144.68 50.4188 144.68C49.0188 144.68 47.9588 145.48 47.2388 147.08C46.5588 148.68 46.2188 151.68 46.2188 156.08C46.2188 159.68 46.3988 162.46 46.7588 164.42C47.1188 166.34 47.6188 167.66 48.2588 168.38C48.9388 169.1 49.7788 169.46 50.7788 169.46ZM97.3997 165.98C97.3997 166.94 97.6397 167.74 98.1197 168.38C98.6397 169.02 99.3597 169.38 100.28 169.46V171.14C99.6397 171.86 98.6397 172.42 97.2797 172.82C95.9597 173.22 94.6197 173.42 93.2597 173.42C91.8997 173.42 90.7397 173.06 89.7797 172.34C88.8197 171.62 88.1797 170.62 87.8597 169.34C85.9397 172.06 83.1997 173.42 79.6397 173.42C76.8397 173.42 74.6597 172.56 73.0997 170.84C71.5397 169.12 70.7597 166.8 70.7597 163.88V147.38C70.7597 146.7 70.4997 146.22 69.9797 145.94C69.4997 145.66 68.7797 145.52 67.8197 145.52V142.88C68.4197 142.4 69.5597 141.92 71.2397 141.44C72.9597 140.96 74.7797 140.72 76.6997 140.72C77.8197 140.72 78.6397 140.8 79.1597 140.96C79.6797 141.08 80.0397 141.36 80.2397 141.8C80.4397 142.24 80.5397 142.94 80.5397 143.9V164.06C80.5397 165.3 80.7397 166.24 81.1397 166.88C81.5797 167.48 82.2797 167.78 83.2397 167.78C84.0397 167.78 84.8197 167.54 85.5797 167.06C86.3797 166.54 87.0597 165.92 87.6197 165.2V147.38C87.6197 146.14 86.4997 145.52 84.2597 145.52V142.88C84.8997 142.36 86.0597 141.88 87.7397 141.44C89.4597 140.96 91.3397 140.72 93.3797 140.72C95.0197 140.72 96.0997 140.92 96.6197 141.32C97.1397 141.68 97.3997 142.54 97.3997 143.9V165.98ZM123.096 140.42C124.896 140.42 126.216 140.88 127.056 141.8C127.896 142.72 128.316 143.98 128.316 145.58C128.316 147.3 127.856 148.7 126.936 149.78C126.056 150.86 124.856 151.4 123.336 151.4C122.016 151.4 120.936 151.02 120.096 150.26C119.296 149.5 118.896 148.6 118.896 147.56C118.896 146.92 118.956 146.42 119.076 146.06C117.636 146.42 116.416 147.04 115.416 147.92V165.92C115.416 166.92 115.556 167.68 115.836 168.2C116.116 168.72 116.656 169.12 117.456 169.4C118.296 169.64 119.536 169.76 121.176 169.76C121.176 170.48 121.096 171.1 120.936 171.62C120.776 172.1 120.476 172.56 120.036 173H104.016C103.096 172.08 102.636 171 102.636 169.76C103.796 169.76 104.616 169.52 105.096 169.04C105.616 168.52 105.876 167.66 105.876 166.46V149.12C105.876 148.04 105.576 147.28 104.976 146.84C104.416 146.4 103.396 146.18 101.916 146.18V143.48C103.236 142.72 104.976 142.06 107.136 141.5C109.336 140.9 111.036 140.6 112.236 140.6C113.196 140.6 113.876 140.94 114.276 141.62C114.676 142.3 114.876 143.66 114.876 145.7C115.596 144.34 116.736 143.12 118.296 142.04C119.856 140.96 121.456 140.42 123.096 140.42ZM141.887 173.6C139.927 173.6 137.967 173.32 136.007 172.76C134.087 172.16 132.507 171.32 131.267 170.24C130.027 169.16 129.407 167.88 129.407 166.4C129.407 165 129.807 163.88 130.607 163.04C131.407 162.16 132.427 161.72 133.667 161.72C134.787 161.72 135.727 162.08 136.487 162.8C137.287 163.52 137.687 164.46 137.687 165.62C137.687 166.14 137.607 166.6 137.447 167C137.327 167.36 137.087 167.76 136.727 168.2C137.047 168.52 137.647 168.78 138.527 168.98C139.407 169.14 140.347 169.22 141.347 169.22C142.707 169.22 143.767 168.98 144.527 168.5C145.327 167.98 145.727 167.32 145.727 166.52C145.727 165.44 145.227 164.52 144.227 163.76C143.227 162.96 141.627 161.98 139.427 160.82C137.187 159.62 135.487 158.64 134.327 157.88C133.167 157.08 132.127 156.02 131.207 154.7C130.327 153.34 129.887 151.68 129.887 149.72C129.887 147 131.007 144.8 133.247 143.12C135.487 141.44 138.587 140.6 142.547 140.6C146.427 140.6 149.307 141.3 151.187 142.7C153.107 144.06 154.067 145.7 154.067 147.62C154.067 148.82 153.667 149.8 152.867 150.56C152.107 151.32 151.167 151.7 150.047 151.7C149.007 151.7 148.107 151.4 147.347 150.8C146.627 150.16 146.267 149.34 146.267 148.34C146.267 147.82 146.347 147.3 146.507 146.78C146.667 146.22 146.887 145.76 147.167 145.4C146.367 144.76 145.167 144.44 143.567 144.44C142.287 144.44 141.287 144.74 140.567 145.34C139.847 145.94 139.487 146.7 139.487 147.62C139.487 148.86 139.987 149.88 140.987 150.68C141.987 151.48 143.587 152.44 145.787 153.56C147.867 154.64 149.507 155.58 150.707 156.38C151.907 157.18 152.947 158.24 153.827 159.56C154.707 160.88 155.147 162.5 155.147 164.42C155.147 167.54 153.867 169.86 151.307 171.38C148.787 172.86 145.647 173.6 141.887 173.6ZM175.704 166.88C178.224 166.88 180.564 166.08 182.724 164.48C183.044 164.8 183.324 165.28 183.564 165.92C183.804 166.56 183.924 167.12 183.924 167.6C183.924 168.32 183.444 169.16 182.484 170.12C181.524 171.04 180.184 171.84 178.464 172.52C176.784 173.2 174.884 173.54 172.764 173.54C169.804 173.54 167.204 172.9 164.964 171.62C162.764 170.34 161.064 168.48 159.864 166.04C158.664 163.6 158.064 160.72 158.064 157.4C158.064 154 158.704 151.02 159.984 148.46C161.304 145.9 163.104 143.94 165.384 142.58C167.664 141.18 170.244 140.48 173.124 140.48C176.764 140.48 179.664 141.54 181.824 143.66C183.984 145.78 185.064 148.72 185.064 152.48C185.064 154.24 184.784 155.64 184.224 156.68C183.664 157.68 182.664 158.18 181.224 158.18H168.264C168.504 163.98 170.984 166.88 175.704 166.88ZM172.764 144.62C171.524 144.62 170.484 145.32 169.644 146.72C168.804 148.08 168.344 150.38 168.264 153.62H174.324C174.964 153.62 175.384 153.4 175.584 152.96C175.784 152.52 175.884 151.84 175.884 150.92C175.884 148.56 175.604 146.92 175.044 146C174.484 145.08 173.724 144.62 172.764 144.62Z" fill="white"/>
<path d="M206.36 130.7C212.52 130.7 216.92 131.82 219.56 134.06C222.2 136.3 223.52 139.7 223.52 144.26C223.52 146.94 222.86 149.34 221.54 151.46C220.22 153.54 218.22 155.18 215.54 156.38C212.86 157.58 209.58 158.18 205.7 158.18H203.18V163.46C203.18 165.06 203.36 166.26 203.72 167.06C204.08 167.86 204.7 168.42 205.58 168.74C206.5 169.02 207.88 169.16 209.72 169.16C209.72 169.88 209.6 170.58 209.36 171.26C209.12 171.94 208.8 172.52 208.4 173H190.94C190.5 172.52 190.16 171.94 189.92 171.26C189.68 170.58 189.56 169.88 189.56 169.16C190.92 169.16 191.88 168.94 192.44 168.5C193.04 168.02 193.34 167.24 193.34 166.16V137.96C193.34 136.84 193.04 136.06 192.44 135.62C191.88 135.14 190.92 134.9 189.56 134.9C189.56 133.54 190 132.28 190.88 131.12C193.56 131.12 197.2 131.02 201.8 130.82C204.12 130.74 205.64 130.7 206.36 130.7ZM213.08 144.08C213.08 141.52 212.48 139.44 211.28 137.84C210.12 136.24 208.16 135.44 205.4 135.44C204.52 135.44 203.78 135.52 203.18 135.68V153.26C203.54 153.34 204.06 153.38 204.74 153.38C208.06 153.38 210.28 152.5 211.4 150.74C212.52 148.98 213.08 146.76 213.08 144.08ZM240.174 173.78C235.774 173.78 232.254 172.4 229.614 169.64C226.974 166.84 225.654 162.86 225.654 157.7C225.654 154.02 226.274 150.88 227.514 148.28C228.794 145.68 230.574 143.72 232.854 142.4C235.134 141.08 237.774 140.42 240.774 140.42C243.654 140.42 246.174 141.06 248.334 142.34C250.534 143.58 252.234 145.42 253.434 147.86C254.674 150.3 255.294 153.26 255.294 156.74C255.294 160.38 254.654 163.48 253.374 166.04C252.134 168.6 250.374 170.54 248.094 171.86C245.814 173.14 243.174 173.78 240.174 173.78ZM240.654 169.46C242.054 169.46 243.094 168.66 243.774 167.06C244.454 165.46 244.794 162.5 244.794 158.18C244.794 154.54 244.614 151.74 244.254 149.78C243.894 147.82 243.394 146.48 242.754 145.76C242.114 145.04 241.294 144.68 240.294 144.68C238.894 144.68 237.834 145.48 237.114 147.08C236.434 148.68 236.094 151.68 236.094 156.08C236.094 159.68 236.274 162.46 236.634 164.42C236.994 166.34 237.494 167.66 238.134 168.38C238.814 169.1 239.654 169.46 240.654 169.46ZM278.928 140.42C280.728 140.42 282.048 140.88 282.888 141.8C283.728 142.72 284.148 143.98 284.148 145.58C284.148 147.3 283.688 148.7 282.768 149.78C281.888 150.86 280.688 151.4 279.168 151.4C277.848 151.4 276.768 151.02 275.928 150.26C275.128 149.5 274.728 148.6 274.728 147.56C274.728 146.92 274.788 146.42 274.908 146.06C273.468 146.42 272.248 147.04 271.248 147.92V165.92C271.248 166.92 271.388 167.68 271.668 168.2C271.948 168.72 272.488 169.12 273.288 169.4C274.128 169.64 275.368 169.76 277.008 169.76C277.008 170.48 276.928 171.1 276.768 171.62C276.608 172.1 276.308 172.56 275.868 173H259.848C258.928 172.08 258.468 171 258.468 169.76C259.628 169.76 260.448 169.52 260.928 169.04C261.448 168.52 261.708 167.66 261.708 166.46V149.12C261.708 148.04 261.408 147.28 260.808 146.84C260.248 146.4 259.228 146.18 257.748 146.18V143.48C259.068 142.72 260.808 142.06 262.968 141.5C265.168 140.9 266.868 140.6 268.068 140.6C269.028 140.6 269.708 140.94 270.108 141.62C270.508 142.3 270.708 143.66 270.708 145.7C271.428 144.34 272.568 143.12 274.128 142.04C275.688 140.96 277.288 140.42 278.928 140.42ZM299.219 130.58C299.219 132.3 298.679 133.68 297.599 134.72C296.559 135.72 295.159 136.22 293.399 136.22C291.679 136.22 290.299 135.72 289.259 134.72C288.259 133.68 287.759 132.3 287.759 130.58C287.759 128.9 288.279 127.54 289.319 126.5C290.399 125.46 291.799 124.94 293.519 124.94C295.239 124.94 296.619 125.46 297.659 126.5C298.699 127.54 299.219 128.9 299.219 130.58ZM298.079 166.52C298.079 167.68 298.359 168.52 298.919 169.04C299.519 169.52 300.419 169.76 301.619 169.76C301.619 171 301.159 172.08 300.239 173H286.679C285.759 172.08 285.299 171 285.299 169.76C286.499 169.76 287.359 169.52 287.879 169.04C288.439 168.52 288.719 167.66 288.719 166.46V149.06C288.719 147.94 288.439 147.14 287.879 146.66C287.359 146.18 286.319 145.94 284.759 145.94V143.3C285.719 142.7 287.339 142.08 289.619 141.44C291.939 140.76 293.899 140.42 295.499 140.42C296.419 140.42 297.079 140.64 297.479 141.08C297.879 141.48 298.079 142.18 298.079 143.18V166.52ZM333.271 165.98C333.271 166.94 333.511 167.74 333.991 168.38C334.511 169.02 335.231 169.38 336.151 169.46V171.14C335.511 171.86 334.511 172.42 333.151 172.82C331.831 173.22 330.491 173.42 329.131 173.42C327.771 173.42 326.611 173.06 325.651 172.34C324.691 171.62 324.051 170.62 323.731 169.34C321.811 172.06 319.071 173.42 315.511 173.42C312.711 173.42 310.531 172.56 308.971 170.84C307.411 169.12 306.631 166.8 306.631 163.88V147.38C306.631 146.7 306.371 146.22 305.851 145.94C305.371 145.66 304.651 145.52 303.691 145.52V142.88C304.291 142.4 305.431 141.92 307.111 141.44C308.831 140.96 310.651 140.72 312.571 140.72C313.691 140.72 314.511 140.8 315.031 140.96C315.551 141.08 315.911 141.36 316.111 141.8C316.311 142.24 316.411 142.94 316.411 143.9V164.06C316.411 165.3 316.611 166.24 317.011 166.88C317.451 167.48 318.151 167.78 319.111 167.78C319.911 167.78 320.691 167.54 321.451 167.06C322.251 166.54 322.931 165.92 323.491 165.2V147.38C323.491 146.14 322.371 145.52 320.131 145.52V142.88C320.771 142.36 321.931 141.88 323.611 141.44C325.331 140.96 327.211 140.72 329.251 140.72C330.891 140.72 331.971 140.92 332.491 141.32C333.011 141.68 333.271 142.54 333.271 143.9V165.98ZM387.167 166.52C387.167 168.24 388.147 169.28 390.107 169.64V171.38C388.587 172.7 386.127 173.36 382.727 173.36C381.047 173.36 379.727 173.14 378.767 172.7C377.807 172.22 377.327 171.4 377.327 170.24V150.26C377.327 148.98 376.967 148 376.247 147.32C375.567 146.6 374.647 146.24 373.487 146.24C372.047 146.24 370.807 146.72 369.767 147.68C369.807 147.88 369.827 148.18 369.827 148.58V166.52C369.827 167.68 370.067 168.52 370.547 169.04C371.027 169.52 371.787 169.76 372.827 169.76C372.827 170.96 372.347 172.04 371.387 173H358.607C357.687 172 357.227 170.92 357.227 169.76C358.227 169.76 358.947 169.52 359.387 169.04C359.827 168.52 360.047 167.68 360.047 166.52V150.26C360.047 149.02 359.687 148.04 358.967 147.32C358.247 146.6 357.347 146.24 356.267 146.24C355.467 146.24 354.667 146.44 353.867 146.84C353.067 147.2 352.407 147.7 351.887 148.34V166.52C351.887 167.68 352.087 168.52 352.487 169.04C352.927 169.52 353.647 169.76 354.647 169.76C354.647 171 354.167 172.08 353.207 173H340.187C339.227 172.04 338.747 170.96 338.747 169.76C339.947 169.76 340.807 169.52 341.327 169.04C341.847 168.52 342.107 167.68 342.107 166.52V148.94C342.107 147.86 341.807 147.1 341.207 146.66C340.607 146.18 339.567 145.94 338.087 145.94V143.3C339.367 142.54 341.167 141.86 343.487 141.26C345.847 140.66 347.627 140.36 348.827 140.36C349.707 140.36 350.387 140.64 350.867 141.2C351.387 141.72 351.727 142.72 351.887 144.2C352.927 143 354.247 142.06 355.847 141.38C357.447 140.7 359.227 140.36 361.187 140.36C365.187 140.36 367.787 141.7 368.987 144.38C370.027 143.1 371.367 142.12 373.007 141.44C374.687 140.72 376.547 140.36 378.587 140.36C381.427 140.36 383.567 141.06 385.007 142.46C386.447 143.86 387.167 145.9 387.167 148.58V166.52Z" fill="white"/>
<path d="M192.053 71.0536C191.476 71.0536 190.904 70.9273 190.371 70.6786L123.266 39.0997C121.884 38.4484 121 37.0549 121 35.5273C121 33.9997 121.884 32.6063 123.266 31.9549L190.371 0.375987C191.437 -0.125329 192.668 -0.125329 193.734 0.375987L260.839 31.9549C262.221 32.6063 263.105 33.9997 263.105 35.5273C263.105 37.0549 262.221 38.4484 260.839 39.0997L193.734 70.6786C193.201 70.9273 192.629 71.0536 192.053 71.0536ZM134.22 35.5273L192.053 62.7444L249.886 35.5273L192.053 8.3102L134.22 35.5273Z" fill="white"/>
<path d="M192.05 102.633C191.446 102.633 190.838 102.495 190.286 102.219L142.917 78.5343C141.579 77.8632 140.734 76.4975 140.734 75.0014V44.8159C140.734 43.4659 141.425 42.2067 142.566 41.4843C143.707 40.758 145.14 40.6751 146.359 41.2435L192.05 62.7448L237.737 41.2435C238.961 40.6711 240.394 40.758 241.53 41.4843C242.675 42.2067 243.366 43.4659 243.366 44.8159V75.0014C243.366 76.4975 242.521 77.8632 241.183 78.5343L193.815 102.219C193.262 102.495 192.654 102.633 192.05 102.633ZM148.629 72.5619L192.05 94.2725L235.471 72.5619V51.0369L193.732 70.679C192.666 71.1803 191.434 71.1803 190.369 70.679L148.629 51.0369V72.5619Z" fill="white"/>
<path d="M259.158 39.4768H192.053C189.874 39.4768 188.105 37.7084 188.105 35.5294C188.105 33.3505 189.874 31.582 192.053 31.582H259.158C261.337 31.582 263.105 33.3505 263.105 35.5294C263.105 37.7084 261.337 39.4768 259.158 39.4768Z" fill="white"/>
<path d="M259.158 75.0031C256.979 75.0031 255.211 73.2347 255.211 71.0557V35.5294C255.211 33.3505 256.979 31.582 259.158 31.582C261.337 31.582 263.106 33.3505 263.106 35.5294V71.0557C263.106 73.2347 261.337 75.0031 259.158 75.0031Z" fill="white"/>
<path d="M192.053 47.3659C189.874 47.3659 188.105 45.5974 188.105 43.4185V27.629C188.105 25.4501 189.874 23.6816 192.053 23.6816C194.232 23.6816 196 25.4501 196 27.629V43.4185C196 45.5974 194.232 47.3659 192.053 47.3659Z" fill="white"/>
<path d="M251.255 86.8405C250.505 86.8405 249.744 86.6273 249.069 86.1773C247.257 84.9694 246.767 82.5181 247.975 80.7023L255.87 68.8602C257.078 67.0444 259.525 66.551 261.345 67.7668C263.157 68.9747 263.646 71.426 262.438 73.2418L254.544 85.0839C253.782 86.2247 252.53 86.8405 251.255 86.8405Z" fill="white"/>
<path d="M267.06 86.8405C265.785 86.8405 264.534 86.2247 263.772 85.0839L255.877 73.2418C254.67 71.4299 255.159 68.9747 256.971 67.7668C258.783 66.551 261.234 67.0444 262.446 68.8602L270.341 80.7023C271.549 82.5141 271.059 84.9694 269.247 86.1773C268.572 86.6273 267.81 86.8405 267.06 86.8405Z" fill="white"/>
<path d="M192.053 82.8912C189.874 82.8912 188.105 81.1227 188.105 78.9438V67.1017C188.105 64.9227 189.874 63.1543 192.053 63.1543C194.232 63.1543 196 64.9227 196 67.1017V78.9438C196 81.1227 194.232 82.8912 192.053 82.8912Z" fill="white"/>
</svg>
