<svg width="171" height="26" viewBox="0 0 171 26" fill="none" xmlns="http://www.w3.org/2000/svg">
<path d="M47.84 10.5C47.72 9.60667 47.4733 8.89333 47.1 8.36C46.74 7.82667 46.2733 7.56 45.7 7.56C44.8867 7.56 44.24 7.94667 43.76 8.72C43.28 9.48 43.04 10.66 43.04 12.26C43.04 14.1933 43.4133 15.6067 44.16 16.5C44.9067 17.3933 45.8733 17.84 47.06 17.84C47.6333 17.84 48.14 17.7333 48.58 17.52C49.02 17.3067 49.3333 17.0533 49.52 16.76C49.68 16.88 49.8133 17.06 49.92 17.3C50.0267 17.54 50.08 17.76 50.08 17.96C50.08 18.2933 49.9067 18.64 49.56 19C49.2267 19.36 48.74 19.6667 48.1 19.92C47.46 20.16 46.72 20.28 45.88 20.28C44.7067 20.28 43.6333 20.0067 42.66 19.46C41.7 18.9133 40.9333 18.0867 40.36 16.98C39.7867 15.8733 39.5 14.5333 39.5 12.96C39.5 11.4267 39.76 10.1267 40.28 9.06C40.8 7.98 41.5267 7.17333 42.46 6.64C43.4067 6.09333 44.5067 5.82 45.76 5.82C46.0533 5.82 46.3867 5.86 46.76 5.94C47.1333 6.02 47.46 6.12667 47.74 6.26C47.94 6.16667 48.2333 6.07333 48.62 5.98C49.0067 5.88667 49.3067 5.83333 49.52 5.82C49.9067 6.76667 50.1 8.32667 50.1 10.5H47.84ZM55.7663 20.26C54.2996 20.26 53.1263 19.8 52.2463 18.88C51.3663 17.9467 50.9263 16.62 50.9263 14.9C50.9263 13.6733 51.1329 12.6267 51.5463 11.76C51.9729 10.8933 52.5663 10.24 53.3263 9.8C54.0863 9.36 54.9663 9.14 55.9663 9.14C56.9263 9.14 57.7663 9.35333 58.4863 9.78C59.2196 10.1933 59.7863 10.8067 60.1863 11.62C60.5996 12.4333 60.8063 13.42 60.8063 14.58C60.8063 15.7933 60.5929 16.8267 60.1663 17.68C59.7529 18.5333 59.1663 19.18 58.4063 19.62C57.6463 20.0467 56.7663 20.26 55.7663 20.26ZM55.9263 18.82C56.3929 18.82 56.7396 18.5533 56.9663 18.02C57.1929 17.4867 57.3063 16.5 57.3063 15.06C57.3063 13.8467 57.2463 12.9133 57.1263 12.26C57.0063 11.6067 56.8396 11.16 56.6263 10.92C56.4129 10.68 56.1396 10.56 55.8063 10.56C55.3396 10.56 54.9863 10.8267 54.7463 11.36C54.5196 11.8933 54.4063 12.8933 54.4063 14.36C54.4063 15.56 54.4663 16.4867 54.5863 17.14C54.7063 17.78 54.8729 18.22 55.0863 18.46C55.3129 18.7 55.5929 18.82 55.9263 18.82ZM71.4666 17.66C71.4666 17.98 71.5466 18.2467 71.7066 18.46C71.8799 18.6733 72.1199 18.7933 72.4266 18.82V19.38C72.2132 19.62 71.8799 19.8067 71.4266 19.94C70.9866 20.0733 70.5399 20.14 70.0866 20.14C69.6332 20.14 69.2466 20.02 68.9266 19.78C68.6066 19.54 68.3932 19.2067 68.2866 18.78C67.6466 19.6867 66.7332 20.14 65.5466 20.14C64.6132 20.14 63.8866 19.8533 63.3666 19.28C62.8466 18.7067 62.5866 17.9333 62.5866 16.96V11.46C62.5866 11.2333 62.4999 11.0733 62.3266 10.98C62.1666 10.8867 61.9266 10.84 61.6066 10.84V9.96C61.8066 9.8 62.1866 9.64 62.7466 9.48C63.3199 9.32 63.9266 9.24 64.5666 9.24C64.9399 9.24 65.2132 9.26667 65.3866 9.32C65.5599 9.36 65.6799 9.45333 65.7466 9.6C65.8132 9.74667 65.8466 9.98 65.8466 10.3V17.02C65.8466 17.4333 65.9132 17.7467 66.0466 17.96C66.1932 18.16 66.4266 18.26 66.7466 18.26C67.0132 18.26 67.2732 18.18 67.5266 18.02C67.7932 17.8467 68.0199 17.64 68.2066 17.4V11.46C68.2066 11.0467 67.8332 10.84 67.0866 10.84V9.96C67.2999 9.78667 67.6866 9.62667 68.2466 9.48C68.8199 9.32 69.4466 9.24 70.1266 9.24C70.6732 9.24 71.0332 9.30667 71.2066 9.44C71.3799 9.56 71.4666 9.84667 71.4666 10.3V17.66ZM80.0319 9.14C80.6319 9.14 81.0719 9.29333 81.3519 9.6C81.6319 9.90667 81.7719 10.3267 81.7719 10.86C81.7719 11.4333 81.6185 11.9 81.3119 12.26C81.0185 12.62 80.6185 12.8 80.1119 12.8C79.6719 12.8 79.3119 12.6733 79.0319 12.42C78.7652 12.1667 78.6319 11.8667 78.6319 11.52C78.6319 11.3067 78.6519 11.14 78.6919 11.02C78.2119 11.14 77.8052 11.3467 77.4719 11.64V17.64C77.4719 17.9733 77.5185 18.2267 77.6119 18.4C77.7052 18.5733 77.8852 18.7067 78.1519 18.8C78.4319 18.88 78.8452 18.92 79.3919 18.92C79.3919 19.16 79.3652 19.3667 79.3119 19.54C79.2585 19.7 79.1585 19.8533 79.0119 20H73.6719C73.3652 19.6933 73.2119 19.3333 73.2119 18.92C73.5985 18.92 73.8719 18.84 74.0319 18.68C74.2052 18.5067 74.2919 18.22 74.2919 17.82V12.04C74.2919 11.68 74.1919 11.4267 73.9919 11.28C73.8052 11.1333 73.4652 11.06 72.9719 11.06V10.16C73.4119 9.90667 73.9919 9.68667 74.7119 9.5C75.4452 9.3 76.0119 9.2 76.4119 9.2C76.7319 9.2 76.9585 9.31333 77.0919 9.54C77.2252 9.76667 77.2919 10.22 77.2919 10.9C77.5319 10.4467 77.9119 10.04 78.4319 9.68C78.9519 9.32 79.4852 9.14 80.0319 9.14ZM86.2958 20.2C85.6424 20.2 84.9891 20.1067 84.3358 19.92C83.6958 19.72 83.1691 19.44 82.7558 19.08C82.3424 18.72 82.1358 18.2933 82.1358 17.8C82.1358 17.3333 82.2691 16.96 82.5358 16.68C82.8024 16.3867 83.1424 16.24 83.5558 16.24C83.9291 16.24 84.2424 16.36 84.4958 16.6C84.7624 16.84 84.8958 17.1533 84.8958 17.54C84.8958 17.7133 84.8691 17.8667 84.8158 18C84.7758 18.12 84.6958 18.2533 84.5758 18.4C84.6824 18.5067 84.8824 18.5933 85.1758 18.66C85.4691 18.7133 85.7824 18.74 86.1158 18.74C86.5691 18.74 86.9224 18.66 87.1758 18.5C87.4424 18.3267 87.5758 18.1067 87.5758 17.84C87.5758 17.48 87.4091 17.1733 87.0758 16.92C86.7424 16.6533 86.2091 16.3267 85.4758 15.94C84.7291 15.54 84.1624 15.2133 83.7758 14.96C83.3891 14.6933 83.0424 14.34 82.7358 13.9C82.4424 13.4467 82.2958 12.8933 82.2958 12.24C82.2958 11.3333 82.6691 10.6 83.4158 10.04C84.1624 9.48 85.1958 9.2 86.5158 9.2C87.8091 9.2 88.7691 9.43333 89.3958 9.9C90.0358 10.3533 90.3558 10.9 90.3558 11.54C90.3558 11.94 90.2224 12.2667 89.9558 12.52C89.7024 12.7733 89.3891 12.9 89.0158 12.9C88.6691 12.9 88.3691 12.8 88.1158 12.6C87.8758 12.3867 87.7558 12.1133 87.7558 11.78C87.7558 11.6067 87.7824 11.4333 87.8358 11.26C87.8891 11.0733 87.9624 10.92 88.0558 10.8C87.7891 10.5867 87.3891 10.48 86.8558 10.48C86.4291 10.48 86.0958 10.58 85.8558 10.78C85.6158 10.98 85.4958 11.2333 85.4958 11.54C85.4958 11.9533 85.6624 12.2933 85.9958 12.56C86.3291 12.8267 86.8624 13.1467 87.5958 13.52C88.2891 13.88 88.8358 14.1933 89.2358 14.46C89.6358 14.7267 89.9824 15.08 90.2758 15.52C90.5691 15.96 90.7158 16.5 90.7158 17.14C90.7158 18.18 90.2891 18.9533 89.4358 19.46C88.5958 19.9533 87.5491 20.2 86.2958 20.2ZM97.568 17.96C98.408 17.96 99.188 17.6933 99.908 17.16C100.015 17.2667 100.108 17.4267 100.188 17.64C100.268 17.8533 100.308 18.04 100.308 18.2C100.308 18.44 100.148 18.72 99.828 19.04C99.508 19.3467 99.0613 19.6133 98.488 19.84C97.928 20.0667 97.2946 20.18 96.588 20.18C95.6013 20.18 94.7346 19.9667 93.988 19.54C93.2546 19.1133 92.688 18.4933 92.288 17.68C91.888 16.8667 91.688 15.9067 91.688 14.8C91.688 13.6667 91.9013 12.6733 92.328 11.82C92.768 10.9667 93.368 10.3133 94.128 9.86C94.888 9.39333 95.748 9.16 96.708 9.16C97.9213 9.16 98.888 9.51333 99.608 10.22C100.328 10.9267 100.688 11.9067 100.688 13.16C100.688 13.7467 100.595 14.2133 100.408 14.56C100.221 14.8933 99.888 15.06 99.408 15.06H95.088C95.168 16.9933 95.9946 17.96 97.568 17.96ZM96.588 10.54C96.1746 10.54 95.828 10.7733 95.548 11.24C95.268 11.6933 95.1146 12.46 95.088 13.54H97.108C97.3213 13.54 97.4613 13.4667 97.528 13.32C97.5946 13.1733 97.628 12.9467 97.628 12.64C97.628 11.8533 97.5346 11.3067 97.348 11C97.1613 10.6933 96.908 10.54 96.588 10.54Z" fill="#586ED1"/>
<path d="M109.12 5.9C111.173 5.9 112.64 6.27333 113.52 7.02C114.4 7.76667 114.84 8.9 114.84 10.42C114.84 11.3133 114.62 12.1133 114.18 12.82C113.74 13.5133 113.073 14.06 112.18 14.46C111.287 14.86 110.193 15.06 108.9 15.06H108.06V16.82C108.06 17.3533 108.12 17.7533 108.24 18.02C108.36 18.2867 108.567 18.4733 108.86 18.58C109.167 18.6733 109.627 18.72 110.24 18.72C110.24 18.96 110.2 19.1933 110.12 19.42C110.04 19.6467 109.933 19.84 109.8 20H103.98C103.833 19.84 103.72 19.6467 103.64 19.42C103.56 19.1933 103.52 18.96 103.52 18.72C103.973 18.72 104.293 18.6467 104.48 18.5C104.68 18.34 104.78 18.08 104.78 17.72V8.32C104.78 7.94667 104.68 7.68667 104.48 7.54C104.293 7.38 103.973 7.3 103.52 7.3C103.52 6.84667 103.667 6.42667 103.96 6.04C104.853 6.04 106.067 6.00667 107.6 5.94C108.373 5.91333 108.88 5.9 109.12 5.9ZM111.36 10.36C111.36 9.50667 111.16 8.81333 110.76 8.28C110.373 7.74667 109.72 7.48 108.8 7.48C108.507 7.48 108.26 7.50667 108.06 7.56V13.42C108.18 13.4467 108.353 13.46 108.58 13.46C109.687 13.46 110.427 13.1667 110.8 12.58C111.173 11.9933 111.36 11.2533 111.36 10.36ZM120.391 20.26C118.925 20.26 117.751 19.8 116.871 18.88C115.991 17.9467 115.551 16.62 115.551 14.9C115.551 13.6733 115.758 12.6267 116.171 11.76C116.598 10.8933 117.191 10.24 117.951 9.8C118.711 9.36 119.591 9.14 120.591 9.14C121.551 9.14 122.391 9.35333 123.111 9.78C123.845 10.1933 124.411 10.8067 124.811 11.62C125.225 12.4333 125.431 13.42 125.431 14.58C125.431 15.7933 125.218 16.8267 124.791 17.68C124.378 18.5333 123.791 19.18 123.031 19.62C122.271 20.0467 121.391 20.26 120.391 20.26ZM120.551 18.82C121.018 18.82 121.365 18.5533 121.591 18.02C121.818 17.4867 121.931 16.5 121.931 15.06C121.931 13.8467 121.871 12.9133 121.751 12.26C121.631 11.6067 121.465 11.16 121.251 10.92C121.038 10.68 120.765 10.56 120.431 10.56C119.965 10.56 119.611 10.8267 119.371 11.36C119.145 11.8933 119.031 12.8933 119.031 14.36C119.031 15.56 119.091 16.4867 119.211 17.14C119.331 17.78 119.498 18.22 119.711 18.46C119.938 18.7 120.218 18.82 120.551 18.82ZM133.309 9.14C133.909 9.14 134.349 9.29333 134.629 9.6C134.909 9.90667 135.049 10.3267 135.049 10.86C135.049 11.4333 134.896 11.9 134.589 12.26C134.296 12.62 133.896 12.8 133.389 12.8C132.949 12.8 132.589 12.6733 132.309 12.42C132.043 12.1667 131.909 11.8667 131.909 11.52C131.909 11.3067 131.929 11.14 131.969 11.02C131.489 11.14 131.083 11.3467 130.749 11.64V17.64C130.749 17.9733 130.796 18.2267 130.889 18.4C130.983 18.5733 131.163 18.7067 131.429 18.8C131.709 18.88 132.123 18.92 132.669 18.92C132.669 19.16 132.643 19.3667 132.589 19.54C132.536 19.7 132.436 19.8533 132.289 20H126.949C126.643 19.6933 126.489 19.3333 126.489 18.92C126.876 18.92 127.149 18.84 127.309 18.68C127.483 18.5067 127.569 18.22 127.569 17.82V12.04C127.569 11.68 127.469 11.4267 127.269 11.28C127.083 11.1333 126.743 11.06 126.249 11.06V10.16C126.689 9.90667 127.269 9.68667 127.989 9.5C128.723 9.3 129.289 9.2 129.689 9.2C130.009 9.2 130.236 9.31333 130.369 9.54C130.503 9.76667 130.569 10.22 130.569 10.9C130.809 10.4467 131.189 10.04 131.709 9.68C132.229 9.32 132.763 9.14 133.309 9.14ZM140.073 5.86C140.073 6.43333 139.893 6.89333 139.533 7.24C139.186 7.57333 138.72 7.74 138.133 7.74C137.56 7.74 137.1 7.57333 136.753 7.24C136.42 6.89333 136.253 6.43333 136.253 5.86C136.253 5.3 136.426 4.84667 136.773 4.5C137.133 4.15333 137.6 3.98 138.173 3.98C138.746 3.98 139.206 4.15333 139.553 4.5C139.9 4.84667 140.073 5.3 140.073 5.86ZM139.693 17.84C139.693 18.2267 139.786 18.5067 139.973 18.68C140.173 18.84 140.473 18.92 140.873 18.92C140.873 19.3333 140.72 19.6933 140.413 20H135.893C135.586 19.6933 135.433 19.3333 135.433 18.92C135.833 18.92 136.12 18.84 136.293 18.68C136.48 18.5067 136.573 18.22 136.573 17.82V12.02C136.573 11.6467 136.48 11.38 136.293 11.22C136.12 11.06 135.773 10.98 135.253 10.98V10.1C135.573 9.9 136.113 9.69333 136.873 9.48C137.646 9.25333 138.3 9.14 138.833 9.14C139.14 9.14 139.36 9.21333 139.493 9.36C139.626 9.49333 139.693 9.72667 139.693 10.06V17.84ZM151.424 17.66C151.424 17.98 151.504 18.2467 151.664 18.46C151.837 18.6733 152.077 18.7933 152.384 18.82V19.38C152.17 19.62 151.837 19.8067 151.384 19.94C150.944 20.0733 150.497 20.14 150.044 20.14C149.59 20.14 149.204 20.02 148.884 19.78C148.564 19.54 148.35 19.2067 148.244 18.78C147.604 19.6867 146.69 20.14 145.504 20.14C144.57 20.14 143.844 19.8533 143.324 19.28C142.804 18.7067 142.544 17.9333 142.544 16.96V11.46C142.544 11.2333 142.457 11.0733 142.284 10.98C142.124 10.8867 141.884 10.84 141.564 10.84V9.96C141.764 9.8 142.144 9.64 142.704 9.48C143.277 9.32 143.884 9.24 144.524 9.24C144.897 9.24 145.17 9.26667 145.344 9.32C145.517 9.36 145.637 9.45333 145.704 9.6C145.77 9.74667 145.804 9.98 145.804 10.3V17.02C145.804 17.4333 145.87 17.7467 146.004 17.96C146.15 18.16 146.384 18.26 146.704 18.26C146.97 18.26 147.23 18.18 147.484 18.02C147.75 17.8467 147.977 17.64 148.164 17.4V11.46C148.164 11.0467 147.79 10.84 147.044 10.84V9.96C147.257 9.78667 147.644 9.62667 148.204 9.48C148.777 9.32 149.404 9.24 150.084 9.24C150.63 9.24 150.99 9.30667 151.164 9.44C151.337 9.56 151.424 9.84667 151.424 10.3V17.66ZM169.389 17.84C169.389 18.4133 169.716 18.76 170.369 18.88V19.46C169.862 19.9 169.042 20.12 167.909 20.12C167.349 20.12 166.909 20.0467 166.589 19.9C166.269 19.74 166.109 19.4667 166.109 19.08V12.42C166.109 11.9933 165.989 11.6667 165.749 11.44C165.522 11.2 165.216 11.08 164.829 11.08C164.349 11.08 163.936 11.24 163.589 11.56C163.602 11.6267 163.609 11.7267 163.609 11.86V17.84C163.609 18.2267 163.689 18.5067 163.849 18.68C164.009 18.84 164.262 18.92 164.609 18.92C164.609 19.32 164.449 19.68 164.129 20H159.869C159.562 19.6667 159.409 19.3067 159.409 18.92C159.742 18.92 159.982 18.84 160.129 18.68C160.276 18.5067 160.349 18.2267 160.349 17.84V12.42C160.349 12.0067 160.229 11.68 159.989 11.44C159.749 11.2 159.449 11.08 159.089 11.08C158.822 11.08 158.556 11.1467 158.289 11.28C158.022 11.4 157.802 11.5667 157.629 11.78V17.84C157.629 18.2267 157.696 18.5067 157.829 18.68C157.976 18.84 158.216 18.92 158.549 18.92C158.549 19.3333 158.389 19.6933 158.069 20H153.729C153.409 19.68 153.249 19.32 153.249 18.92C153.649 18.92 153.936 18.84 154.109 18.68C154.282 18.5067 154.369 18.2267 154.369 17.84V11.98C154.369 11.62 154.269 11.3667 154.069 11.22C153.869 11.06 153.522 10.98 153.029 10.98V10.1C153.456 9.84667 154.056 9.62 154.829 9.42C155.616 9.22 156.209 9.12 156.609 9.12C156.902 9.12 157.129 9.21333 157.289 9.4C157.462 9.57333 157.576 9.90667 157.629 10.4C157.976 10 158.416 9.68667 158.949 9.46C159.482 9.23333 160.076 9.12 160.729 9.12C162.062 9.12 162.929 9.56667 163.329 10.46C163.676 10.0333 164.122 9.70667 164.669 9.48C165.229 9.24 165.849 9.12 166.529 9.12C167.476 9.12 168.189 9.35333 168.669 9.82C169.149 10.2867 169.389 10.9667 169.389 11.86V17.84Z" fill="#6568DD"/>
<path d="M15.2367 16.2369C15.1131 16.2369 14.9904 16.2098 14.8761 16.1565L0.485882 9.38464C0.189613 9.24497 0 8.94616 0 8.61857C0 8.29098 0.189613 7.99217 0.485882 7.8525L14.8761 1.08063C15.1047 0.973124 15.3688 0.973124 15.5973 1.08063L29.9876 7.8525C30.2838 7.99217 30.4734 8.29098 30.4734 8.61857C30.4734 8.94616 30.2838 9.24497 29.9876 9.38464L15.5973 16.1565C15.483 16.2098 15.3603 16.2369 15.2367 16.2369ZM2.83488 8.61857L15.2367 14.4551L27.6386 8.61857L15.2367 2.78206L2.83488 8.61857Z" fill="#586ED1"/>
<path d="M15.2367 23.0088C15.1072 23.0088 14.9769 22.9792 14.8583 22.92L4.70053 17.8411C4.41357 17.6972 4.23242 17.4043 4.23242 17.0835V10.6104C4.23242 10.3209 4.38056 10.0509 4.62519 9.89595C4.86983 9.7402 5.1771 9.72242 5.43866 9.84432L15.2367 14.4551L25.0339 9.84432C25.2963 9.72158 25.6036 9.7402 25.8474 9.89595C26.0929 10.0509 26.241 10.3209 26.241 10.6104V17.0835C26.241 17.4043 26.0599 17.6972 25.7729 17.8411L15.6151 22.92C15.4966 22.9792 15.3662 23.0088 15.2367 23.0088ZM5.92539 16.5603L15.2367 21.216L24.5481 16.5603V11.9444L15.5973 16.1566C15.3688 16.2641 15.1047 16.2641 14.8761 16.1566L5.92539 11.9444V16.5603Z" fill="#586ED1"/>
<path d="M29.627 9.46506H15.2367C14.7695 9.46506 14.3903 9.08584 14.3903 8.61858C14.3903 8.15132 14.7695 7.77209 15.2367 7.77209H29.627C30.0942 7.77209 30.4735 8.15132 30.4735 8.61858C30.4735 9.08584 30.0942 9.46506 29.627 9.46506Z" fill="#586ED1"/>
<path d="M29.6269 17.0834C29.1597 17.0834 28.7805 16.7042 28.7805 16.2369V8.61858C28.7805 8.15132 29.1597 7.77209 29.6269 7.77209C30.0942 7.77209 30.4734 8.15132 30.4734 8.61858V16.2369C30.4734 16.7042 30.0942 17.0834 29.6269 17.0834Z" fill="#586ED1"/>
<path d="M15.2367 11.158C14.7695 11.158 14.3903 10.7788 14.3903 10.3115V6.92559C14.3903 6.45833 14.7695 6.0791 15.2367 6.0791C15.704 6.0791 16.0832 6.45833 16.0832 6.92559V10.3115C16.0832 10.7788 15.704 11.158 15.2367 11.158Z" fill="#586ED1"/>
<path d="M27.9332 19.6229C27.7723 19.6229 27.609 19.5772 27.4642 19.4807C27.0757 19.2216 26.9707 18.696 27.2297 18.3066L28.9227 15.7671C29.1817 15.3777 29.7066 15.2719 30.0968 15.5327C30.4853 15.7917 30.5903 16.3173 30.3313 16.7067L28.6383 19.2462C28.4749 19.4908 28.2066 19.6229 27.9332 19.6229Z" fill="#586ED1"/>
<path d="M31.3208 19.6229C31.0474 19.6229 30.779 19.4908 30.6156 19.2462L28.9227 16.7067C28.6637 16.3182 28.7686 15.7917 29.1572 15.5327C29.5457 15.2719 30.0714 15.3777 30.3312 15.7671L32.0242 18.3066C32.2832 18.6951 32.1783 19.2216 31.7897 19.4807C31.645 19.5772 31.4816 19.6229 31.3208 19.6229Z" fill="#586ED1"/>
<path d="M15.2367 18.7764C14.7695 18.7764 14.3903 18.3971 14.3903 17.9299V15.3904C14.3903 14.9232 14.7695 14.5439 15.2367 14.5439C15.704 14.5439 16.0832 14.9232 16.0832 15.3904V17.9299C16.0832 18.3971 15.704 18.7764 15.2367 18.7764Z" fill="#586ED1"/>
</svg>
