<svg width="14" height="14" viewBox="0 0 14 14" fill="none" xmlns="http://www.w3.org/2000/svg">
<path d="M6.99996 7.58366C7.32213 7.58366 7.58329 7.32249 7.58329 7.00033C7.58329 6.67816 7.32213 6.41699 6.99996 6.41699C6.67779 6.41699 6.41663 6.67816 6.41663 7.00033C6.41663 7.32249 6.67779 7.58366 6.99996 7.58366Z" stroke="#737A70" stroke-width="2" stroke-linecap="round" stroke-linejoin="round"/>
<path d="M6.99996 3.49967C7.32213 3.49967 7.58329 3.23851 7.58329 2.91634C7.58329 2.59417 7.32213 2.33301 6.99996 2.33301C6.67779 2.33301 6.41663 2.59417 6.41663 2.91634C6.41663 3.23851 6.67779 3.49967 6.99996 3.49967Z" stroke="#737A70" stroke-width="2" stroke-linecap="round" stroke-linejoin="round"/>
<path d="M6.99996 11.6667C7.32213 11.6667 7.58329 11.4055 7.58329 11.0833C7.58329 10.7612 7.32213 10.5 6.99996 10.5C6.67779 10.5 6.41663 10.7612 6.41663 11.0833C6.41663 11.4055 6.67779 11.6667 6.99996 11.6667Z" stroke="#737A70" stroke-width="2" stroke-linecap="round" stroke-linejoin="round"/>
</svg>
