<svg width="61" height="55" viewBox="0 0 61 55" fill="none" xmlns="http://www.w3.org/2000/svg">
<path d="M37.7633 31.045C37.7633 42.5667 29.7621 47.5595 19.9046 47.5595C10.0471 47.5595 2.0459 42.5667 2.0459 31.045C2.0459 19.5232 10.0471 9.3457 19.9046 9.3457C29.8261 9.3457 37.7633 19.5232 37.7633 31.045Z" fill="#F76B1C"/>
<path d="M32.002 0.384062C30.5298 -0.384054 26.7532 0.192029 23.7448 1.28019C22.9127 0.512077 21.8885 0 20.8003 0C19.4561 0 18.2399 0.704114 17.4078 1.72827C14.2073 0.384066 9.66264 -0.512073 7.93438 0.384062C6.01409 1.40822 8.51047 4.35267 11.6469 6.01692C13.4392 6.97707 15.1035 7.29711 16.5117 7.16909C17.3438 8.12924 18.944 8.44928 20.8003 8.44928C22.7206 8.44928 24.3209 8.06522 25.153 7.10508C26.1131 6.97706 27.2013 6.65702 28.3535 6.01692C31.4259 4.35267 33.9223 1.40822 32.002 0.384062Z" fill="#F76B1C"/>
<path d="M25.6007 9.92189C25.6007 10.37 25.2806 10.69 24.8326 10.69H15.1031C14.655 10.69 14.335 10.37 14.335 9.92189V7.87359C14.335 7.42552 14.655 7.10547 15.1031 7.10547H24.8326C25.2806 7.10547 25.6007 7.42552 25.6007 7.87359V9.92189Z" fill="white"/>
<path d="M21.3093 27.0668V19.7697C23.5496 20.2178 25.1499 21.626 25.1499 23.2903C25.1499 24.0584 25.7259 24.6345 26.4941 24.6345C27.2622 24.6345 27.8383 23.9944 27.8383 23.2903C27.8383 20.1538 24.9578 17.5294 21.2453 17.0173V16.6332C21.2453 15.8651 20.6052 15.2891 19.9011 15.2891C19.133 15.2891 18.5569 15.9291 18.5569 16.6332V17.0173C15.3564 17.4654 12.796 19.4497 12.0919 22.0101C11.9639 22.4581 11.9639 22.8422 11.9639 23.2903C11.9639 26.4267 14.8443 29.0511 18.5569 29.5632V36.9243C16.3165 36.4763 14.7163 35.068 14.7163 33.4038C14.7163 32.6357 14.0762 32.0596 13.3721 32.0596C12.604 32.0596 12.0279 32.6997 12.0279 33.4038C12.0279 36.5403 14.9083 39.1647 18.6209 39.6767V39.9968C18.6209 40.7649 19.261 41.341 19.9651 41.341C20.7332 41.341 21.3093 40.7009 21.3093 39.9968V39.6767C25.0859 39.1647 27.9023 36.5403 27.9023 33.4038C27.9023 30.2673 25.0859 27.5789 21.3093 27.0668ZM14.7163 22.9702C14.9083 21.434 16.5086 20.2178 18.5569 19.8337V26.8748C16.3165 26.4267 14.7163 25.0185 14.7163 23.3543C14.7163 23.2262 14.7163 23.0982 14.7163 22.9702ZM25.2139 33.4038C25.2139 35.068 23.5496 36.5403 21.3733 36.9243V29.8833C23.5496 30.2673 25.1499 31.6755 25.2139 33.4038ZM19.9651 27.0028C19.8371 27.0028 19.9651 27.0028 19.9651 27.0028V27.0028Z" fill="white"/>
<path d="M46.9819 40.1952C47.1739 40.2592 28.5471 37.9549 28.3551 42.8196C28.2271 46.3401 16.7053 47.2363 16.7053 47.2363C16.3213 47.2363 13.1848 47.4923 13.1848 47.4923L5.63164 42.5635C4.28744 41.0913 1.85507 40.3232 0.318839 41.6674C-0.833336 42.6916 1.407 43.5237 2.75121 44.9959L11.1365 51.2689C11.3285 51.4609 11.9686 51.7809 13.1208 51.909C17.9855 52.6131 21.8901 52.8051 29.9553 53.8933C32.4517 54.2133 34.436 53.8933 35.2681 53.4452C38.4046 51.909 47.0459 51.8449 47.0459 51.8449L46.9819 40.1952Z" fill="#FB9C1C"/>
<path d="M24.7709 44.1641C22.8506 45.3162 21.7625 45.2523 21.6344 45.3163L18.754 42.8199C17.8579 41.8597 14.5934 41.4117 13.6972 42.4358C12.8011 43.396 13.4412 43.588 14.3373 44.5481L19.8422 49.2209C20.3542 49.7969 21.0583 49.989 21.6984 49.9249C21.7625 49.9249 21.8265 49.9249 21.8905 49.9249L36.7407 50.6291C37.4448 50.6291 38.0209 50.373 38.533 49.989C41.1574 48.9648 43.0137 47.4926 43.0137 44.9322C43.0137 41.4117 39.5572 39.9395 35.2685 39.9395C29.5076 39.9395 28.0994 42.1798 24.7709 44.1641Z" fill="#FDC00F"/>
<path d="M48.1983 39.6816H46.0859V52.4196H48.1983V39.6816Z" fill="white"/>
<path d="M60.9999 38.9141H47.1738V53.1242H55.175C57.9275 48.8996 59.9117 44.0988 60.9999 38.9141Z" fill="#073856"/>
</svg>
