<svg width="12" height="16" viewBox="0 0 12 16" fill="none" xmlns="http://www.w3.org/2000/svg">
<path d="M7.28338 0.5H1.5C1.24558 0.5 0.994504 0.607511 0.804108 0.8106C0.612688 1.01478 0.5 1.29822 0.5 1.6V14.4C0.5 14.7018 0.612688 14.9852 0.804108 15.1894M7.28338 0.5L0.804108 15.1894M7.28338 0.5L11.5 4.99772M7.28338 0.5L11.5 4.99772M0.804108 15.1894C0.994504 15.3925 1.24558 15.5 1.5 15.5H10.5C10.7544 15.5 11.0055 15.3925 11.1959 15.1894C11.3873 14.9852 11.5 14.7018 11.5 14.4V4.99772M0.804108 15.1894L11.5 4.99772" stroke="white" stroke-linecap="round" stroke-linejoin="round"/>
<mask id="path-2-inside-1_1784_4599" fill="white">
<path d="M6.85742 0V5.33333H12.0003"/>
</mask>
<path d="M7.85742 0C7.85742 -0.552285 7.40971 -1 6.85742 -1C6.30514 -1 5.85742 -0.552285 5.85742 0H7.85742ZM6.85742 5.33333H5.85742C5.85742 5.88562 6.30514 6.33333 6.85742 6.33333V5.33333ZM12.0003 6.33333C12.5526 6.33333 13.0003 5.88562 13.0003 5.33333C13.0003 4.78105 12.5526 4.33333 12.0003 4.33333V6.33333ZM5.85742 0V5.33333H7.85742V0H5.85742ZM6.85742 6.33333H12.0003V4.33333H6.85742V6.33333Z" fill="white" mask="url(#path-2-inside-1_1784_4599)"/>
<path d="M8.57254 8.89062H3.42969" stroke="white" stroke-linecap="round" stroke-linejoin="round"/>
<path d="M8.57254 12.4453H3.42969" stroke="white" stroke-linecap="round" stroke-linejoin="round"/>
<path d="M5.14397 5.33398H4.28683H3.42969" stroke="white" stroke-linecap="round" stroke-linejoin="round"/>
</svg>
