<svg width="55" height="64" viewBox="0 0 55 64" fill="none" xmlns="http://www.w3.org/2000/svg">
<path d="M36.8378 14.5998C36.8378 19.8538 32.5762 24.1154 27.3222 24.1154C22.0682 24.1154 17.8066 19.8538 17.8066 14.5998C17.8066 9.34578 22.0682 5.14258 27.3222 5.14258C32.5762 5.14258 36.8378 9.40416 36.8378 14.5998Z" fill="#F18322"/>
<path d="M35.9625 14.5989C35.9625 19.3859 32.1095 23.2388 27.3225 23.2388C22.5356 23.2388 18.6826 19.3859 18.6826 14.5989C18.6826 9.81192 22.5356 5.95898 27.3225 5.95898C32.1095 5.95898 35.9625 9.8703 35.9625 14.5989Z" fill="#FDC518"/>
<path d="M28.0228 14.0173V10.3978C29.1319 10.6313 29.9492 11.3319 29.9492 12.1492C29.9492 12.4994 30.2411 12.8497 30.6498 12.8497C31 12.8497 31.3503 12.5578 31.3503 12.1492C31.3503 10.573 29.9492 9.28865 28.0811 8.99676V8.82163C28.0811 8.47137 27.7893 8.12109 27.3806 8.12109C27.0304 8.12109 26.6801 8.41299 26.6801 8.82163V8.99676C25.1039 9.23027 23.8196 10.2227 23.4693 11.507C23.4109 11.7405 23.4109 11.9157 23.4109 12.1492C23.4109 13.7254 24.812 15.0097 26.6801 15.3016V18.921C25.5709 18.6875 24.7536 17.9869 24.7536 17.1697C24.7536 16.8194 24.4617 16.4691 24.0531 16.4691C23.7028 16.4691 23.3525 16.761 23.3525 17.1697C23.3525 18.7459 24.7536 20.0302 26.6217 20.3221V20.4972C26.6217 20.8475 26.9136 21.1977 27.3222 21.1977C27.6725 21.1977 28.0228 20.9058 28.0228 20.4972V20.3221C29.8909 20.0885 31.2919 18.7459 31.2919 17.1697C31.2919 15.5351 29.8909 14.2508 28.0228 14.0173ZM24.7536 11.9157C24.8704 11.1567 25.6293 10.5146 26.6801 10.3395V13.8421C25.5709 13.6086 24.7536 12.9081 24.7536 12.0908C24.7536 12.0908 24.7536 11.974 24.7536 11.9157ZM29.9492 17.1113C29.9492 17.9286 29.1319 18.6291 28.0228 18.8626V15.3599C29.1319 15.5935 29.9492 16.294 29.9492 17.1113ZM27.3222 13.9589C27.2639 13.9589 27.3222 13.9589 27.3222 13.9589V13.9589Z" fill="#F18322"/>
<path d="M11.2085 14.5984C11.2085 17.6924 8.6983 20.2027 5.60427 20.2027C2.51025 20.2027 0 17.6924 0 14.5984C0 11.5044 2.51025 8.99414 5.60427 8.99414C8.6983 9.05252 11.2085 11.5628 11.2085 14.5984Z" fill="#F18322"/>
<path d="M10.6831 14.5984C10.6831 17.4005 8.40638 19.6773 5.60425 19.6773C2.80211 19.6773 0.525391 17.4005 0.525391 14.5984C0.525391 11.7963 2.80211 9.51953 5.60425 9.51953C8.40638 9.51953 10.6831 11.7963 10.6831 14.5984Z" fill="#FDC518"/>
<path d="M6.01134 14.2527V12.0927C6.6535 12.2094 7.12052 12.6181 7.12052 13.1435C7.12052 13.377 7.29566 13.5521 7.52917 13.5521C7.76268 13.5521 7.9378 13.377 7.9378 13.1435C7.9378 12.2094 7.12052 11.4505 6.01134 11.2754V11.1587C6.01134 10.9251 5.8362 10.75 5.60269 10.75C5.36918 10.75 5.19406 10.9251 5.19406 11.1587V11.2754C4.26001 11.3922 3.50109 11.9759 3.32596 12.7349C3.26758 12.8516 3.26758 12.9684 3.26758 13.0851C3.26758 14.0192 4.08488 14.7781 5.19406 14.9532V17.1132C4.5519 16.9964 4.08486 16.5878 4.08486 16.0624C4.08486 15.8289 3.90974 15.6537 3.67623 15.6537C3.44272 15.6537 3.26758 15.8289 3.26758 16.0624C3.26758 16.9964 4.08488 17.7553 5.19406 17.9305V18.0472C5.19406 18.2807 5.36918 18.4559 5.60269 18.4559C5.8362 18.4559 6.01134 18.2807 6.01134 18.0472V17.9305C7.12052 17.7553 7.9378 16.9964 7.9378 16.0624C7.9378 15.1867 7.06214 14.4278 6.01134 14.2527ZM4.08486 13.0267C4.14324 12.5597 4.61028 12.2094 5.19406 12.0927V14.1359C4.5519 14.0192 4.08486 13.6105 4.08486 13.0851C4.08486 13.1435 4.08486 13.0851 4.08486 13.0267ZM7.12052 16.1208C7.12052 16.5878 6.6535 17.0548 6.01134 17.1716V15.1283C6.6535 15.1867 7.12052 15.5954 7.12052 16.1208ZM5.60269 14.2527C5.54431 14.2527 5.60269 14.2527 5.60269 14.2527V14.2527Z" fill="#F18322"/>
<path d="M54.6998 14.5984C54.6998 17.6924 52.1895 20.2027 49.0955 20.2027C46.0015 20.2027 43.4912 17.6924 43.4912 14.5984C43.4912 11.5044 46.0015 8.99414 49.0955 8.99414C52.1895 9.05252 54.6998 11.5628 54.6998 14.5984Z" fill="#F18322"/>
<path d="M54.1743 14.5984C54.1743 17.4005 51.8976 19.6773 49.0955 19.6773C46.2933 19.6773 44.0166 17.4005 44.0166 14.5984C44.0166 11.7963 46.2933 9.51953 49.0955 9.51953C51.8976 9.51953 54.1743 11.7963 54.1743 14.5984Z" fill="#FDC518"/>
<path d="M49.5055 14.2527V12.0927C50.1476 12.2094 50.6147 12.6181 50.6147 13.1435C50.6147 13.377 50.7898 13.5521 51.0233 13.5521C51.2568 13.5521 51.4319 13.377 51.4319 13.1435C51.4319 12.2094 50.6147 11.4505 49.5055 11.2754V11.1587C49.5055 10.9251 49.3303 10.75 49.0968 10.75C48.8633 10.75 48.6882 10.9251 48.6882 11.1587V11.2754C47.7542 11.3922 46.9952 11.9759 46.8201 12.7349C46.7617 12.8516 46.7617 12.9684 46.7617 13.0851C46.7617 14.0192 47.579 14.7781 48.6882 14.9532V17.1132C48.046 16.9964 47.579 16.5878 47.579 16.0624C47.579 15.8289 47.4039 15.6537 47.1704 15.6537C46.9369 15.6537 46.7617 15.8289 46.7617 16.0624C46.7617 16.9964 47.579 17.7553 48.6882 17.9305V18.0472C48.6882 18.2807 48.8633 18.4559 49.0968 18.4559C49.3303 18.4559 49.5055 18.2807 49.5055 18.0472V17.9305C50.6147 17.7553 51.4319 16.9964 51.4319 16.0624C51.4319 15.1867 50.5563 14.4278 49.5055 14.2527ZM47.579 13.0267C47.6374 12.5597 48.1044 12.2094 48.6882 12.0927V14.1359C48.046 14.0192 47.579 13.6105 47.579 13.0851C47.5206 13.1435 47.579 13.0851 47.579 13.0267ZM50.6147 16.1208C50.6147 16.5878 50.1476 17.0548 49.5055 17.1716V15.1283C50.1476 15.1867 50.6147 15.5954 50.6147 16.1208ZM49.0968 14.2527C49.0385 14.2527 49.0968 14.2527 49.0968 14.2527V14.2527Z" fill="#F18322"/>
<path d="M21.25 38.4134L23.4683 58.8456C23.4683 58.8456 31.1158 59.4294 39.2304 63.224C40.573 62.757 41.9157 62.2316 43.1417 61.6478L49.7967 55.2262C48.8043 51.6652 37.8293 37.7129 37.8293 37.7129L21.25 38.4134Z" fill="#FB9C1C"/>
<path d="M26.0362 40.3396L29.3054 40.2813L29.0719 27.6133L25.8027 27.6717L26.0362 40.3396Z" fill="#FC611F"/>
<path d="M27.4374 28.957C19.4396 29.0737 12.8429 22.7105 12.7262 14.7128C12.6094 6.71501 19.031 0.118323 26.9704 0.00156728C34.9681 -0.115188 41.5648 6.30637 41.6816 14.2457C41.7983 22.2435 35.4351 28.8402 27.4374 28.957ZM27.0287 2.68695C20.4904 2.80371 15.2364 8.17446 15.3532 14.7128C15.4699 21.2511 20.8407 26.5051 27.379 26.3883C33.9173 26.2716 39.1713 20.9008 39.0546 14.3625C38.9378 7.76582 33.5671 2.57019 27.0287 2.68695Z" fill="#FF5F29"/>
<path d="M25.5692 57.9121L30.2978 57.7953L30.0059 37.3047L25.2773 37.3631L25.5692 57.9121Z" fill="#414042"/>
<path d="M31.874 19.5008C30.1811 21.2521 28.0211 22.3029 25.8027 22.7115C28.3714 23.4121 31.1735 22.7115 33.1 20.7267C35.0848 18.6835 35.6102 15.8813 34.8513 13.3711C34.5594 15.5895 33.567 17.7494 31.874 19.5008Z" fill="white"/>
<path d="M26.2107 42.3265C27.6702 42.4432 28.9545 41.3924 29.0712 39.933C29.188 38.4735 28.1372 37.1892 26.6777 37.0725L21.0735 36.3135C19.614 36.1968 18.3297 37.2476 18.213 38.707C18.0962 40.1665 19.147 41.4508 20.6064 41.5675L26.2107 42.3265Z" fill="#FDC00F"/>
<path d="M26.5615 47.6959C28.0209 47.5208 29.0134 46.1781 28.8382 44.7186C28.6631 43.2592 27.3204 42.2667 25.861 42.4419L20.2567 42.9089C18.7973 43.084 17.8048 44.4267 17.98 45.8862C18.1551 47.3456 19.4978 48.338 20.9572 48.1629L26.5615 47.6959Z" fill="#FDC00F"/>
<path d="M28.196 52.9498C29.5971 52.5412 30.4144 51.0818 30.0057 49.6807C29.5971 48.2796 28.1376 47.4623 26.7366 47.871L21.249 49.1553C19.848 49.5639 19.0307 51.0234 19.4393 52.4244C19.848 53.8255 21.3074 54.6428 22.7085 54.2342L28.196 52.9498Z" fill="#FDC00F"/>
<path d="M28.7215 57.33C29.8891 57.0381 30.5896 55.9289 30.3561 54.7613C30.0642 53.5938 28.955 52.8933 27.7875 53.1268L23.7594 54.6446C22.5918 54.9365 21.8913 56.0457 22.1248 57.2132C22.4167 58.3808 23.5259 59.0813 24.6934 58.8478L28.7215 57.33Z" fill="#FDC00F"/>
<path d="M32.3997 36.835L29.2473 35.8425L26.9121 38.2944C25.9197 39.3452 24.6354 39.6955 23.5846 38.703C22.5338 37.7106 22.5338 36.076 23.5262 35.0252L26.6786 31.6977C26.6786 31.6977 27.0289 31.2891 28.4884 31.0556C30.2981 30.822 38.1207 33.9161 38.1207 33.9161C38.8212 34.3247 39.2882 34.9669 39.405 35.7258C39.405 35.7842 39.4634 35.8425 39.5218 35.9593L43.6666 45.0079C43.9001 45.7084 43.8417 46.4673 43.6082 47.1094C43.4331 50.2618 40.4558 53.2391 37.8872 53.998C34.3845 55.0488 32.8083 53.7645 31.4656 49.1527C30.1229 44.7743 32.3997 36.9517 32.3997 36.835Z" fill="#FDC00F"/>
<path d="M32.3997 36.835L29.2473 35.8425L26.9121 38.2944C25.9197 39.3452 24.6354 39.6955 23.5846 38.703C22.5338 37.7106 22.5338 36.076 23.5262 35.0252L26.6786 31.6977C26.6786 31.6977 27.0289 31.2891 28.4884 31.0556C30.2981 30.822 38.1207 33.9161 38.1207 33.9161C38.8212 34.3247 39.2882 34.9669 39.405 35.7258C39.405 35.7842 39.4634 35.8425 39.5218 35.9593L43.6666 45.0079C43.9001 45.7084 43.8417 46.4673 43.6082 47.1094C43.4331 50.2618 40.4558 53.2391 37.8872 53.998C34.3845 55.0488 32.8083 53.7645 31.4656 49.1527C30.1229 44.7743 32.3997 36.9517 32.3997 36.835Z" fill="#FDC00F"/>
<path d="M48.6982 51.6694L47.2119 50.1836L35.5729 61.8259L37.0591 63.3117L48.6982 51.6694Z" fill="white"/>
<path d="M48.5119 51.0234L36.4277 63.1077L37.1866 63.8666C43.0828 62.2904 48.4535 59.3131 52.8319 55.3434L48.5119 51.0234Z" fill="#14B0BF"/>
</svg>
