<svg width="199" height="103" viewBox="0 0 199 103" fill="none" xmlns="http://www.w3.org/2000/svg">
<g opacity="0.4">
<rect x="33.3794" y="39.2903" width="10" height="10" rx="5" transform="rotate(-24.6608 33.3794 39.2903)" fill="#C4C4C4"/>
<rect x="106.083" y="5.91071" width="10" height="10" rx="5" transform="rotate(-24.6608 106.083 5.91071)" fill="#C4C4C4"/>
<rect x="16.6899" y="2.93854" width="10" height="10" rx="5" transform="rotate(-24.6608 16.6899 2.93854)" fill="#C4C4C4"/>
<rect x="50.0693" y="75.6421" width="10" height="10" rx="5" transform="rotate(-24.6608 50.0693 75.6421)" fill="#C4C4C4"/>
<rect x="122.773" y="42.2625" width="10" height="10" rx="5" transform="rotate(-24.6608 122.773 42.2625)" fill="#C4C4C4"/>
<rect x="69.7314" y="22.6005" width="10" height="10" rx="5" transform="rotate(-24.6608 69.7314 22.6005)" fill="#C4C4C4"/>
<rect x="86.4214" y="58.9523" width="10" height="10" rx="5" transform="rotate(-24.6608 86.4214 58.9523)" fill="#C4C4C4"/>
<rect x="159.125" y="25.5726" width="10" height="10" rx="5" transform="rotate(-24.6608 159.125 25.5726)" fill="#C4C4C4"/>
<rect x="41.7246" y="57.4662" width="10" height="10" rx="5" transform="rotate(-24.6608 41.7246 57.4662)" fill="#C4C4C4"/>
<rect x="114.428" y="24.0865" width="10" height="10" rx="5" transform="rotate(-24.6608 114.428 24.0865)" fill="#C4C4C4"/>
<rect x="25.0347" y="21.1144" width="10" height="10" rx="5" transform="rotate(-24.6608 25.0347 21.1144)" fill="#C4C4C4"/>
<rect x="58.4146" y="93.8179" width="10" height="10" rx="5" transform="rotate(-24.6608 58.4146 93.8179)" fill="#C4C4C4"/>
<rect x="131.118" y="60.4383" width="10" height="10" rx="5" transform="rotate(-24.6608 131.118 60.4383)" fill="#C4C4C4"/>
<rect x="78.0762" y="40.7764" width="10" height="10" rx="5" transform="rotate(-24.6608 78.0762 40.7764)" fill="#C4C4C4"/>
<rect x="150.78" y="7.39673" width="10" height="10" rx="5" transform="rotate(-24.6608 150.78 7.39673)" fill="#C4C4C4"/>
<rect x="61.3862" y="4.42462" width="10" height="10" rx="5" transform="rotate(-24.6608 61.3862 4.42462)" fill="#C4C4C4"/>
<rect x="94.7661" y="77.1281" width="10" height="10" rx="5" transform="rotate(-24.6608 94.7661 77.1281)" fill="#C4C4C4"/>
<rect x="167.47" y="43.7485" width="10" height="10" rx="5" transform="rotate(-24.6608 167.47 43.7485)" fill="#C4C4C4"/>
<rect x="51.5557" y="30.9454" width="10" height="10" rx="5" transform="rotate(-24.6608 51.5557 30.9454)" fill="#C4C4C4"/>
<rect x="124.259" y="-2.4342" width="10" height="10" rx="5" transform="rotate(-24.6608 124.259 -2.4342)" fill="#C4C4C4"/>
<rect x="34.8657" y="-5.40637" width="10" height="10" rx="5" transform="rotate(-24.6608 34.8657 -5.40637)" fill="#C4C4C4"/>
<rect x="68.2451" y="67.2972" width="10" height="10" rx="5" transform="rotate(-24.6608 68.2451 67.2972)" fill="#C4C4C4"/>
<rect x="140.949" y="33.9175" width="10" height="10" rx="5" transform="rotate(-24.6608 140.949 33.9175)" fill="#C4C4C4"/>
<rect x="87.9072" y="14.2556" width="10" height="10" rx="5" transform="rotate(-24.6608 87.9072 14.2556)" fill="#C4C4C4"/>
<rect x="104.597" y="50.6074" width="10" height="10" rx="5" transform="rotate(-24.6608 104.597 50.6074)" fill="#C4C4C4"/>
<rect x="177.301" y="17.2277" width="10" height="10" rx="5" transform="rotate(-24.6608 177.301 17.2277)" fill="#C4C4C4"/>
<rect x="59.9004" y="49.1213" width="10" height="10" rx="5" transform="rotate(-24.6608 59.9004 49.1213)" fill="#C4C4C4"/>
<rect x="132.604" y="15.7416" width="10" height="10" rx="5" transform="rotate(-24.6608 132.604 15.7416)" fill="#C4C4C4"/>
<rect x="43.2104" y="12.7695" width="10" height="10" rx="5" transform="rotate(-24.6608 43.2104 12.7695)" fill="#C4C4C4"/>
<rect x="76.5903" y="85.473" width="10" height="10" rx="5" transform="rotate(-24.6608 76.5903 85.473)" fill="#C4C4C4"/>
<rect x="149.294" y="52.0934" width="10" height="10" rx="5" transform="rotate(-24.6608 149.294 52.0934)" fill="#C4C4C4"/>
<rect x="96.252" y="32.4315" width="10" height="10" rx="5" transform="rotate(-24.6608 96.252 32.4315)" fill="#C4C4C4"/>
<rect x="168.956" y="-0.948181" width="10" height="10" rx="5" transform="rotate(-24.6608 168.956 -0.948181)" fill="#C4C4C4"/>
<rect x="79.5625" y="-3.92029" width="10" height="10" rx="5" transform="rotate(-24.6608 79.5625 -3.92029)" fill="#C4C4C4"/>
<rect x="112.942" y="68.7832" width="10" height="10" rx="5" transform="rotate(-24.6608 112.942 68.7832)" fill="#C4C4C4"/>
<rect x="185.646" y="35.4036" width="10" height="10" rx="5" transform="rotate(-24.6608 185.646 35.4036)" fill="#C4C4C4"/>
</g>
</svg>
