<svg width="60" height="196" viewBox="0 0 60 196" fill="none" xmlns="http://www.w3.org/2000/svg">
<g opacity="0.4">
<rect x="56.3994" y="0.432556" width="10" height="10" rx="5" transform="rotate(21.9077 56.3994 0.432556)" fill="#C4C4C4"/>
<rect x="26.5503" y="74.6554" width="10" height="10" rx="5" transform="rotate(21.9077 26.5503 74.6554)" fill="#C4C4C4"/>
<rect x="41.4749" y="37.544" width="10" height="10" rx="5" transform="rotate(21.9077 41.4749 37.544)" fill="#C4C4C4"/>
<rect x="11.6257" y="111.767" width="10" height="10" rx="5" transform="rotate(21.9077 11.6257 111.767)" fill="#C4C4C4"/>
<rect x="63.6619" y="89.5799" width="10" height="10" rx="5" transform="rotate(21.9077 63.6619 89.5799)" fill="#C4C4C4"/>
<rect x="48.7373" y="126.691" width="10" height="10" rx="5" transform="rotate(21.9077 48.7373 126.691)" fill="#C4C4C4"/>
<rect x="48.9373" y="18.9883" width="10" height="10" rx="5" transform="rotate(21.9077 48.9373 18.9883)" fill="#C4C4C4"/>
<rect x="19.0881" y="93.2111" width="10" height="10" rx="5" transform="rotate(21.9077 19.0881 93.2111)" fill="#C4C4C4"/>
<rect x="34.0127" y="56.0997" width="10" height="10" rx="5" transform="rotate(21.9077 34.0127 56.0997)" fill="#C4C4C4"/>
<rect x="4.16357" y="130.323" width="10" height="10" rx="5" transform="rotate(21.9077 4.16357 130.323)" fill="#C4C4C4"/>
<rect x="56.1995" y="108.136" width="10" height="10" rx="5" transform="rotate(21.9077 56.1995 108.136)" fill="#C4C4C4"/>
<rect x="41.2749" y="145.247" width="10" height="10" rx="5" transform="rotate(21.9077 41.2749 145.247)" fill="#C4C4C4"/>
<rect x="45.1062" y="82.1177" width="10" height="10" rx="5" transform="rotate(21.9077 45.1062 82.1177)" fill="#C4C4C4"/>
<rect x="60.0305" y="45.0063" width="10" height="10" rx="5" transform="rotate(21.9077 60.0305 45.0063)" fill="#C4C4C4"/>
<rect x="30.1816" y="119.229" width="10" height="10" rx="5" transform="rotate(21.9077 30.1816 119.229)" fill="#C4C4C4"/>
<rect x="37.6438" y="100.673" width="10" height="10" rx="5" transform="rotate(21.9077 37.6438 100.673)" fill="#C4C4C4"/>
<rect x="52.5684" y="63.562" width="10" height="10" rx="5" transform="rotate(21.9077 52.5684 63.562)" fill="#C4C4C4"/>
<rect x="22.7192" y="137.785" width="10" height="10" rx="5" transform="rotate(21.9077 22.7192 137.785)" fill="#C4C4C4"/>
<rect x="59.8308" y="152.709" width="10" height="10" rx="5" transform="rotate(21.9077 59.8308 152.709)" fill="#C4C4C4"/>
</g>
</svg>
