<svg width="196" height="93" viewBox="0 0 196 93" fill="none" xmlns="http://www.w3.org/2000/svg">
<g opacity="0.4">
<rect x="55.9668" width="10" height="10" rx="5" transform="rotate(21.9077 55.9668 0)" fill="#C4C4C4"/>
<rect x="26.1177" y="74.2229" width="10" height="10" rx="5" transform="rotate(21.9077 26.1177 74.2229)" fill="#C4C4C4"/>
<rect x="130.189" y="29.8491" width="10" height="10" rx="5" transform="rotate(21.9077 130.189 29.8491)" fill="#C4C4C4"/>
<rect x="41.0425" y="37.1115" width="10" height="10" rx="5" transform="rotate(21.9077 41.0425 37.1115)" fill="#C4C4C4"/>
<rect x="115.265" y="66.9605" width="10" height="10" rx="5" transform="rotate(21.9077 115.265 66.9605)" fill="#C4C4C4"/>
<rect x="93.0781" y="14.9245" width="10" height="10" rx="5" transform="rotate(21.9077 93.0781 14.9245)" fill="#C4C4C4"/>
<rect x="63.229" y="89.1474" width="10" height="10" rx="5" transform="rotate(21.9077 63.229 89.1474)" fill="#C4C4C4"/>
<rect x="167.301" y="44.7736" width="10" height="10" rx="5" transform="rotate(21.9077 167.301 44.7736)" fill="#C4C4C4"/>
<rect x="78.1538" y="52.0359" width="10" height="10" rx="5" transform="rotate(21.9077 78.1538 52.0359)" fill="#C4C4C4"/>
<rect x="152.376" y="81.885" width="10" height="10" rx="5" transform="rotate(21.9077 152.376 81.885)" fill="#C4C4C4"/>
<rect x="48.5044" y="18.5557" width="10" height="10" rx="5" transform="rotate(21.9077 48.5044 18.5557)" fill="#C4C4C4"/>
<rect x="18.6553" y="92.7786" width="10" height="10" rx="5" transform="rotate(21.9077 18.6553 92.7786)" fill="#C4C4C4"/>
<rect x="122.728" y="48.4048" width="10" height="10" rx="5" transform="rotate(21.9077 122.728 48.4048)" fill="#C4C4C4"/>
<rect x="33.5801" y="55.6671" width="10" height="10" rx="5" transform="rotate(21.9077 33.5801 55.6671)" fill="#C4C4C4"/>
<rect x="107.803" y="85.5162" width="10" height="10" rx="5" transform="rotate(21.9077 107.803 85.5162)" fill="#C4C4C4"/>
<rect x="85.6162" y="33.4803" width="10" height="10" rx="5" transform="rotate(21.9077 85.6162 33.4803)" fill="#C4C4C4"/>
<rect x="159.839" y="63.3293" width="10" height="10" rx="5" transform="rotate(21.9077 159.839 63.3293)" fill="#C4C4C4"/>
<rect x="70.6914" y="70.5917" width="10" height="10" rx="5" transform="rotate(21.9077 70.6914 70.5917)" fill="#C4C4C4"/>
<rect x="74.5225" y="7.46225" width="10" height="10" rx="5" transform="rotate(21.9077 74.5225 7.46225)" fill="#C4C4C4"/>
<rect x="44.6733" y="81.6851" width="10" height="10" rx="5" transform="rotate(21.9077 44.6733 81.6851)" fill="#C4C4C4"/>
<rect x="148.746" y="37.3113" width="10" height="10" rx="5" transform="rotate(21.9077 148.746 37.3113)" fill="#C4C4C4"/>
<rect x="59.5981" y="44.5737" width="10" height="10" rx="5" transform="rotate(21.9077 59.5981 44.5737)" fill="#C4C4C4"/>
<rect x="133.821" y="74.4227" width="10" height="10" rx="5" transform="rotate(21.9077 133.821 74.4227)" fill="#C4C4C4"/>
<rect x="111.634" y="22.3868" width="10" height="10" rx="5" transform="rotate(21.9077 111.634 22.3868)" fill="#C4C4C4"/>
<rect x="185.857" y="52.2358" width="10" height="10" rx="5" transform="rotate(21.9077 185.857 52.2358)" fill="#C4C4C4"/>
<rect x="96.7095" y="59.4982" width="10" height="10" rx="5" transform="rotate(21.9077 96.7095 59.4982)" fill="#C4C4C4"/>
<rect x="170.932" y="89.3473" width="10" height="10" rx="5" transform="rotate(21.9077 170.932 89.3473)" fill="#C4C4C4"/>
<rect x="67.0601" y="26.018" width="10" height="10" rx="5" transform="rotate(21.9077 67.0601 26.018)" fill="#C4C4C4"/>
<rect x="141.283" y="55.867" width="10" height="10" rx="5" transform="rotate(21.9077 141.283 55.867)" fill="#C4C4C4"/>
<rect x="52.1357" y="63.1294" width="10" height="10" rx="5" transform="rotate(21.9077 52.1357 63.1294)" fill="#C4C4C4"/>
<rect x="126.358" y="92.9785" width="10" height="10" rx="5" transform="rotate(21.9077 126.358 92.9785)" fill="#C4C4C4"/>
<rect x="104.172" y="40.9425" width="10" height="10" rx="5" transform="rotate(21.9077 104.172 40.9425)" fill="#C4C4C4"/>
<rect x="178.395" y="70.7915" width="10" height="10" rx="5" transform="rotate(21.9077 178.395 70.7915)" fill="#C4C4C4"/>
<rect x="89.2471" y="78.0539" width="10" height="10" rx="5" transform="rotate(21.9077 89.2471 78.0539)" fill="#C4C4C4"/>
</g>
</svg>
