
<svg width="48" height="48" viewBox="0 0 48 48" fill="none" xmlns="http://www.w3.org/2000/svg">
<path d="M43 3H5C3.89543 3 3 3.89543 3 5V43C3 44.1046 3.89543 45 5 45H43C44.1046 45 45 44.1046 45 43V5C45 3.89543 44.1046 3 43 3Z" stroke="#586ED1" stroke-width="3"/>
<path d="M16 19H14C13.4477 19 13 19.4477 13 20V36C13 36.5523 13.4477 37 14 37H16C16.5523 37 17 36.5523 17 36V20C17 19.4477 16.5523 19 16 19Z" stroke="#586ED1" stroke-width="3"/>
<path d="M25 12H23C22.4477 12 22 12.4477 22 13V36C22 36.5523 22.4477 37 23 37H25C25.5523 37 26 36.5523 26 36V13C26 12.4477 25.5523 12 25 12Z" stroke="#586ED1" stroke-width="3"/>
<path d="M34 23H32C31.4477 23 31 23.4477 31 24V36C31 36.5523 31.4477 37 32 37H34C34.5523 37 35 36.5523 35 36V24C35 23.4477 34.5523 23 34 23Z" stroke="#586ED1" stroke-width="3"/>
</svg>
