<svg width="67" height="81" viewBox="0 0 67 81" fill="none" xmlns="http://www.w3.org/2000/svg">
<path d="M49.1376 23.125H56.9563C59.03 23.125 61.0187 23.9386 62.485 25.3868C63.9513 26.835 64.7751 28.7992 64.7751 30.8472V71.0028C64.7751 73.0508 63.9513 75.015 62.485 76.4632C61.0187 77.9114 59.03 78.725 56.9563 78.725H10.0438C7.97019 78.725 5.98146 77.9114 4.51516 76.4632C3.04886 75.015 2.2251 73.0508 2.2251 71.0028V30.8472C2.2251 28.7992 3.04886 26.835 4.51516 25.3868C5.98146 23.9386 7.97019 23.125 10.0438 23.125H17.8626" stroke="#00CFE8" stroke-width="3" stroke-linecap="round" stroke-linejoin="round"/>
<path d="M33.5001 2.27539V54.9491M19.6001 43.2438L33.5001 57.8754L47.4001 43.2438H19.6001Z" stroke="#00CFE8" stroke-width="3" stroke-linecap="round" stroke-linejoin="round"/>
</svg>
