<svg width="16" height="15" viewBox="0 0 16 15" fill="none" xmlns="http://www.w3.org/2000/svg">
<path fill-rule="evenodd" clip-rule="evenodd" d="M11.729 0.656831C12.5101 -0.124217 13.7764 -0.124217 14.5575 0.656831C15.3385 1.43788 15.3385 2.70421 14.5575 3.48526L10.8289 7.21379L14.5581 10.9429C15.3391 11.724 15.3391 12.9903 14.5581 13.7713C13.777 14.5524 12.5107 14.5524 11.7296 13.7713L8.00051 10.0422L4.27139 13.7713C3.49034 14.5524 2.22401 14.5524 1.44296 13.7713C0.661916 12.9903 0.661916 11.724 1.44296 10.9429L5.17208 7.21379L1.44355 3.48526C0.662502 2.70421 0.662502 1.43788 1.44355 0.656831C2.2246 -0.124217 3.49093 -0.124217 4.27198 0.656831L8.00051 4.38536L11.729 0.656831Z" fill="white"/>
</svg>
