<svg width="367" height="327" viewBox="0 0 367 327" fill="none" xmlns="http://www.w3.org/2000/svg">
<path d="M116.883 62.3667L113.37 63.4457L110.986 57.9757L105.667 58.9292L103.233 55.1152L101.301 56.3447L104.563 61.4383L109.606 60.535L112.065 66.2308L117.359 64.5999L116.883 62.3667Z" fill="#50BFA5"/>
<path d="M342.43 259.011L338.917 260.09L336.558 254.62L331.214 255.574L328.78 251.76L326.848 252.989L330.11 258.083L335.153 257.18L337.612 262.875L342.906 261.244L342.43 259.011Z" fill="#50BFA5"/>
<path d="M95.2022 323.746C95.2022 323.746 76.4336 260.139 74.9281 246.112C73.4226 232.086 83.9109 236.427 83.9109 236.427C83.9109 236.427 75.0787 209.679 81.477 203.331C87.8503 196.983 93.6214 208.826 93.6214 208.826C93.6214 208.826 95.5535 176.357 102.353 176.357C115.025 176.332 114.774 211.762 114.774 211.762C114.774 211.762 118.011 197.886 124.81 201.7C135.048 207.421 120.369 235.223 120.369 235.223C120.369 235.223 133.417 235.223 138.009 241.822C146.214 253.59 95.2022 323.746 95.2022 323.746Z" fill="#50BFA5"/>
<path d="M101.349 315.313C101.349 315.313 47.2518 306.255 35.4838 296.67C23.7158 287.085 35.3584 282.769 35.3584 282.769C35.3584 282.769 8.1841 268.844 8.4852 259.359C8.81139 249.874 22.3107 254.692 22.3107 254.692C22.3107 254.692 -0.597987 228.597 4.82182 223.628C14.9087 214.395 41.4055 241.544 41.4055 241.544C41.4055 241.544 33.5518 228.622 41.832 226.589C54.3277 223.503 63.5363 255.344 63.5363 255.344C63.5363 255.344 61.2028 242.773 69.8093 244.455C85.2155 247.44 101.349 315.313 101.349 315.313Z" fill="#50BFA5"/>
<path d="M69.7833 244.455C61.1518 242.899 63.5104 255.344 63.5104 255.344C63.5104 255.344 54.3018 223.503 41.8061 226.589C33.5259 228.622 41.3796 241.544 41.3796 241.544C41.3796 241.544 14.9078 214.395 4.7959 223.628L101.148 315.338C99.4417 306.581 84.2361 247.064 69.7833 244.455Z" fill="#3C8F7C"/>
<path d="M116.731 322.795C116.731 322.795 88.2264 293.814 73.899 290.803C59.5466 287.792 62.131 298.004 62.131 298.004C62.131 298.004 33.652 273.113 27.0529 279.135C20.4538 285.157 27.5798 291.003 27.5798 291.003C27.5798 291.003 3.86817 286.813 0.480791 294.591C-4.73828 306.56 34.2542 313.059 34.2542 313.059C34.2542 313.059 17.9195 314.188 21.7084 321.691C27.4293 332.957 116.731 322.795 116.731 322.795Z" fill="#355389"/>
<path d="M0.481445 294.54C3.86882 286.762 27.5805 290.952 27.5805 290.952C27.5805 290.952 20.4544 285.131 27.0535 279.084C33.6526 273.062 61.2284 294.565 61.2284 294.565C61.2284 294.565 54.7297 282.145 69.0821 285.156C83.4345 288.167 116.731 322.768 116.731 322.768L0.481445 294.54Z" fill="#466EB6"/>
<path d="M162.096 23.9244C152.511 25.5052 149.65 38.1012 157.63 43.7217C159.06 44.7254 160.063 46.256 160.465 47.9622L161.92 53.8086C162.322 55.4145 163.902 56.4683 165.533 56.1923L169.172 55.5901C170.803 55.3141 171.982 53.8337 171.831 52.1776C171.33 46.1305 170.702 43.9476 172.659 41.2377C178.405 33.3589 171.681 22.3436 162.096 23.9244Z" fill="#F7CC7F"/>
<path d="M163.074 49.5199C162.447 44.351 161.569 38.881 161.267 37.3254C155.772 37.6265 157.855 31.8303 160.389 34.1889C161.117 34.8664 161.443 35.7697 161.669 36.7733C163.501 36.5977 165.282 36.0959 166.913 35.2427C166.838 33.9631 166.687 33.0096 167.064 32.1816C167.591 30.9521 169.171 30.6008 169.799 31.8052C170.05 32.2568 170.075 32.8339 169.899 33.3107C169.523 34.3394 168.419 35.0169 167.465 35.5439C167.766 39.6589 168.143 43.799 168.67 47.889L168.143 47.9642C167.641 43.9496 167.239 39.8596 166.963 35.8199C165.357 36.6228 163.601 37.1246 161.794 37.3003C162.171 39.2825 162.999 44.6019 163.576 49.4697L163.074 49.5199ZM158.658 36.0959C159.135 36.6228 159.963 36.8486 161.167 36.7984C160.966 35.9202 160.665 35.1173 160.038 34.5653C158.683 33.3107 157.855 35.2177 158.658 36.0959ZM167.54 32.3823C167.239 33.0598 167.365 33.938 167.415 34.9667C168.193 34.5151 169.121 33.9631 169.397 33.135C169.598 32.5579 169.372 31.755 168.795 31.6045C168.745 31.6045 167.766 31.9056 167.54 32.3823Z" fill="#FAE0B2"/>
<path d="M160.439 47.8144C160.465 47.8646 160.465 47.9148 160.49 47.965L161.945 53.8113C162.346 55.4172 163.927 56.471 165.558 56.195L169.196 55.5928C170.827 55.3168 172.007 53.8364 171.856 52.1804C171.63 49.4956 171.379 47.5635 171.354 46.0078L160.439 47.8144Z" fill="#96D9C9"/>
<path d="M154.996 19.5598L152.11 14.3156C151.834 13.8138 152.01 13.1614 152.537 12.8854C153.038 12.6094 153.691 12.785 153.967 13.3119L156.827 18.5561C157.103 19.0579 156.928 19.7103 156.401 19.9863C155.899 20.2623 155.272 20.0616 154.996 19.5598Z" fill="#FAE0B2"/>
<path d="M148.723 32.2304L142.475 31.6784C141.898 31.6282 141.471 31.1264 141.522 30.5493C141.572 29.9722 142.074 29.5456 142.651 29.5958L148.899 30.1478C149.476 30.198 149.902 30.6998 149.852 31.2769C149.802 31.8541 149.3 32.2806 148.723 32.2304Z" fill="#FAE0B2"/>
<path d="M142.524 51.4011C142.122 50.9997 142.122 50.3222 142.524 49.9207C144.054 48.3901 145.761 47.0352 147.542 45.8308C148.019 45.5046 148.671 45.6301 148.997 46.1319C149.324 46.6086 149.198 47.261 148.696 47.5872C147.015 48.7163 145.434 49.996 143.979 51.4262C143.578 51.8026 142.925 51.8026 142.524 51.4011Z" fill="#FAE0B2"/>
<path d="M170.427 19.2843C169.875 19.1338 169.549 18.5567 169.674 18.0047C170.377 15.345 170.828 12.61 170.954 9.87497C170.979 9.29786 171.481 8.84621 172.058 8.89639C172.635 8.92148 173.087 9.42331 173.037 10.0004C172.886 12.886 172.434 15.7715 171.682 18.5567C171.556 19.1087 170.979 19.4349 170.427 19.2843Z" fill="#FAE0B2"/>
<path d="M176.876 27.3155C176.7 26.7635 177.026 26.1864 177.578 26.0107L184.077 24.0536C184.629 23.8779 185.206 24.2041 185.382 24.7561C185.558 25.3081 185.231 25.8853 184.679 26.0609L178.181 28.018C177.629 28.1686 177.026 27.8675 176.876 27.3155Z" fill="#FAE0B2"/>
<path d="M187.54 44.6022C187.439 44.6022 187.339 44.5771 187.264 44.552C185.005 43.9248 182.822 43.0465 180.765 41.9425C180.263 41.6665 180.062 41.0392 180.338 40.5374C180.614 40.0355 181.242 39.8348 181.743 40.1108C183.676 41.1396 185.733 41.9676 187.841 42.5447C188.393 42.6953 188.719 43.2724 188.568 43.8244C188.418 44.3011 187.991 44.6022 187.54 44.6022Z" fill="#FAE0B2"/>
<path d="M282.737 90.8464L279.45 83.0931L271.195 81.3868C270.267 81.1861 269.941 80.0068 270.668 79.3795L277.042 73.8593L276.113 65.5038C276.013 64.5503 277.042 63.8979 277.87 64.3747L285.071 68.7155L292.749 65.2278C293.627 64.8263 294.581 65.6042 294.355 66.5326L292.448 74.7375L298.119 80.9603C298.771 81.6628 298.319 82.8171 297.366 82.8923L288.985 83.62L284.82 90.9468C284.343 91.7999 283.114 91.7246 282.737 90.8464Z" fill="#F7CC7F"/>
<path d="M334.928 64.25L333.598 69.6698L324.616 68.4654L321.68 76.1685L314.805 76.3693L314.905 79.8319L324.089 79.581L326.874 72.2793L336.208 73.5339L338.24 65.354L334.928 64.25Z" fill="#F48C7F"/>
<path d="M254.985 324.451H97.2586C91.2366 324.451 86.3438 319.382 86.3438 313.135V306.41C86.3438 300.162 91.2366 295.094 97.2586 295.094H255.01C247.784 303.274 247.658 315.769 254.709 324.1L254.985 324.451Z" fill="#B75742"/>
<path d="M252.553 298.453H165.058C159.036 298.453 154.144 303.522 154.144 309.769C154.144 316.017 159.036 321.086 165.058 321.086H252.553C248.463 314.135 248.488 305.378 252.553 298.453Z" fill="#FAE0B2"/>
<path d="M199.584 274.692C199.81 274.265 199.459 273.764 198.932 273.764H115.452C108.903 273.764 103.608 278.531 103.608 284.428C103.608 290.324 108.903 295.092 115.452 295.092H198.957C199.484 295.092 199.835 294.59 199.609 294.163C196.297 287.991 196.297 280.84 199.584 274.692Z" fill="#86B1F2"/>
<path d="M199.055 275.773H157.679C150.001 275.773 143.778 279.763 143.778 284.706C143.778 289.649 150.001 293.639 157.679 293.639H199.306C196.471 287.943 196.396 281.469 199.055 275.773Z" fill="#F7CC7F"/>
<path d="M188.367 279.986H182.972C181.818 279.986 180.864 280.388 180.864 280.865V280.94H188.342V279.986H188.367Z" fill="#B75742"/>
<path d="M192.958 282.169C192.958 280.965 191.553 279.986 189.822 279.986H182.896C184.201 279.986 185.28 280.714 185.28 281.642L185.255 305.003L189.069 301.992L192.958 305.003V282.169Z" fill="#F47458"/>
<path d="M184.225 273.012H135.673C131.357 273.012 127.869 268.872 127.869 263.753C127.869 258.634 131.357 254.494 135.673 254.494H184.225C180.511 259.613 180.361 267.14 183.874 272.485L184.225 273.012Z" fill="#FAE0B2"/>
<path d="M127.871 263.751C127.871 258.633 131.434 254.493 135.85 254.493H185.156C185.381 254.493 185.582 254.267 185.557 254.016C185.557 253.765 185.381 253.539 185.156 253.539H106.945C102.077 253.539 98.1377 258.106 98.1377 263.751C98.1377 269.397 102.077 273.964 106.945 273.964H185.156C185.381 273.964 185.557 273.763 185.557 273.487C185.557 273.211 185.381 273.01 185.156 273.01H135.85C131.434 273.01 127.871 268.87 127.871 263.751Z" fill="#466EB6"/>
<path d="M175.744 259.033H170.349C169.195 259.033 168.241 259.41 168.241 259.886V259.962H175.719V259.033H175.744Z" fill="#184655"/>
<path d="M180.335 261.191C180.335 260.012 178.93 259.059 177.199 259.059H170.273C171.578 259.059 172.657 259.786 172.657 260.69L172.632 283.598L176.446 280.663L180.335 283.598V261.191Z" fill="#3C8F7C"/>
<path d="M261.611 117.565L268.788 115.684L263.92 180.495L255.313 180.771L259.654 119.924C259.73 118.795 260.533 117.841 261.611 117.565Z" fill="#184655"/>
<path d="M264.574 182.331C264.423 182.356 264.248 182.356 264.072 182.331C262.642 182.155 261.588 180.75 261.713 179.169L266.481 118.222C266.606 116.641 267.861 115.487 269.291 115.662C270.721 115.838 271.775 117.243 271.65 118.824L266.882 179.771C266.757 181.177 265.778 182.23 264.574 182.331Z" fill="#F7CC7F"/>
<path d="M198.583 185.568C198.583 185.618 198.583 185.668 198.583 185.693C198.809 188.177 200.741 190.034 202.874 189.833L263.42 184.413C265.553 184.213 267.133 182.055 266.908 179.571C266.908 179.47 266.883 179.37 266.857 179.27L198.583 185.568Z" fill="#F7CC7F"/>
<path d="M240.735 251.029C236.77 253.237 224.651 249.373 224.651 249.021C224.475 252.334 211.076 284.752 211.076 284.752V294.739C211.076 294.739 238.677 296.043 238.276 293.609C237.874 291.175 236.394 292.756 230.899 288.139C230.422 287.738 222.669 285.931 224.776 281.365C228.992 272.156 237.949 256.8 240.735 251.029Z" fill="#F7A491"/>
<path d="M210.199 295.089H240.409C241.488 294.989 241.764 294.086 241.363 293.559C240.56 292.455 234.789 289.82 230.874 288.089C224.1 288.892 212.181 286.282 211.077 284.727C208.217 288.566 209.572 294.964 210.199 295.089Z" fill="#3C8F7C"/>
<path d="M203.548 227.771C203.146 226.541 229.568 215.325 230.747 216.605C232.83 218.863 216.445 261.419 216.445 261.419L235.264 267.165C235.264 267.165 254.835 218.01 254.032 209.027C253.204 200.045 243.419 189.832 222.166 196.356C200.938 202.905 203.548 227.771 203.548 227.771Z" fill="#355389"/>
<path d="M258.276 256.627C253.809 255.824 248.038 255.573 243.396 255.498C243.948 259.613 246.583 280.74 246.106 282.045C244.149 287.314 239.783 289.773 239.783 289.773C239.783 289.773 260.308 308.291 261.538 306.158C262.767 304.025 260.634 304.301 259.279 297.251C259.154 296.623 256.193 286.787 256.018 281.468C255.691 271.331 258.125 262.248 258.276 256.627Z" fill="#F7A491"/>
<path d="M251.675 187.499C248.815 185.968 241.388 185.918 233.208 186.445C217.275 187.474 201.542 190.61 186.412 195.629L176.275 198.991L176.3 188.603C176.3 188.603 144.032 183.208 142.928 191.213C141.247 203.257 143.329 227.696 154.094 233.141C187.466 250.078 234.262 206.142 234.437 211.888C234.663 219.616 241.162 248.346 242.843 260.917C247.46 260.993 255.414 260.993 258.877 260.215C259.529 235.575 259.83 191.84 251.675 187.499Z" fill="#466EB6"/>
<path d="M239.179 290.199L262.239 308.616C263.142 309.219 263.92 308.692 263.945 308.039C264.045 306.684 261.21 300.989 259.303 297.175C253.557 293.486 245.979 283.876 246.105 281.994C243.696 284.052 238.778 289.722 239.179 290.199Z" fill="#3C8F7C"/>
<path d="M186.963 87.0055C186.185 79.9297 185.382 72.8036 179.511 67.6347C174.768 63.4444 168.721 62.7168 162.75 64.975C145.813 71.3232 154.545 86.3531 132.966 101.508C126.266 106.226 118.864 109.437 113.821 115.786C106.745 124.668 109.43 135.332 115.853 142.458C146.666 176.558 181.066 130.514 183.551 119.449C185.382 111.244 187.465 91.5722 186.963 87.0055Z" fill="#13375B"/>
<path d="M180.716 126.827C178.207 122.185 175.597 118.497 175.597 118.497C172.988 113.855 166.238 111.496 166.238 111.496C166.238 111.496 163.98 111.546 161.395 111.672C161.245 112.098 161.069 112.399 160.919 112.525C159.94 113.253 154.37 112.324 150.756 114.758C138.687 125.121 142.024 175.304 142.978 191.162L179.762 191.513C179.762 191.513 175.12 157.389 182.598 148.632C187.792 142.56 184.454 133.727 180.716 126.827Z" fill="#50BFA5"/>
<path d="M164.129 94.5335C164.129 94.5335 162.097 108.986 160.691 112.499C159.286 116.012 168.47 123.514 176.098 125.798C183.726 128.081 173.764 118.044 174.09 114.281C174.417 110.517 175.797 92.752 175.797 92.752L164.129 94.5335Z" fill="#F7A491"/>
<path d="M175.398 97.871C175.624 94.9352 175.774 92.7773 175.774 92.7773L164.107 94.5588C164.107 94.5588 163.806 96.2651 163.479 98.6488C168.222 101.384 172.487 100.506 175.398 97.871Z" fill="#F47458"/>
<path d="M167.77 68.1624C167.77 68.1624 163.178 69.1911 160.343 73.532C157.507 77.8728 155.55 90.5943 164.909 96.5661C174.244 102.513 181.52 94.1072 181.646 85.9022C181.771 77.6721 179.99 66.707 167.77 68.1624Z" fill="#F7A491"/>
<path d="M180.258 86.0557C181.415 86.5214 182.999 85.294 183.796 83.3142C184.593 81.3344 184.301 79.3519 183.144 78.8862C181.987 78.4205 180.403 79.6479 179.606 81.6277C178.809 83.6075 179.101 85.59 180.258 86.0557Z" fill="#F7A491"/>
<path d="M169.149 67.8862C169.149 67.8862 163.303 81.0343 158.134 82.1885C152.99 83.3678 153.065 89.9669 153.065 89.9669C153.065 89.9669 153.191 74.7112 158.009 71.1983C162.851 67.7106 169.149 67.8862 169.149 67.8862Z" fill="#13375B"/>
<path d="M158.811 89.6552C160.251 89.1981 160.867 87.093 160.188 84.9534C159.508 82.8137 157.791 81.4497 156.351 81.9068C154.911 82.3638 154.295 84.4689 154.974 86.6086C155.653 88.7482 157.371 90.1123 158.811 89.6552Z" fill="#F7A491"/>
<path d="M226.007 179.794C223.799 178.991 220.512 178.891 220.562 178.615C220.788 177.435 230.523 181.224 229.218 179.493C228.491 178.539 221.189 175.152 219.408 175.704C217.676 176.256 206.385 179.418 206.385 179.418L175.497 172.166C175.497 172.166 167.694 154.451 166.941 139.221C160.492 140.099 156.101 141.68 150.506 144.791C153.216 159.344 159.765 182.956 167.041 187.372C170.102 189.228 206.561 185.138 206.561 185.138C206.561 185.138 214.59 184.561 215.92 184.06C216.924 183.683 219.483 182.228 220.863 181.826C224.024 180.923 229.67 183.181 229.695 182.554C229.695 182.127 228.265 180.597 226.007 179.794Z" fill="#F7A491"/>
<path d="M167.141 122.96C166.84 118.268 165.059 113.752 160.091 112.296C157.004 111.393 153.542 112.246 151.058 114.279C148.122 116.687 147.294 120.526 147.319 124.165C147.344 132.445 147.921 141.001 149.427 149.156C155.022 146.045 161.571 144.188 168.02 143.31C167.994 143.234 167.518 129.158 167.141 122.96Z" fill="#96D9C9"/>
<path d="M71.4411 131.8L23.5411 122.892C22.5876 122.717 21.9353 121.788 22.136 120.835L28.1329 88.5919C28.3085 87.6384 29.2369 86.986 30.1904 87.1868L78.0904 96.0943C79.0439 96.27 79.6963 97.1984 79.4956 98.1518L73.4987 130.395C73.323 131.348 72.3946 131.975 71.4411 131.8Z" fill="#F7CC7F"/>
<path d="M48.6311 94.9631L34.0528 92.2532C33.0994 92.0776 32.447 91.1492 32.6477 90.1957L33.551 85.3028C33.7266 84.3494 34.655 83.697 35.6085 83.8977L50.1868 86.6076C51.1403 86.7833 51.7927 87.7116 51.5919 88.6651L50.6886 93.558C50.513 94.5115 49.5846 95.1388 48.6311 94.9631Z" fill="#F7CC7F"/>
<path d="M73.5981 130.568C73.3472 131.446 72.469 131.998 71.5657 131.823L23.3646 122.84C22.4613 122.664 21.834 121.861 21.9344 120.933L24.4686 92.0523C24.5188 91.5505 24.7697 91.0988 25.1712 90.7977C25.5727 90.4966 26.0745 90.3712 26.5763 90.4715L80.122 100.433C80.6238 100.533 81.0504 100.809 81.3013 101.236C81.5522 101.662 81.6275 102.164 81.502 102.641L73.5981 130.568Z" fill="#FAE0B2"/>
<path d="M293.251 25.0568L285.072 27.29L283.29 17.3537L285.975 16.877L287.229 23.8775L292.549 22.4222L293.251 25.0568Z" fill="#50BFA5"/>
<path d="M31.9932 161.532C34.0507 161.356 37.2122 162.259 38.6174 163.238C38.8181 163.439 40.4491 164.091 42.1553 166.876L41.7789 167.127C39.9974 165.27 38.793 164.844 37.3628 164.417C35.0042 163.815 32.6455 164.267 32.4448 164.367L31.9932 161.532Z" fill="#355389"/>
<path d="M41.9559 166.999C41.9559 166.999 29.4352 169.081 30.6145 178.867C31.7938 188.653 44.992 196.255 56.76 190.208C72.618 182.079 66.3451 161.403 55.0789 159.797C43.7876 158.191 41.9559 166.999 41.9559 166.999Z" fill="#F47458"/>
<path d="M47.2741 162.709C47.2741 162.709 50.5361 159.347 57.6872 162.408C64.8383 165.469 65.3652 179.671 58.9669 178.843C52.5936 178.015 42.1554 164.741 47.2741 162.709Z" fill="#F48C7F"/>
<path d="M133.343 32.8344L81.8799 51.2015C80.2239 51.8037 78.3922 50.9255 77.8151 49.2694L68.3053 22.6221C67.7031 20.966 68.5814 19.1343 70.2374 18.5572L121.7 0.190108C123.356 -0.412092 125.188 0.466116 125.765 2.12217L135.275 28.7444C135.877 30.4256 134.999 32.2322 133.343 32.8344Z" fill="#86B1F2"/>
<path d="M89.6345 39.6088C95.2607 39.6088 99.8217 35.0478 99.8217 29.4216C99.8217 23.7953 95.2607 19.2344 89.6345 19.2344C84.0082 19.2344 79.4473 23.7953 79.4473 29.4216C79.4473 35.0478 84.0082 39.6088 89.6345 39.6088Z" fill="white"/>
<path d="M88.2551 28.5943C89.9181 28.5943 91.2661 27.2462 91.2661 25.5833C91.2661 23.9203 89.9181 22.5723 88.2551 22.5723C86.5922 22.5723 85.2441 23.9203 85.2441 25.5833C85.2441 27.2462 86.5922 28.5943 88.2551 28.5943Z" fill="#86B1F2"/>
<path d="M95.9836 32.9587L86.9255 36.1956L86.5742 35.1919C85.9218 33.3351 86.8753 31.3027 88.7321 30.6503L91.0656 29.8223C92.9224 29.1699 94.9549 30.1234 95.6072 31.9802L95.9836 32.9587Z" fill="#86B1F2"/>
<path d="M100.5 20.4165C99.948 20.4165 99.4713 20.0652 99.2706 19.5634C99.0196 18.8859 99.3709 18.1332 100.048 17.9073L122.556 9.87801C122.706 9.82783 122.832 9.80273 122.982 9.80273C123.534 9.80273 124.011 10.154 124.212 10.6559C124.463 11.3333 124.111 12.0861 123.434 12.3119L100.927 20.3412C100.801 20.3914 100.651 20.4165 100.5 20.4165Z" fill="white"/>
<path d="M106.572 26.0351C106.02 26.0351 105.544 25.6838 105.343 25.182C105.092 24.5045 105.443 23.7518 106.121 23.5259L123.685 17.253C123.835 17.2028 123.961 17.1777 124.111 17.1777C124.663 17.1777 125.14 17.529 125.341 18.0309C125.466 18.357 125.441 18.7083 125.291 19.0345C125.14 19.3607 124.889 19.5865 124.563 19.712L106.999 25.9849C106.873 26.01 106.723 26.0351 106.572 26.0351Z" fill="white"/>
<path d="M213.307 233.693H89.0526C85.1885 233.693 82.0771 236.83 82.0771 240.669V246.54C82.0771 250.404 85.2136 253.516 89.0526 253.516H213.307L213.231 253.441C207.937 247.945 207.962 239.188 213.307 233.693Z" fill="#F47458"/>
<path d="M211.099 236.629H144.682C140.817 236.629 137.706 239.765 137.706 243.604C137.706 247.469 140.843 250.58 144.682 250.58H211.099C208.665 246.289 208.665 240.945 211.099 236.629Z" fill="#FAE0B2"/>
<path d="M315.004 234.271L305.595 210.634C305.118 209.455 305.695 208.1 306.9 207.623L340.798 194.124C341.978 193.647 343.333 194.224 343.809 195.429L353.219 219.065C353.696 220.245 353.118 221.599 351.914 222.076L318.015 235.576C316.836 236.027 315.481 235.45 315.004 234.271Z" fill="#FAE0B2"/>
<path d="M346.996 220.595L338.54 199.368C338.414 199.016 338.565 198.64 338.916 198.514C339.267 198.389 339.644 198.539 339.769 198.891L348.225 220.118C348.351 220.47 348.2 220.846 347.849 220.971C347.498 221.097 347.121 220.946 346.996 220.595Z" fill="#466EB6"/>
<path d="M342.957 217.81L336.007 200.371C335.881 200.02 336.032 199.644 336.383 199.518C336.734 199.393 337.111 199.543 337.236 199.895L344.186 217.333C344.312 217.685 344.161 218.061 343.81 218.187C343.484 218.312 343.082 218.136 342.957 217.81Z" fill="#466EB6"/>
<path d="M341.953 222.603L333.497 201.375C333.371 201.024 333.522 200.648 333.873 200.522C334.224 200.397 334.601 200.547 334.726 200.899L343.182 222.126C343.308 222.477 343.157 222.854 342.806 222.979C342.48 223.105 342.078 222.954 341.953 222.603Z" fill="#466EB6"/>
<path d="M337.487 218.762L330.964 202.377C330.838 202.026 330.989 201.65 331.34 201.524C331.691 201.399 332.068 201.549 332.193 201.901L338.717 218.285C338.842 218.637 338.692 219.013 338.341 219.139C338.014 219.264 337.638 219.113 337.487 218.762Z" fill="#466EB6"/>
<path d="M346.746 197.108L346.57 196.681C346.495 196.531 346.344 196.456 346.194 196.506L342.982 197.785C342.831 197.836 342.756 198.011 342.831 198.187L343.007 198.613C343.082 198.764 343.233 198.839 343.383 198.789L346.595 197.509C346.746 197.434 346.821 197.258 346.746 197.108Z" fill="#355389"/>
<path d="M347.472 198.915L347.296 198.488C347.221 198.337 347.071 198.262 346.92 198.312L343.708 199.592C343.558 199.642 343.483 199.818 343.558 199.994L343.733 200.42C343.809 200.571 343.959 200.646 344.11 200.596L347.322 199.316C347.472 199.266 347.547 199.09 347.472 198.915Z" fill="#355389"/>
<path d="M348.226 200.747L348.05 200.32C348 200.169 347.825 200.094 347.674 200.144L344.462 201.424C344.312 201.474 344.236 201.65 344.312 201.826L344.487 202.252C344.563 202.403 344.713 202.478 344.864 202.428L348.076 201.148C348.201 201.098 348.276 200.922 348.226 200.747Z" fill="#355389"/>
<path d="M348.955 202.581L348.779 202.154C348.704 202.003 348.553 201.928 348.403 201.978L345.191 203.258C345.04 203.308 344.965 203.484 345.04 203.66L345.216 204.086C345.291 204.237 345.442 204.312 345.592 204.262L348.804 202.982C348.929 202.907 349.005 202.731 348.955 202.581Z" fill="#355389"/>
<path d="M349.681 204.409L349.506 203.982C349.43 203.832 349.28 203.756 349.129 203.806L345.917 205.086C345.767 205.136 345.692 205.312 345.767 205.488L345.942 205.914C346.018 206.065 346.168 206.14 346.319 206.09L349.531 204.81C349.656 204.735 349.731 204.559 349.681 204.409Z" fill="#355389"/>
<path d="M350.41 206.243L350.234 205.816C350.159 205.666 350.008 205.59 349.858 205.64L346.646 206.92C346.495 206.97 346.42 207.146 346.495 207.322L346.671 207.748C346.746 207.899 346.897 207.974 347.047 207.924L350.259 206.644C350.385 206.569 350.46 206.393 350.41 206.243Z" fill="#355389"/>
<path d="M351.137 208.075L350.962 207.648C350.886 207.498 350.736 207.422 350.585 207.473L347.373 208.752C347.223 208.802 347.148 208.978 347.223 209.154L347.399 209.58C347.474 209.731 347.624 209.806 347.775 209.756L350.987 208.476C351.137 208.401 351.187 208.225 351.137 208.075Z" fill="#355389"/>
<path d="M351.864 209.905L351.688 209.478C351.613 209.328 351.462 209.252 351.312 209.303L348.1 210.582C347.949 210.632 347.874 210.808 347.949 210.984L348.125 211.41C348.2 211.561 348.351 211.636 348.501 211.586L351.713 210.306C351.864 210.231 351.914 210.055 351.864 209.905Z" fill="#355389"/>
<path d="M352.593 211.737L352.418 211.31C352.342 211.16 352.192 211.084 352.041 211.135L348.83 212.414C348.679 212.464 348.604 212.64 348.679 212.816L348.855 213.242C348.93 213.393 349.08 213.468 349.231 213.418L352.443 212.138C352.593 212.063 352.643 211.887 352.593 211.737Z" fill="#355389"/>
<path d="M353.319 213.569L353.143 213.142C353.068 212.992 352.917 212.916 352.767 212.967L349.555 214.246C349.405 214.297 349.329 214.472 349.405 214.648L349.58 215.074C349.655 215.225 349.806 215.3 349.957 215.25L353.168 213.97C353.319 213.895 353.369 213.719 353.319 213.569Z" fill="#355389"/>
<path d="M354.048 215.375L353.873 214.949C353.823 214.798 353.647 214.723 353.496 214.773L350.285 216.053C350.134 216.103 350.059 216.279 350.134 216.454L350.31 216.881C350.385 217.032 350.535 217.107 350.686 217.057L353.898 215.777C354.048 215.727 354.099 215.551 354.048 215.375Z" fill="#355389"/>
<path d="M354.775 217.206L354.599 216.779C354.524 216.628 354.373 216.553 354.223 216.603L351.011 217.883C350.861 217.933 350.785 218.109 350.861 218.285L351.036 218.711C351.086 218.862 351.262 218.937 351.413 218.887L354.624 217.607C354.775 217.557 354.85 217.381 354.775 217.206Z" fill="#355389"/>
<path d="M363.658 215.327L350.209 234.472C350.184 234.522 350.159 234.572 350.134 234.623L348.754 238.838C348.603 239.34 349.155 239.741 349.582 239.415L353.17 236.705C353.22 236.68 353.245 236.63 353.295 236.58L366.795 217.385C366.97 217.134 366.895 216.808 366.644 216.632L364.386 215.177C364.135 215.051 363.834 215.101 363.658 215.327Z" fill="#B75742"/>
<path d="M353.297 236.604L353.272 236.654L349.809 239.263L348.855 238.636L350.16 234.646C351.164 235.199 352.368 235.776 353.297 236.604Z" fill="#F7CC7F"/>
<path d="M227.384 7.9707C229.316 9.52639 232.679 14.4945 236.994 17.9823C239.504 20.0147 241.436 19.5129 244.647 19.8892C259.878 21.7209 255.738 24.8323 257.57 25.1585C257.043 26.3629 252.3 36.4247 251.422 38.4822C250.594 40.3641 249.189 41.1921 247.131 40.9161C243.995 40.4895 240.808 40.1633 237.697 39.4859C229.743 37.7545 225.327 33.79 219.631 28.9724C218.125 27.6928 217.749 26.0869 218.527 24.2803C222.19 15.8244 226.983 8.74855 227.384 7.9707Z" fill="#466EB6"/>
<path d="M259.225 37.2764C259.15 40.5885 259.401 41.2659 257.996 40.7641C257.143 40.463 256.315 40.0616 255.487 39.6601C254.91 39.359 254.885 38.9826 255.361 38.5059C256.039 37.8284 256.741 37.176 257.419 36.4985C256.917 35.1938 257.494 33.6883 258.699 32.9606C258.949 32.8101 258.774 33.1112 260.882 28.2434C253.881 27.3903 248.913 26.7881 240.357 25.7342C238.073 25.4582 236.041 24.5549 234.259 23.0745C228.137 17.9558 222.04 12.8371 215.942 7.74347C215.114 7.0409 215.014 6.03724 215.666 5.2594C216.168 4.65719 216.846 4.6321 217.548 4.73247C219.505 4.98339 238.65 7.3671 240.582 7.59292C243.142 7.89402 245.375 8.8475 247.357 10.5036C253.354 15.5219 259.376 20.5402 265.398 25.5586C266.226 26.236 266.452 26.8884 266.151 27.6412C265.825 28.4943 265.147 28.8958 264.093 28.6448C263.341 28.4692 262.989 28.7201 262.738 29.4227C261.559 32.5842 260.731 33.2868 261.032 34.4661C261.233 35.3443 260.179 36.8749 259.225 37.2764Z" fill="#86B1F2"/>
<path d="M290.964 262.676L294.452 266.014C302.707 273.892 309.431 283.201 314.299 293.514L314.826 294.643C314.826 294.643 323.959 295.446 325.239 287.191C317.235 278.133 310.636 268.472 305.191 257.733L303.535 253.869L290.964 262.676Z" fill="#466EB6"/>
<path d="M303.537 253.869C303.988 254.521 301.529 257.005 298.067 259.414C294.604 261.823 291.392 263.303 290.966 262.651C290.514 261.998 292.973 259.489 296.461 257.08C299.923 254.646 303.085 253.216 303.537 253.869Z" fill="#86B1F2"/>
<path d="M303.561 253.895C303.561 253.895 296.585 259.766 293.725 260.368L294.603 261.573C295.657 260.995 296.836 260.268 298.065 259.415C301.503 257.006 303.937 254.572 303.561 253.895Z" fill="#355389"/>
<path d="M312.846 270.979C312.846 271.982 312.47 276.373 305.193 278.205C305.67 278.857 306.147 279.51 306.598 280.187C311.215 278.832 313.273 276.448 314.226 274.642C314.377 274.366 314.553 273.964 314.678 273.688C314.051 272.785 313.449 271.882 312.846 270.979Z" fill="#B75742"/>
<path d="M305.847 276.898L295.107 276.521L297.667 278.679L296.136 281.414L306.298 278.83L305.847 276.898Z" fill="#B75742"/>
<path d="M306.826 279.385L303.012 286.034L305.697 285.005L306.725 287.113L308.507 280.138L306.826 279.385Z" fill="#B75742"/>
<path d="M304.622 277.921C304.759 279.857 306.394 281.318 308.274 281.185C310.154 281.051 311.567 279.375 311.43 277.44C311.293 275.504 309.658 274.043 307.778 274.176C305.898 274.309 304.485 275.986 304.622 277.921Z" fill="#F47458"/>
<path d="M331.039 130.592L308.457 110.443C307.001 109.138 307.603 106.429 309.636 105.299L327.652 95.0872C328.806 94.4348 330.111 94.485 330.939 95.2377L353.521 115.386C354.977 116.691 354.374 119.401 352.342 120.53L334.326 130.742C333.172 131.395 331.867 131.345 331.039 130.592Z" fill="#9BC1F9"/>
<path d="M329.96 114.557L328.078 99.0753C328.003 98.4731 328.429 97.8458 329.031 97.6702C329.634 97.4694 330.186 97.8207 330.261 98.3978L331.992 112.65L349.105 116.79C349.657 116.915 349.933 117.518 349.682 118.145C349.431 118.747 348.804 119.124 348.227 118.998L329.96 114.557Z" fill="white"/>
<path d="M35.082 43.6484L37.4156 48.2653L42.6848 48.0897L44.918 53.4593L50.4883 51.5523L53.2986 57.499L58.6431 56.3699L62.2814 61.6392L60.2741 63.0192L57.5642 59.0798L51.9186 60.2591L49.2338 54.5382L43.563 56.4954L41.079 50.5737L35.9352 50.7494L33.7773 46.4587L30.415 47.2867L29.8379 44.9281L35.082 43.6484Z" fill="#F7CC7F"/>
<path d="M317.49 161.781L322.283 163.738L326.147 160.125L331.366 162.71L334.302 157.591L340.324 160.251L343.611 155.885L349.833 157.466L349.231 159.824L344.589 158.645L341.127 163.237L335.33 160.702L332.345 165.871L326.573 163.061L322.81 166.549L318.368 164.742L316.361 167.577L314.379 166.172L317.49 161.781Z" fill="#50BFA5"/>
</svg>
