<svg width="88" height="88" viewBox="0 0 88 88" fill="none" xmlns="http://www.w3.org/2000/svg">
<g clip-path="url(#clip0_2653_933)">
<path d="M78.6263 84.0534H9.85026C4.85857 84.0534 0.800781 79.992 0.800781 75.0039V13.4674C0.800781 8.47938 4.85857 4.41797 9.85026 4.41797H78.6263C83.618 4.41797 87.6758 8.47938 87.6758 13.4674V75.0039C87.6758 79.992 83.618 84.0534 78.6263 84.0534ZM9.85026 8.03776C6.85669 8.03776 4.42057 10.4739 4.42057 13.4674V75.0039C4.42057 77.9975 6.85669 80.4336 9.85026 80.4336H78.6263C81.6199 80.4336 84.056 77.9975 84.056 75.0039V13.4674C84.056 10.4739 81.6199 8.03776 78.6263 8.03776H9.85026Z" fill="#586ED1"/>
<path d="M85.8659 22.5182H2.61068C1.61161 22.5182 0.800781 21.7074 0.800781 20.7083C0.800781 19.7093 1.61161 18.8984 2.61068 18.8984H85.8659C86.865 18.8984 87.6758 19.7093 87.6758 20.7083C87.6758 21.7074 86.865 22.5182 85.8659 22.5182Z" fill="#586ED1"/>
<path d="M44.2386 67.7643C43.2395 67.7643 42.4287 66.9535 42.4287 65.9544V36.0911C42.4287 35.0921 43.2395 34.2812 44.2386 34.2812C45.2377 34.2812 46.0485 35.0921 46.0485 36.0911V65.9544C46.0485 66.9535 45.2377 67.7643 44.2386 67.7643Z" fill="#586ED1"/>
<path d="M44.238 69.5748C43.8398 69.5748 43.438 69.4409 43.105 69.1802C38.5657 65.5496 34.1894 64.9958 29.719 67.5115C28.5787 68.1522 27.2249 68.1414 26.0992 67.4862C24.9915 66.8346 24.3291 65.6763 24.3291 64.3876V37.022C24.3291 35.2085 25.1798 33.5543 26.6096 32.595C32.394 28.7255 38.4608 28.8485 44.238 32.9208C50.0115 28.8485 56.0783 28.7255 61.8663 32.595C63.2962 33.5506 64.1468 35.2049 64.1468 37.022V64.3876C64.1468 65.6763 63.4844 66.8346 62.3767 67.4826C61.2474 68.1414 59.8972 68.1522 58.7569 67.5079C54.2974 64.9958 49.9102 65.546 45.3709 69.1766C45.0379 69.4409 44.6361 69.5748 44.238 69.5748ZM35.2283 62.328C38.2472 62.328 41.2552 63.385 44.238 65.4989C49.6133 61.6873 55.0901 61.2963 60.5306 64.3514L60.527 37.022C60.527 36.4248 60.27 35.8854 59.8501 35.6031C54.9996 32.3597 50.2649 32.6819 45.3673 36.5985C44.7013 37.127 43.771 37.127 43.105 36.5985C38.2074 32.6819 33.4763 32.3633 28.6222 35.6031C28.2059 35.8818 27.9489 36.4248 27.9489 37.022V64.3876C30.3705 63.0121 32.803 62.328 35.2283 62.328Z" fill="#586ED1"/>
</g>
<defs>
<clipPath id="clip0_2653_933">
<rect width="86.875" height="86.875" fill="white" transform="translate(0.800781 0.798828)"/>
</clipPath>
</defs>
</svg>
