<svg width="585" height="447" viewBox="0 0 585 447" fill="none" xmlns="http://www.w3.org/2000/svg">
<path d="M442.461 59.7177C442.461 59.7177 385.291 -2.91848 294.766 0.106117C204.241 3.13072 127.064 63.7505 63.2211 111.235C-0.622073 158.72 -17.7757 232.475 19.3857 290.056C56.5471 347.637 115.619 323.398 190.893 360.772C266.168 398.161 280.467 419.375 364.318 410.273C448.169 401.185 512.012 308.232 502.484 209.215C492.97 110.241 442.461 59.7177 442.461 59.7177Z" fill="#E5E5E5"/>
<path opacity="0.7" d="M442.461 59.7177C442.461 59.7177 385.291 -2.91848 294.766 0.106117C204.241 3.13072 127.064 63.7505 63.2211 111.235C-0.622073 158.72 -17.7757 232.475 19.3857 290.056C56.5471 347.637 115.619 323.398 190.893 360.772C266.168 398.161 280.467 419.375 364.318 410.273C448.169 401.185 512.012 308.232 502.484 209.215C492.97 110.241 442.461 59.7177 442.461 59.7177Z" fill="white"/>
<path d="M302.207 446.54C457.895 446.54 584.105 439.655 584.105 431.162C584.105 422.668 457.895 415.783 302.207 415.783C146.519 415.783 20.3086 422.668 20.3086 431.162C20.3086 439.655 146.519 446.54 302.207 446.54Z" fill="#DBE0EB"/>
<path opacity="0.3" d="M302.207 446.54C457.895 446.54 584.105 439.655 584.105 431.162C584.105 422.668 457.895 415.783 302.207 415.783C146.519 415.783 20.3086 422.668 20.3086 431.162C20.3086 439.655 146.519 446.54 302.207 446.54Z" fill="white"/>
<path d="M468.806 199.36C468.72 199.374 469.8 194.064 469.899 193.737C471.12 189.96 475.721 183.371 480.166 183.371C483.375 183.371 485.547 186.296 485.235 189.363C484.908 192.487 482.097 195.157 479.569 196.691C476.573 198.508 468.806 199.36 468.806 199.36Z" fill="#9E9E9E"/>
<path d="M460.184 163.704C464.373 165.209 466.461 172.963 466.333 176.939C466.319 177.28 465.523 182.633 465.452 182.59C465.452 182.59 465.381 182.562 465.367 182.548C465.708 183.769 466.049 185.09 466.404 186.524C467.029 189.193 467.724 192.218 468.25 195.555C468.789 198.892 469.272 202.527 469.428 206.418C469.599 210.309 469.585 214.413 469.017 218.63C469.017 218.673 469.002 218.729 468.988 218.772C469.542 217.593 471.189 214.327 471.331 214.1C473.518 210.777 479.681 205.637 483.969 206.815C487.065 207.667 488.385 211.061 487.278 213.93C486.142 216.855 482.734 218.687 479.865 219.496C476.642 220.419 469.457 219.326 468.889 219.24C468.307 223.259 467.398 227.334 466.248 231.396C465.594 233.724 464.856 236.053 464.089 238.368C464.6 237.36 465.055 236.465 465.14 236.337C467.327 233.015 473.49 227.874 477.778 229.053C480.874 229.905 482.194 233.298 481.087 236.167C479.951 239.092 476.543 240.924 473.674 241.733C470.777 242.557 464.629 241.762 463.01 241.52C462.712 242.415 462.414 243.295 462.101 244.19C460.624 248.45 459.148 252.681 457.813 256.885C457.344 258.361 456.932 259.838 456.521 261.315C456.975 260.42 457.358 259.668 457.429 259.569C459.616 256.246 465.779 251.105 470.067 252.284C473.163 253.136 474.484 256.53 473.376 259.398C472.24 262.323 468.832 264.155 465.964 264.964C463.195 265.745 457.529 265.064 455.598 264.794C455.214 266.313 454.845 267.847 454.547 269.338C454.362 270.361 454.121 271.34 453.993 272.377C453.851 273.399 453.709 274.422 453.567 275.416C453.368 277.361 453.141 279.363 452.999 281.266C452.885 282.587 452.8 283.851 452.715 285.129C453.169 283.652 454.107 280.769 454.206 280.542C455.299 278.142 458.026 274.691 461.022 272.789C461.178 272.434 461.377 272.093 461.59 271.766C463.351 269.253 466.915 268.458 469.343 270.559C472.709 273.47 471.871 281.451 470.323 285.114C470.238 285.327 468.974 287.557 468.165 288.962C468.775 288.21 469.343 287.486 469.982 286.719C471.218 285.199 472.496 283.723 473.873 282.132C474.555 281.394 475.25 280.627 475.96 279.874C476.642 279.108 477.451 278.383 478.204 277.617C479.979 275.898 481.882 274.237 483.813 272.604C482.492 271.511 477.849 267.591 476.5 264.922C475.165 262.266 474.214 258.518 475.605 255.692C476.969 252.937 480.362 251.617 483.075 253.321C486.852 255.692 487.221 263.701 486.241 267.563C486.184 267.805 485.162 270.488 484.58 271.951C485.758 270.985 486.923 270.006 488.144 269.068C491.666 266.342 495.315 263.701 498.936 261.045C500.044 260.236 501.151 259.412 502.245 258.589C501.776 258.205 496.139 253.661 494.648 250.679C493.313 248.024 492.361 244.275 493.753 241.449C495.116 238.694 498.51 237.374 501.222 239.078C504.999 241.449 505.369 249.458 504.389 253.321C504.318 253.605 502.855 257.481 502.429 258.432C504.857 256.629 507.257 254.797 509.543 252.909C512.71 250.296 515.678 247.57 518.347 244.715C518.12 244.545 512.241 239.816 510.708 236.763C509.373 234.108 508.422 230.359 509.813 227.533C511.176 224.778 514.57 223.458 517.282 225.162C521.06 227.533 521.429 235.542 520.449 239.404C520.378 239.66 519.27 242.6 518.717 243.991C518.83 244.062 518.816 244.048 518.93 244.119C521.755 241.023 524.113 237.658 526.157 234.406C527.35 232.532 528.373 230.657 529.338 228.825C528.145 228.059 522.764 224.495 521.074 221.896C519.455 219.397 518.092 215.776 519.171 212.822C520.222 209.925 523.459 208.25 526.342 209.641C530.346 211.572 531.61 219.51 531.056 223.444C531.028 223.657 530.488 225.801 530.062 227.363C530.488 226.525 530.929 225.673 531.326 224.864C532.789 221.839 533.939 218.971 534.947 216.415C535.501 214.966 535.984 213.632 536.41 212.396C535.643 211.033 532.59 205.523 532.306 202.484C532.022 199.531 532.476 195.683 534.791 193.553C537.063 191.465 540.698 191.465 542.615 194.035C545.285 197.6 542.743 205.225 540.443 208.463C540.244 208.747 536.637 212.765 536.594 212.694C536.594 212.694 536.552 212.623 536.552 212.609C536.154 213.816 535.728 215.108 535.217 216.5C534.266 219.07 533.172 221.967 531.766 225.048C530.375 228.13 528.77 231.424 526.768 234.761C524.766 238.098 522.494 241.506 519.682 244.715C519.654 244.758 519.611 244.786 519.583 244.815C520.69 244.133 523.857 242.315 524.127 242.216C527.776 240.64 535.757 239.76 538.696 243.111C540.812 245.525 540.045 249.089 537.532 250.864C534.961 252.681 531.113 252.326 528.287 251.432C525.092 250.424 519.696 245.553 519.27 245.17C516.572 248.208 513.562 251.091 510.353 253.86C508.521 255.436 506.618 256.97 504.701 258.489C505.681 257.935 506.561 257.438 506.689 257.382C510.339 255.805 518.319 254.925 521.258 258.276C523.374 260.69 522.607 264.254 520.094 266.029C517.524 267.847 513.676 267.492 510.836 266.597C507.967 265.689 503.281 261.627 502.06 260.534C501.322 261.102 500.583 261.684 499.845 262.252C496.266 264.993 492.688 267.705 489.266 270.474C488.059 271.454 486.909 272.462 485.744 273.456C486.61 272.959 487.349 272.547 487.477 272.491C491.126 270.914 499.106 270.034 502.032 273.385C504.147 275.799 503.381 279.363 500.867 281.138C498.297 282.956 494.449 282.601 491.623 281.706C488.882 280.84 484.523 277.134 483.06 275.842C481.91 276.907 480.746 277.958 479.681 279.051C478.971 279.804 478.218 280.485 477.551 281.28C476.869 282.061 476.188 282.828 475.52 283.581C474.285 285.1 472.993 286.648 471.814 288.153C470.99 289.19 470.224 290.198 469.443 291.22C470.635 290.241 473.007 288.352 473.22 288.224C476.599 286.122 484.353 284.035 487.746 286.904C490.203 288.977 489.976 292.612 487.761 294.742C485.503 296.929 481.64 297.156 478.701 296.701C475.478 296.19 469.627 292.385 468.903 291.902C467.625 293.577 466.404 295.225 465.268 296.801C461.334 302.24 458.267 306.925 456.166 310.22C456.095 310.333 456.024 310.447 455.953 310.561L453.226 309.24C453.368 309.027 453.51 308.814 453.652 308.587C455.853 305.292 459.048 300.635 463.152 295.239C464.444 293.521 465.85 291.732 467.327 289.886C466.943 289.474 464.813 287.102 463.095 284.646C459.971 285.867 453.453 285.924 452.616 285.924C452.474 288.025 452.36 290.084 452.289 292.016C452.005 298.718 452.033 304.327 452.09 308.232C452.09 308.388 452.09 308.53 452.104 308.686L449.108 307.238C449.137 303.347 449.25 298.093 449.648 291.874C449.776 289.729 449.96 287.457 450.173 285.114C449.35 284.901 442.576 283.169 440.006 281.124C437.691 279.264 435.249 276.268 435.334 273.115C435.419 270.034 437.947 267.421 441.128 267.833C445.544 268.401 449.25 275.529 449.974 279.434C450.017 279.661 450.202 282.217 450.287 283.836C450.372 282.885 450.457 281.948 450.557 280.968C450.755 279.023 451.011 277.091 451.267 275.004C451.423 273.996 451.593 272.987 451.764 271.965C451.906 270.943 452.19 269.892 452.403 268.841C452.942 266.427 453.595 263.999 454.32 261.571C452.616 261.4 446.581 260.69 443.996 259.199C441.426 257.722 438.558 255.124 438.16 252C437.777 248.947 439.878 245.979 443.087 245.894C447.532 245.78 452.275 252.27 453.595 256.019C453.681 256.246 454.32 259.057 454.632 260.591C455.072 259.128 455.512 257.68 456.009 256.217C457.444 252 459.034 247.782 460.582 243.579C461.065 242.287 461.519 240.995 461.988 239.703C461.377 239.646 454.178 238.964 451.281 237.289C448.711 235.812 445.842 233.213 445.445 230.089C445.061 227.036 447.163 224.068 450.372 223.983C454.817 223.87 459.559 230.359 460.88 234.108C460.979 234.392 461.888 238.425 462.073 239.461C463.095 236.621 464.103 233.767 464.97 230.927C466.177 227.008 467.142 223.089 467.795 219.226C467.511 219.198 460 218.516 457.032 216.812C454.462 215.336 451.593 212.737 451.196 209.613C450.812 206.56 452.914 203.592 456.123 203.507C460.568 203.393 465.31 209.883 466.631 213.631C466.716 213.873 467.412 216.94 467.71 218.417C467.852 218.417 467.824 218.417 467.966 218.417C468.619 214.27 468.733 210.167 468.633 206.333C468.591 204.103 468.42 201.987 468.207 199.914C466.787 199.928 460.34 199.928 457.5 198.693C454.774 197.5 451.636 195.228 450.912 192.175C450.187 189.179 451.962 185.998 455.143 185.572C459.559 184.976 464.984 190.897 466.688 194.49C466.787 194.689 467.511 196.776 468.023 198.295C467.909 197.372 467.824 196.407 467.696 195.512C467.242 192.175 466.631 189.151 466.063 186.467C465.722 184.947 465.396 183.584 465.069 182.306C463.677 181.596 458.097 178.671 456.18 176.314C454.32 173.999 452.573 170.549 453.34 167.496C454.121 164.627 457.16 162.611 460.184 163.704Z" fill="#9E9E9E"/>
<path d="M540.668 232.333C537.189 232.191 530.231 228.627 530.231 228.627C530.16 228.584 533.98 224.764 534.25 224.537C537.36 222.052 544.829 219.098 548.535 221.555C551.205 223.33 551.404 226.965 549.458 229.337C547.456 231.779 543.636 232.446 540.668 232.333Z" fill="#9E9E9E"/>
<g opacity="0.5">
<path opacity="0.5" d="M468.806 199.36C468.72 199.374 469.8 194.064 469.899 193.737C471.12 189.96 475.721 183.371 480.166 183.371C483.375 183.371 485.547 186.296 485.235 189.363C484.908 192.487 482.097 195.157 479.569 196.691C476.573 198.508 468.806 199.36 468.806 199.36Z" fill="white"/>
<path opacity="0.5" d="M460.184 163.704C464.373 165.209 466.461 172.963 466.333 176.939C466.319 177.28 465.523 182.633 465.452 182.59C465.452 182.59 465.381 182.562 465.367 182.548C465.708 183.769 466.049 185.09 466.404 186.524C467.029 189.193 467.724 192.218 468.25 195.555C468.789 198.892 469.272 202.527 469.428 206.418C469.599 210.309 469.585 214.413 469.017 218.63C469.017 218.673 469.002 218.729 468.988 218.772C469.542 217.593 471.189 214.327 471.331 214.1C473.518 210.777 479.681 205.637 483.969 206.815C487.065 207.667 488.385 211.061 487.278 213.93C486.142 216.855 482.734 218.687 479.865 219.496C476.642 220.419 469.457 219.326 468.889 219.24C468.307 223.259 467.398 227.334 466.248 231.396C465.594 233.724 464.856 236.053 464.089 238.368C464.6 237.36 465.055 236.465 465.14 236.337C467.327 233.015 473.49 227.874 477.778 229.053C480.874 229.905 482.194 233.298 481.087 236.167C479.951 239.092 476.543 240.924 473.674 241.733C470.777 242.557 464.629 241.762 463.01 241.52C462.712 242.415 462.414 243.295 462.101 244.19C460.624 248.45 459.148 252.681 457.813 256.885C457.344 258.361 456.932 259.838 456.521 261.315C456.975 260.42 457.358 259.668 457.429 259.569C459.616 256.246 465.779 251.105 470.067 252.284C473.163 253.136 474.484 256.53 473.376 259.398C472.24 262.323 468.832 264.155 465.964 264.964C463.195 265.745 457.529 265.064 455.598 264.794C455.214 266.313 454.845 267.847 454.547 269.338C454.362 270.361 454.121 271.34 453.993 272.377C453.851 273.399 453.709 274.422 453.567 275.416C453.368 277.361 453.141 279.363 452.999 281.266C452.885 282.587 452.8 283.851 452.715 285.129C453.169 283.652 454.107 280.769 454.206 280.542C455.299 278.142 458.026 274.691 461.022 272.789C461.178 272.434 461.377 272.093 461.59 271.766C463.351 269.253 466.915 268.458 469.343 270.559C472.709 273.47 471.871 281.451 470.323 285.114C470.238 285.327 468.974 287.557 468.165 288.962C468.775 288.21 469.343 287.486 469.982 286.719C471.218 285.199 472.496 283.723 473.873 282.132C474.555 281.394 475.25 280.627 475.96 279.874C476.642 279.108 477.451 278.383 478.204 277.617C479.979 275.898 481.882 274.237 483.813 272.604C482.492 271.511 477.849 267.591 476.5 264.922C475.165 262.266 474.214 258.518 475.605 255.692C476.969 252.937 480.362 251.617 483.075 253.321C486.852 255.692 487.221 263.701 486.241 267.563C486.184 267.805 485.162 270.488 484.58 271.951C485.758 270.985 486.923 270.006 488.144 269.068C491.666 266.342 495.315 263.701 498.936 261.045C500.044 260.236 501.151 259.412 502.245 258.589C501.776 258.205 496.139 253.661 494.648 250.679C493.313 248.024 492.361 244.275 493.753 241.449C495.116 238.694 498.51 237.374 501.222 239.078C504.999 241.449 505.369 249.458 504.389 253.321C504.318 253.605 502.855 257.481 502.429 258.432C504.857 256.629 507.257 254.797 509.543 252.909C512.71 250.296 515.678 247.57 518.347 244.715C518.12 244.545 512.241 239.816 510.708 236.763C509.373 234.108 508.422 230.359 509.813 227.533C511.176 224.778 514.57 223.458 517.282 225.162C521.06 227.533 521.429 235.542 520.449 239.404C520.378 239.66 519.27 242.6 518.717 243.991C518.83 244.062 518.816 244.048 518.93 244.119C521.755 241.023 524.113 237.658 526.157 234.406C527.35 232.532 528.373 230.657 529.338 228.825C528.145 228.059 522.764 224.495 521.074 221.896C519.455 219.397 518.092 215.776 519.171 212.822C520.222 209.925 523.459 208.25 526.342 209.641C530.346 211.572 531.61 219.51 531.056 223.444C531.028 223.657 530.488 225.801 530.062 227.363C530.488 226.525 530.929 225.673 531.326 224.864C532.789 221.839 533.939 218.971 534.947 216.415C535.501 214.966 535.984 213.632 536.41 212.396C535.643 211.033 532.59 205.523 532.306 202.484C532.022 199.531 532.476 195.683 534.791 193.553C537.063 191.465 540.698 191.465 542.615 194.035C545.285 197.6 542.743 205.225 540.443 208.463C540.244 208.747 536.637 212.765 536.594 212.694C536.594 212.694 536.552 212.623 536.552 212.609C536.154 213.816 535.728 215.108 535.217 216.5C534.266 219.07 533.172 221.967 531.766 225.048C530.375 228.13 528.77 231.424 526.768 234.761C524.766 238.098 522.494 241.506 519.682 244.715C519.654 244.758 519.611 244.786 519.583 244.815C520.69 244.133 523.857 242.316 524.127 242.216C527.776 240.64 535.757 239.76 538.696 243.111C540.812 245.525 540.045 249.089 537.532 250.864C534.961 252.681 531.113 252.326 528.287 251.432C525.092 250.424 519.696 245.553 519.27 245.17C516.572 248.208 513.562 251.091 510.353 253.86C508.521 255.436 506.618 256.97 504.701 258.489C505.681 257.935 506.561 257.438 506.689 257.382C510.339 255.805 518.319 254.925 521.258 258.276C523.374 260.69 522.607 264.254 520.094 266.029C517.524 267.847 513.676 267.492 510.836 266.597C507.967 265.689 503.281 261.627 502.06 260.534C501.322 261.102 500.583 261.684 499.845 262.252C496.266 264.993 492.688 267.705 489.266 270.474C488.059 271.454 486.909 272.462 485.744 273.456C486.61 272.959 487.349 272.547 487.477 272.491C491.126 270.914 499.106 270.034 502.032 273.385C504.147 275.799 503.381 279.363 500.867 281.138C498.297 282.956 494.449 282.601 491.623 281.706C488.882 280.84 484.523 277.134 483.06 275.842C481.91 276.907 480.746 277.958 479.681 279.051C478.971 279.804 478.218 280.485 477.551 281.28C476.869 282.061 476.188 282.828 475.52 283.581C474.285 285.1 472.993 286.648 471.814 288.153C470.99 289.19 470.224 290.198 469.443 291.22C470.635 290.241 473.007 288.352 473.22 288.224C476.599 286.122 484.353 284.035 487.746 286.904C490.203 288.977 489.976 292.612 487.761 294.742C485.503 296.929 481.64 297.156 478.701 296.701C475.478 296.19 469.627 292.385 468.903 291.902C467.625 293.577 466.404 295.225 465.268 296.801C461.334 302.24 458.267 306.925 456.166 310.22C456.095 310.333 456.024 310.447 455.953 310.561L453.226 309.24C453.368 309.027 453.51 308.814 453.652 308.587C455.853 305.292 459.048 300.635 463.152 295.239C464.444 293.521 465.85 291.732 467.327 289.886C466.943 289.474 464.813 287.102 463.095 284.646C459.971 285.867 453.453 285.924 452.616 285.924C452.474 288.025 452.36 290.084 452.289 292.016C452.005 298.718 452.033 304.327 452.09 308.232C452.09 308.388 452.09 308.53 452.104 308.686L449.108 307.238C449.137 303.347 449.25 298.093 449.648 291.874C449.776 289.729 449.96 287.457 450.173 285.114C449.35 284.901 442.576 283.169 440.006 281.124C437.691 279.264 435.249 276.268 435.334 273.115C435.419 270.034 437.947 267.421 441.128 267.833C445.544 268.401 449.25 275.529 449.974 279.434C450.017 279.661 450.202 282.217 450.287 283.836C450.372 282.885 450.457 281.948 450.557 280.968C450.755 279.023 451.011 277.091 451.267 275.004C451.423 273.996 451.593 272.987 451.764 271.965C451.906 270.943 452.19 269.892 452.403 268.841C452.942 266.427 453.595 263.999 454.32 261.571C452.616 261.4 446.581 260.69 443.996 259.199C441.426 257.722 438.558 255.124 438.16 252C437.777 248.947 439.878 245.979 443.087 245.894C447.532 245.78 452.275 252.27 453.595 256.019C453.681 256.246 454.32 259.057 454.632 260.591C455.072 259.128 455.512 257.68 456.009 256.217C457.444 252 459.034 247.782 460.582 243.579C461.065 242.287 461.519 240.995 461.988 239.703C461.377 239.646 454.178 238.964 451.281 237.289C448.711 235.812 445.842 233.213 445.445 230.089C445.061 227.036 447.163 224.068 450.372 223.983C454.817 223.87 459.559 230.359 460.88 234.108C460.979 234.392 461.888 238.425 462.073 239.461C463.095 236.621 464.103 233.767 464.97 230.927C466.177 227.008 467.142 223.089 467.795 219.226C467.511 219.198 460 218.516 457.032 216.812C454.462 215.336 451.593 212.737 451.196 209.613C450.812 206.56 452.914 203.592 456.123 203.507C460.568 203.393 465.31 209.883 466.631 213.631C466.716 213.873 467.412 216.94 467.71 218.417C467.852 218.417 467.824 218.417 467.966 218.417C468.619 214.27 468.733 210.167 468.633 206.333C468.591 204.103 468.42 201.987 468.207 199.914C466.787 199.928 460.34 199.928 457.5 198.693C454.774 197.5 451.636 195.228 450.912 192.175C450.187 189.179 451.962 185.998 455.143 185.572C459.559 184.976 464.984 190.897 466.688 194.49C466.787 194.689 467.511 196.776 468.023 198.295C467.909 197.372 467.824 196.407 467.696 195.512C467.242 192.175 466.631 189.151 466.063 186.467C465.722 184.947 465.396 183.584 465.069 182.306C463.677 181.596 458.097 178.671 456.18 176.314C454.32 173.999 452.573 170.549 453.34 167.496C454.121 164.627 457.16 162.611 460.184 163.704Z" fill="white"/>
<path opacity="0.5" d="M540.668 232.333C537.189 232.191 530.231 228.627 530.231 228.627C530.16 228.584 533.98 224.764 534.25 224.537C537.36 222.052 544.829 219.098 548.535 221.555C551.205 223.33 551.404 226.965 549.458 229.337C547.456 231.779 543.636 232.446 540.668 232.333Z" fill="white"/>
</g>
<path d="M500.043 319.464C500.043 319.464 478.927 268.571 467.113 270.787C455.298 273.002 487.376 351.925 487.376 351.925C487.376 351.925 450.229 281.848 424.896 281.848C399.563 281.848 434.183 359.295 466.275 385.111C466.275 385.111 415.609 330.526 386.059 342.326C356.509 354.126 445.16 409.45 445.16 409.45C445.16 409.45 393.656 393.219 399.563 405.758C405.471 418.296 421.517 420.511 421.517 420.511L363.254 423.465H565.902L520.306 419.035C520.306 419.035 567.592 395.434 554.926 385.835C542.259 376.25 514.399 396.897 514.399 396.897C514.399 396.897 562.523 343.789 553.236 323.866C543.949 303.944 502.57 360.005 502.57 360.005C502.57 360.005 536.338 288.451 529.593 275.913C522.834 263.403 500.043 319.464 500.043 319.464Z" fill="#9E9E9E"/>
<path opacity="0.4" d="M500.043 319.464C500.043 319.464 478.927 268.571 467.113 270.787C455.298 273.002 487.376 351.925 487.376 351.925C487.376 351.925 450.229 281.848 424.896 281.848C399.563 281.848 434.183 359.295 466.275 385.111C466.275 385.111 415.609 330.526 386.059 342.326C356.509 354.126 445.16 409.45 445.16 409.45C445.16 409.45 393.656 393.219 399.563 405.758C405.471 418.296 421.517 420.511 421.517 420.511L363.254 423.465H565.902L520.306 419.035C520.306 419.035 567.592 395.434 554.926 385.835C542.259 376.25 514.399 396.897 514.399 396.897C514.399 396.897 562.523 343.789 553.236 323.866C543.949 303.944 502.57 360.005 502.57 360.005C502.57 360.005 536.338 288.451 529.593 275.913C522.834 263.403 500.043 319.464 500.043 319.464Z" fill="white"/>
<path d="M506.8 322.134C488.227 377.017 488.227 415.854 488.227 415.854C488.227 415.854 510.18 416.692 532.971 399.808" stroke="#263238" stroke-miterlimit="10" stroke-linecap="round" stroke-linejoin="round"/>
<path d="M497.514 351.698C497.514 351.698 493.297 331.435 482.32 303.574" stroke="#263238" stroke-miterlimit="10" stroke-linecap="round" stroke-linejoin="round"/>
<path d="M442.633 319.606L489.919 389.683C489.919 389.683 522.011 362.66 532.987 347.466" stroke="#263238" stroke-miterlimit="10" stroke-linecap="round" stroke-linejoin="round"/>
<path d="M489.065 406.581C489.065 406.581 439.252 382.938 418.988 369.434" stroke="#263238" stroke-miterlimit="10" stroke-linecap="round" stroke-linejoin="round"/>
<path d="M444.35 423.465H292.637C286.432 423.465 281.391 418.438 281.391 412.219V39.9232C281.391 33.7178 286.417 28.6768 292.637 28.6768H444.35C450.555 28.6768 455.596 33.7036 455.596 39.9232V412.219C455.596 418.424 450.569 423.465 444.35 423.465Z" fill="#F7F7F7" stroke="#263238" stroke-miterlimit="10" stroke-linecap="round" stroke-linejoin="round"/>
<path d="M449.772 97.788C448.494 97.788 447.457 96.7514 447.457 95.4734V64.4464C447.457 63.1684 448.494 62.1318 449.772 62.1318C451.05 62.1318 452.086 63.1684 452.086 64.4464V95.4734C452.1 96.7514 451.05 97.788 449.772 97.788Z" fill="#263238"/>
<path d="M449.772 126.529C448.494 126.529 447.457 125.492 447.457 124.214V106.876C447.457 105.598 448.494 104.562 449.772 104.562C451.05 104.562 452.086 105.598 452.086 106.876V124.214C452.1 125.492 451.05 126.529 449.772 126.529Z" fill="#263238"/>
<path d="M431.213 423.465H279.5C273.295 423.465 268.254 418.438 268.254 412.219V39.9232C268.254 33.7178 273.281 28.6768 279.5 28.6768H431.213C437.419 28.6768 442.46 33.7036 442.46 39.9232V412.219C442.46 418.424 437.419 423.465 431.213 423.465Z" fill="#312000" stroke="#312000" stroke-miterlimit="10" stroke-linecap="round" stroke-linejoin="round"/>
<path d="M420.858 54.9609H289.855C284.333 54.9609 279.855 59.4381 279.855 64.9609V383.574C279.855 389.097 284.333 393.574 289.855 393.574H420.858C426.381 393.574 430.858 389.097 430.858 383.574V64.9609C430.858 59.4381 426.381 54.9609 420.858 54.9609Z" fill="#586ED1"/>
<path d="M332.934 44.1406H373.134" stroke="#F7F7F7" stroke-width="3" stroke-miterlimit="10" stroke-linecap="round" stroke-linejoin="round"/>
<path d="M346.069 410.586C348.203 410.586 349.932 408.335 349.932 405.559C349.932 402.783 348.203 400.532 346.069 400.532C343.936 400.532 342.207 402.783 342.207 405.559C342.207 408.335 343.936 410.586 346.069 410.586Z" fill="#F7F7F7"/>
<path d="M355.357 139.224C369.818 139.224 381.541 125.555 381.541 108.694C381.541 91.8323 369.818 78.1636 355.357 78.1636C340.895 78.1636 329.172 91.8323 329.172 108.694C329.172 125.555 340.895 139.224 355.357 139.224Z" fill="#F7F7F7"/>
<path d="M355.358 108.31C360.848 108.31 365.298 103.116 365.298 96.7088C365.298 90.3015 360.848 85.1074 355.358 85.1074C349.868 85.1074 345.418 90.3015 345.418 96.7088C345.418 103.116 349.868 108.31 355.358 108.31Z" fill="#312000" stroke="#263238" stroke-miterlimit="10" stroke-linecap="round" stroke-linejoin="round"/>
<path d="M355.355 111.392C345.373 111.392 337.293 119.003 337.293 128.403C337.293 129.298 337.392 130.15 337.52 131.002C342.192 136.085 348.454 139.224 355.355 139.224C362.257 139.224 368.505 136.085 373.191 131.002C373.333 130.15 373.418 129.284 373.418 128.403C373.418 119.017 365.324 111.392 355.355 111.392Z" fill="#312000" stroke="#263238" stroke-miterlimit="10" stroke-linecap="round" stroke-linejoin="round"/>
<path d="M387.194 241.648H323.521C320.156 241.648 317.43 238.695 317.43 235.045V195.768C317.43 173.119 334.441 154.688 355.372 154.688C376.289 154.688 393.314 173.119 393.314 195.768V235.045C393.286 238.695 390.56 241.648 387.194 241.648ZM329.613 228.442H381.102V195.768C381.102 180.389 369.558 167.893 355.358 167.893C341.158 167.893 329.613 180.404 329.613 195.768V228.442Z" fill="#312000"/>
<path d="M379.562 214.853H331.152C320.107 214.853 311.152 223.807 311.152 234.853V278.491C311.152 289.537 320.107 298.491 331.152 298.491H379.561C390.607 298.491 399.561 289.537 399.561 278.491V234.853C399.561 223.807 390.607 214.853 379.562 214.853Z" fill="#F7F7F7"/>
<path d="M368.235 272.434L361.675 256.658C364.458 254.613 366.275 251.163 366.275 247.243C366.275 240.967 361.575 235.869 355.782 235.869C349.988 235.869 345.288 240.967 345.288 247.243C345.288 251.163 347.12 254.613 349.889 256.658L343.328 272.434H368.235Z" fill="#263238" stroke="#312000" stroke-miterlimit="10" stroke-linecap="round" stroke-linejoin="round"/>
<path opacity="0.5" d="M328.418 373.651C328.56 373.751 328.717 373.808 328.873 373.808C329.114 373.808 329.341 373.694 329.498 373.495L430.843 235.627V233.015L328.248 372.586C328.007 372.913 328.078 373.396 328.418 373.651Z" fill="#F7F7F7"/>
<path opacity="0.5" d="M410.465 104.632C410.21 104.973 410.281 105.456 410.636 105.712C410.778 105.811 410.934 105.868 411.09 105.868C411.331 105.868 411.559 105.754 411.715 105.555L430.856 79.5127V76.8999L410.465 104.632Z" fill="#F7F7F7"/>
<path opacity="0.5" d="M279.854 284.93L404.928 114.771C405.183 114.431 405.112 113.948 404.757 113.692C404.416 113.437 403.934 113.508 403.678 113.863L279.84 282.317V284.93H279.854Z" fill="#F7F7F7"/>
<path opacity="0.5" d="M316.66 390.436C316.902 390.436 317.129 390.322 317.285 390.124L324.328 380.539C324.584 380.198 324.513 379.715 324.158 379.459C323.817 379.204 323.334 379.275 323.079 379.63L316.035 389.215C315.78 389.556 315.851 390.038 316.206 390.294C316.334 390.393 316.49 390.436 316.66 390.436Z" fill="#F7F7F7"/>
<path opacity="0.5" d="M430.858 263.218L347.66 376.406C347.405 376.747 347.476 377.23 347.831 377.486C347.973 377.585 348.129 377.642 348.285 377.642C348.527 377.642 348.754 377.528 348.91 377.329L430.872 265.845V263.218H430.858Z" fill="#F7F7F7"/>
<path d="M138.608 104.135C138.608 104.135 140.596 100.472 140.596 94.1244C140.596 87.777 132.899 84.0992 123.882 83.091C114.851 82.0828 110.847 85.7606 112.182 88.1036C113.516 90.4466 117.194 93.1162 117.194 93.1162C117.194 93.1162 108.163 88.1036 102.142 92.108C96.1214 96.1266 104.812 94.451 103.15 98.4554C101.489 102.46 92.117 100.798 89.774 111.491C87.431 122.184 94.1192 132.89 88.0984 137.576C82.0776 142.262 64.0294 135.901 58.676 147.602C53.3226 159.302 60.8912 164.485 48.1822 171.841C35.4732 179.197 26.2432 186.382 29.921 204.444C33.5988 222.492 45.6404 228.854 69.3686 222.492C93.111 216.145 91.4354 201.76 99.1318 187.049C106.828 172.338 118.856 175.348 122.533 166.985C126.211 158.621 121.525 148.596 121.866 140.899C122.207 133.203 129.889 131.541 132.899 122.51C135.91 113.522 138.608 104.135 138.608 104.135Z" fill="#312000" stroke="#312000" stroke-miterlimit="10" stroke-linecap="round" stroke-linejoin="round"/>
<path d="M32.6886 204.188C32.0922 205.381 31.7656 206.716 31.7656 208.235" stroke="white" stroke-width="0.5" stroke-miterlimit="10" stroke-linecap="round" stroke-linejoin="round"/>
<path d="M125.772 97.504C125.772 97.504 121.583 92.676 129.635 94.9338C139.759 97.7738 127.874 109.475 123.287 111.832C114.114 116.546 101.987 115.041 94.8588 123.575C88.4262 131.3 97.1166 139.351 93.2542 145.472C89.3918 151.592 73.9422 148.042 68.7876 155.454C63.633 162.852 78.117 178.629 63.3206 187.319C52.6138 193.61 40.8846 196.024 35.2188 201.022" stroke="white" stroke-width="0.5" stroke-miterlimit="10" stroke-linecap="round" stroke-linejoin="round"/>
<path d="M101.758 126.074C100.977 128.19 100.508 130.519 100.991 132.592C102.283 138.059 109.681 148.368 102.922 154.162C96.1628 159.955 84.5756 159.629 82.6444 166.388C80.7132 173.147 84.5756 191.82 78.143 200.511C71.7104 209.201 59.1435 208.562 52.3843 214.356C45.6251 220.149 46.5907 223.373 46.5907 223.373" stroke="white" stroke-width="0.5" stroke-miterlimit="10" stroke-linecap="round" stroke-linejoin="round"/>
<path d="M105.168 119.713C105.168 119.713 104.416 120.721 103.535 122.283" stroke="white" stroke-width="0.5" stroke-miterlimit="10" stroke-linecap="round" stroke-linejoin="round"/>
<path d="M142.94 203.678L144.587 216.472C144.587 216.472 153.121 225.006 159.355 230.26C165.589 235.514 181.677 246.675 181.677 246.675L173.47 248.976C173.47 248.976 146.887 233.214 141.633 231.907C136.379 230.601 132.446 223.046 130.799 220.746C129.152 218.446 138.666 201.377 142.94 203.678Z" fill="white" stroke="#312000" stroke-miterlimit="10" stroke-linecap="round" stroke-linejoin="round"/>
<path d="M159.183 411.608C159.183 411.608 167.206 418.396 170.501 420.668C173.795 422.94 177.7 423.962 177.089 425.197C176.465 426.433 174.817 427.668 167.007 426.646C159.183 425.609 156.925 422.94 155.477 422.528C154.043 422.116 150.535 423.138 147.866 421.491C145.196 419.844 149.442 410.032 149.442 410.032C149.442 410.032 153.418 414.902 159.183 411.608Z" fill="white" stroke="#312000" stroke-miterlimit="10" stroke-linecap="round" stroke-linejoin="round"/>
<path d="M177.103 425.198C177.131 425.127 177.146 425.07 177.16 425.013C172.403 425.652 167.873 424.715 163.741 423.749C158.671 422.556 157.195 419.873 152.423 419.873C150.009 419.873 148.149 419.418 146.871 418.964C146.899 420.114 147.169 421.065 147.865 421.506C150.535 423.153 154.042 422.116 155.476 422.542C156.91 422.954 159.183 425.624 167.007 426.66C174.831 427.668 176.478 426.433 177.103 425.198Z" fill="white" stroke="#312000" stroke-miterlimit="10" stroke-linecap="round" stroke-linejoin="round"/>
<path d="M117.108 137.165C117.108 137.165 118.655 147.587 116.667 151.791C114.679 156.008 108.46 156.448 103.149 157.329C97.8239 158.209 85.6404 162.867 86.9752 174.837C88.31 186.808 103.603 212.737 103.603 220.05C103.603 227.363 98.9457 231.126 93.8479 245.312C88.7501 259.498 89.4175 285.881 90.9653 302.935C92.5131 320.004 97.6109 336.178 97.6109 336.178C97.6109 336.178 84.76 356.796 79.2078 365.657C73.6698 374.518 53.7188 413.085 53.7188 413.085C53.7188 413.085 53.7188 414.42 56.8286 415.3C59.9384 416.18 63.4742 415.74 63.4742 415.74C63.4742 415.74 101.601 369.86 108.687 362.107C115.773 354.354 122.433 340.835 123.313 334.616C124.193 328.41 123.086 290.51 123.086 290.51C123.086 290.51 131.066 309.567 137.272 319.322C143.477 329.078 147.68 337.725 147.68 337.725C147.68 337.725 146.147 350.804 147.694 361.88C149.242 372.956 147.936 408.541 149.484 411.423C151.031 414.306 157.038 413.099 158.359 411.778C159.693 410.444 160.318 401.782 160.318 401.782C160.318 401.782 162.974 374.745 164.536 362.107C166.083 349.469 168.753 338.606 167.858 335.723C166.978 332.841 161.426 302.027 157.223 287.401C153.005 272.775 140.154 245.511 137.272 238.411C134.389 231.325 132.841 224.892 133.281 222.677C133.722 220.462 142.369 207.156 144.585 203.621C146.8 200.071 147.694 193.652 145.025 187.887C142.369 182.122 145.025 174.369 144.585 169.711C144.144 165.053 137.272 163.065 133.722 161.29C130.172 159.515 128.851 155.525 128.851 152.202C128.851 148.88 130.839 144.222 130.839 144.222C130.839 144.222 119.99 137.165 117.108 137.165Z" fill="#F7F7F7" stroke="#312000" stroke-miterlimit="10" stroke-linecap="round" stroke-linejoin="round"/>
<path d="M143.973 184.579C143.973 184.579 141.46 177.99 141.062 175.477" stroke="#312000" stroke-miterlimit="10" stroke-linecap="round" stroke-linejoin="round"/>
<path d="M115.191 209.258C115.191 209.258 119.21 210.153 127.233 206.134" stroke="#312000" stroke-miterlimit="10" stroke-linecap="round" stroke-linejoin="round"/>
<path d="M157.225 287.443C153.206 273.456 141.278 247.953 137.728 239.533C120.646 245.923 104.756 240.47 97.2726 236.948C96.1792 239.305 95.029 242.032 93.8362 245.326C88.7384 259.512 89.4058 285.896 90.9536 302.95C92.5014 320.018 97.5992 336.192 97.5992 336.192C97.5992 336.192 84.7482 356.81 79.196 365.671C73.658 374.532 53.707 413.099 53.707 413.099C53.707 413.099 53.707 414.434 56.8168 415.314C59.9266 416.195 63.4624 415.755 63.4624 415.755C63.4624 415.755 101.589 369.874 108.675 362.121C115.761 354.368 122.421 340.85 123.301 334.63C124.182 328.425 123.074 290.525 123.074 290.525C123.074 290.525 131.054 309.581 137.26 319.337C143.465 329.092 147.668 337.74 147.668 337.74C147.668 337.74 146.135 350.818 147.683 361.894C149.23 372.97 147.924 408.555 149.472 411.438C151.02 414.32 157.026 413.113 158.347 411.793C159.682 410.458 160.306 401.796 160.306 401.796C160.306 401.796 162.962 374.759 164.524 362.121C166.072 349.483 168.741 338.62 167.847 335.738C166.98 332.883 161.442 302.069 157.225 287.443Z" fill="#312000" stroke="#312000" stroke-miterlimit="10" stroke-linecap="round" stroke-linejoin="round"/>
<path d="M244.045 273.37V270.473H246.473V247.725H244.045H220.075H217.647V270.473H220.075V273.37H217.633V278.653H226.991V276.878H237.129V278.653H246.473V273.37H244.045Z" fill="#586ED1" stroke="#312000" stroke-miterlimit="10" stroke-linecap="round" stroke-linejoin="round"/>
<path d="M256.34 251.076H89.1211V240.923H256.34C257.746 240.923 258.868 242.059 258.868 243.451V248.535C258.868 249.94 257.732 251.076 256.34 251.076Z" fill="#586ED1" stroke="#312000" stroke-miterlimit="10" stroke-linecap="round" stroke-linejoin="round"/>
<path d="M209.152 252.596H198.957C198.176 252.596 197.551 251.971 197.551 251.19V240.796C197.551 240.015 198.176 239.39 198.957 239.39H209.152C209.933 239.39 210.558 240.015 210.558 240.796V251.19C210.544 251.971 209.919 252.596 209.152 252.596Z" fill="#586ED1" stroke="#312000" stroke-miterlimit="10" stroke-linecap="round" stroke-linejoin="round"/>
<path d="M68.3041 272.391C82.8832 272.391 94.7018 260.572 94.7018 245.993C94.7018 231.414 82.8832 219.595 68.3041 219.595C53.725 219.595 41.9062 231.414 41.9062 245.993C41.9062 260.572 53.725 272.391 68.3041 272.391Z" fill="#586ED1" stroke="#312000" stroke-miterlimit="10" stroke-linecap="round" stroke-linejoin="round"/>
<path d="M73.7292 245.993C76.8532 244.36 78.969 241.364 78.969 237.927C78.969 232.744 74.1978 228.541 68.3048 228.541C62.4118 228.541 57.6406 232.744 57.6406 237.927C57.6406 241.364 59.7422 244.36 62.8804 245.993C59.7564 247.626 57.6406 250.622 57.6406 254.058C57.6406 259.241 62.4118 263.445 68.3048 263.445C74.1978 263.445 78.969 259.241 78.969 254.058C78.969 250.636 76.8532 247.64 73.7292 245.993Z" fill="white" stroke="#E5E5E5" stroke-miterlimit="10" stroke-linecap="round" stroke-linejoin="round"/>
<path d="M176.449 251.29C176.449 251.29 184.699 254.769 187.27 254.769C189.84 254.769 192.765 252.198 194.242 249.089C195.704 245.965 195.704 244.502 194.796 245.24C193.873 245.979 192.964 246.703 192.964 246.703C192.964 246.703 194.426 243.579 192.779 243.948C191.132 244.317 190.209 246.149 190.209 246.149C190.209 246.149 190.024 243.394 188.562 244.687C187.099 245.965 185.992 247.626 185.992 247.626C185.992 247.626 185.807 244.147 184.898 245.056C183.975 245.979 180.496 250.92 180.496 250.92L176.449 251.29Z" fill="white" stroke="#312000" stroke-miterlimit="10" stroke-linecap="round" stroke-linejoin="round"/>
<path d="M185.99 247.626C185.99 247.626 185.436 252.028 182.695 252.766L185.99 247.626Z" fill="white"/>
<path d="M185.99 247.626C185.99 247.626 185.436 252.028 182.695 252.766" stroke="#312000" stroke-miterlimit="10" stroke-linecap="round" stroke-linejoin="round"/>
<path d="M190.21 246.164C190.21 246.164 188.748 253.136 186.547 254.229L190.21 246.164Z" fill="white"/>
<path d="M190.21 246.164C190.21 246.164 188.748 253.136 186.547 254.229" stroke="#312000" stroke-miterlimit="10" stroke-linecap="round" stroke-linejoin="round"/>
<path d="M192.963 246.703C192.963 246.703 191.316 252.199 190.023 254.045L192.963 246.703Z" fill="white"/>
<path d="M192.963 246.703C192.963 246.703 191.316 252.199 190.023 254.045" stroke="#312000" stroke-miterlimit="10" stroke-linecap="round" stroke-linejoin="round"/>
<path d="M133.285 161.049C130.104 159.175 128.868 155.412 128.868 152.245C128.868 148.922 130.856 144.265 130.856 144.265C130.856 144.265 119.993 137.165 117.111 137.165C117.111 137.165 118.659 147.587 116.671 151.791C116.032 153.125 114.981 154.091 113.66 154.801C115.109 159.728 121.016 170.733 124.239 174.695C128.272 179.694 130.232 169.129 133.285 161.049Z" fill="white" stroke="#312000" stroke-miterlimit="10" stroke-linecap="round" stroke-linejoin="round"/>
<path d="M99.7554 158.777C99.7554 158.777 91.3206 159.715 86.947 168.149C82.5734 176.584 63.4744 214.867 65.0932 217.154C74.38 230.218 108.162 239.618 111.598 243.054C115.035 246.491 119.422 250.595 122.859 252.781C126.295 254.968 133.168 254.031 134.418 253.406C135.667 252.781 136.604 249.97 134.418 249.97C132.231 249.97 131.109 248.394 130.797 247.144C130.484 245.894 134.233 248.394 136.107 247.456C137.982 246.519 131.918 243.097 130.044 241.535C128.17 239.973 126.608 237.786 124.108 237.786C121.609 237.786 116.923 237.729 116.923 237.729C116.923 237.729 105.421 229.394 98.4632 223.189C89.0912 214.825 80.841 210.323 80.841 210.323L101.928 175.633" fill="white"/>
<path d="M99.7554 158.777C99.7554 158.777 91.3206 159.715 86.947 168.149C82.5734 176.584 63.4744 214.867 65.0932 217.154C74.38 230.218 108.162 239.618 111.598 243.054C115.035 246.491 119.422 250.595 122.859 252.781C126.295 254.968 133.168 254.031 134.418 253.406C135.667 252.781 136.604 249.97 134.418 249.97C132.231 249.97 131.109 248.394 130.797 247.144C130.484 245.894 134.233 248.394 136.107 247.456C137.982 246.519 131.918 243.097 130.044 241.535C128.17 239.973 126.608 237.786 124.108 237.786C121.609 237.786 116.923 237.729 116.923 237.729C116.923 237.729 105.421 229.394 98.4632 223.189C89.0912 214.825 80.841 210.323 80.841 210.323L101.928 175.633" stroke="#312000" stroke-miterlimit="10" stroke-linecap="round" stroke-linejoin="round"/>
<path d="M130.057 241.521C128.183 239.959 126.621 237.772 124.121 237.772C121.622 237.772 116.936 237.715 116.936 237.715C116.936 237.715 105.434 229.38 98.4762 223.174C89.1042 214.811 80.854 210.309 80.854 210.309L89.2888 196.436C83.7508 192.971 77.9288 192.403 74.9894 192.36C69.3662 204.203 64.2258 215.904 65.092 217.139C74.3788 230.203 108.161 239.604 111.597 243.04C115.033 246.477 119.421 250.58 122.858 252.767C126.294 254.954 133.167 254.017 134.416 253.392C135.666 252.767 136.603 249.956 134.416 249.956C132.23 249.956 131.108 248.379 130.795 247.13C130.483 245.88 134.232 248.379 136.106 247.442C137.995 246.505 131.931 243.083 130.057 241.521Z" fill="white" stroke="#312000" stroke-miterlimit="10" stroke-linecap="round" stroke-linejoin="round"/>
<path d="M141.489 121.871C140.381 119.656 140.381 117.881 140.821 114.771C141.262 111.661 138.606 104.135 138.606 104.135C138.606 104.135 138.578 104.149 138.564 104.164C135.851 108.864 128.013 111.647 124.534 112.712C120.714 113.891 126.295 116.532 125.713 120.053C125.13 123.575 117.491 125.634 117.491 125.634C117.491 125.634 115.304 120.934 112.208 120.934C109.099 120.934 106.912 128.034 108.687 131.797C110.462 135.56 114.239 134.708 114.239 134.708C114.239 134.708 114.012 141.353 118.229 143.356C122.447 145.344 129.532 148.013 132.188 148.453C134.843 148.894 137.513 147.573 138.62 143.583C139.728 139.593 140.395 131.385 140.395 131.385C140.395 131.385 144.386 128.73 145.493 127.168C146.587 125.634 142.596 124.086 141.489 121.871Z" fill="white" stroke="#312000" stroke-miterlimit="10" stroke-linecap="round" stroke-linejoin="round"/>
<path d="M136.291 124.172C136.777 124.172 137.171 123.186 137.171 121.971C137.171 120.755 136.777 119.77 136.291 119.77C135.804 119.77 135.41 120.755 135.41 121.971C135.41 123.186 135.804 124.172 136.291 124.172Z" fill="#312000"/>
<path d="M133.352 118.307C133.352 118.307 135.695 115.666 137.47 116.248" stroke="#312000" stroke-miterlimit="10" stroke-linecap="round" stroke-linejoin="round"/>
<path d="M137.471 136.511C137.471 136.511 134.234 137.69 131.309 135.048" stroke="#312000" stroke-miterlimit="10" stroke-linecap="round" stroke-linejoin="round"/>
<path d="M53.7204 413.127C53.7204 413.127 48.4238 423.749 48.6226 425.197C48.8214 426.645 59.3294 434.257 64.271 436.926C69.2126 439.596 78.0592 440.008 77.4486 436.316C76.8238 432.609 68.389 430.139 66.33 424.586C64.271 419.034 63.4758 415.797 63.4758 415.797C63.4758 415.797 58.4064 416.081 53.7204 413.127Z" fill="white" stroke="#312000" stroke-miterlimit="10" stroke-linecap="round" stroke-linejoin="round"/>
<path d="M77.4476 436.373C74.6218 436.756 70.731 436.671 66.329 434.754C58.7036 431.445 51.3196 424.686 49.3032 422.783C48.8488 423.948 48.579 424.842 48.6216 425.197C48.8204 426.646 59.3284 434.257 64.27 436.926C69.1832 439.596 77.9588 440.008 77.4476 436.373Z" fill="white" stroke="#312000" stroke-miterlimit="10" stroke-linecap="round" stroke-linejoin="round"/>
</svg>
