<svg width="25" height="57" viewBox="0 0 25 57" fill="none" xmlns="http://www.w3.org/2000/svg">
<path d="M9.52518 32.7296C9.52518 32.7296 9.68828 31.8597 9.85139 31.4791L12.3524 24.5742C11.9174 24.5742 11.5368 24.683 11.2106 24.9004L4.08829 30.1742C3.59897 30.3917 3.32712 30.7723 3.16401 31.2072C3.00091 31.6422 3.05528 32.1859 3.32712 32.6752L4.95819 38.547L6.42615 44.582L12.298 39.6344C11.2106 39.1995 9.25333 35.7198 9.52518 32.7296Z" fill="#FB9C1C"/>
<path d="M6.42578 27.1301C6.42578 28.2175 7.29568 29.0874 8.38306 29.0874H22.8996C23.9869 29.0874 24.8568 28.2175 24.8568 27.1301V1.95728C24.8568 0.869903 23.9869 0 22.8996 0H8.38306C7.29568 0 6.42578 0.869903 6.42578 1.95728V27.1301Z" fill="#E54217"/>
<path d="M21.3217 0H18.2227V29.0874H21.3217V0Z" fill="#414042"/>
<path d="M16.2109 15.0078V27.567H16.809V15.0078H16.2109Z" fill="white"/>
<path d="M14.9079 15.0078H14.3643V27.567H14.9079V15.0078Z" fill="white"/>
<path d="M13.3845 15.0078H12.8408V27.567H13.3845V15.0078Z" fill="white"/>
<path d="M16.7541 2.2832H10.2842V8.86184H16.7541V2.2832Z" fill="#FBFFF9"/>
<path d="M20.0723 29.9662L19.9092 24.9643C20.0723 23.3876 19.0937 21.974 17.7345 21.7565C16.3752 21.5934 15.1248 22.7352 15.016 24.3119L15.451 29.7488C15.016 30.4556 13.2762 35.0769 11.5908 35.0225C10.3403 34.9682 7.35 31.5973 6.53447 27.7915C6.53447 27.7915 6.37136 26.6497 6.37136 26.1604V16.5371C5.99077 16.7002 5.61019 17.0264 5.39272 17.4614L0.499513 27.0847C0.118931 27.5196 -0.0441747 28.1177 0.0101942 28.7158C0.0101942 29.3682 0.227668 29.9662 0.66262 30.4012L3.97913 42.7973L7.45874 49.539H18.4413C18.3869 49.6478 21.649 35.0769 20.0723 29.9662Z" fill="#FDC00F"/>
<path d="M19.0933 55.675V49.2051H7.02344V55.1313C9.52441 55.675 12.0797 56.0012 14.6895 56.0012C16.2118 55.9468 17.6797 55.8381 19.0933 55.675Z" fill="white"/>
</svg>
