<svg width="18" height="18" viewBox="0 0 18 18" fill="none" xmlns="http://www.w3.org/2000/svg">
<path d="M15.75 3V5.25C15.75 5.7 15.45 6 15 6C14.55 6 14.25 5.7 14.25 5.25V3.75H9.75V14.25H11.25C11.7 14.25 12 14.55 12 15C12 15.45 11.7 15.75 11.25 15.75H6.75C6.3 15.75 6 15.45 6 15C6 14.55 6.3 14.25 6.75 14.25H8.25V3.75H3.75V5.25C3.75 5.7 3.45 6 3 6C2.55 6 2.25 5.7 2.25 5.25V3C2.25 2.55 2.55 2.25 3 2.25H15C15.45 2.25 15.75 2.55 15.75 3Z" fill="black"/>
<mask id="mask0_531:1475" style="mask-type:alpha" maskUnits="userSpaceOnUse" x="2" y="2" width="14" height="14">
<path d="M15.75 3V5.25C15.75 5.7 15.45 6 15 6C14.55 6 14.25 5.7 14.25 5.25V3.75H9.75V14.25H11.25C11.7 14.25 12 14.55 12 15C12 15.45 11.7 15.75 11.25 15.75H6.75C6.3 15.75 6 15.45 6 15C6 14.55 6.3 14.25 6.75 14.25H8.25V3.75H3.75V5.25C3.75 5.7 3.45 6 3 6C2.55 6 2.25 5.7 2.25 5.25V3C2.25 2.55 2.55 2.25 3 2.25H15C15.45 2.25 15.75 2.55 15.75 3Z" fill="white"/>
</mask>
<g mask="url(#mask0_531:1475)">
<rect width="18" height="18" fill="black"/>
<rect width="18" height="18" fill="#586ED1"/>
</g>
</svg>
