<svg width="235" height="1080" viewBox="0 0 235 1080" fill="none" xmlns="http://www.w3.org/2000/svg">
<path opacity="0.4" d="M146.356 0H2.35632C2.35632 0 92.8563 426 40.8563 595C-21.9588 799.149 6.37317 1090 6.37317 1090L146.356 1080.5C146.356 1080.5 77.3554 724.5 146.356 540.248C215.357 355.996 146.356 0 146.356 0Z" fill="white"/>
<path opacity="0.4" d="M203.356 0H59.3563C59.3563 0 149.856 426 97.8563 595C35.0412 799.149 63.3732 1090 63.3732 1090L203.356 1080.5C203.356 1080.5 134.355 724.5 203.356 540.248C272.357 355.996 203.356 0 203.356 0Z" fill="white"/>
</svg>
