
<svg width="48" height="48" viewBox="0 0 48 48" fill="none" xmlns="http://www.w3.org/2000/svg">
<path d="M39.3488 20.7188L39.3487 20.7693C42.1396 22.5021 44 25.6102 44 29.1562C44 34.4357 39.8761 38.7444 34.6977 38.989V39H13.3023V38.989C8.12389 38.7444 4 34.4357 4 29.1562C4 23.7197 8.37303 19.3125 13.7674 19.3125C14.5874 19.3125 15.3838 19.4143 16.1448 19.6061C16.7008 13.6559 21.6714 9 27.7209 9C34.1428 9 39.3488 14.2467 39.3488 20.7188Z" stroke="#707070" stroke-width="3" stroke-linejoin="round"/>
<path d="M24 21V33.5M19 26L24 21L19 26ZM24 21L29 26L24 21Z" stroke="#707070" stroke-width="3" stroke-linecap="round" stroke-linejoin="round"/>
</svg>
