
<svg width="24" height="24" viewBox="0 0 48 48" fill="none" xmlns="http://www.w3.org/2000/svg">
<path d="M22.8738 11.1318L6.42411 22.3475C5.25967 23.1415 5.25967 24.8585 6.42411 25.6525L22.8738 36.8682C24.2014 37.7734 26.0005 36.8226 26.0005 35.2157V12.7843C26.0005 11.1774 24.2014 10.2266 22.8738 11.1318Z" fill="#fff"/>
<path d="M40.8738 11.1318L24.4241 22.3475C23.2597 23.1415 23.2597 24.8585 24.4241 25.6525L40.8738 36.8682C42.2014 37.7734 44.0005 36.8226 44.0005 35.2157V12.7843C44.0005 11.1774 42.2014 10.2266 40.8738 11.1318Z" fill="#fff"/>
<path d="M22.8738 11.1318L6.42411 22.3475C5.25967 23.1415 5.25967 24.8585 6.42411 25.6525L22.8738 36.8682C24.2014 37.7734 26.0005 36.8226 26.0005 35.2157V12.7843C26.0005 11.1774 24.2014 10.2266 22.8738 11.1318Z" fill="#fff"/>
<path d="M40.8738 11.1318L24.4241 22.3475C23.2597 23.1415 23.2597 24.8585 24.4241 25.6525L40.8738 36.8682C42.2014 37.7734 44.0005 36.8226 44.0005 35.2157V12.7843C44.0005 11.1774 42.2014 10.2266 40.8738 11.1318Z" fill="#fff"/>
</svg>
