<svg width="11" height="18" viewBox="0 0 11 18" fill="none" xmlns="http://www.w3.org/2000/svg">
<path d="M10.1637 2.48976L10.5996 2.73464L10.1637 2.48976ZM9.57805 1.04183L9.43495 1.52092L9.57805 1.04183ZM9.43887 14.751L9.78648 14.3916L9.43887 14.751ZM10.1637 15.5102L10.5996 15.2654L10.1637 15.5102ZM9.57805 16.9582L9.43495 16.4791L9.57805 16.9582ZM7.5 9C7.5 11.1164 8.37598 13.0274 9.78648 14.3916L9.09127 15.1104C7.49403 13.5656 6.5 11.3984 6.5 9H7.5ZM9.78648 3.6084C8.37598 4.97262 7.5 6.88358 7.5 9H6.5C6.5 6.60156 7.49403 4.43443 9.09127 2.8896L9.78648 3.6084ZM9 1.5C4.85786 1.5 1.5 4.85786 1.5 9H0.5C0.5 4.30558 4.30558 0.5 9 0.5V1.5ZM1.5 9C1.5 13.1421 4.85786 16.5 9 16.5V17.5C4.30558 17.5 0.5 13.6944 0.5 9H1.5ZM9.09127 2.8896C9.31151 2.67658 9.46809 2.52507 9.5792 2.41074C9.70057 2.28585 9.72816 2.2442 9.72778 2.24488L10.5996 2.73464C10.5277 2.86275 10.4106 2.99011 10.2963 3.10769C10.1718 3.23582 10.0017 3.40021 9.78648 3.6084L9.09127 2.8896ZM9 0.5C9.26404 0.5 9.49518 0.495247 9.72115 0.562746L9.43495 1.52092C9.38084 1.50475 9.31997 1.5 9 1.5V0.5ZM9.72778 2.24488C9.88465 1.96563 9.74185 1.61259 9.43495 1.52092L9.72115 0.562746C10.6422 0.837854 11.0704 1.89659 10.5996 2.73464L9.72778 2.24488ZM9.78648 14.3916C10.0017 14.5998 10.1718 14.7642 10.2963 14.8923C10.4106 15.0099 10.5277 15.1372 10.5996 15.2654L9.72778 15.7551C9.72816 15.7558 9.70057 15.7141 9.5792 15.5893C9.46809 15.4749 9.31151 15.3234 9.09127 15.1104L9.78648 14.3916ZM9 16.5C9.31997 16.5 9.38084 16.4952 9.43495 16.4791L9.72115 17.4373C9.49518 17.5048 9.26404 17.5 9 17.5V16.5ZM10.5996 15.2654C11.0704 16.1034 10.6422 17.1621 9.72115 17.4373L9.43495 16.4791C9.74185 16.3874 9.88465 16.0344 9.72778 15.7551L10.5996 15.2654Z" fill="#586ED1"/>
</svg>
